<svg id="Layer_1" data-name="Layer 1" xmlns="http://www.w3.org/2000/svg" viewBox="0 0 928.9 356.7"><defs><style>.cls-1{fill:#dd6620;}.cls-2,.cls-3{fill:#3c544a;}.cls-2{fill-rule:evenodd;}</style></defs><path class="cls-1" d="M148.8,320.9v82.6c0,3.4-2.9,5.2-8.7,5.6v3.5H203v-3.5c-5.7-.4-8.5-2.2-8.5-5.6V320.9c0-17.2-3.7-31.1-10.9-41.8A61,61,0,0,0,153.9,256c-12.5-4.6-27-7-43.5-7s-31.1,2.4-43.6,7a61,61,0,0,0-29.7,23.1c-7.2,10.7-10.9,24.6-10.9,41.8v39.2H71.9V320.9c0-11.4,3.3-19.7,9.8-25.1s16.2-8.1,28.7-8.1q38.4,0,38.4,33.2Z" transform="translate(-15.5 -56)"/><path class="cls-2" d="M71.4,123.2l35.5,6.4s-28.3,25-35.5-6.4Z" transform="translate(-15.5 -56)"/><path class="cls-2" d="M163.2,123.2l-35.5,6.4s28.3,25,35.5-6.4Z" transform="translate(-15.5 -56)"/><path class="cls-1" d="M87.4,101.7h91.8V56H87.4c-17.1,0-31.1,3.6-41.8,10.9A61,61,0,0,0,22.5,96.6c-4.6,12.5-7,26.9-7,43.5s2.4,31.1,7,43.6a60.7,60.7,0,0,0,23.1,29.6c10.7,7.3,24.7,11,41.8,11h91.8V178.5H87.4c-11.4,0-19.7-3.2-25.1-9.8s-8.1-16.1-8.1-28.6q0-38.4,33.2-38.4Z" transform="translate(-15.5 -56)"/><path class="cls-3" d="M267.2,98.8a91.8,91.8,0,0,1,35.3,6.9,64.6,64.6,0,0,1,27.4,20.9c7.1,9.4,10.6,21.1,10.6,35S337,187,329.8,196.5a64.3,64.3,0,0,1-27.7,21,93.1,93.1,0,0,1-34.9,6.8,92,92,0,0,1-34.9-6.9,65.1,65.1,0,0,1-27.9-21c-7.1-9.5-10.7-21.1-10.7-34.8s3.5-25.6,10.7-35a63.1,63.1,0,0,1,27.5-20.9,92.1,92.1,0,0,1,35.3-6.9Zm0,29.5a44.3,44.3,0,0,0-19.2,4,33.9,33.9,0,0,0-13.6,11.8,31.1,31.1,0,0,0-4.9,17.4q0,15.1,10.8,24.3c7.3,6,16.3,9,26.9,9a43.8,43.8,0,0,0,19.1-4,33.5,33.5,0,0,0,13.5-11.7,31.3,31.3,0,0,0,5-17.6,33.1,33.1,0,0,0-2.9-13.8,29.7,29.7,0,0,0-7.9-10.5,34.5,34.5,0,0,0-12.1-6.6,48.1,48.1,0,0,0-14.7-2.3Zm108.1,86.2V108.8h0v-8.1h75.3c12.9,0,23.7,2.7,32.2,8.2a48.7,48.7,0,0,1,18.9,22,76.6,76.6,0,0,1,6,30.8,77.1,77.1,0,0,1-6,30.7,49.2,49.2,0,0,1-18.9,22.2c-8.5,5.4-19.3,8.2-32.2,8.2H375.3v-8.1Zm36.8-87.2v68.6h19.7a77.3,77.3,0,0,0,18.3-1.8,30,30,0,0,0,12.3-5.9,23.8,23.8,0,0,0,7.2-10.5c1.6-4.3,2.4-9.6,2.4-16.1,0-12.4-3.2-21.2-9.4-26.5s-16.5-7.8-30.8-7.8Zm134.7-26.7h36.8V214.5h0v8.1H546.8v-8.1h0V108.8h0v-8Zm340.4,55.5h57.3v38h0v14.3l-7.4,3.2a188.5,188.5,0,0,1-18.8,6.2,174.2,174.2,0,0,1-20.6,4.7,128.6,128.6,0,0,1-20.4,1.7c-14.5,0-27.2-2.3-38.1-6.8s-19.3-11.5-25.3-20.8-9.1-21.1-9.1-35.1c0-10.5,2-19.8,6-27.8a53.2,53.2,0,0,1,16-19.6,70.7,70.7,0,0,1,23.1-11.6,99.6,99.6,0,0,1,27.4-3.8,142.1,142.1,0,0,1,34.4,4.2l9.7,2.5,3.4.9,9.6,3.3-10.1,25.6c-8.5-2.6-17.9-6.4-26.4-8.2a75.7,75.7,0,0,0-15.1-1.8c-12.6,0-22.7,2.9-30.3,8.8s-11.4,15.1-11.4,27.5,3.9,22,11.7,28.3,18.1,9.4,30.9,9.4a79,79,0,0,0,26.6-4.2V177H879.1V156.1h8.1Z" transform="translate(-15.5 -56)"/><path class="cls-3" d="M730.5,151.1V217c0,2.6-2.3,4.1-6.9,4.4v2.9h50.2v-2.9c-4.5-.3-6.8-1.8-6.8-4.4V151.1q0-20.5-8.7-33.3a47.8,47.8,0,0,0-23.7-18.4c-9.9-3.8-21.5-5.6-34.7-5.6s-24.8,1.8-34.7,5.6a47.8,47.8,0,0,0-23.7,18.4q-8.7,12.8-8.7,33.3v30.2h36.5V151.1c0-9.1,2.6-15.7,7.8-20s12.8-6.4,22.8-6.4q30.6,0,30.6,26.4Z" transform="translate(-15.5 -56)"/><polygon class="cls-3" points="211.2 193.1 247 193.1 247 200.9 247 201 247 201 247 303.8 247 303.8 247 303.9 247 311.7 211.2 311.7 211.2 303.9 211.2 303.8 211.2 303.8 211.2 201 211.2 201 211.2 200.9 211.2 193.1"/><path class="cls-3" d="M402.3,298.1v64.1c0,2.6-2.2,4-6.7,4.3v2.8h48.8v-2.8c-4.4-.3-6.6-1.7-6.6-4.3V298.1c0-13.3-2.8-24.1-8.5-32.4a47.7,47.7,0,0,0-23-17.9c-9.7-3.6-20.9-5.4-33.7-5.4s-24.1,1.8-33.8,5.4a47.2,47.2,0,0,0-23,17.9c-5.7,8.3-8.5,19.1-8.5,32.4v29.4h35.5V298.1c0-8.8,2.5-15.3,7.6-19.5s12.5-6.2,22.1-6.2c19.9,0,29.8,8.6,29.8,25.7Z" transform="translate(-15.5 -56)"/><path class="cls-3" d="M489.2,361.2l8.1-27.3c11.8,4.8,16,7.8,30,7.8,6.5,0,11.3-1.2,14.3-3.5s4.6-6.5,4.6-12.5V257h0V249H582v7.9h0v71.9c0,7.9-1.3,14.3-3.8,19.5a30.9,30.9,0,0,1-10.6,12.3,49.5,49.5,0,0,1-16.4,6.6,109.4,109.4,0,0,1-21.8,2c-14.1,0-26.9-4.2-40.2-8.1Z" transform="translate(-15.5 -56)"/><path class="cls-3" d="M676.7,324.1h44.4l-22.5-53-21.9,53Zm99.2,43.6h-35l-10.7-24h-62l-10.2,24H626.8c16.8-39.8,34.5-79.1,52-118.7h43.3c17.3,39.9,35.6,79.2,53.8,118.7Z" transform="translate(-15.5 -56)"/><path class="cls-3" d="M820.7,357.2l8.3-23.6c8.6,2.6,21.2,7.3,33.4,9.4a146.3,146.3,0,0,0,23.1,2,55.4,55.4,0,0,0,16.3-2.4c5.3-1.6,7.9-4.6,7.9-9.1s-5.3-7.7-16-9.6-21.4-3.5-32-5a78.8,78.8,0,0,1-27.6-9.2q-11.7-6.9-11.7-22.2c0-6.1,2-12.3,6.1-18.5s10.6-11.3,19.6-15.5,20.2-6.2,33.6-6.2a154.7,154.7,0,0,1,17.2,1c5.4.6,10,1.2,13.6,1.9,10.2,2,18.8,4.2,28.8,6.9l-11.8,25.1L919.4,278h-.5l-6.7-2.4a84.2,84.2,0,0,0-24.7-3.8c-20.3,0-30.4,4-30.4,12,0,4.1,4.8,7,14.5,8.6s20.3,3.2,32,4.9,21.3,5.1,29.1,9.9,11.8,12.4,11.8,23-5,20.6-14.8,28c-23.3,17.7-86.1,10.6-109-.8Z" transform="translate(-15.5 -56)"/></svg>