<svg xmlns="http://www.w3.org/2000/svg" viewBox="0 0 493.7 147"  xmlns:v="https://vecta.io/nano"><path d="M49.5 93.5q-.1-33.6-.1-67.3a9.2 9.2 0 0 1 .8-2.7l75.6 19.2v49.8l-8-1.1-36.2-9.8-.6 1.9c14.3 6.1 29.8 8.6 44.5 13.3l-.2 45c0 1.7-.8 3.3-1.2 5l-7.3-2.1-23.7-8a8.6 8.6 0 0 0-1.6-1l-37-12.1c-3.2-1-5-2.3-4.8-6.2.2-5.9-.4-11.9-.6-17.9v-2.8h.3c0-1.1.1-2.1.1-3.2z" fill="#f05f53"/><path d="M124.1 146.8c.4-1.7 1.2-3.3 1.2-5l.2-45 26.9-10.3 35.8-14.9c8.2.6 13.1 5.3 13.8 14.1.8 10.8-.5 21.4-7.6 30.1-2.5 3.1-5.9 6.2-9.5 7.7-18.9 8-38.1 15.4-57.2 23a14.2 14.2 0 0 1-3.6.3zm1.7-54.3V42.7l64-25c6 .8 9.3 4.6 11.2 9.9 4 11.2-1.1 30.8-10 38.6-1.7 1.4-3.3 2.9-4.9 4.4a44 44 0 0 0-6.3 1.3z" fill="#eae7e7"/><path d="M189.8 17.7l-64 25-75.6-19.2c15.8-6.3 32-12 47.4-19.2 11.1-5.1 21.4-5.5 33-2 19.5 5.9 39.4 10.3 59.2 15.4z" fill="#98999b"/><path d="M435 49.1V19.4h7.7v39.9c-8.4 2.3-10.3 1.5-14.6-5.8l-13.7-23.9v30.1h-7.6V19.8c9.1-2.1 10.2-1.6 14.7 6.1zm-203.8 65.8V75.3a4.8 4.8 0 0 1 .4-1.5c6.2 0 12.3-.4 18.4.1 4.3.3 8.7 1.6 10.1 6.7s.1 9.5-5.1 12.4c5.5 1.9 6.9 5.9 6.5 10.8s-3.6 8.9-8.6 9.6c-7 1.1-14.1 1-21.7 1.5zm9-6.2c4.6-1.6 8.3-2.5 11.5-4.3.8-.4.7-4.9 0-5.2-3.5-1.6-7.3-2.3-11.5-3.5zm0-18.1a96.9 96.9 0 0 0 10.7-3.4c.6-.2.5-4.1 0-4.3-3.3-1.3-6.8-2-10.7-3.1z" fill="#3c3a3b"/><path d="M49.1 99.5c.2 6 .8 12 .6 17.9-.2 3.9 1.6 5.2 4.8 6.2l37 12.1a8.6 8.6 0 0 1 1.6 1 22.6 22.6 0 0 1-4.5.2c-2.9-.2-5.8-.7-8.6-1l-7.9-1.3-2.1-.8h-2l-2-.8-11-2.2-2-.8-3-.3c-.6-.6-1.1-1.7-1.9-1.8-3.7-.8-7.4-1.3-11.1-1.9h-2l-3-.9h-2l-2.1-.9H26l-3-.9h-2l-2-.9h-2l-2.1-.8-2.9-.3-8.2-3.8 30-12.4c5-2.5 10.2-3.9 15.3-5.6z" fill="#bbbcbe"/><path d="M357.3 92.9c-.1 16.1-8.4 23.6-23.2 21.8-7.4-.9-12.9-4.8-14.3-11.9a47.4 47.4 0 0 1-.1-17.6c1.8-8.7 9.7-13.1 19.7-12.5s16 6.1 17.5 15.4c.3 1.9.3 3.9.4 4.8zm-9.1 1.4c.1-10.5-4.4-15.5-12.6-13.9-5.4 1-8.2 5.6-8.2 13.6s2.9 12.6 8.3 13.5h1c7.4.8 11.4-3.8 11.5-13.2zM312 39.6c0 16-11.4 24.7-26.5 20a17.7 17.7 0 0 1-6.4-3.6c-6.7-5.8-8.2-20.1-3.4-28.8s13.2-10.5 22.7-8.2S312 28.2 312 39.6zm-8.6-.3c-.7-2.7-1-5.5-2-8.1s-4.6-5.5-8.7-5.5-7.2 1.4-8.8 5.2c-2.5 5.7-2.7 11.7.1 17.3a9.9 9.9 0 0 0 5.5 4.5c8 2.7 13.5-2.9 13.9-13.4zm189.8-2.1v20.7c-12 5-24.2 3.3-29.6-3.9s-5.2-21.3.2-28.3 17.8-9.4 29.3-4.5l-2.6 6.4c-7.5-2.3-15-4-20 4.1-2.9 4.7-2.3 14.1.9 18.1s7.3 4.4 13.3 2.5v-7.7l-7.3-.5v-6.9zM329 19.4c6 0 11.6-.4 17 .1 10.2 1 16.1 7.8 16.8 18.4S358 57.3 348 59.1c-6.1 1.2-12.5.9-19 1.2zm8.6 33.1c5.6.6 10.7.5 14.1-4.6s2.7-13.5-.4-17.6-8.5-4.2-13.7-3.7z" fill="#3c3a3b"/><path d="M421.4 73.6h8.6v18.3c4-5 7.3-8.6 9.9-12.7s7.5-7.1 14-5.2l-13.8 17.6 13.9 22.1c-8.3 1.9-8.9 1.7-12.9-4.8l-6.9-11c-3 1.2-3 1.2-4.3 16.3h-8a8.4 8.4 0 0 1-.5-1.7z" fill="#423f40"/><path d="M493.5 74.7l-3 7.3c-3.3-.6-6.5-1.6-9.7-1.6-1.6 0-4.4 1.4-4.6 2.6a6.5 6.5 0 0 0 2.4 5.1c2.7 2.1 6.1 3.3 9 5.1 4.8 3.1 6.6 7.4 5.5 12.3s-4.7 8-9.6 8.9a33.2 33.2 0 0 1-8.9.3c-8-.6-8.6-1.4-7.6-9.5 3.8.8 7.6 2.1 11.4 2.3 2 .1 4.1-1.8 6.2-2.8-1.2-1.9-2-4.3-3.6-5.7s-5-2.6-7.4-4c-5.2-3.1-7.5-7.8-6.3-13s4.9-8.5 10.2-8.7 10.2.8 16 1.4zm-88.9 1.4l-2.5 6.4c-6.1-1.8-12.3-5-17.2 1.8-3.2 4.6-3.2 15-.1 19.6s6.4 4.6 17.9 2.2c1.2 7.2.8 7.8-6.1 8.6-10.3 1.2-17-1.6-20.5-8.5s-3.1-21.5 2.7-27.7 16.2-7.5 25.8-2.4zM260.5 21.8l-2.7 6.3c-6-2-12.1-5-16.9 1.6-3.4 4.6-3.7 15.1-.3 19.6 5 6.9 11.7 3.4 18.2 2.3v6.8c-10.3 4.3-20.6 2.5-25.6-4.4s-5-22.5 1.2-29.6 16.5-7.8 26.1-2.6z" fill="#3c3a3b"/><path d="M288 107.4h16.6v6.7h-25V73.7h8.4z" fill="#423f40"/><path d="M125.8 92.5l54-20.6a44 44 0 0 1 6.3-1.3l2.1 1-35.8 14.9c-8.9 3.6-17.9 6.9-26.9 10.3-14.7-4.7-30.2-7.2-44.5-13.3l.6-1.9 36.2 9.8c2.6.6 5.3.7 8 1.1z" fill="#676d78"/><path d="M387.8 59.9h-8.1V19.3h8.1z" fill="#423f40"/><path d="M351.6 142.8l-3.9-11.2-3.9 11.1H342l-4.3-15.7 2-.7 3.4 9.9 3.7-9.9 1.6-.2 4 10.3 3.5-10.1 2 .6-4.3 15.7z" fill="#f3847b"/><path d="M49.1 99.5c-5.1 1.7-10.3 3.1-15.3 5l-30 12.4 8.2 3.8L.3 119l-.3-2.3c15.9-7.7 32.6-13.7 49.1-20z" fill="#eae7e7"/><path d="M472.8 141.3c-3.8 2.1-7.3 2.4-8.9-.6a10.9 10.9 0 0 1-.1-8.5c1.2-2.8 4.7-3 7.1-.8a6.4 6.4 0 0 1 1.7 4.4c0 .5-2.3 1.2-3.5 1.5a23.5 23.5 0 0 1-3.7.5l-.3 1.6z" fill="#f3847b"/><path d="M80 135.9l8.6 1a22.6 22.6 0 0 0 4.5-.2l23.7 8-35.7-7.4c-.5 0-.8-.9-1.1-1.4z" fill="#eae7e7"/><path d="M278.6 137.1l-6.8.5-.5 1.3 6.8 2.4-.2 1.4c-2.4-.4-5.9 0-7-1.3a10.2 10.2 0 0 1-1.3-8c.3-1.4 4-3.2 5.7-2.8s3.1 3.2 4.6 5zm-15.1-6.9l1-4.2 1-.6v17l-2.9-.7c.2-2.9 1.2-5.8.3-7.8s-5.2-1-4.9 3.2c.2 1.7.7 3.4 1.2 5.7-4.2-2.2-5.1-5.6-3.4-8.6s4.4-3.4 6.8-5.1zm162.6-2a4 4 0 0 0-.7.7l-6.2 1.3a42.8 42.8 0 0 1 4.5 4c1.2 1.3 2.7 3.1 2.7 4.7s-2.1 3.2-3.5 3.5-4.4-.2-6.7-.4v-1.5l1.3-.4 6.3-1.2a39.7 39.7 0 0 0-4.4-3.9c-2.5-1.7-4.3-3.4-2.5-6.5s5.6-2.8 9.2-.3zm-172.4 8.7c-.4 3.1-1.7 5.8-5.7 5.8s-5.9-2.5-5.9-6.3 1.8-6.1 5.6-6.3 6 2.8 6 6.8zm-10.4-.6l4.6 4.2c1-1.2 2.9-2.6 2.8-3.8s-1.8-2.7-2.8-4.1l-4.6 3.7zm78.7 7.3c-4.2-1.2-8.6-1.1-9.9-3s-.8-6.6-1-10h2.2a46.2 46.2 0 0 0 .6 6.4c.4 1.3 1.5 2.4 2.2 3.6 1-1.2 2.5-2.3 2.9-3.8s.3-4 .4-6h2l.6 12.8zm53.1-5.5l4-8.7c1.6 8.1-4.7 18.6-10.4 17.5 3.9-1.6 5.8-3.6 3.9-7.5s-2-5.6-3-8.4l1.6-.6 3.9 7.7zm-10.2-5.1l-4.7-.6a7.7 7.7 0 0 0-.2-1.5c2-.1 5.3-.9 5.6-.3 1.5 3.5 2.3 7.4 3.4 11.1l-1.8 1.3-9.9-5.5 7.8-3.5a3 3 0 0 0-.2-1zm-55.9 4.1c-.3 3.1-1.7 5.6-5.7 5.7s-6.1-2.8-5.8-6.7 2.1-6 6-6 5.6 2.8 5.5 7zm-1.2-.5l-4.7-4c-1 1.2-2.9 2.6-2.8 3.7s1.9 2.8 3 4.2zm101.2.4c-.3 2.9-1.6 5.5-5.6 5.8a5.8 5.8 0 0 1-6-6.3c.1-3.5 1.7-6.1 5.5-6.4s6 2.6 6.1 6.9zm-1.2-.5l-4.8-3.9c-1 1.2-2.8 2.5-2.7 3.7s1.8 2.8 2.7 4.2zm-167.1-8.6c-4.5.7-9.6.3-9.5 6.8s4.6 5.8 8.8 6.6c-3.3 2-6.6 2.2-9.4-.7s-2.8-9.1 0-11.9 6.4-2.8 10.1-.8zm50.9 14.9l-5.5-15.8 1-.6 4.5 6.5 4.9-6.8.9.7zm191-10.5l-5.4.5c.7 3.7 9.3 3.1 4.9 8.7-1.9 2.3-5.3 2.1-8.6-.9l7.5-.4c-1.2-4-9.1-2.9-5.7-8.4 1-1.4 4.7-1.1 7.1-1.7.1.8.1 1.5.2 2.2zm-43.8-1.5v11.1c-9.9 1.6-12.5-1.6-8.1-11.3a27.3 27.3 0 0 0 .6 6.4c.3 1.3 1.5 2.3 2.3 3.5 1.1-1.1 2.6-2 3-3.3s.4-4.4.6-6.5zm54 1.6l-5.6.5c1.3 3.5 9 2.5 5.7 8-1 1.6-4.8 1.4-7.4 2l-.3-1.9 5.7-.9c-.4-4-9.4-3-4.7-8.7 1-1.3 4.3-.8 6.6-1zm-32.9-1.7c-2 2.3-4.7 4.1-4.9 6s2.8 3.4 4.8 5.6c-1.4-.1-4 .4-5.6-.6-3.2-2.2-3.1-5.9-1.3-8.9s4.7-3.6 7-2.1z" fill="#f3847b"/><path d="M391.4 129.2l-5.1-1.1v-.9h11.4l.2.7-5 1.3v13.1h-1.5z" fill="#f05f53"/><path d="M449.5 130.7c-2.1 2.3-4.8 4-5 6s2.8 3.4 4.8 5.8c-1.6-.3-5 0-5.6-1.1s-1.9-6-1-8.6 4.3-3.4 6.8-2.1zm-124 .1l6.5-.3c-1.9 2-3.9 3.5-4.7 5.4s-.4 4.3-.5 6.5h-1.3z" fill="#f3847b"/><path d="M37 125.9c3.7.6 7.4 1.1 11.1 1.9.8.1 1.3 1.2 1.9 1.8zm-14-3l3 .9zm9 2l3 .9zm-4.1-1l2.1.9zm25.1 6l2 .8zm-34-8l2 .9zm-4.1-.9l2.1.8zM66 132.9l2 .8zm4 .9l2.1.8z" fill="#eae7e7"/><path d="M49.5 93.5l-.1 3.1c.1-1 .1-2 .1-3.1z" fill="#f5a099"/><path d="M240.2 108.7v-13c4.2 1.2 8 1.9 11.5 3.5.7.3.8 4.8 0 5.2-3.2 1.8-6.9 2.7-11.5 4.3zm0-18.1V79.8c3.9 1.1 7.4 1.8 10.7 3.1.5.2.6 4.1 0 4.3a96.9 96.9 0 0 1-10.7 3.4zm108 3.7c-.1 9.4-4.1 14-11.5 13.3h-1c-5.4-.9-8.3-5.6-8.3-13.5s2.8-12.6 8.2-13.6c8.2-1.7 12.7 3.3 12.6 13.8zm-44.8-55c-.4 10.5-5.9 16.1-13.9 13.4a9.9 9.9 0 0 1-5.5-4.5c-2.8-5.6-2.6-11.6-.1-17.3 1.6-3.8 4.9-5.3 8.8-5.2s7.3 1.6 8.7 5.5 1.3 5.4 2 8.1zm34.2 13.2V26.6c5.2-.5 10.2-1 13.7 3.7s3.3 13.2.4 17.6-8.5 5.2-14.1 4.6zm-94.3 83.8l4.6-3.7c1 1.4 2.8 2.7 2.8 4.1s-1.8 2.6-2.8 3.8zm64.5.3l-4.5 3.9c-1.1-1.4-2.8-2.7-3-4.2s1.8-2.5 2.8-3.7zm100-.1l-4.8 4c-.9-1.4-2.6-2.7-2.7-4.2s1.7-2.5 2.7-3.7z" fill="#fdfdfd"/></svg>