<svg id="Layer_1" data-name="Layer 1" xmlns="http://www.w3.org/2000/svg" viewBox="0 0 280 66.2"><defs><style>.cls-1{fill:#3770ff;}.cls-2{fill:#273339;}</style></defs><path class="cls-1" d="M60.3,36.4C60.3,52,48.6,64.7,33.8,66c0,0-19.1.5-25.4-.1a6.5,6.5,0,0,1-5.3-4,6.9,6.9,0,0,0,2.8.8q3.2.3,10.5.3l15.2-.2h.1A30.7,30.7,0,0,0,52.1,52.6a32.8,32.8,0,0,0,8.2-18Z" transform="translate(0 0)"/><path class="cls-1" d="M58,30A29.4,29.4,0,0,1,31.4,59.5S12.4,60,6,59.4c-3.3-.3-5.9-3.5-6-7.1V7.3C.2,3.7,2.8.5,6.2.2c6.3-.5,25.3.1,25.3.1C46.4,1.6,58,14.4,58,30Z" transform="translate(0 0)"/><path class="cls-2" d="M77.2,18.4a.8.8,0,0,1,.8-.8H92.9s6.1.6,8.9,2a15.9,15.9,0,0,1,6.6,6,17.6,17.6,0,0,1,2.4,9,18.1,18.1,0,0,1-2.4,9,16.6,16.6,0,0,1-6.6,6c-2.8,1.4-8.9,2-8.9,2H78a.9.9,0,0,1-.8-.9ZM91,46.4h1.6A22.2,22.2,0,0,0,98.4,45a9.7,9.7,0,0,0,4.4-4.1,12.2,12.2,0,0,0,1.6-6.2,12.5,12.5,0,0,0-1.6-6.2,10.3,10.3,0,0,0-4.4-4.1A22.4,22.4,0,0,0,92.6,23H84.3a.9.9,0,0,0-.8.8V45.6a.8.8,0,0,0,.8.8Zm50.4-6.5a1,1,0,0,1-.9.8H121.7a.5.5,0,0,0-.6.4c0,.2,0,.3.1.4a9.4,9.4,0,0,0,2.5,3.7,8.6,8.6,0,0,0,5.6,1.7c2.9,0,6.4-2.3,6.4-2.3a.9.9,0,0,1,1.2.1l2.2,2.5a.9.9,0,0,1,0,1.2,16.6,16.6,0,0,1-3.9,2.6,17.8,17.8,0,0,1-13.6-.6,13.1,13.1,0,0,1-5.1-4.8,12.9,12.9,0,0,1-1.7-6.9,12.9,12.9,0,0,1,1.7-6.9,12.1,12.1,0,0,1,4.8-4.7,12.9,12.9,0,0,1,6.9-1.7,13.8,13.8,0,0,1,6.9,1.6,13.5,13.5,0,0,1,4.7,4.8,14.4,14.4,0,0,1,1.6,7ZM123.3,32a9.7,9.7,0,0,0-2.2,3.8.6.6,0,0,0,.3.8h13.4a.6.6,0,0,0,.6-.5v-.3a11.1,11.1,0,0,0-2.2-3.8,6.9,6.9,0,0,0-5-1.7A6.9,6.9,0,0,0,123.3,32Zm47.1-6.3c.3-.1.5.1.6.4a.8.8,0,0,1-.1.4L160.4,51a1.7,1.7,0,0,1-1.2.8h-4.6a1.7,1.7,0,0,1-1.2-.8L142.9,26.5a.5.5,0,0,1,.1-.7h5.1a1.2,1.2,0,0,1,1.1.8l7.5,17.8c.2.4.5.4.6,0L165,26.5a1.3,1.3,0,0,1,1.1-.8ZM184,23.5a8.8,8.8,0,0,0-.2,1.6.8.8,0,0,0,.8.8h5.5a.7.7,0,0,1,.8.8v3.2a.8.8,0,0,1-.8.9h-5.3a.9.9,0,0,0-.9.8V51a.8.8,0,0,1-.8.8h-4.4a1,1,0,0,1-.9-.8V31.6a.7.7,0,0,0-.8-.8h-2.6a.8.8,0,0,1-.8-.8V26.7a.8.8,0,0,1,.8-.8H177a.8.8,0,0,0,.8-.8,9.9,9.9,0,0,1,.2-1.7s.6-4.2,2.3-5.8a9.4,9.4,0,0,1,6.9-2.4,12.9,12.9,0,0,1,4.7,1.1,1,1,0,0,1,.5,1.1l-1.1,3a.7.7,0,0,1-1,.4h0a9,9,0,0,0-2.7-.7C185,20.1,184,23.5,184,23.5Zm15.2,26.9a12.2,12.2,0,0,1-5-4.8,13.7,13.7,0,0,1-1.8-6.9,13.9,13.9,0,0,1,1.8-6.9,12.6,12.6,0,0,1,5-4.7,15.7,15.7,0,0,1,14.3,0,12.6,12.6,0,0,1,5,4.7,13,13,0,0,1,1.8,6.9,13.7,13.7,0,0,1-1.8,6.9,12.2,12.2,0,0,1-5,4.8A15.7,15.7,0,0,1,199.2,50.4Zm12.7-5.8a8.1,8.1,0,0,0,2.2-5.9,8.1,8.1,0,0,0-2.2-5.9,8.1,8.1,0,0,0-11.1,0,8.1,8.1,0,0,0-2.2,5.9,8.1,8.1,0,0,0,2.2,5.9,7.4,7.4,0,0,0,5.5,2.3,7.3,7.3,0,0,0,5.6-2.3Zm28.6-24.3a3.5,3.5,0,0,1-.1-5c0-.1.1-.1.1-.2a4.4,4.4,0,0,1,5.6,0,3.1,3.1,0,0,1,1.1,2.5,3.2,3.2,0,0,1-1.1,2.7,3.3,3.3,0,0,1-2.8,1.1,3.5,3.5,0,0,1-2.8-1.1Zm-.3,6.2a1,1,0,0,1,.9-.8h4.4a1,1,0,0,1,.9.8V51a1,1,0,0,1-.9.8h-4.4a1,1,0,0,1-.9-.8ZM259,50.4a11.6,11.6,0,0,1-5-4.8,11.9,11.9,0,0,1-1.8-6.9,13,13,0,0,1,1.8-6.9,12.6,12.6,0,0,1,5-4.7,15.7,15.7,0,0,1,14.3,0,12.6,12.6,0,0,1,5,4.7,12.9,12.9,0,0,1,1.7,6.9,13.7,13.7,0,0,1-1.8,6.9,12.2,12.2,0,0,1-5,4.8,15.7,15.7,0,0,1-14.3,0Zm12.7-5.8a8.5,8.5,0,0,0,2.2-5.9,8.5,8.5,0,0,0-2.2-5.9,8.2,8.2,0,0,0-11.2,0,8.4,8.4,0,0,0-2.1,5.9,8.4,8.4,0,0,0,2.1,5.9,8,8,0,0,0,11.2,0ZM226.1,16.3a.9.9,0,0,1,.9-.8h4.4a.8.8,0,0,1,.8.8V50.9a.8.8,0,0,1-.8.9H227a.8.8,0,0,1-.8-.9Z" transform="translate(0 0)"/></svg>