<svg xmlns="http://www.w3.org/2000/svg" width="345.8" height="57.9" viewBox="0 0 345.8 57.9"><path d="M367.1,535c2.3-7,5.3-13.5,11.5-18.1a29.8,29.8,0,0,1,33.3-1.5,29.3,29.3,0,0,1,13,30.2,29.9,29.9,0,0,1-24.1,23.1c-3.1.6-5.2.4-4.7-3.7a40.9,40.9,0,0,0-.1-7h0c7.9-1,14.2-4.2,17-12.3s-1.1-18.8-9.8-22.1-20.4.2-23.2,9.8c-1.7,6-4.6,7.4-9.9,6.5-1-.1-2,0-3,0Z" transform="translate(-367.1 -511)" fill="#0069fe"/><path d="M712.9,558c-1.8-.8-4.1.7-5.8-1.1,2.8-1.8,3.5-4.4,3.4-7.5s-.9-6.6,1.4-9.4h1Z" transform="translate(-367.1 -511)" fill="#217cfe"/><path d="M598.8,558a17.1,17.1,0,1,1,17.4-17C616.2,550.8,608.7,558.1,598.8,558Z" transform="translate(-367.1 -511)" fill="#0169fe"/><path d="M448,540.8V527.4c0-1.6-.2-3.1,2.1-3.1,5.5.1,11-.5,16.3,1.4,7.2,2.6,10.5,7.9,10.1,15.8s-4.4,13.5-11.6,15.4c-4.7,1.3-9.5.8-14.3.9-2.4.1-2.7-1.2-2.6-3.1Z" transform="translate(-367.1 -511)" fill="#0169fe"/><path d="M507.8,556.1c-5.3,1.7-10.3,1.7-14.1-2.9a11.8,11.8,0,0,1-1.5-12.7c1.9-4.4,5.3-6.9,10.2-6.6,3.1.2,6.1,1.5,9.4.3s2.4.9,2.4,2.7c-.1,6.8.1,13.6-.2,20.4-.2,4.7-2.9,7.8-7.1,9.3s-10.9,0-13.5-2.9-1-2.2.2-3.3,2-2,4-.5C503,563.8,507.1,562.2,507.8,556.1Z" transform="translate(-367.1 -511)" fill="#0169fe"/><path d="M550.1,541.8c-3.6-3-2.4-5.1,1.3-6.9,8-3.9,15.5.5,15.6,9.3,0,3.6-.1,7.3,0,10.9s-1,3.2-2.9,2.6-5.7-.2-8.6.3-6.8-.6-8.2-4.2,0-7.5,3.7-9.8c1.9-2.5,4.8-2.2,7.8-2.1C555.4,538.4,553,544.1,550.1,541.8Z" transform="translate(-367.1 -511)" fill="#0169fe"/><path d="M670.9,542c-3.5-3.8-3.2-5.1,1.6-7.2,7.8-3.5,14.7.7,15,9,.1,3.6-.1,7.3,0,11s-1,3.7-3.2,2.9-5-.3-7.6.3-7.1-.3-8.7-4.1.1-7.7,3.9-10.1c1.8-2.2,4.4-1.8,7.2-2C676,538.8,673.6,542.9,670.9,542Z" transform="translate(-367.1 -511)" fill="#0169fe"/><path d="M654.8,558c-4.9.2-8.7-1.6-10.7-5.9a13.3,13.3,0,0,1,1-14.1c2.6-3.9,6.6-4.8,11-4.1s9.2,7.2,8.5,12c-.3,2.1-1.7,2-3.2,2h-10c-.7,0-1.7-.3-2.2.6s.4,2,1,2.6c2.6,2.4,5.7,2.6,8.1.3s3.4-.8,4.7.7-.4,2.9-1.4,3.8A9.1,9.1,0,0,1,654.8,558Z" transform="translate(-367.1 -511)" fill="#0169fe"/><path d="M711.9,540c0,4.1-.2,8.3.1,12.4s-1.4,5-4.9,4.5l-.3-12.4c0-2.9-.8-5.5-4.3-5.4s-4.6,2.3-4.6,5.3-.2,7,0,10.5-1.3,2.9-3.4,3-2.7-1.2-2.7-3.1c.1-6,.1-12,.1-18,0-1.4,0-3,1.9-2.6,3.7.8,7.2-.6,10.7-.4S711.1,536,711.9,540Z" transform="translate(-367.1 -511)" fill="#0169fe"/><path d="M632,558.1a12.1,12.1,0,0,1-11.9-8,13,13,0,0,1,4.9-14.5,12.1,12.1,0,0,1,13.5.5c.9.8,3.2,1.4,1.5,3.3s-2.2,3.4-4.8,1.2-6.1-2.3-8.5,1.1-1.3,8,1.4,9.9a5.6,5.6,0,0,0,7.7-.6c2-2.1,3.1-.6,4.4.7s.2,2.7-.9,3.7A10.1,10.1,0,0,1,632,558.1Z" transform="translate(-367.1 -511)" fill="#026afe"/><path d="M541.3,557.8c-5.5-.2-8.6-2-8.8-7.1-.1-2.4-.1-4.9-.2-7.4s.2-2.3-.7-3.3c-3-3-2.9-3.1,0-6,1-1,.7-2.2.6-3.3s1-2.8,3-2.8,3.3.4,3,2.7.3,3.9,3.2,3.6,2.5.9,2.5,2.7-.3,3-2.4,2.8-3.9,1-3.3,3.5-2.5,7.9,3.2,8.9c2.4.5,2.5,1.6,2.5,3.4S542,557.7,541.3,557.8Z" transform="translate(-367.1 -511)" fill="#056bfe"/><path d="M571.7,540.7V527.3c-.1-1.9.4-3.1,2.7-3.1s3.4.5,3.4,3.1c-.1,9.2-.1,18.5-.1,27.8,0,2.2-1,2.8-3,2.8s-3.1-.5-3-2.8C571.8,550.3,571.7,545.5,571.7,540.7Z" transform="translate(-367.1 -511)" fill="#086dfe"/><path d="M487,546.3c0,2.8-.1,5.6,0,8.4s-.8,3.1-3.1,3.2-3-1.2-3-3.3q.2-8.7,0-17.4c0-2.3.8-3.1,3.1-3.1s3.1,1.1,3,3.3S487,543.3,487,546.3Z" transform="translate(-367.1 -511)" fill="#046bfe"/><path d="M525.2,546.4c0,2.8-.1,5.6,0,8.5s-.5,3-2.8,3-3.3-.5-3.3-3.1c.2-6,.1-12,0-17.9,0-2.3,1.1-2.8,3.1-2.8s3.1.5,3,2.8S525.2,543.2,525.2,546.4Z" transform="translate(-367.1 -511)" fill="#076dfe"/><path d="M396,558H385.1a60.6,60.6,0,0,0-.1-7.4c-.3-3.3.9-4.2,4.1-4.1,8.6.4,6.8-.8,7,7.1.1,1.4-.1,2.9-.1,4.4Z" transform="translate(-367.1 -511)" fill="#0169fe"/><path d="M385,558c.1,1.2.1,2.3.1,3.5,0,4.6-3.4,6.8-7.6,4.9-1.2-.5-1.2-1.4-1.3-2.4s-.1-4-.1-5.9H385Z" transform="translate(-367.1 -511)" fill="#0b6ffe"/><path d="M376.1,558.1a26.8,26.8,0,0,0-4-.2c-3.6.5-2.8-2-3-4.1s1.1-3.2,3.5-3.2,4.1.1,3.7,3.1-.2,3-.3,4.4Z" transform="translate(-367.1 -511)" fill="#036afe"/><path d="M483.9,531.1c-2.3-.2-3.7-1.5-3.6-3.8a3.3,3.3,0,0,1,3.6-3.3c2.2,0,3.6,1.3,3.6,3.3S486.4,531,483.9,531.1Z" transform="translate(-367.1 -511)" fill="#0a6efe"/><path d="M521.8,524c2.4.1,3.9,1,4.1,3.1a3.3,3.3,0,0,1-3.3,3.9,3.2,3.2,0,0,1-3.8-3C518.6,525.6,520,524.5,521.8,524Z" transform="translate(-367.1 -511)" fill="#076dfe"/><path d="M550.1,541.8c1.8.6,2.4-1.3,3.7-2s4.5-1.2,6.3.8a2.9,2.9,0,0,1,.7,2.2c-.2,1.2-1.3.6-2,.4-2.7-.5-5.2.2-7.8.8Z" transform="translate(-367.1 -511)" fill="#fff"/><path d="M670.9,542c2.5-1,4.4-3.8,7.6-2.8,1.5.5,3.1,1.3,2.9,3s-2,.7-3.1.9-4.3.5-6.4.7A16.2,16.2,0,0,0,670.9,542Z" transform="translate(-367.1 -511)" fill="#fff"/><path d="M610.1,541.3a11.1,11.1,0,0,1-22.1-.7,11.1,11.1,0,0,1,11.4-10.7A10.9,10.9,0,0,1,610.1,541.3Z" transform="translate(-367.1 -511)" fill="#fff"/><path d="M454.1,540.5c0-1-.3-2.1.1-2.9.9-2.5-2.6-6.8,2.5-7.5,6.6-.9,12,2.2,13.2,7.1,2.3,9.2-4.2,16.2-13.6,14.8-1.9-.2-2.2-1-2.2-2.5S454.1,543.5,454.1,540.5Z" transform="translate(-367.1 -511)" fill="#fff"/><path d="M497.1,545.5c.3-3.6,1.6-6.4,5.6-6.4s5.5,2.6,5.5,6.3-1.6,6.2-5.5,6.3S497.5,548.9,497.1,545.5Z" transform="translate(-367.1 -511)" fill="#fff"/><path d="M556.7,552.9c-2.1.1-3.8-.3-3.8-2.4s1.9-2.6,3.6-2.5,4.2-.4,4.3,2.1S558.3,552.5,556.7,552.9Z" transform="translate(-367.1 -511)" fill="#fff"/><path d="M677.6,548c1.6.2,3.9,0,3.8,2.1s-2.6,2.7-4.6,2.8-3.7-.4-3.5-2.5S675.7,548,677.6,548Z" transform="translate(-367.1 -511)" fill="#fff"/><path d="M649.1,542.8c3.6-5.1,6.1-5,8.7,0Z" transform="translate(-367.1 -511)" fill="#fff"/></svg>