<svg xmlns="http://www.w3.org/2000/svg" width="640.1" height="101.7" viewBox="0 0 640.1 101.7"><path d="M245.5,516.3c-4.6-2.7-9.2-5.4-13.7-8.2s-7.2-7.4-4.7-11.9,7-5.2,12.6-2.1l25.5,14.7c3.3,1.9,5.4,4.8,4.6,8.6a7.7,7.7,0,0,1-7.5,6.8c-3.4,1.6-6-.7-8.6-2.1S247.3,519.5,245.5,516.3Z" transform="translate(-170 -492.1)" fill="#0f9d58"/><path d="M194.3,516.1l14.5,8.7c5.1,3.2,6.5,7.4,4,11.7s-7.3,4.9-12.3,2.1l-24.2-13.9c-3.5-2-6.3-4.3-6.3-8.7s3.1-6.3,6.5-7.9a4.7,4.7,0,0,1,4.3-.3C185.7,510,190.8,511.8,194.3,516.1Z" transform="translate(-170 -492.1)" fill="#4285f3"/><path d="M194.3,516.1c-6.1-2.2-10.8-7.5-17.8-8,8.4-5,16.8-10,25.3-14.8a7.6,7.6,0,0,1,10.8,2.7c2.5,3.9,1.5,8.4-2.8,11.1S199.5,513.1,194.3,516.1Z" transform="translate(-170 -492.1)" fill="#e94335"/><path d="M245.5,516.3c5.8,2.2,10.3,7.2,16.8,7.9-4.8,5.3-11.7,7.4-17.5,11.2-2.1,1.4-4.3,2.6-6.5,3.8-4.4,2.2-9,1-11.3-2.9s-1-8.2,3.1-10.8S240.3,519.3,245.5,516.3Z" transform="translate(-170 -492.1)" fill="#fabb05"/><path d="M293.7,513.7c0-4,.3-8,0-11.9s1.3-5.2,5-4.8,4.7,0,7,.2c9.8.9,15.6,7.3,15.5,17.1s-5.9,15.7-15.6,16.6c-11.9,1.1-11.9,1.1-11.9-10.7Z" transform="translate(-170 -492.1)" fill="#767676"/><path d="M605.3,510.3V499.9c-.1-1.7.2-3,2.3-2.9s2.1,1.2,2.1,2.7v28.8c0,2.1-1.7,3.3-2.6,2.3-2.4-2.8-3.8-.7-5.7.2-4.4,2-9.3.7-12.5-3.4a13.2,13.2,0,0,1,0-16.1c3.2-4.1,8-5.5,12.4-3.5C602.6,508.6,603.8,509.5,605.3,510.3Z" transform="translate(-170 -492.1)" fill="#777"/><path d="M769,510.3c7.1-4.4,12.2-4,16.2.9a13.3,13.3,0,0,1-.3,17c-2.9,3.2-6.5,4.5-10.8,3.2-2.2-.6-4.1-3.6-7-.6-.9.9-2.3-.3-2.3-2.1V499.4c0-1.7.6-2.4,2.3-2.3s1.9,1,1.9,2.3Z" transform="translate(-170 -492.1)" fill="#757575"/><path d="M440.9,528.9v9.4c0,1.4,0,2.6-2,2.7s-2.1-1.1-2.1-2.5c0-9.4,0-18.7-.1-28,0-2.5,1.7-3.8,3.3-2.1s2.6.8,4,.1c5-2.5,9.8-1.4,13.3,3a12.9,12.9,0,0,1-.1,16.1c-3.6,4.4-8.2,5.5-13.3,2.9Z" transform="translate(-170 -492.1)" fill="#767676"/><path d="M529.2,532.1a11.6,11.6,0,0,1-10.1-5.4c-.8-1.1-2.7-2.6-.4-4.1s2.9-.2,3.9,1.4a7.7,7.7,0,0,0,8.5,3.9,5.5,5.5,0,0,0,4.9-4.3,5,5,0,0,0-2.8-5.8c-2.7-1.3-5.5-2.3-8.3-3.4s-6.8-4.7-6.1-9.7,4.1-6.7,8.2-7.4a11,11,0,0,1,11.4,4.6c.7.8.9,1.7-.3,2.4s-2.3,1.1-3.4-.3c-2.4-3-5.5-3.7-8.9-2s-4,5.7-.4,7.7,5.2,2.2,7.8,3.3c5.9,2.6,8.1,6.3,7,11.6S534.8,532.1,529.2,532.1Z" transform="translate(-170 -492.1)" fill="#767676"/><path d="M710.5,532.1a17.5,17.5,0,0,1-12.3-29.9,17.9,17.9,0,0,1,19.4-3.7,14.5,14.5,0,0,1,3.4,2c.9.7,2.7,1.3,1.2,3.1s-2.1,1.3-3.7.3c-6.9-4.3-13.8-3.3-18.3,2.2a14.3,14.3,0,0,0,.5,17.5c4.8,5.3,11.9,5.9,18.5,1.4,1.5-1,2.6-1.8,4,.1s-.5,2.7-1.5,3.4A16.7,16.7,0,0,1,710.5,532.1Z" transform="translate(-170 -492.1)" fill="#767676"/><path d="M386.6,520.6a50,50,0,0,0-5.5.1c-1.2.1-2.9-.8-3.4,1s.5,2.6,1.4,3.7a7.4,7.4,0,0,0,10.6.8c1.6-1.3,3.1-2.6,4.5-.8s-.9,3.2-2.2,4.1a11.7,11.7,0,0,1-15.1-.6,13.4,13.4,0,0,1-2-16.4,11.2,11.2,0,0,1,14-4.5c4.6,1.8,6.2,5.6,6.9,10.1.2,1.7-.6,2.5-2.2,2.5Z" transform="translate(-170 -492.1)" fill="#777"/><path d="M337.9,520.6h-5.4c-1.2,0-2.9-.7-3.4,1.2s.5,2.5,1.3,3.6c2.6,3.1,7.2,3.5,10.7.6,1.6-1.3,3.2-2.4,4.5-.4s-1,2.8-2.2,3.8a11.9,11.9,0,0,1-15.1-.5c-4.5-4-5.4-11.2-2.2-16.5a11.4,11.4,0,0,1,14-4.5c4.6,1.8,6.2,5.6,6.9,10.1.3,2-.7,2.6-2.6,2.5Z" transform="translate(-170 -492.1)" fill="#777"/><path d="M477.1,520.6a41.7,41.7,0,0,0-5,.1c-1.4.1-3.3-.8-3.9,1s.7,3.5,2.1,4.6c3.4,2.5,6.9,2.5,10-.4,1.5-1.4,2.9-1.9,4.2-.4s-.6,2.6-1.6,3.5a11.9,11.9,0,0,1-14.3,1c-4.7-3-6.6-9.3-4.6-15a11.4,11.4,0,0,1,11.5-7.9c5.3.4,8.9,3.7,10.2,9.3.7,2.8.5,4.6-3.1,4.3A50.5,50.5,0,0,0,477.1,520.6Z" transform="translate(-170 -492.1)" fill="#777"/><path d="M613.8,519.7c-.1-6.9,4.1-11.9,10.3-12.5a11,11,0,0,1,12,8.9c.5,3.1-.1,4.8-3.7,4.6s-7.3-.1-11,0c-1,0-2.5-.5-3,.9s.3,2.2,1,3.2a7.3,7.3,0,0,0,10.9,1.5c1.7-1.5,3.4-2.8,4.8-.6s-1.3,3.1-2.6,4a11.5,11.5,0,0,1-12.3,1C615.8,528.4,613.8,524.6,613.8,519.7Z" transform="translate(-170 -492.1)" fill="#777"/><path d="M408.9,519.3c0-7.2,5.2-12.4,12.2-12.2a12.5,12.5,0,0,1-.5,24.9C413.6,531.9,408.8,526.6,408.9,519.3Z" transform="translate(-170 -492.1)" fill="#767676"/><path d="M759,519.5c0,3-.1,5.9,0,8.9s-1.2,3.7-2.3,2.5c-3-2.9-4.8-.1-7,.6a8.3,8.3,0,0,1-11.1-6.3c-1-4.9-.2-9.9-.4-14.9-.1-1.7.8-2.3,2.4-2.3s2,1,2,2.3v11c0,3.4.7,6.4,5,6.7s6.4-2.5,7-6.3,0-6.3.2-9.4c.1-1.6-1.1-4.1,2-4.2s1.9,2.7,2.1,4.4A54.3,54.3,0,0,1,759,519.5Z" transform="translate(-170 -492.1)" fill="#777"/><path d="M640.9,519.5c.1-2.9.1-5.9,0-8.9s1.2-3.7,2.3-2.5c3,3,4.8.2,7-.6,4.9-1.5,9.7.9,10.9,5.7s.4,10.6.6,15.9c.1,1.5-.8,1.9-2.2,1.9s-2.2-.6-2.2-2V518c0-3.6-.6-6.7-5.2-6.9s-6.5,2.4-6.9,6.8,0,6.7-.1,10c0,1.4.4,3-2,3.1s-2.1-1.5-2.1-3S640.9,522.4,640.9,519.5Z" transform="translate(-170 -492.1)" fill="#777"/><path d="M582,519.6c0,3-.1,6,.1,9s-2.3,3.4-3,2.3c-2.2-3.4-3.6-.5-5.1.1-5.5,2.5-11.2-.1-12.3-5.9s-.3-10-.5-14.9c0-1.5.7-2.1,2.1-2.2s2.4.8,2.4,2.4c-.1,3.7,0,7.4,0,11s.8,6.4,5.1,6.6,6.2-2.4,6.8-5.9.2-7.3.2-11c.1-1.4-.2-3.1,2.1-3.1s2.1,1.7,2.1,3.1S582,516.8,582,519.6Z" transform="translate(-170 -492.1)" fill="#777"/><path d="M800.4,532a10.6,10.6,0,0,1-7.8-3.9c-.6-.8-2.2-1.9-.4-3.1s2.3-1.4,3.4.2a6,6,0,0,0,2.6,2.2c2.8,1.1,6.1,1.5,7.3-1.8s-2.3-3.4-4.3-4.2-4.6-1.2-6.5-2.3c-4-2.3-4-7.2-.4-10s10.2-2.4,13.5.6c.8.8,2.1,1.8,1.3,2.8s-2.4,2-3.9.4a6.4,6.4,0,0,0-5.9-1.7c-1.5.3-3,.9-3.1,2.7s1.3,2.2,2.5,2.6a43.4,43.4,0,0,0,4.8,1.4c4,1.1,7.2,3,6.5,7.9S805.6,532,800.4,532Z" transform="translate(-170 -492.1)" fill="#777"/><path d="M295.3,568.9v15.3c0,1.1.3,2.7-1.5,2.6s-1.4-1.6-1.4-2.7c0-5.8-.1-11.6,0-17.4.1-1.4-.8-3.2,1.5-3.7s2.7.8,3.5,2.1a119.7,119.7,0,0,0,10.4,15.1v-14c.1-1.2-.6-3.1,1.5-3.1s1.4,2,1.4,3.2v17c-.1,1.3.8,3.2-1.5,3.6s-2.5-1.4-3.3-2.6l-9.6-15.7Z" transform="translate(-170 -492.1)" fill="#7c7c7c"/><path d="M360,526c2.3-6,4.2-10.6,5.9-15.3.7-1.8,1.6-3.6,3.8-2.8s.6,2.8.1,4c-2.1,5.6-4.5,11.1-6.7,16.6-.6,1.5-1.2,2.6-3.2,2.5s-2.5-1-3.1-2.5l-6.9-17.2c-.4-1-1.9-2.5,0-3.3s3.2-.1,4,1.9C355.7,514.8,357.6,519.7,360,526Z" transform="translate(-170 -492.1)" fill="#767676"/><path d="M553.5,531c-3.7-.4-6.2-2.2-6.5-6.1s.1-5.3-.1-8,1.6-5.9-3.2-6.2c-1.2,0-.7-2.9-.6-2.9,5.7,1.1,1.4-8,6.9-6.8.5.1,1,1,1,1.5-.3,3.1.4,5.2,4.2,4.6,1.2-.2,1.7.7,1.7,1.9s-.7,2.2-2.1,2c-3.8-.6-3.9,1.7-3.7,4.5s0,4.3,0,6.4.3,4.8,3.5,5a2.2,2.2,0,0,1,2.3,2.6C556.6,531.2,554.8,530.8,553.5,531Z" transform="translate(-170 -492.1)" fill="#757575"/><path d="M675.4,531c-3.5-.4-6.3-1.8-6.6-5.9s0-6-.1-9,1.1-5.3-3.1-5.3c-.3,0-.6-.6-.8-1s5.5-9,6.1-9,2.1,1.3,2,2.7.2,3.9,3.1,3.6,2.7.1,2.6,2-1.4,2-2.7,1.9-3.1,1-3,3.2,0,5.7,0,8.5.5,4.1,3.1,4.2,2.6,1,2.6,2.4S676.7,530.7,675.4,531Z" transform="translate(-170 -492.1)" fill="#767676"/><path d="M404.7,514c0,4.5.1,8.9,0,13.4,0,1.6.5,3.5-2.1,3.6s-2.4-1.6-2.4-3.3V500.3c0-1.6-.3-3.4,2.3-3.3s2.2,2,2.2,3.6C404.8,505,404.7,509.5,404.7,514Z" transform="translate(-170 -492.1)" fill="#818181"/><path d="M490.2,519.4v-9c-.1-2.4,2.3-3.4,3-2.2,1.9,3.5,3,.7,4.6,0a17.3,17.3,0,0,1,3.7-1.1c1.2-.1,2.5.1,2.6,1.7a2.4,2.4,0,0,1-1.9,2.5c-7.5,2.8-7.5,2.8-7.5,10.9a17.9,17.9,0,0,1-.1,4c-.3,1.7,1.5,4.8-2.3,4.8s-1.9-2.9-2.1-4.6S490.2,521.7,490.2,519.4Z" transform="translate(-170 -492.1)" fill="#7c7c7c"/><path d="M488.2,572.7c0,2.4.2,4.7,0,7-.3,4.1-2.5,6.8-6.8,7.4s-8-.8-9.5-5.3-.5-11.5-.7-17.3c-.1-1,.6-1.5,1.6-1.4s1.2,1.3,1.3,2.2v11.9c-.1,4,1.2,7.2,5.6,7.3s5.9-3.1,6-7,0-7.3.1-10.9c0-1.2-.7-3.3,1.1-3.3s1.3,2.2,1.4,3.5a58.6,58.6,0,0,1,.1,5.9Z" transform="translate(-170 -492.1)" fill="#777"/><path d="M728.6,513.5V500.6c0-1.6-.5-3.6,2.2-3.5s2,1.7,2,3.2v27.4c0,1.4.5,3.2-1.9,3.2s-2.3-1.8-2.3-3.4Z" transform="translate(-170 -492.1)" fill="#7a7a7a"/><path d="M393.8,574.8v-8.9c.1-1.1-.4-2.7,1.3-2.8s1.4,1.8,1.6,3a3.8,3.8,0,0,1,0,1.5c-.4,3.3.1,4.6,4.1,3.3s6.5,1.1,7,5.1.1,5.9.2,8.9c0,1.1-.3,2-1.7,1.9s-1.3-1.2-1.3-2.1-.1-4.3,0-6.5-.7-4.9-3.7-4.9-4.4,1.9-4.5,4.8,0,3.7-.1,5.5.5,3.1-1.4,3.2-1.4-1.9-1.4-3C393.8,580.8,393.8,577.8,393.8,574.8Z" transform="translate(-170 -492.1)" fill="#7a7a7a"/><path d="M325.2,576.7c-1.8-3.9-4.2-4.3-7.3-2.6-1,.6-1.9.9-2.5-.2s.5-1.7,1.3-2.3a7.2,7.2,0,0,1,11.3,5.7c.2,2,.1,4,.1,6s.5,5.3-3.4,2.4c-.3-.2-1.3.7-2,.9-2.6.9-5.2,1-7.4-1.1a4.9,4.9,0,0,1-1-5.6c1.2-2.8,3.9-3.3,6.7-3.2Z" transform="translate(-170 -492.1)" fill="#777"/><path d="M370.3,576.8c-2.1-3.7-4.4-4.5-7.4-2.7-1.2.7-2.4.9-2.9-.4s.9-1.8,1.8-2.3c5.3-2.6,10.4.2,11,6v.5c.6,7.9-.8,9.5-8.4,9.3-3.3-.1-5.5-1.6-5.6-5.1s1.7-4.9,4.7-5.3S367.5,576.8,370.3,576.8Z" transform="translate(-170 -492.1)" fill="#797979"/><path d="M422.3,576.7c-1.6-3.3-3.6-4.3-6.6-3-1.1.5-2.6,1.9-3.3.1s1.4-2.3,2.7-2.8c5.5-1.8,9.6,1.1,9.9,6.9a40.1,40.1,0,0,1,0,4.9c0,3.1,0,3-3.3,2.8-.7,0-1.3.8-2.1,1-2.6.9-5.2,1-7.3-1.2a4.8,4.8,0,0,1-1-5.5c1.1-2.6,3.6-3.2,6.2-3.2Z" transform="translate(-170 -492.1)" fill="#777"/><path d="M457.3,576.7c-1.9-3.9-4.3-4.3-7.4-2.5-1,.6-2,.7-2.6-.4s.5-1.7,1.4-2.2a7.2,7.2,0,0,1,11.3,5.7,33.7,33.7,0,0,1,0,5.5c-.2,1.7,1.4,6.1-3.4,2.9-.3-.2-1.2.7-1.9.9-2.7.9-5.3,1-7.4-1.2a4.6,4.6,0,0,1-1-5.5c1.1-2.6,3.6-3.2,6.2-3.2Z" transform="translate(-170 -492.1)" fill="#777"/><path d="M541.5,587.2c-4.4,0-7.5-2.6-8.2-7.1s2-8.3,5.8-9.2,7.8.8,9.2,4.7c.9,2.3.9,3.9-2.3,3.7h-6c-1.2,0-3-.6-3.4,1.1s.9,2.7,2.2,3.5a4.8,4.8,0,0,0,6-.6c1-.7,2-1.7,2.9-.2s-.7,2-1.5,2.7A7.1,7.1,0,0,1,541.5,587.2Z" transform="translate(-170 -492.1)" fill="#787878"/><path d="M599.6,593.6c.5-3.8,4.6-6.7,1.8-11.2s-3.3-7.2-5.4-11.9c6.2,2.1,5.1,8.3,8.6,11.3,1.2-3,2.3-5.7,3.5-8.5.5-1.2.9-2.8,2.7-2.2s.3,2.2,0,3c-2.4,5.7-4.9,11.3-7.4,16.9C602.7,592.4,602.5,594.4,599.6,593.6Z" transform="translate(-170 -492.1)" fill="#7a7a7a"/><path d="M569.5,570.6a23.7,23.7,0,0,1,3.2.9c1,.5,2.4,1.2,1.9,2.5s-1.9.8-2.9.1a4.4,4.4,0,0,0-3.3-.9c-1,.2-2,.6-2.2,1.7s.7,1.7,1.6,2.1,2.6.6,3.9,1.1,4,2,3.8,4.6-2.1,4-4.7,4.4a7.9,7.9,0,0,1-4.8-.5c-1.4-.8-3.7-1.7-2.7-3.6s2.3.3,3.4.9,3.1,1.3,4.7.2,1.4-1.1,1-2-2.3-1.8-3.7-2.2-6-1.3-5.7-5.1S566,570.8,569.5,570.6Z" transform="translate(-170 -492.1)" fill="#797979"/><path d="M383.7,587.2c-3.9,0-6.5-1.6-7.8-5.2a8.2,8.2,0,0,1,2.3-9.5c2.6-2.3,5.7-2.4,8.8-1.1,1.4.7,3.6,1.8,2.6,3.6s-2.4-.2-3.5-.9-4.8-1.1-6.6,1.1a5.5,5.5,0,0,0-.1,7.3,4.8,4.8,0,0,0,6.2,1.7c1.3-.5,1.9-2.6,3.7-1.8a1.2,1.2,0,0,1,.6,1.7,6.2,6.2,0,0,1-4.4,2.9Z" transform="translate(-170 -492.1)" fill="#7a7a7a"/><path d="M589.3,565a1.6,1.6,0,0,1,1.4,1.8c0,2.2-.3,4.2,3,4.5,1.4.1.8,1.6-.4,2.4a6.3,6.3,0,0,0-.2,10.3c.9.6,1.7,1.3,1.2,2.2s-1.5.7-2.2.6c-2.5-.1-3.9-1.4-4.3-3.9s1.9-7.7-2.7-10.1a2.9,2.9,0,0,1,.1-1.3c3.4-.6,2.3-3.4,2.7-5.4A1.3,1.3,0,0,1,589.3,565Z" transform="translate(-170 -492.1)" fill="#7c7c7c"/><path d="M524.2,583.4l4.4-10.9c.5-1.3,1.4-2,2.6-1.3s.2,1.7-.1,2.5c-1.5,3.8-3.1,7.7-4.8,11.4s-3,2.6-4.2.1-3.3-7.9-4.9-11.9c-.3-.7-1.3-1.9.4-2.3a1.9,1.9,0,0,1,2.3,1.4Z" transform="translate(-170 -492.1)" fill="#7a7a7a"/><path d="M337.5,583.4l4.3-10.7c.4-1.3,1.3-2.1,2.5-1.6s.4,1.7.1,2.5c-1.5,3.7-3,7.4-4.6,11.1-.4,1.1-.7,2.3-2.3,2.2s-1.9-1-2.4-2.1l-4.5-11.1c-.3-.9-1.2-2,.1-2.6s2.1.2,2.6,1.6C334.5,575.9,335.8,579.1,337.5,583.4Z" transform="translate(-170 -492.1)" fill="#7a7a7a"/><path d="M432,572.8a6.6,6.6,0,0,1,7.8-1.5c2.8,1.3,3.2,4,3.2,6.8s0,4.7-.1,7-.2,1.6-1.3,1.7S440,586,440,585v-6c-.2-5.4-1.5-6.4-6.8-5C432.1,574.3,431.8,573.8,432,572.8Z" transform="translate(-170 -492.1)" fill="#797979"/><path d="M495.9,572.9c1.9-2.6,4.5-2.6,7.2-1.8s3.4,3.4,3.5,5.9.1,5,.1,7.4.1,2.5-1.7,2.4-1.1-1.4-1.2-2.3v-5.4c-.2-5.2-1.6-6.3-6.8-5.2A1.3,1.3,0,0,1,495.9,572.9Z" transform="translate(-170 -492.1)" fill="#7f7f7f"/><path d="M495.9,572.9l1.1,1c-2.3,3.3-1.6,7-1.8,10.6,0,.9.2,2.2-1.2,2.3s-1.7-1.2-1.7-2.3c-.1-3.7-.1-7.4,0-11,0-1-.2-2.1,1.1-2.5S495,572.4,495.9,572.9Z" transform="translate(-170 -492.1)" fill="#868686"/><path d="M513.7,579.2c0,1.9.1,3.7,0,5.5s-.1,2.1-1.4,2.2-1.5-1.1-1.5-2.1c0-3.9-.1-7.9,0-11.8,0-1.1.2-2.1,1.6-2a1.6,1.6,0,0,1,1.3,1.8v6.4Z" transform="translate(-170 -492.1)" fill="#878787"/><path d="M581.9,578.8v6.5a1.6,1.6,0,0,1-1.5,1.6c-1.1,0-1.4-.7-1.4-1.6-.1-4.3,0-8.6,0-12.9,0-.7.3-1.3,1.1-1.3s1.7.3,1.7,1.3,0,4.3,0,6.4Z" transform="translate(-170 -492.1)" fill="#7d7d7d"/><path d="M352,574.9c-1.7,2.9-.8,6.1-1,9.2-.1,1.1.3,2.6-1.4,2.7s-1.6-1.3-1.6-2.4c-.1-3.8,0-7.6,0-11.4,0-1.4.4-2.3,2-1.8S352.2,573.2,352,574.9Z" transform="translate(-170 -492.1)" fill="#7b7b7b"/><path d="M432,572.8l1.2,1.2c-2.1,3-1.3,6.4-1.5,9.6-.1,1.2.5,3-1.4,3.2s-1.5-1.8-1.5-2.9c-.1-3.5,0-7,0-10.4,0-.9-.3-2.1,1.1-2.4S431.2,572.3,432,572.8Z" transform="translate(-170 -492.1)" fill="gray"/><path d="M556,574.9c-1.8,2.9-.9,6.1-1.1,9.2-.1,1.1.3,2.6-1.4,2.7s-1.6-1.3-1.6-2.4V573c0-1.4.5-2.3,2.1-1.8S556.1,573.2,556,574.9Z" transform="translate(-170 -492.1)" fill="#7b7b7b"/><path d="M352,574.9c-1-1.1-2.4-1.9-2-3.7,1.3,1.6,2.3.5,3.6-.1s3.2-1.2,3.7.7-1.2,1.9-2.6,2A15.3,15.3,0,0,0,352,574.9Z" transform="translate(-170 -492.1)" fill="#868686"/><path d="M556,574.9c-1-1.1-2.4-1.9-2-3.7,1.2,1.6,2.3.5,3.6-.1s3.1-1.2,3.6.7-1.1,1.9-2.5,2A12.8,12.8,0,0,0,556,574.9Z" transform="translate(-170 -492.1)" fill="#868686"/><path d="M582.2,565c-.1,1.4-.7,2.1-1.9,2a1.8,1.8,0,0,1-1.9-1.8,1.9,1.9,0,0,1,2.2-2.1C581.8,563.2,582.1,564.2,582.2,565Z" transform="translate(-170 -492.1)" fill="#878787"/><path d="M514,565.1a1.7,1.7,0,0,1-1.7,1.9,1.8,1.8,0,0,1-2.1-1.6,1.9,1.9,0,0,1,2-2.2C513.3,563.2,513.9,564,514,565.1Z" transform="translate(-170 -492.1)" fill="#7f7f7f"/><path d="M297.9,514v-6c0-7.7,0-7.7,7.9-6.8s11,5.4,11.2,12.4-3.7,12.1-10.3,13.2-8.8.7-8.8-7.3Z" transform="translate(-170 -492.1)" fill="#fefefe"/><path d="M597.9,528c-4.3-.1-7.8-4.1-7.5-8.9s3.5-8.1,7.7-8,7.7,3.9,7.5,8.8S602.2,528,597.9,528Z" transform="translate(-170 -492.1)" fill="#fdfdfd"/><path d="M768.9,519.5c0-4.9,2.9-8.3,7.2-8.5s7.8,3.5,7.8,8.5-3.3,8.6-7.8,8.5S768.9,524.4,768.9,519.5Z" transform="translate(-170 -492.1)" fill="#fdfdfd"/><path d="M440.8,519.5c0-5,2.9-8.4,7.2-8.5s7.9,3.7,7.9,8.6-3.5,8.5-8,8.4S440.8,524.4,440.8,519.5Z" transform="translate(-170 -492.1)" fill="#fdfdfd"/><path d="M384.1,517.3c-1.9-1.2-5.4,1.3-5.6-1.7s2.8-4.5,6-4.5,6.5,1.4,6.1,4.3S386.2,515.9,384.1,517.3Z" transform="translate(-170 -492.1)" fill="#fbfbfb"/><path d="M329.1,517c1-4,3-5.8,6.4-6a6.1,6.1,0,0,1,5.9,2.9c1.1,1.8,1.2,3.2-1.5,3.1Z" transform="translate(-170 -492.1)" fill="#fbfbfb"/><path d="M468.1,517c.7-3.5,2.5-5.4,5.6-5.9a6.3,6.3,0,0,1,6.5,2.5c1.2,1.8,1.7,3.5-1.5,3.4Z" transform="translate(-170 -492.1)" fill="#fbfbfb"/><path d="M618.6,517c.7-3.6,2.5-5.5,5.6-5.9a6.3,6.3,0,0,1,6.6,2.7c1.2,1.8,1.7,3.3-1.6,3.2S622.4,517,618.6,517Z" transform="translate(-170 -492.1)" fill="#fbfbfb"/><path d="M428.3,519.8c-.1,5-3.4,8.4-8,8.2s-7.4-3.9-7.2-9,3.3-8,7.7-7.9S428.4,514.7,428.3,519.8Z" transform="translate(-170 -492.1)" fill="#fdfdfd"/><path d="M321.5,578.9c1.4.3,3.5-.1,3.4,2s-2.2,3.7-4.5,3.8-3.5-.7-3.3-2.9S319.5,579.1,321.5,578.9Z" transform="translate(-170 -492.1)" fill="#f7f7f7"/><path d="M366.1,578.9c1.6.2,3.7,0,3.6,2s-2.2,3.7-4.6,3.8-3.4-.8-3.2-2.9S364.3,579.1,366.1,578.9Z" transform="translate(-170 -492.1)" fill="#f6f6f6"/><path d="M418.3,578.9c1.5.2,3.6-.1,3.5,1.9s-2,3.8-4.3,3.9-3.5-.6-3.5-2.7S416.3,579.1,418.3,578.9Z" transform="translate(-170 -492.1)" fill="#f7f7f7"/><path d="M453.5,578.9c1.4.3,3.5-.1,3.3,2s-2.1,3.7-4.5,3.8-3.5-.7-3.3-2.9S451.5,579.1,453.5,578.9Z" transform="translate(-170 -492.1)" fill="#f7f7f7"/><path d="M545.8,577h-6.1l-2.6-.3c.3-2.6,2-3.4,4-3.5S544.8,574.1,545.8,577Z" transform="translate(-170 -492.1)" fill="#f5f5f5"/></svg>