<svg xmlns="http://www.w3.org/2000/svg" viewBox="0 0 7078.2 1052.3"><path d="M1085.7,95.7c7.9-.6,13.1-1.3,18.2-1.3,37.3-.1,74.6-.4,111.9,0,40,.6,77.9,9.7,111.7,31.9,49.9,32.6,77.4,78.9,84.6,138.1,4.5,37.1,1.5,73.1-10.4,108.3-14.1,41.5-41.2,72.5-78,95.4-30.7,19.1-64.7,28-100.4,28.8-42,.9-83.9.3-125.9.2-3.1,0-6.3-.9-9.9-1.5-.7-3.3-1.7-5.8-1.7-8.3C1085.7,357.5,1085.7,227.7,1085.7,95.7Zm51.5,50.4V423.8c0,4-.1,8,.1,12,.5,10.6,2.5,12.9,13.1,13.1,19.3.3,38.6-.4,57.9.2a168.4,168.4,0,0,0,55.2-7.3c46.2-13.9,76.8-43.7,90.4-90.3,9.8-33.3,10.4-67,2.9-100.7s-24.9-63-54.8-82.8a139.8,139.8,0,0,0-75-24c-24.6-.6-49.3-.3-73.9-.2C1148.6,143.8,1144.1,145,1137.2,146.1Z" transform="translate(-30.2 -75.6)" style="fill:#7d7d7d"/><path d="M4716.2,248.6c4.9-19.7,1.3-36.2,1.9-52.4s.2-32,.2-48V97.7c4.6-1.3,8.2-3,11.9-3.2,9.3-.4,18.7-.4,28,0s12.2,2.8,12.7,13.5c.1,3.4,0,6.7,0,10V475.7c0,5.9-.5,11.8-.7,18.5-15.4,5.3-30.4,2.9-45,2.1-6.5-8.1-1.3-17.7-5.3-25.5-4.3-3.5-7.5-.5-10.2,2.3-10.6,11.2-22.5,20.9-37.1,26.5-46.1,17.5-88.8,12.7-126.7-20.5-35.7-31.2-51.9-71.1-52.5-118.4-.5-40.4,11.1-76.1,37.1-106.9,37.2-44.1,99.8-61.8,156.6-27.7,5.6,3.4,10.4,8.2,15.6,12.3Zm5.3,109.7a105.4,105.4,0,0,0-16.4-60.9c-26.4-42.1-76.2-51.8-114.9-28.7-18.3,10.9-30.9,27-38.2,47.2a127.4,127.4,0,0,0-6.6,59c3,24.4,11.9,46.4,30.5,63.4,25.4,23.2,54.8,28.6,87.1,17.8,20-6.6,33.7-21,44.2-38.5S4721.8,380.6,4721.5,358.3Z" transform="translate(-30.2 -75.6)" style="fill:#7d7d7d"/><path d="M249.3,290.5c42.2,24,84.5,47.9,126.7,72.1a115.6,115.6,0,0,1,36.8,33.2c11.5,16.1,12.4,34,8.2,51.6-6,25.3-20.9,45-46.5,53.3-16.6,5.3-34.1,6.7-50.5-1.1-13.8-6.6-27.4-13.7-40.6-21.4Q204.1,432.2,125,385.6c-20.1-11.7-39.9-23.9-60.1-35.6-17.2-9.9-27.3-25.6-32.6-43.7-3.3-11.1-2.7-23,1.7-35.1,5.1-14,10.8-27,22.3-36.8,7.6-6.5,15.3-12.7,25.5-14.6l7.8,1.5c-.9,2.2-1.7,4.4-2.9,7.6l14,.8c-.3,10.1.3,19.8,8.3,27.5,5.2,5,9.3,11.4,15.2,15.2,20.3,13.3,36.5,32.9,60.9,39.7,10.1,9.5,22.6,9.9,35.4,9.4,6.6-.3,13.2-.1,19.9,0,12.4.2,25.2-2.1,36.1,6.8,1.1.9,5.6-.5,6.7-2s.8-5.2-.1-7.4c-1.8-3.9-5.7-5.2-9.8-5.5l-4.3-4.2-7.7-3.9-13.4-13.4A4.7,4.7,0,0,1,249.3,290.5ZM299.4,330c-.4-1-.7-2.5-1.4-2.8s-2.1.5-3.1.9l2,3.7Z" transform="translate(-30.2 -75.6)" style="fill:#458af5"/><path d="M6625.3,470.3c-.8,8-1.6,15.9-2.4,24.4-15.4,4.4-30.4,2.7-45.1,1.4-5.4-7.2-3.4-14.8-3.4-21.9q-.1-120.9-.1-241.9v-110c0-4,0-8,.1-12,.4-14.4,1.6-16,16.3-15.8,11.1.1,22.5-2.3,34.1,2.5,3.8,16.5,1.4,33.2,1.8,49.6s.3,34.7.1,52-.8,33-1.2,49.1c5.6,2.8,8.3-.4,11-3.4,17.4-18.8,39.2-29.3,64.1-34.1,31.9-6,61.4.9,87.4,19.3,41.2,29.3,61.9,70.3,64,120.7.7,17.3.2,34.6-4.4,51.6-9.6,36.2-29.9,64.9-60,87-40.8,29.8-107.8,28.1-147.3-11.3-3.2-3.2-7.2-5.6-10.9-8.2C6629.1,469,6628.2,469.5,6625.3,470.3Zm-1.4-111.7c.2,5.3.2,10.7.7,16,2.6,26.9,13.4,49.9,34.1,67.6s47.9,23.6,74.9,16.5c30.3-7.9,49.8-28.9,60.9-58.2,7.6-20,8.4-40.5,5.6-61-3.6-24.9-14.1-47-34.2-63.5-25.4-20.8-54-25-84.1-13.4-25.5,9.9-42.5,28.8-51.5,54.9A120.2,120.2,0,0,0,6623.9,358.6Z" transform="translate(-30.2 -75.6)" style="fill:#7d7d7d"/><path d="M2806.1,467.1c-4.5,19.3,1.2,34.9.3,50.6s-.1,33.3-.3,50,1,31.7-1.1,47.7a153.6,153.6,0,0,1-49.7.2c-.6-3.9-1.5-7-1.6-10.2-2-49.6-.6-365.8,1.6-381.7,4-4.9,9.7-3.5,14.8-3.7a142.3,142.3,0,0,1,16,.1c5.2.3,10.3,1.4,15.9,2.2,1.1,9.4,2,17.6,3.3,28.1,4.3-2.8,7.3-4,9.3-6.2,19.1-20.4,42.9-31,70.2-34.7,32-4.3,61.3,3.4,86.4,23.1,39.5,31,59.4,72.4,60.3,123,.9,45.6-14.1,84.8-46.1,117.4-45.3,46.2-117.5,49-166.1,5.6Zm-2.6-111.9c-.2,37.7,5.9,56.3,25.2,78.5a81.9,81.9,0,0,0,87.2,23.8c33.9-11,52.9-36.2,61.1-70.2,4.4-18.4,4.2-36.8.4-55.3-7.5-36.6-39.6-78-89.6-75.1-26.5,1.5-47.3,12-63.3,32.4S2801.9,332.7,2803.5,355.2Z" transform="translate(-30.2 -75.6)" style="fill:#7d7d7d"/><path d="M3952.7,164.2l-42.1,18.7c-8.1-2.2-8.8-8.1-11.4-12.6-28.6-49.5-93.5-47-123.1-20-10.8,9.9-17.1,21.5-17.9,36.5-1.1,20.7,7.2,36.5,24.6,46.9,11.9,7.2,24.7,13.1,37.5,18.5,19,8,38.6,14.8,57.7,22.4,21.8,8.8,41.6,20.9,58.2,37.9,47.4,48.4,37.8,133.7-16.1,170.4-47.3,32.4-119.8,37.6-171.1.8-29-20.8-49-48.2-57.9-84.3,13.8-10.2,29.8-14.4,44.2-20.2,7.1,3.7,7.9,10.2,10.2,15.5,7.2,16.8,17.8,30.8,30.9,43.7,29.6,29.3,86.8,29.1,117.1,1.1,25.8-23.8,29.6-68.7-4.6-96.6-9.7-7.9-21.4-13.6-32.9-18.7-17-7.4-34.8-13.1-52.1-20.1s-36-13.8-52.1-24.8c-26.3-17.9-42.6-41.7-46.4-73.5-3.6-30,3.8-56.8,23.5-79.8,22.3-26,51.6-39.6,85.2-43,40.2-4.1,76.5,6.7,107.7,33C3936.3,128.2,3946.8,143.3,3952.7,164.2Z" transform="translate(-30.2 -75.6)" style="fill:#7d7d7d"/><path d="M6057.4,181.2c-3.8-3.4-7.8-6.7-11.7-10.3-27.4-25.6-59.2-39.4-97.3-39.4-31.5,0-61,6.3-87,24.2-43.3,29.7-67.3,71-70.2,123.8-1.5,28.1-.5,56.1,10.4,82.6,20,48.6,54,81.6,106.2,93.6,56.1,12.8,105.4-.3,147.3-40.2l13.8-12.6c11.5,7.8,21,17,30.4,26.2,6.1,6,6,10.7-.2,17.2a182,182,0,0,1-47.4,36.2c-46.2,25.1-94.9,31.6-146.8,22.9-79.8-13.4-149.3-81.5-163.2-163.2-8.5-49.8-6-98.5,17.1-144.2s56.7-78.9,103.2-98.7c39.4-16.8,80.5-21.4,123.2-13.4,36.3,6.8,68.3,21.6,95.1,47.1,15.8,15,15.9,17.5-.3,31C6073,169.8,6068.1,178.6,6057.4,181.2Z" transform="translate(-30.2 -75.6)" style="fill:#7d7d7d"/><path d="M1710.9,367.7c-7.9,5.7-15.5,3.9-22.7,3.9-55.9.2-111.9.1-167.8.1-7.2,0-14.4.5-22.3.8-4.5,13.6.8,24.8,5,35.5,7.6,19.3,22,33.2,40.1,42.9,21,11.3,43.4,11.8,66,6.1s39-21.8,52.6-41.3c16,1.8,28.7,10.2,41.8,17,2.3,9-2.9,14.8-7.2,20.4-37,48.3-94.3,64.9-147.5,52.4-46.3-10.9-77.8-39.8-95-83.5-18.9-48.4-16.6-96.5,7.5-142.9,29.5-56.7,88.4-79.5,146.6-67.6,47.9,9.7,78.9,39,94.7,84.9C1710.5,319.3,1714.2,342.8,1710.9,367.7Zm-209.5-41c16.5,3.1,87.2,4.2,142.8,2.3,3.9-.1,7.7-1.1,12.4-1.9,0-4.6.7-8.6-.2-12.3a72.5,72.5,0,0,0-30.6-45.1c-13.6-9.5-28.7-13-45.3-12.8-14.3.1-28.1,1.2-40.3,9.1-19.2,12.3-32.5,29.4-38.7,51.5C1500.7,320.5,1501.4,323.8,1501.4,326.7Z" transform="translate(-30.2 -75.6)" style="fill:#7c7c7c"/><path d="M3117.7,374.7c-3,31,17,63.7,48.6,77.9,21.4,9.7,43.7,10.1,66.2,3.3s36.7-23.1,50.3-40.6c15.4,3.1,27.9,10.4,40.2,16.9,3.6,8.4-1.4,13.9-5.2,18.9-13,17-28.2,32.1-47.7,41.8-32.7,16.2-66.9,21-102.7,12.3-40.2-9.8-68.8-34.2-87.8-69.9-28-52.9-23.3-131,16.9-179.1,19.1-22.9,42.5-38,71.6-44.1,40.4-8.5,78-2.3,111.9,22.4,14.2,10.5,25,24,33.1,39.5a165,165,0,0,1,18.4,90.8c-.1,1.2-1.1,2.3-1.7,3.7-6.3,5-13.9,3.1-21.1,3.1-56.6.2-113.2,0-169.8.2C3131.7,371.8,3124.2,370,3117.7,374.7Zm158.8-47.6c0-4.6.8-8.6-.1-12.3-4.3-19-14.7-33.9-30.6-45.2s-34.3-13-53.3-12.7c-13.3.3-25.1,3.9-35.6,11.3-16.9,11.8-29,27.5-34.8,47.4-1,3.5-.1,7.6-.1,11.2,16,3,86.6,4.1,142.2,2.2C3268.1,328.9,3271.9,327.9,3276.5,327.1Z" transform="translate(-30.2 -75.6)" style="fill:#7c7c7c"/><path d="M2233.4,413.7l42.4,19.3c-1.7,4.7-2.5,9.3-4.8,12.9-22.4,35.5-55.4,55.5-96.1,61.8s-76.9-2-108.9-28.1-48.4-58.1-51.9-97.7c-1.5-16.5-1.9-33.6.4-49.9,7.4-52.4,33.3-93.1,83.4-113.4,71.2-28.8,154.5,2.2,177.3,85.8,5.6,20.5,9.5,41.5,6.7,62.3-4.4,5.9-10,4.9-15.2,4.9h-68c-36.6,0-73.3-.1-109.9.1-6.6,0-13.4-1.4-20.6,3.1-.3,3.1-1.5,7-1.1,10.7,4.2,39.6,39.5,72,79.2,74.5,33.6,2.2,59.7-10,79.3-37C2227.5,420.5,2229.8,418.1,2233.4,413.7Zm-162.7-86.6c5.7.8,10.1,1.9,14.6,1.9,41.9.2,83.7.1,125.6.1a81,81,0,0,0,9.9-.5,7.7,7.7,0,0,0,7-8.2,54,54,0,0,0-1.6-7.8c-13.2-46.9-56.8-64.8-102.9-52C2094.9,268.4,2075.3,294.5,2070.7,327.1Z" transform="translate(-30.2 -75.6)" style="fill:#7c7c7c"/><path d="M5085.1,368.8c-8.3,4.4-15.8,2.8-22.9,2.8-56,.1-112,0-168,.2-7.1,0-14.7-1.7-21.3,2.7-4.7,29.4,14.4,62,45.4,77,21.3,10.3,43.6,11.4,66.2,5.3s37.9-23.6,51.9-41.7c8.8.8,15.6,5.3,22.8,8.5l18.9,8.4c2.2,7.5-1.6,11.8-4.4,16.1a130.2,130.2,0,0,1-70.1,53.6c-38.2,12.5-76.3,11.2-112.4-8.2-38.8-20.8-62.8-53.9-71.1-96.4-6.2-32.1-6.1-65.1,5.7-96.7,13.8-37.2,37.2-66.4,74.8-81.3,41.9-16.6,83.9-14.9,123,8.2,22.8,13.5,39.3,34,49.4,58.7s13.7,50,13.6,76.2C5086.6,364.2,5085.7,366.1,5085.1,368.8Zm-210.6-41.1c5.2.6,9.1,1.3,13,1.3h127.8a65,65,0,0,0,9.9-.6,7.3,7.3,0,0,0,6.2-8.7c-3.3-20.7-13.2-37.5-30.3-49.7-21.1-15-45.2-16.1-69-11.3C4902.3,264.9,4879,293.5,4874.5,327.7Z" transform="translate(-30.2 -75.6)" style="fill:#7c7c7c"/><path d="M2424.8,358.2c1.4-32.2,8.6-62.2,27.3-88.9,21.9-31.5,51.4-51.8,89.4-58.4,66.1-11.4,122,16.2,153.4,75.5,15.3,29,18.3,61,14.8,93.4-2.4,22.9-9,44.4-21.6,63.8-45.9,70.5-127,80.9-187.9,49-36.6-19.2-59.5-50.7-69.1-91C2427.7,387.4,2426.9,372.7,2424.8,358.2Zm233.9,2.3h-.4c0-3.4.1-6.7,0-10-.2-30.5-12.6-55.2-35.8-74.8s-48.4-23.3-75-16.6c-31.6,7.9-53.6,29-63.8,60.4-9,27.4-9.1,55.2,1.3,82.2,15,39.3,49.8,66.6,99.4,58.4,39.4-6.4,67.8-40.2,72.8-77.7C2658.2,375.1,2658.2,367.8,2658.7,360.5Z" transform="translate(-30.2 -75.6)" style="fill:#7d7d7d"/><path d="M700.6,290.2l12.3,2.5c35.3,20.5,70.5,41,105.9,61.3,3.3,1.9,7.5,2.4,11.2,3.5,8.7,3.9,17.4,5.5,26.2.6l9.5-.3c-16.3,10-32.5,20.3-49,29.9q-85.4,49.9-170.9,99.4l-14,7.7c-30.6,16.6-64.3,8-83.9-13.5-10.3-11.2-17.6-23-20-38-3.8-23.5,3.2-43.7,19.3-60.2,8.2-8.5,18.6-15.1,28.9-21.1C617.4,337.8,659.1,314.1,700.6,290.2Z" transform="translate(-30.2 -75.6)" style="fill:#fac00f"/><path d="M5376,495.1c-16.3,4-31.9,2-46.2,1.5-5.9-6.8-4.1-13.1-4.2-18.9-.1-46.6.1-93.2-.2-139.8a189.4,189.4,0,0,0-3-33.7c-4-21.2-16.3-35.5-37.3-42.7-42.7-14.5-77.4,8.1-92.8,43.5-6.5,14.8-8.2,30.8-8.2,46.9q.1,60.9,0,121.9c0,6.5-.3,13.1-.4,18.4-5.1,6.1-10.8,4.9-15.9,5.1s-12,.2-18-.1-10.3-1-14.5-1.5c-5.7-7.8-3.8-15.4-3.8-22.5-.2-62-.1-123.9-.1-185.8,0-16.7-.1-33.3,0-50,.1-4.5.8-9,1.3-14.8,16-4.2,31.5-3.4,48.1-.6,1.4,8.1,2.8,15.6,4.4,24.6,3.8-1.5,6.9-2.2,9.4-3.9s4.7-4.6,7.3-6.8c29.4-25,62.6-33,100.5-24.3,30.9,7.1,52.7,25,65.5,53.3,8.3,18.3,10.3,38.4,10.3,58.6.1,45.2,0,90.5,0,135.8,0,8,.2,16-.1,24C5377.9,487.1,5376.8,490.9,5376,495.1Z" transform="translate(-30.2 -75.6)" style="fill:#7f7f7f"/><path d="M4254.9,222.7c.2,8,.6,14.6.6,21.2,0,47.3-.2,94.6.2,141.9a148.4,148.4,0,0,0,3.2,29.7c4.6,22.3,18.6,36.4,40.5,42.2a87.4,87.4,0,0,0,41.6.5c18.7-4.2,31.3-17.1,41.2-32.5,8-12.5,12.7-26.4,12.9-41.5.1-7.3.3-14.7.3-22V226.3c5.4-6.6,10.8-6.3,16.1-6.3s12-.2,18,0,10.4.9,15.5,1.3c4.7,7.6,3,15.1,3,22.2q.2,114,.1,227.9v21c-8,7.2-16.4,4.5-24,4.7s-15.9,1.4-24.2-2.2c-1.1-7.3-2.2-14.3-3.5-22.7-3.8,1.1-7.1,1.4-9.4,3.1-8.1,5.8-15.1,13.4-23.6,18.3-37,21.1-74.7,21.6-112.4,1.8-18.4-9.7-30.7-25.2-38.1-44.6a150.7,150.7,0,0,1-10.1-54.7q-.2-78.9,0-157.9c0-4.6.5-9.2.8-14.4,3.4-1.3,6.4-3.3,9.4-3.4C4226.2,220.1,4239.5,218.3,4254.9,222.7Z" transform="translate(-30.2 -75.6)" style="fill:#7e7e7e"/><path d="M6459.4,223.3c5.2-1.2,9.6-3.2,14-3.1,11.8.2,23.9-2.2,36.4,2.8.5,4.5,1.6,8.9,1.6,13.4q.2,121.9,0,244c0,4.5-.6,9.1-1.1,14.7-15.6,3.6-30.5,2.4-45,1.1-6.9-8-1-17.8-5.7-25.5-5.8-3.1-8.6,1.8-11.5,4.9-14.6,15.7-32.3,26.3-52.9,30.6-38.8,8.1-74.2,1.4-102.8-28.5a80.1,80.1,0,0,1-20.3-38.4c-2.9-12.9-5.4-26.3-5.5-39.5-.6-54.6-.3-109.3-.3-164,0-3.9.7-7.8,1-11.3,14.6-5.8,32.4-6.1,49.1-1.2,4.1,5.2,2.4,11.5,2.4,17.3.2,50,.1,100,.1,150,.1,12,1,23.7,6,35.1,6.9,15.7,17.4,26.5,34.2,30.9,40.8,10.7,70.5-1.4,89.6-36.4,7.2-13.2,10.2-27.3,10.1-42.3-.2-44.7,0-89.3,0-134C6458.8,237.3,6459.2,230.7,6459.4,223.3Z" transform="translate(-30.2 -75.6)" style="fill:#7d7d7d"/><path d="M6923.6,414.1c3,4.1,5.5,7.2,7.6,10.4,22.3,33.9,63.2,43.9,98.7,29.7,13-5.2,23.6-13.4,24.6-28.6s-8.4-26.3-21.5-33.2c-15.5-8.2-32.7-11-49.5-15.4-19.3-5-38.4-10.2-56.5-19.4-30.3-15.6-50.1-49.2-35.5-91.7,6.1-17.8,19.5-30,35-39.6a111.8,111.8,0,0,1,31.3-12.9c25.8-6.7,51.2-6.8,76.8.8,23.2,7,41.9,20,57.2,38.4l2.3,3.3c10.2,15.1,8.9,19.3-8.1,26-8.5,3.4-17.2,6.6-27.4,10.4l-10.4-12.4c-17.3-20.3-56.6-31.5-88.3-14.9a45.2,45.2,0,0,0-12.5,9.7c-10.5,11.5-10,25.5,2.4,34.9,7.2,5.5,16,9.5,24.8,12.2,17.8,5.4,36.2,8.7,54,14,19.8,6,38.6,13.7,55,27.4,34.2,28.8,34.1,91.2-6.7,120.6-39.3,28.3-82,32.6-127.2,16.9-27.6-9.6-48-28-62.8-52.9a68,68,0,0,1-3.8-7c-2.5-5.8-1.1-10.8,4.8-13.3C6899.5,422.7,6911.4,418.6,6923.6,414.1Z" transform="translate(-30.2 -75.6)" style="fill:#7d7d7d"/><path d="M6503.3,868.4l7.2-16.6c10.3-2,20-2.9,30.5,1.1.6,4.6,1.8,9.1,1.8,13.5.1,53.3.2,106.5-.2,159.8a151.9,151.9,0,0,1-3.9,33.6c-7.7,32.4-28,53.3-60.1,63.2-28.4,8.8-55.1,5.6-80.9-8.4-12.6-6.8-22.2-16.8-30.1-28.5-2.5-3.7-3.5-8.3-5.3-12.9,9.1-8.6,18.9-13.1,31.3-14.1l7.2,9.1c20.2,26.6,61.5,30.3,87.5,8.3,16.1-13.6,22.9-32.3,16.6-53.9-.1-.4-1-.6-1.7-1-4.5-1.4-7.2,2.1-10.3,4.3-42.9,30.8-93.5,20.6-123.3-23.3-20.8-30.8-24-89,4.8-123.9s74.5-46.5,113.9-20.1Zm-54.9,137.9c36,0,60.2-25.1,60.5-62.3.3-34.8-28.8-64.8-60.5-63.1-35.5,1.8-59.9,26-60.3,63S6416.7,1009,6448.4,1006.3Z" transform="translate(-30.2 -75.6)" style="fill:gray"/><path d="M1998.5,222.6c0,3.2.6,5.3-.1,7-36.1,88.6-71.8,177.4-108.8,266.1-5.5.6-10,1.5-14.6,1.5-11.9,0-23.8-.3-36.6-.5-3.5-7.1-7.1-13.4-9.8-20.1q-37.6-93.5-75.1-187.1c-7.5-18.5-15.2-36.9-22.8-55.4-1.2-3-2.1-6.1-3.6-10.4,4.4-1.4,7.9-3.3,11.5-3.5,10-.4,20-.1,30-.2s15,3,18.2,12.2c5.2,15.1,11.2,29.9,16.9,44.8q26,68.1,52,136.1c1.6,4.3,4.1,8.1,6,11.9,7.7-1,8.6-6.9,10.5-11.6,7.8-19.8,15.3-39.7,22.9-59.6,15.4-39.7,31.1-79.3,45.9-119.2,3.9-10.4,9.7-15.1,20.6-14.7,9.3.4,18.6,0,27.9.3C1992.6,220.3,1995.6,221.8,1998.5,222.6Z" transform="translate(-30.2 -75.6)" style="fill:#7d7d7d"/><path d="M3678.4,1057.8c28.1,33.2,55.3,40.9,85.5,25.9,22.1-11,33.6-37,27.4-62-5.5-2.6-8.5,1.9-12,4.6-13.7,10.2-28.8,16.6-45.9,17.4-33.9,1.8-59.4-14-77.4-41-28-41.6-23.4-100.8,16.4-136.5,27.4-24.6,65.6-30.5,99.6-9.3l15.3,9.4c.4.3,1.2,0,2.1,0,6.8-1.8,2.6-9.7,10.4-15.2,5.8-2.2,15.5-1.3,26.2.8.7,3.2,2.1,6.2,2.1,9.3-.1,59.9.1,119.9-.7,179.8-.3,23.4-8.7,44-26,60.7-24.7,23.9-54.4,29.8-86.8,24.3a92.7,92.7,0,0,1-41.7-18.1,74.1,74.1,0,0,1-22.2-27.8c-2.5-5.5-.5-10.7,5.1-13.2S3670.4,1061,3678.4,1057.8Zm55.9-51.5c27.6,3,53.8-18.7,58.3-46.3,1.7-10.3,2.2-21.5.1-31.6-7.3-35.1-42.8-58.3-81.4-42.8-19.9,8.1-30.8,23.9-36,44.7C3666.8,964,3691.4,1009,3734.3,1006.3Z" transform="translate(-30.2 -75.6)" style="fill:#818181"/><path d="M5006.3,1069.9c9.5-4.8,18.1-9.5,28.5-11.7,4.7,5.5,8.9,10.6,13.3,15.4,23.5,25.6,70.5,20.3,89-3.9,10.6-13.9,14.7-31.5,9.9-48.2-5.5-2-8.5,2.3-12,5-13.7,10.1-28.8,16.5-46,17.3-33.9,1.5-59.2-14.4-77.2-41.4-27.7-41.6-23.1-100.7,16.9-136.4,27.5-24.6,65.7-30.3,99.6-8.9,5.5,3.5,10.1,8.7,18.4,9.6l6.1-14.6c9.1-2.9,18.8-2.5,29.5,0,.6,3.3,1.8,6.4,1.8,9.5-.1,59.2,0,118.5-.6,177.7-.2,24.2-8.5,45.4-26.4,62.7-24.7,23.7-54.4,29.6-86.8,23.9a93.9,93.9,0,0,1-40.1-17.1,76.1,76.1,0,0,1-22.8-27.3C5005.8,1078.4,5006.6,1074,5006.3,1069.9Zm83.8-63.6c28,3,53.9-18.8,58.5-46.1,1.7-10.3,2.2-21.5.1-31.6-7-34.9-42.3-58.5-81.2-43-19.9,7.9-30.9,23.7-36.2,44.4C5022.7,963.7,5047.2,1008.9,5090.1,1006.3Z" transform="translate(-30.2 -75.6)" style="fill:#818181"/><path d="M5409,266.2c-2.6-14.4-1.9-28.2-.6-42,13.8-8.8,29.5-.7,44.5-6.8.7-3.6,2.3-8,2.4-12.4.3-14.6.1-29.3.1-44V140.7c3.7-1.7,6.6-4.1,9.5-4.2,13.7-.1,27.7-3,42.1,2.5,3,25.8-.8,51.8,2.4,78.3,4.5,1,8.2,2.3,12,2.4,12,.4,24,.1,36,.3,5.2.1,10.4.8,16.2,1.3,4.9,15.1,1.3,29.6,2.6,45-5.4,1.1-9.7,2.7-14.1,2.8-13.9.4-28,0-41.9.4-9.3.2-11.7,2.7-11.9,12.3-.3,19.3-.1,38.6-.2,58,0,21.9-.2,44,.2,65.9a93.3,93.3,0,0,0,3.3,23.6c4.9,17.3,16.2,25.2,34,24.8,6.6-.1,13.1-1.2,20.7-2,6.8,13.1,12.4,26.3,13.7,40.6-4.2,6.2-10.6,6.8-16.2,8.1-27.1,6.3-52.9,3.9-76.5-12.3a66.1,66.1,0,0,1-25.7-34.7,123.8,123.8,0,0,1-6.2-39.3c.2-40.6,0-81.3,0-121.9,0-6.6-.3-13.2-.4-19.6C5440.2,265.2,5424.7,272.9,5409,266.2Z" transform="translate(-30.2 -75.6)" style="fill:#7f7f7f"/><path d="M4163.3,494.7c-27.9,11-53.9,13.2-79.7,2.3s-41.1-31-44.8-59.1c-1.2-8.5-1.1-17.2-1.1-25.9q-.1-59-.1-117.9c0-5.3,0-10.6-.4-15.9s-3.3-8.1-9.2-8.6-12-.2-18-.4l-18.2-.9a116.4,116.4,0,0,1-.4-45.9c14.5-5.7,29.8,1,44.2-5.1,3.8-13.2,1.5-26.5,1.9-39.6s.4-25.2.5-38.6c4.6-1.2,8.2-2.8,11.9-2.9,10-.4,20-.3,30,.1,6.5.3,9.7,3.4,9.9,10.2.5,15.3.2,30.6.4,45.9.1,7.9.4,15.7.7,24.5,5.5,1.2,9.9,2.8,14.3,2.9,11.9.4,23.9,0,35.9.3,5.1.1,10.2,1.4,15.7,2.2,2,15.7,3.2,30-.8,44.2-10.8,4.7-21.6,2-32.1,2.8s-21.2-2-32.4,3c-.5,5-1.2,10.2-1.3,15.3q-.1,60,.1,119.9a100.3,100.3,0,0,0,2,21.9c3.2,14.7,14.7,24.1,29.9,24.7,7.8.2,15.8-.8,24.8-1.3C4155,464.7,4157.2,479.2,4163.3,494.7Z" transform="translate(-30.2 -75.6)" style="fill:#7d7d7d"/><path d="M1095.7,764.7c9.9-7.5,20.1-4.8,29.9-4.2,4.4.3,7.1,3.8,7.7,8.1a120.1,120.1,0,0,1,.7,15.9q.1,72,.1,143.9c0,6.7.1,13.4.4,20,1.1,25.6,15.4,47.8,46.1,55.7,11.2,2.9,24.2,2.8,35.5.4,25.6-5.4,43.8-27.4,46.7-53.7a250,250,0,0,0,.9-26c.1-40.6-.1-81.3.2-121.9,0-13.2,1.4-26.4,2.1-39.2,2.9-1.5,4.6-3.1,6.3-3.2,29.2-2.3,30-.6,29.9,26.6-.3,46.7.1,93.3-.2,140-.1,18.7-2.3,37.2-9.1,54.8-14.2,36.6-42,55.9-79.7,61.2-15,2.2-30.4,1.5-45.4-3.4-38.6-12.5-61.1-39.1-68.8-78.2-2.7-13.6-3.5-27.7-3.6-41.7-.5-45.3-.2-90.6-.2-135.9C1095.2,777.3,1095.6,770.7,1095.7,764.7Z" transform="translate(-30.2 -75.6)" style="fill:#838383"/><path d="M4636.8,875.9c8.8,5.3,15.7,3.9,22.2,3.9,22.7.2,45.3.1,68,.1,4.6,0,9.3.1,14,.4s7.8,2.8,8.4,7.2c1.2,9.2,2.3,18.4-2.3,28.7-5.6.4-11.4,1-17.2,1.1-23.3.1-46.7,0-70,0-4.7,0-9.3,0-14,.4s-8.5,3-9.3,8.4c-1.3,7.5-.1,59.5,1.5,69.7,3.8,5,9.5,4,14.6,4h66c7.4,0,14.7-.1,22,0,20.5.2,21.9,1.5,21.5,21.2a63.9,63.9,0,0,1-.9,9.9c-.2,1.3-1.2,2.3-2.5,4.6-16.2,3.8-33.5,1.1-50.6,1.6s-34.7.2-52,.1-34.4.3-50.6-.3c-5.9-8.2-4-15.7-4-22.8q-.2-113-.1-226c0-6-.1-12,.2-18,.1-2.5,1.1-5,1.9-8.2,4.1-.7,7.9-2,11.7-2h130c2,0,4,0,6,.2,6.8.6,10.2,3.3,10.5,9.6.4,8.5,2.4,17.3-2.3,25.1-6.5,3.9-13.3,2.4-19.9,2.4-26,.2-52,.1-78,.1-4.6,0-9.3-.1-13.9.2-8.1.5-11.1,3-11.3,10.9-.4,12.6-.3,25.3-.2,37.9C4636.2,856.2,4636.6,866.1,4636.8,875.9Z" transform="translate(-30.2 -75.6)" style="fill:#7f7f7f"/><path d="M3036.8,798.9c-4.6,11.5-12.4,19-22.6,26.3-19.3-17.4-39.5-31.3-65.2-33.1-18.8-1.4-37.3-.2-54.8,7.9-14.6,6.8-27.7,15.5-38.1,28.1-38.2,46.4-26.6,115.5,3.5,145.3,23.2,23,50.1,33.9,82.6,32.9s56.5-17.2,78.3-39.2c11.2,6.2,17.7,15.1,24,22.5-.6,10.3-6.9,14.8-12.4,19.3-52.3,43.4-121.4,47.1-176,9.6-33.2-22.7-53.2-54.8-59-95.7-4.4-31.4-1.3-61.4,12.9-89.4,18.5-36.7,47.3-62.2,87.5-73.5,29-8.2,57.8-8.1,86.4,1.8,17.9,6.2,33.8,15.8,47,29.4C3033.1,793.4,3034.8,796.3,3036.8,798.9Z" transform="translate(-30.2 -75.6)" style="fill:gray"/><path d="M1943,926c-.3,7.8-.7,14.4-.7,20.9-.1,23.3,0,46.6-.1,69.9-.1,5.8-.8,11.7-1.2,17.6-11.5,4.4-21.7,3.6-32.6,1-.7-2.8-1.8-5.2-1.9-7.8-1.7-24.4-.3-250.6,1.6-264.6,3.9-.9,8.2-2.8,12.5-2.9,27.3-.2,54.6-.8,81.9.1,29,.9,52.3,14.1,69.6,37.3a62.5,62.5,0,0,1,12.6,35.2c1.1,20.5-1.3,39.7-14.6,56.6-16.6,21.2-38.5,32.3-64.9,34.2-15.2,1.1-30.6.1-45.9.4C1954.2,924,1949.2,925.2,1943,926Zm-1.6-43.4c3,1.7,4.1,2.8,5.3,2.8,21.8.3,43.7,1.1,65.5.3,16.5-.5,37.2-21.2,37.6-40.6.5-24.9-17.8-46.6-43.1-47.6-18.5-.8-37.1-.3-55.7,0-3,0-6.1,1.7-9.6,2.7Z" transform="translate(-30.2 -75.6)" style="fill:#7e7e7e"/><path d="M2329.8,96.3c16.5-3.4,30.4-2.1,44.3-1.5,4.5.1,7.4,3.1,8,7.5a131.7,131.7,0,0,1,.4,14v360c0,5.9-.6,11.7-.9,18.4-17,4.2-33.2,3.2-49.7,1-3.6-7.7-2.3-15.1-2.3-22.2q-.2-113.1-.1-226,0-65,.1-130C2329.6,110.9,2329.7,104.4,2329.8,96.3Z" transform="translate(-30.2 -75.6)" style="fill:#818181"/><path d="M6203,495.6a134.7,134.7,0,0,1-46.1-.1c-1-2.6-2.3-4.5-2.3-6.3q-.2-191.8-.1-383.8c0-2.5,1-5,1.7-8.4,15.8-4.8,31.4-2.7,46.2-1.4,5.7,5.8,4.2,12.1,4.2,18q.1,53,.1,105.9,0,126.9-.1,253.9C6206.6,480.5,6208.4,488.1,6203,495.6Z" transform="translate(-30.2 -75.6)" style="fill:#7c7c7c"/><path d="M1609.6,977c7-1.8,7.9-5.9,9.2-9.6q22.2-64.2,44.5-128.4c7.6-22,15.2-44.1,23.1-66,4.4-12.1,5.7-13,19-13.1a179.1,179.1,0,0,1,17.9,1.1c1.1.1,2.1,1.5,3.5,2.6,2.7,6.7-1.4,12.7-3.5,18.7-12.4,35.2-25.1,70.2-37.9,105.3q-22.5,61.9-45.1,123.9c-3,8-6.3,16-9.3,23.3-10.3,4-19.7,2.2-28.9,2.3-6.2.1-9.9-3.4-11.8-9-5.2-14.4-10.3-28.8-15.4-43.3q-33.9-96.1-67.6-192.3c-3.2-9.3-7.3-18.4-8.8-29.2,11.6-5.3,22.6-4.1,33.6-1.9,2.1.4,4.5,3,5.6,5.2a161.5,161.5,0,0,1,6.4,16.8q29.7,88.1,59.1,176.2C1605.1,965.2,1607.3,970.7,1609.6,977Z" transform="translate(-30.2 -75.6)" style="fill:#818181"/><path d="M3547.3,222.1c-.7,16.8-5,31.4-13.7,47.2-7.5,0-15.4.7-23.1-.1-40.5-4.2-77.6,34.3-78.7,73.6-.2,6-.3,11.9-.3,17.9,0,38.6.1,77.2,0,115.8,0,5.9-.6,11.7-1,18.5-16.5,3.9-32,2.5-47.1,1-6.4-6.9-4.3-14.6-4.3-21.7-.2-45.9-.1-91.8-.1-137.7V226.8c4.8-7,10.3-6.6,15.6-6.8s10.6-.2,15.9,0,10.4.9,15.2,1.3c6.3,10.4-.2,22.3,6.3,31.8,6.7,1.5,9.6-3.8,13-7.3a101.7,101.7,0,0,1,49.3-28.9C3512,212.4,3529.8,212.3,3547.3,222.1Z" transform="translate(-30.2 -75.6)" style="fill:#7d7d7d"/><path d="M2573.1,983.2l30.2,13.5c-1.3,3.6-1.6,6.4-3,8.3-28.6,38.7-92.6,53.3-136.1,22.1-33.6-24.1-45-58.1-40.4-98.2,2.8-23.9,12.4-44.8,30.7-61,21.1-18.6,45.8-26.9,73.7-23,50.9,7.1,84,50.7,78.6,102.5-.1,1.2-1.2,2.3-2,3.8-5.8,3.6-12.7,2-19.1,2.1H2481.8c-6.5,0-13.3-1.5-19.8,3.1-3.1,7.5,1.1,13.8,4.3,20.2a47.5,47.5,0,0,0,22.4,22.1C2519.2,1012.9,2546.9,1008.3,2573.1,983.2Zm-5.8-63c2.6-7.2,0-12.1-3.2-16.2s-8.4-10.7-13.9-14c-21.7-12.9-44.1-13-66.1-.3a40.4,40.4,0,0,0-18.6,22.6c-.8,2.3-.1,5-.1,7.4C2480.4,923.1,2548.8,923.4,2567.3,920.2Z" transform="translate(-30.2 -75.6)" style="fill:gray"/><path d="M3584.2,983.5l28.1,13.5c-2.3,4.6-3.5,8.4-5.8,11.2-29.3,36.3-92.5,50.3-136.8,16.3-29.7-22.7-39.8-54-37.7-89.8,1-16.7,6.4-32.3,15-47.1,23.4-40.5,82.6-58,127.7-29.8,24.8,15.5,37.1,39.3,40.5,67.8,1,7.8.2,15.9.2,23.1-5.2,6.2-11.6,4.5-17.3,4.6H3492.2c-6.5,0-13.3-1.2-20.1,2.5-3.9,12.9,2.4,22.9,10.8,31.7,23,23.8,59.7,23.6,82.8,8.8C3571.8,992.5,3577.6,988.1,3584.2,983.5Zm-8.5-63.4c3.3-7.1.3-12.8-3.9-18.3-12.4-16.2-29.2-21.2-49.1-20.8-21.5.5-36.7,10.1-47.1,28.1-1.7,3.1-1.5,7.2-2.2,10.9C3490.8,923.3,3560.1,923.2,3575.7,920.1Z" transform="translate(-30.2 -75.6)" style="fill:gray"/><path d="M5548.3,955.4c-4.1,13.3,2.1,23.3,10.6,32.1,22.8,23.9,59.5,23.7,82.7,8.9,6.1-3.9,11.9-8.2,18.2-12.6,5.3,2.2,10.2,4.2,14.9,6.4s8.1,4.4,13.3,7.3c-2,4-3.1,7.8-5.4,10.6-29.2,36.4-92.5,50.4-136.8,16.5-29.8-22.8-39.9-54-37.8-89.8,1-16.7,6.4-32.3,14.9-47.1,23.4-40.5,82.6-58.1,127.7-30,24.9,15.5,37.1,39.4,40.6,67.8,1,7.8.2,15.9.2,23.2-5.1,6.2-11.5,4.5-17.2,4.6H5568.3C5561.8,953.4,5555,952.4,5548.3,955.4Zm103.4-35c3.1-8.5-.6-13.9-4.5-19.5-17.7-25-65.2-27.6-87.1-3.8-5.5,6-12.1,12.4-10.3,23,2.7.8,5.1,1.9,7.6,2.1C5576.6,923.6,5638.7,922.4,5651.7,920.4Z" transform="translate(-30.2 -75.6)" style="fill:gray"/><path d="M5868.5,983.3l27.4,13.3c-1.4,4.3-2.1,8.2-4,11.3-5,8-12.4,13.7-20.3,18.8-36.4,23.4-82.5,22.8-116.5-1.6-13.4-9.6-23.5-22.2-29.1-37.3-13.9-36.9-13.5-73.2,10.5-106.5,21.6-29.9,52-40.4,87.6-36.2,43.1,5,69.7,38.9,75.2,74.5,1.6,10.2,6.2,20.7-.5,32.3-4.5.5-9.6,1.3-14.8,1.4H5778.1c-6.6,0-13.2.3-18.7.5-5.4,4.7-4.3,9.4-2.9,13.8,6.3,20.8,26.6,36.3,48.9,38.5,20.3,1.9,38.3-3,54.1-15.9ZM5757.9,920c18.1,3.3,89,3.2,104.8-.2.5-10.7-4.8-18.7-12.4-25.5-13.3-12.1-29.5-14-46.6-13.1C5781.1,882.4,5765,895.4,5757.9,920Z" transform="translate(-30.2 -75.6)" style="fill:gray"/><path d="M4041.7,950c-7,4.9-13.8,3.2-20.3,3.3h-104c-6.5,0-13.1.3-18.7.5-4.3,6.6-2.7,11.8-.7,16.7,8.7,21.2,25.6,32,47.3,35.3s39.6-2.8,55.7-16.4l6.6-5.2a76.1,76.1,0,0,1,27.8,12.7c1.6,7.2-2.1,11.2-5.7,15.1-17,18.6-38.8,28.3-63.2,31.1-34.8,3.9-64.2-7.2-87.1-34.6a82.7,82.7,0,0,1-18.1-37.4c-8-38.8-2.1-74.1,28-102.8a85.6,85.6,0,0,1,57.6-24.3c47.8-1.7,84.7,27,92.8,73.2,1.4,7.8,2.4,15.8,3.1,23.7C4043,944.2,4042,947.4,4041.7,950Zm-38.8-30c.3-1.8,1.4-3.9.9-5.6a45.1,45.1,0,0,0-20.4-26c-10.7-6.5-22.4-7.2-34.6-7.3-21.6-.2-36.7,10.2-47.4,27.8-1.9,3.1-2.1,7.3-3,11C3915.6,923.3,3987,923.2,4002.9,920Z" transform="translate(-30.2 -75.6)" style="fill:gray"/><path d="M2228,922.9c1.5-12.6-2.1-21-9.7-27.2-17.2-14.1-36.7-18.6-58-11.5-8.7,3-16.9,7.7-26.5,12.2-8.5-.6-15.8-6.7-23.8-11.3-3.7-2.1-4.5-7.6-1.5-10.5,5.7-5.5,11.5-11.2,18.1-15.5,33.7-22,78.3-18.5,106.1-.1,18.8,12.5,30.1,30.5,30.5,53.3.7,38.7.2,77.4.1,116,0,1.9-.9,3.8-1.6,6.6-9.4,3.8-18.9,2.8-28.9.9-1.9-5.2-3.5-10-5.1-14.5-2.4,0-4-.5-4.9.1-3.3,2.1-6.3,4.7-9.5,7.1-34.2,25.7-73.2,16.6-98.8-6.4-21.5-19.3-28.3-67.9,9.7-91.7,20.4-12.8,43.4-16.4,67.3-13.6,7.8.9,15.5,3.4,23.4,4.9C2218.6,922.4,2222.5,922.4,2228,922.9Zm-41.6,23.8c-15.1-1.4-29,2.6-41.5,11-15.3,10.2-15.9,28.8-1.5,40.1a29.8,29.8,0,0,0,10.4,5.8c24.8,7.1,52.2,2.8,69.1-21.5a45.8,45.8,0,0,0,6-12.4c2.1-7.7-.6-13-7.6-16.3C2210.3,948.2,2198.7,945.6,2186.4,946.7Z" transform="translate(-30.2 -75.6)" style="fill:#7f7f7f"/><path d="M3256.1,946c1.1,21-5.2,40.7-18,58.8-17,24.1-40.9,35.9-69.2,38.6-58.6,5.5-106.2-38.9-106.2-98.3,0-37.4,14.1-67.8,46.6-87.1s66.3-19.6,98.9-1c31,17.7,48,45.2,47.9,81.9Zm-96.2,60.3c34.6,3.1,62.6-27.3,61.8-62.7s-25-60.9-60.6-62.7c-30.2-1.5-62.7,22.8-63.6,62.5C3096.6,979.8,3123.4,1006.2,3159.9,1006.3Z" transform="translate(-30.2 -75.6)" style="fill:gray"/><path d="M4343,946.6c.9,41.6-25.8,84.3-76,95.1-55.6,11.9-111-22.6-117-84.4a148,148,0,0,1-.2-24c3.7-64,65.1-98.8,116.8-87.1q48.3,10.9,68.3,55.8C4341,915.4,4343.2,929.9,4343,946.6Zm-97.5,59.7c30.6,3.2,62-20.9,62.7-62.2.7-35-26.1-62.5-60.6-62.8-37.3-.3-63.1,24.6-63.5,61.6S4208.6,1006.1,4245.5,1006.3Z" transform="translate(-30.2 -75.6)" style="fill:gray"/><path d="M6323,1035.8c-6.7.7-11.3,1.5-15.8,1.5s-10.5-.7-14.6-1c-6.6-5.5-5.1-11.9-5.2-17.7-.1-28.6,0-57.3-.1-85.9,0-6.7,0-13.4-1.1-19.9-2.2-12.7-9.4-21.7-21.4-27-24.5-10.8-52.1-1.5-65.1,22.5a62.6,62.6,0,0,0-7.5,30.7c.2,26,.1,52,0,77.9,0,5.9-.7,11.7-1.1,17.8-9.9,3.9-19.2,3.2-28.3,1.7-2.5-.4-5.3-3.7-6.5-6.3s-.9-6.6-.9-9.9c0-51.3-.1-102.6.1-153.9,0-4.5,1.2-9,1.8-13.4,10.6-4,20.3-3.2,30.6-1.1l6.3,14.5c2.5-.6,4.9-.3,6.2-1.4a79.7,79.7,0,0,1,36.9-19c24.3-5.3,46.5-.4,65.3,16.1,15.5,13.7,21,32,21.1,52.1.1,33.3,0,66.6,0,99.9C6323.7,1020.6,6323.3,1027.2,6323,1035.8Z" transform="translate(-30.2 -75.6)" style="fill:#838383"/><path d="M5312.6,1035.9c-1.1-3.4-2.1-5.3-2.1-7.2q-.2-84.7-.1-169.7c0-1.9,1-3.7,1.8-6.5,9.3-3.7,19-2.5,29.4-1,1.8,5,3.5,9.8,5.1,14.1,2.2.2,3.8.8,4.7.3,5.1-3,10.1-6.3,15.2-9.5,25.3-16.1,51.5-15.7,78-3.2a49,49,0,0,1,23.7,23.4c6,12.7,10.3,25.9,10.3,40.3-.2,33.9-.1,67.9-.1,101.8a70.6,70.6,0,0,1-.2,8c-.6,6.9-3.3,10-9.7,10.3-7.9.5-15.9,1.3-24.6-1.7-.6-4.5-1.7-9-1.7-13.4-.2-27.3-.1-54.6-.1-81.9,0-4.7.1-9.3-.1-14-.4-19.7-8.1-34.9-27.7-41.8s-38.4-3.3-52.9,12.7c-9.2,10.2-14.5,22.1-14.4,36.2.1,27.3,0,54.6-.1,81.9,0,6.5-.5,13-.8,19.6C5334.6,1038.8,5324.2,1037.7,5312.6,1035.9Z" transform="translate(-30.2 -75.6)" style="fill:#818181"/><path d="M4800.1,852.2c10.1-3,19.2-2.2,29.3-.7,1.8,4.7,3.5,9.5,5.3,14.5,2.3-.1,4.5.4,6-.5,5.2-3,9.9-6.6,15-9.8,24.2-14.9,49.3-14.9,74.5-3.5,16.5,7.5,27.2,21.3,32.1,38.7a107.4,107.4,0,0,1,3.8,27.6c.4,34.6.2,69.2.1,103.9,0,3.8-1,7.7-1.5,11.9-10.8,4.9-21.1,3.3-32.8,1.3-.6-5.2-1.6-10.3-1.6-15.4-.1-29.3.1-58.6-.2-87.9a92.4,92.4,0,0,0-2.5-21.6c-4.2-16.6-15.8-25.8-32.2-28.7-30.5-5.3-57.4,15.6-60.2,46.5-.4,5.3-.3,10.6-.3,15.9,0,24,.1,48,0,71.9,0,5.9-.6,11.8-.9,18.4-11.6,4-22.4,3.4-34.1.6-.6-3.6-1.5-6.8-1.6-10C4796.7,986.7,4797.9,868.8,4800.1,852.2Z" transform="translate(-30.2 -75.6)" style="fill:#7f7f7f"/><path d="M4426.8,1034.5c-3.6,1.4-4.8,2.2-6.1,2.3-31.6,1.7-29.2.8-29.2-26.6,0-33.3.1-66.6,0-99.8-.1-6.5-.7-13-1.1-20.7l-32.7-3.6c-3.5-11.1-2.6-21.4-1-31.7,9.9-8.4,23-.2,32.8-7.3,3.6-8.2,1.7-17,2-25.5,1.7-48.6,46-67.5,78.8-60.1,3.2.7,6.8,1.5,9.2,3.4s4.9,5.3,4.8,7.9c-.4,9.3-1.7,18.5-8.8,25.8-6.3-.4-12.2-1.2-18.1-1.1-15.4.2-27,9.7-29.1,24.7-1.2,8.4-2,17.1,1.4,25.9,14.2,5.1,29.3-.5,43.1,3.7,4.3,13.2,4.4,15.5,1.3,33.7-13.6,5.7-28.8-.6-42.5,3.9-5.4,5-3.9,11.4-3.9,17.1-.1,36,0,71.9-.1,107.8C4427.6,1020.9,4427.1,1027.4,4426.8,1034.5Z" transform="translate(-30.2 -75.6)" style="fill:gray"/><path d="M2359.8,846.9c6.2,4.7,13.1,2.9,19.6,3.3l19.7.7c5.8,11.8,4.1,22.7,2.2,33.9-13.3,6.8-28.3-.6-41.9,6.2-.5,5.2-1.3,10.3-1.3,15.5-.2,23.3-.1,46.6,0,69.9a80.4,80.4,0,0,0,.6,12c1.5,9.3,7.5,15.7,16.9,17.1,5.9,1,11.9.8,18.1,1.1,8.2,7.3,8.4,17.8,12.6,27.4-2.7,2.4-4.7,5.5-7.5,6.4-24.6,7.9-51.1,3.4-67.3-16.4-10-12.1-11.8-26.7-12.1-41.3-.4-24,0-48-.1-71.9-.1-6.6-.6-13.1-.9-18.7-9.2-7.4-19.7-1.5-29.1-7-4.5-8.5-2.6-18.4-1.4-28.1.2-2.3,4.1-5.5,6.7-6,7.1-1.3,14.3-1.4,22.5-2.1.8-4.5,2-8.2,2.1-12,.2-11.3-.1-22.6.2-33.9.3-9.7,2.6-12.4,11.5-12.6,28.3-.8,27.2-.5,27.2,25.2C2358.1,826.1,2356.5,836.8,2359.8,846.9Z" transform="translate(-30.2 -75.6)" style="fill:#818181"/><path d="M5933.9,1035.6c-3.4-14.9-5-118.7-2.6-171.8.2-3.7,1.5-7.5,2.3-11.2,10.5-3.7,20.3-2.7,30.8-1l5.9,15.6c3.9-2,7.7-3.1,10.4-5.5a74.3,74.3,0,0,1,29.7-15.8c12.4-3.5,24.7-3.5,37.3,4.4-1.1,5.4-1.9,10.5-3.1,15.5-3.3,13.4-6.5,17.1-22,16.1-29.7-1.9-51.9,20.2-52.4,50.1-.4,25.9-.1,51.8-.1,77.8,0,5.3.1,10.6-.2,15.9-.5,8-3.2,11.1-10.8,11.4S5941.9,1038.5,5933.9,1035.6Z" transform="translate(-30.2 -75.6)" style="fill:#838383"/><path d="M2672.4,1036c-11.7,1.6-21.5,2.3-32.1-.6-.7-3.8-1.9-7.6-1.9-11.4q-.2-125.7,0-251.5a74.9,74.9,0,0,1,.9-8.5c11.3-6.1,22.5-5.4,33.6-.9,2.2,14.2,3.7,230,1.8,261.9C2674.5,1028.2,2673.4,1031.3,2672.4,1036Z" transform="translate(-30.2 -75.6)" style="fill:#7e7e7e"/><path d="M3320.4,1036c-11.8,1.5-21.5,2.3-32.1-.6-.7-3.9-1.9-7.7-1.9-11.5q-.2-125.7,0-251.4a71.1,71.1,0,0,1,.9-8.4c11.4-6.7,22.5-4.3,33.5-1.9,2.3,15,3.8,232,1.9,262.8C3322.5,1028.2,3321.4,1031.4,3320.4,1036Z" transform="translate(-30.2 -75.6)" style="fill:#7e7e7e"/><path d="M5232.1,852.8c2.4-1,3.6-1.9,4.8-2,32.2-1.7,29.4-1.4,29.4,26.3q0,67.9-.1,136c0,7.1,1.7,14.7-3.1,22.1-9.8,3.4-20,2.9-31.1.1-.6-3.5-1.5-6.7-1.7-9.9C5228.7,986.6,5229.8,868.6,5232.1,852.8Z" transform="translate(-30.2 -75.6)" style="fill:#7f7f7f"/><path d="M6110.1,1035.2c-11.1,3.1-21.3,3.2-32.3-.2-.8-3.9-2.3-7.6-2.3-11.4-.2-53.1-.1-106.2-.1-159.3a30.3,30.3,0,0,1,.4-6c.7-4.4,3.4-7.2,7.9-7.6,8.5-.7,17-1.2,26.2,1.1,3.4,21,1.1,41.5,1.6,61.9s.4,39.8,0,59.7S6113.2,1014.4,6110.1,1035.2Z" transform="translate(-30.2 -75.6)" style="fill:gray"/><path d="M3404.5,901.4v113.9c0,5.3-.1,10.7-.5,16s-3.4,7-7.5,8.2a6.9,6.9,0,0,1-2,.3c-27.8,1.8-32.7-.2-32.5-27.6.6-76.6.2-153.2.2-229.8,0-4-.1-8,.2-11.9.6-8.6,3.5-11.8,12.6-12.1,31.2-1,29.6,0,29.5,27.2C3404.4,824.2,3404.5,862.8,3404.5,901.4Zm-9,131.5c.7-5.1,1.4-8.3,1.4-11.5q.2-121.9,0-243.8c0-3.8-1.5-7.5-2.4-11.5-7.3-1-13.7-3-21.1,2.5-.3,5.7-.9,12.2-.9,18.7-.1,31.3,0,62.6,0,93.9,0,44-.1,88,0,131.9.1,6.4-1.8,13.4,4,19.8Z" transform="translate(-30.2 -75.6)" style="fill:#b0b0b0"/><path d="M1388.2,1009.9c1.6,15.6-12.9,27.3-25.2,27.4-15.9,0-27.8-16.2-27.1-26.7,1.2-18,14.2-28.8,27.5-28.2C1378.5,983.1,1388.2,993.5,1388.2,1009.9Z" transform="translate(-30.2 -75.6)" style="fill:#838383"/><path d="M1775.1,1009c.3,15.5-10.1,27.2-24.8,28s-27.7-11.2-27.8-27.1c-.2-13.9,12.4-27.2,25.9-27.4S1774.8,994.7,1775.1,1009Z" transform="translate(-30.2 -75.6)" style="fill:#838383"/><path d="M6094.2,809.1a26.1,26.1,0,0,1-26.4-24.3c-.7-12.1,12.9-25.1,25.9-24.8s25.5,13,25.1,25.7S6107.6,808.9,6094.2,809.1Z" transform="translate(-30.2 -75.6)" style="fill:#838383"/><path d="M5232.3,802l-3.9-4.1c.1-5.3,0-10.6.4-15.9.1-2.6.6-5.6,2.1-7.5,4.8-6,11.3-9.9,19-9.1s14.4,7.1,17.5,14.7-1,13.4-5.8,17.9-12.7,9.8-21.6,5.4C5237.8,802.3,5234.9,802.4,5232.3,802Z" transform="translate(-30.2 -75.6)" style="fill:#7c7c7c"/><path d="M5232.3,802c2.6.4,5.5.3,7.7,1.4,8.9,4.4,15.8.2,21.6-5.4s8.8-10.9,5.8-17.9-8.8-13.8-17.5-14.7-14.2,3.1-19,9.1c-1.5,1.9-2,4.9-2.1,7.5-.4,5.3-.3,10.6-.4,15.9-2-1.5-5.1-2.7-5.8-4.7-3.3-10.2-1.5-19.5,6.8-27s16.7-10.3,27.2-6,17.8,12.3,18.6,23.6c.4,5.4-2.3,11.7-5.4,16.4-6.9,10.7-22.5,14.2-33.3,8.1C5234.6,807.1,5233.7,804.1,5232.3,802Z" transform="translate(-30.2 -75.6)" style="fill:#b0b0b0"/><path d="M273.3,313.4l-4.3-4.2-7.7-3.9-13.4-13.4c0,.1-.7.1-.7.1l-6-3.6a9,9,0,0,1-.7-2.7c-9.3-4.8-18.8-9.4-27.9-14.6-19.5-11-38.6-22.6-58.2-33.4-10.9-6-22.4-10.8-33.6-16.2-10.4-2.8-20.8-2.1-31.2-.2-.9,2.2-1.7,4.4-2.9,7.6l14,.8c-.3,10.1.3,19.8,8.3,27.5,5.2,5,9.3,11.4,15.2,15.2,20.3,13.3,36.5,32.9,60.9,39.7,10.1,9.5,22.6,9.9,35.4,9.4,6.6-.3,13.2-.1,19.9,0,12.4.2,25.2-2.1,36.1,6.8,1.1.9,5.6-.5,6.7-2s.8-5.2-.1-7.4C281.3,315,277.4,313.7,273.3,313.4Z" transform="translate(-30.2 -75.6)" style="fill:#2b8af5"/><path d="M298,327.2c-.8-.4-2.1.5-3.1.9l2,3.7,2.5-1.8C299,329,298.7,327.5,298,327.2Z" transform="translate(-30.2 -75.6)" style="fill:#2b8af5"/><path d="M273.3,313.4l-4.3-4.2Z" transform="translate(-30.2 -75.6)" style="fill:#1091f3"/><path d="M915.6,282.4a62.9,62.9,0,0,0-25.2-46.1,349.8,349.8,0,0,0-34.8-23.1c-48.2-28.4-96.6-56.4-144.9-84.5-23.6-13.7-47.1-27.5-70.8-41.1-36.6-20.9-73.7-11.7-95.8,14.1s-20.3,71.7,4.4,94.2a152.4,152.4,0,0,0,25.6,18.9c37.8,22.2,76,43.8,114,65.8,4.5,2.6,8.4,6.4,12.5,9.6l12.3,2.5c-2.3-4.5-4.7-8.7-8.1-12.2,3.4,3.5,5.8,7.7,8.1,12.2,35.3,20.5,70.5,41,105.9,61.3,3.3,1.9,7.5,2.4,11.2,3.5a18.8,18.8,0,0,0,1.8-1.2,18.8,18.8,0,0,1-1.8,1.2c8.7,3.9,17.4,5.5,26.3.6a.3.3,0,0,1-.1-.2.3.3,0,0,0,.1.2l9.4-.3c14.7-4.2,25.6-14.1,35.3-25.2C913.6,318.3,916.9,300.1,915.6,282.4Zm-60.8,73h0c13.9-3.3,23.2-13.1,32.8-22.6C878,342.3,868.8,352.1,854.8,355.4Z" transform="translate(-30.2 -75.6)" style="fill:#089e5b"/><path d="M421.3,140c-.7-7-3-14.1-5.7-20.8-10-24.9-28.8-38.7-55.1-42.7-20.8-3.2-39.3,2.8-57,13.1q-96.6,56.1-193.1,112.1c-9.7,5.6-19.1,12-28.6,18.1l7.8,1.5c10.4-1.9,20.8-2.6,31.2.2,0-.9-.1-1.9-.1-2.8,0,.9.1,1.9.1,2.8,11.2,5.4,22.7,10.2,33.6,16.2,19.6,10.8,38.7,22.4,58.2,33.4,9.1,5.2,18.6,9.8,27.9,14.6a9,9,0,0,0,.7,2.7l6,3.6s.7,0,.7-.1a4.7,4.7,0,0,1,1.4-1.4c4-3.3,7.8-7.3,12.3-9.9,21.7-12.8,43.6-25.3,65.5-37.9,18.4-10.6,37.5-20.1,55.2-31.8C407.4,194.4,424.8,172.5,421.3,140Z" transform="translate(-30.2 -75.6)" style="fill:#ec0e32"/><path d="M247.2,292l-6-3.6Z" transform="translate(-30.2 -75.6)" style="fill:#458af5"/><path d="M3575.7,920.1c-15.6,3.1-84.9,3.2-102.3-.1.7-3.7.5-7.8,2.2-10.9,10.4-18,25.6-27.6,47.1-28.1,19.9-.4,36.7,4.6,49.1,20.8C3576,907.3,3579,913,3575.7,920.1Z" transform="translate(-30.2 -75.6)" style="fill:#f7f7f7"/><path d="M3395.5,1032.9h-19c-5.8-6.4-3.9-13.4-4-19.8-.1-43.9,0-87.9,0-131.9,0-31.3-.1-62.6,0-93.9,0-6.5.6-13,.9-18.7,7.4-5.5,13.8-3.5,21.1-2.5.9,4,2.4,7.7,2.4,11.5q.2,121.9,0,243.8C3396.9,1024.6,3396.2,1027.8,3395.5,1032.9Z" transform="translate(-30.2 -75.6)" style="fill:#787878"/></svg>