<svg xmlns="http://www.w3.org/2000/svg" width="724.4" height="115.2" viewBox="0 0 724.4 115.2"><path d="M895.8,580l-.7,1.1c-6.5,2.4-10.4,1.2-15.2-4.6-1.7-3.9-3.2-7.9-4.9-11.9a48,48,0,0,0-2.9-8.3c-1.8-5.9-4.2-11.2-11.7-10.9s-13.3-.4-19.9-.1c-3.3.9-3.6,3.5-3.6,6.3.1,8.2.1,16.3,0,24.5,0,1.8.4,3.7-.9,5.3-4.4,1.3-8.8,2.5-12.7-1.5a9.9,9.9,0,0,1-.4-3.4c.1-28.3-.1-56.6.1-84.9a3.5,3.5,0,0,1,.6-1.8c3-3.1,7-1.2,10.5-2.2,5.5-.2,11.2.5,16.7-.4s11.5.2,17.3.4h1.7c6.6.8,13.3,1.2,18.2,6.8a9,9,0,0,1,1.7,3c2,2.9,2.2,6.5,3.1,9.9.6,8.9-.4,17.4-5.2,25.2s-4.4,13.7-1.4,21.1S893.5,570.9,895.8,580Z" transform="translate(-172.3 -476.2)" fill="#002d64"/><path d="M395,581c-11.5-4.2-15.4-13.3-16.4-24.8s-1-25.1,5.8-36.6a20.2,20.2,0,0,1,6.8-6.5c8.2-5,17.4-5.6,26.7-4.9,4.4.3,8.9.6,13.1,2.3,9.1,3.5,11.4,11.3,13.1,19.6.8,4.1.5,8.3.8,12.4.4,6.1-1.4,7.8-7.5,7.8-9.8.2-19.6.1-29.5.1-3.5,0-7-.1-10.5.1s-5.4,1.4-4.8,6c1.3,9.4,7.1,14.1,18.3,14.5,8.4.2,16.9.2,25.2-1.8,2.4-.5,5.3-1,5.7,2.8-1.9,8.2-8.4,9.9-15.4,11C415.8,585.1,405.3,583.8,395,581Z" transform="translate(-172.3 -476.2)" fill="#012d64"/><path d="M336.2,576.4c-3.8,5-7.6,9.8-14,11.6a2.3,2.3,0,0,1-2.1.3,9.5,9.5,0,0,1-7.9-6c-1.6-3.8-5.9-5.1-9.1-7.3-12.1-7.9-24.3-15.6-36.4-23.4-7.3-4.7-14.7-9.1-22-13.7-3-1.9-6.4-3.6-6.1-8.3-.2-.4-1,.6-.4.3s.4,0,.3.4c-.4,2.1-.6,4.5-3.9,3.4-.1-6,2.5-10.9,5.7-15.7l1.9-.9c18,9.7,34.5,21.7,51.8,32.6,10.6,6.6,21.2,13.2,31.6,20.1,3.3,2.2,7.4,2.8,10.7,5.1A2,2,0,0,1,336.2,576.4Z" transform="translate(-172.3 -476.2)" fill="#07b8fb"/><path d="M336,575c-4.3-.3-8.1-2.2-11.5-4.4-23.9-15.3-47.7-30.8-71.7-46.1-2.6-1.6-4.4-5-8.6-4-1.8.4-.5-2.7-2-3.4,1-2.9,1.9-5.8,4.7-7.4,2.7,5.7,8,8.7,13,11.6,12.2,7.1,23.6,15.5,35.7,22.8,10.6,6.5,20.9,13.5,31.3,20.3a30.7,30.7,0,0,0,8.7,3.8,4.2,4.2,0,0,1,1.8,1.1,7.2,7.2,0,0,1,1.1,1.9C338.7,573.2,337.5,574.2,336,575Z" transform="translate(-172.3 -476.2)" fill="#0db9fb"/><path d="M249.1,506a23.1,23.1,0,0,1,8-9c2.6.5,1.7,1.9.9,3.3-3.3,2-2.7,4.1-.2,6.3a95.9,95.9,0,0,0,10.6,7.4c13.9,8.8,27.5,18.1,41.4,26.7,10.8,6.7,21.6,13.1,31.6,20.9a4.9,4.9,0,0,1,1,2.6c0,.9-.2,1.6-1.2,1.8s-1.2,2.1-2.6,2.3c-5.3-1.3-8.7-5.8-13.2-8.6-16.5-10-32.6-20.7-48.9-31-7.3-4.6-14.1-10-21.7-14.1C251.4,512.7,248.9,510.2,249.1,506Z" transform="translate(-172.3 -476.2)" fill="#16bcfc"/><path d="M257.1,500c1.3-1,1.2-2,0-3,1.1-1.2,2.1-2.7,4-3,3.8,5.7,9.4,9.3,15,12.9,20.1,12.9,40.5,25.5,60.3,38.9a63,63,0,0,0,9.7,4.9,1.2,1.2,0,0,1,0,1.4h.1c-1.3,1.2-1.2,3-2.1,4.3-3.1,2.5-5.5,0-7.6-1.4-8.1-5.4-16.4-10.6-24.7-15.9-10-6.5-19.9-13.2-30.1-19.4-6.7-4-12.9-8.7-19.6-12.8C259.7,505.4,256.8,503.7,257.1,500Z" transform="translate(-172.3 -476.2)" fill="#1ebefc"/><path d="M336.2,506.6c3,3.2,4.6,7.3,7,10.9.5,1.7,1.6,3.3,1.5,5.2-2.4,4.3-5.8,1.9-8,.5-15.7-10-31.3-20.1-46.7-30.5-2.5-1.7-6.3-3.8-3.3-8.1h11.1a8.7,8.7,0,0,1,6,3.4c6.3,7.7,15.9,10.8,23.4,16.8a49.1,49.1,0,0,0,8.5,5.4C335.3,508.8,334.8,507.5,336.2,506.6Z" transform="translate(-172.3 -476.2)" fill="#35c4fd"/><path d="M175,537.6a2.7,2.7,0,0,1,.9-3,18.9,18.9,0,0,0,15.5,6.1c6.4-.4,12.9-.2,19.4-.1s7.1,1.8,5.5,7.7c-1,3.6-2.8,7-2.6,10.9s-2.6,6.5-5,9.2-3.2,3.3-5.8,3-.3-2.6.3-3.9l1-1.2a25.8,25.8,0,0,0,4.1-5.7c1.6-3.5.8-4.9-3.1-5.1s-10-.1-14.9-.1h-3.5c-12.1-.1-13.5-1.6-12.7-13.6A31.5,31.5,0,0,1,175,537.6Z" transform="translate(-172.3 -476.2)" fill="#0099e4"/><path d="M257.1,500a33.4,33.4,0,0,0,10,8.7c12.5,7.7,24.6,16.1,37,23.8,8.4,5.2,16.3,11.2,25.1,15.8,3.6,1.9,6.4,5.2,10.2,6.9,1.5.6,2.9,1.9,4.6.8s.7-.5,1,0-.6,1.3-.9,1.9.2,4.4-3,4.1l-20.4-12.9-50.5-32.5c-5-3.2-10.1-6.3-14.5-10.4S253.4,501.4,257.1,500Z" transform="translate(-172.3 -476.2)" fill="#1abdfc"/><path d="M345.9,551c-6.7,0-11.3-4.7-16.1-8.1q-10.7-7.5-21.6-14.1c-13.8-8.5-27.2-17.7-40.9-26.4-2.8-1.8-6.3-4-6.2-8.4,1.4-2,3.9-2.1,5.9-3.3,2.1,7.8,9.2,10.5,15.1,14.3,15.7,10,31.5,19.8,47,30.2,4.4,3,8.8,6,14.2,7,1.4.2,3,.8,3.3,2.6S347.2,549.1,345.9,551Z" transform="translate(-172.3 -476.2)" fill="#22bffc"/><path d="M346,544c-12.3-1.6-20.8-10.5-30.8-16.5s-21.8-13.8-32.7-20.8c-3.9-2.5-8-4.8-11.7-7.6s-4.8-4.6-3.8-8.4c2.7-1.9,5.5-3.8,9-3.8-.9,3.2-.9,3.2-4.3,3.3,6.7,7.6,15.8,11.7,23.9,17.2q19.9,13.2,40.4,25.8a18.2,18.2,0,0,0,6.4,2.7,5.9,5.9,0,0,1,4.5,3.6C347,541.1,347.4,542.7,346,544Z" transform="translate(-172.3 -476.2)" fill="#26c0fc"/><path d="M286.1,485a9.2,9.2,0,0,0,4.6,6.8q20.9,13.5,41.8,26.9c2.8,1.9,5.1,4.7,8.9,5,1.1.1,2,.3,2.7-.7s1.5.6,2.1,1.1l.6,3c-.8,1.6.5,3.4-.5,5a13.3,13.3,0,0,1-10.3-2.3c-16.9-11.2-34.3-21.6-51.2-32.6a34,34,0,0,1-6-5.3c-2.5-2.5-2.7-4.4,1.2-5.5,1.6-.8,3.9.4,5-1.9l1-.3c.4.1.5.3.4.5S286.2,485,286.1,485Z" transform="translate(-172.3 -476.2)" fill="#2fc3fd"/><path d="M280.1,487c-1.1,1.1-3.5,1.2-1,3.7,3.9,4,8.4,6.9,13,9.8,14.4,9.2,29,18,43.1,27.5,3.5,2.3,7.4,2.1,10.8,4a6,6,0,0,1,0,7c-6.1-2.7-12.3-5.2-17.9-8.9-16.3-10.7-32.7-21.2-49.1-31.7-3.3-2-5.5-5-8.7-7.9,2.6-.6,4.9-1.1,5.7-3.6l1.1-.6c.8.4,1.7.1,2.5.3Z" transform="translate(-172.3 -476.2)" fill="#2bc2fc"/><path d="M552.3,476.9a.8.8,0,0,1,.7.1c.3,1.5-.6,2.4-1.8,3-7.6,1.5-7.6,1.5-7.6,9.7,0,27.8-.1,55.6,0,83.4,0,2.2-.9,5.2,2.6,6.1s6.2-.6,6.2-5.2c.1-13.6,0-27.3,0-40.9a46.6,46.6,0,0,1,.2-6.5c.7-4.4,2.7-6.6,7.2-6.9s7.3-.8,10.9-.8,4.9,1.1,7.4.2c4.1.7,9.2-.9,11.4,4.6a2,2,0,0,1-.6,1.5c-4.1-3.1-8.8-3.4-13.7-3.2s-9.6,0-14.4.2a6.1,6.1,0,0,0-5.1,2.8c-.5,16.4,0,32.8-.2,49.2-.1,2,.3,4-.4,6-2.4,4.7-10.4,5.2-15.1.8-.8-1.2-.5-2.6-.5-3.9V482.9c0-1.3-.3-2.7.5-3.9s1.9-1.4,2.9-2A24.8,24.8,0,0,1,552.3,476.9Z" transform="translate(-172.3 -476.2)" fill="#738ba9"/><path d="M796.6,583.1c-6.2-.2-8.3-4.7-9.8-9.5s-3.8-12.3-5.4-18.6c-.9-3.7-2.9-5.2-6.6-5.1-10.1,0-20.3-.1-30.4,0-5.7,0-8.4,2.1-9.3,8s-3.8,12.6-5.6,18.9c-1.3,4.7-9.1,8.3-13.6,6.7-2.6-.9-4.5-2.4-3.3-6,4-12.1,6.9-24.5,11.3-36.5.2-.3.1-.6.2-1a1.4,1.4,0,0,1,2.1.2c.7,2.9-.3,5.6-1.1,8.3-2.6,8.4-5.3,16.8-7.9,25.2-.6,1.8-1.9,4.1.5,5.4a6,6,0,0,0,6.6-.8c1.9-1.6,2.6-3.8,3.3-6.1,1.8-5.7,3.4-11.4,5.3-17.1s4.8-8.3,11.4-8.4c9.6-.2,19.3,0,28.9-.1,5.6,0,9.2,2.4,11.1,7.6s3.3,10.5,4.8,15.8a24.4,24.4,0,0,0,2.8,6.9c1.9,2.7,4.7,2.8,7.6,2.6s2.3-3.1,2.9-5,1.7-.5,2.4.5c-.2,2.7,1.9,6-1.6,8.1A13.4,13.4,0,0,1,796.6,583.1Z" transform="translate(-172.3 -476.2)" fill="#6c86a5"/><path d="M181.1,524.9a19.3,19.3,0,0,1,6.1-6.9c9.7,4.1,20,2,30,2.6,3.4.2,6.9.3,6.7,5.2-.3,1.6-1.3,3.3.6,4.5a3,3,0,0,1,0,2.1c-2.1,2.2-1.4,5.8-3.8,7.9-2-.4-2.5-1.9-2.8-3.6.3-6.2.3-6.3-5.9-6.2-8,0-15.9-.3-23.9.3C183.5,531.2,181.3,529.1,181.1,524.9Z" transform="translate(-172.3 -476.2)" fill="#00a7ee"/><path d="M249.1,506c2.2,7.5,9.6,9.1,15,12.8,16.7,11.5,33.7,22.8,51,33.4,8.2,5,16.2,10.2,23.9,15.8.3,1.6-.4,2.2-2,2a9.4,9.4,0,0,0-1-1c-9.9-4.4-18.4-11-27.6-16.7-10.8-6.8-21.6-13.7-32.3-20.7-8.2-5.3-16.5-10.5-24.6-16A9.7,9.7,0,0,1,247,509C246.4,507.1,248.4,507,249.1,506Z" transform="translate(-172.3 -476.2)" fill="#11bafb"/><path d="M588.9,525.2a6.6,6.6,0,0,0,.1-1.4c2.8,0,3.6,2,4.3,4.1a36.5,36.5,0,0,1,1.2,10.4c0,11.8-.1,23.6.1,35.4,0,4.8,1.1,5.8,5.4,5.7s4.4-1.1,4.4-4c0-15.7.7-31.3-.3-46.9-.6-11.4-4.9-15.3-16.2-17.3-8.6-1.6-16.9.1-25.3.8s-9.9-.7-10.1-8.7.3-16.3-.5-24.4l1-1.9c3.2,1.7,2.5,4.9,2.6,7.5a139.6,139.6,0,0,1,0,19.4c-.5,5,1.8,5.2,5.4,4.8,7.8-1.1,15.6-1,23.4-.9,14.4.4,18.2,3.3,22.7,16.9.8,12.6.3,25.2.3,37.7.1,6.3.5,12.6-.2,18.9l-2,1.8a30.3,30.3,0,0,1-10.4,0c-1.1-.8-3.1-.7-3-2.8-.7-13.8-.1-27.6-.3-41.3,0-2,.3-4-.3-6S589.3,527.9,588.9,525.2Z" transform="translate(-172.3 -476.2)" fill="#8399b3"/><path d="M219.1,537a3,3,0,0,0,1.9,3c-1.2,7.2-2.8,14.3-7.9,20-2.6-4.7,1.1-8.4,2.1-12.4s1.2-5.6-3.8-5.6c-6.8,0-13.7-.5-20.5.2-5.2.5-9.4-1.7-13.8-3.6-1.8-.7-.7-2.7-1.2-4s.5-1.9,1.1-2.6c11.2,4.5,23,1.7,34.5,2.5C214.2,534.7,217.3,534,219.1,537Z" transform="translate(-172.3 -476.2)" fill="#009ce6"/><path d="M219.1,537c-1.8-1.1-3.8-1-5.8-1H185.8c-3.5,0-6.9-.5-8.8-4,.8-2.7,1.7-5.3,4.1-7.1,1,3.5,3.3,5.1,7,4.6,10-1.2,20.2-.2,30.3-.5,2,0,2.9.7,1.8,2.7A8.9,8.9,0,0,0,219.1,537Z" transform="translate(-172.3 -476.2)" fill="#00a2eb"/><path d="M336.2,506.6c-.6,1.7.6,3,1,4.9-13.3-7.9-27.4-14.7-38.1-26.4a1.1,1.1,0,0,1,.9-.8l3.2.6c1.3,1.6,3,1.8,4.9,1.3C319.5,490.1,329.3,496.3,336.2,506.6Z" transform="translate(-172.3 -476.2)" fill="#3cc5fc"/><path d="M224,509.3l7.1,2.7c.8,5.6-1.9,9.7-5.5,13.5a1.8,1.8,0,0,1-2-1.7c-.7-4.4-3.4-5.6-7.5-5.4-6.2.4-12.3-.3-18.4-.6-1.9-.1-4.3,0-4.4-2.2s1.6-3.1,3.8-3.1,1.6.1,1.9-1,2.6-1.8,4.1-2.2A69.7,69.7,0,0,1,224,509.3Z" transform="translate(-172.3 -476.2)" fill="#00aef3"/><path d="M441.1,573c-.1-3.6-2.5-3.5-4.9-2.9-8.5,2.3-17.1,2-25.7,1.6s-14.2-1.9-17.5-9.8c-1.2-3.1-1.1-6.2-.8-9.3s3-3.4,5.6-3.4h39.8c6.4,0,6.6-.1,6.5-6.3-.1-4.3.5-8.6-.9-12.9.4-.7.8-1.2,1.7-.9.1,3.2.2,6.4.2,9.6a18.6,18.6,0,0,1,.1,7.8c.5,3-2,3.5-3.7,4.7-13.7.8-27.3.1-41,.4-2.1,0-4.3-.4-6.4.4-2.4,5.8,2.7,15.5,9.2,16.9,11.1,2.2,21.8,1,32.7-.5,5.8-.8,7.3.6,6.1,5.7A1.1,1.1,0,0,1,441.1,573Z" transform="translate(-172.3 -476.2)" fill="#8499b4"/><path d="M203.1,571l5-3a.8.8,0,0,1,1.2-.1,3,3,0,0,1-.8,2.7c-2.3,2.8-5.6,4.3-8.6,6.1l-1.4.4a47,47,0,0,1-5.3.2c-3.6.3-6.8-1.5-10.2-2.3a30.5,30.5,0,0,1-8-14.6c-.4-1.4-.9-2.8-.2-4.2s1.9.2,2.3,1c2.6,5.4,7.5,6.3,12.9,6.4,3.1,0,6.3-.4,9.3.4s4.8.7,4.8,4h0c-3,2.5-5.2,6.1-11,5.9C197.7,574.2,200,571.5,203.1,571Z" transform="translate(-172.3 -476.2)" fill="#0091de"/><path d="M240.3,518c-.8,5.6-4.7,10.3-5.2,16,1,3.9-1.9,6.9-2.5,10.4-.3,1.6-1.2,3-1.4,4.7a91.9,91.9,0,0,1-3.5,9.2c-.7,1.7-1.3,3.6-3.5,3.9a2.7,2.7,0,0,1-.9-1.2,4.4,4.4,0,0,1,.1-3c4.1-8.7,5.7-18.3,9.1-25.9-.4,1.5-2,3.8-2.6,6.6a1.8,1.8,0,0,1-2.1,1.6c-1.1-.1-1.5-1.1-1.7-2.2-.5-3.2,1.5-5.6,2.5-8.1-2.8,3.8-2.5,9-4.5,13.5-.9,1.7-1,3.9-3.2,4.7a1.1,1.1,0,0,1-1.3-.6c.4-5.1,2.3-9.8,4.1-14.6a92.5,92.5,0,0,1,5.8-14.6c.9-1.9,1.3-4.1,3.8-4.6C235.6,515.2,237.3,517.5,240.3,518Z" transform="translate(-172.3 -476.2)" fill="#1268a0"/><path d="M247,509c2.3,6,8.4,7.7,13,10.8,18.3,12.2,36.9,23.8,55.3,35.8,6.9,4.6,14.4,8,20.7,13.4-3.9.4-7-1.8-10-3.7-15.2-9.8-30.4-19.5-45.3-29.6-10.5-7-21.6-12.8-31.6-20.5-2.5-1.8-2.5-3.3-2.2-5.5A.6.6,0,0,1,247,509Z" transform="translate(-172.3 -476.2)" fill="#10bafb"/><path d="M198.1,586.8l-2-.8c-.1-2.6,2.1-2,3.5-2.3s.7-1.1.3-1.8,1.1-2,2.1-2.6a10.7,10.7,0,0,1,3-.6c2.4.2,4.3-1.1,6.3-2.2s3.3-2.7,5.7-1.8c.2,5,3.6,7.5,7.2,10.1,1.8,1.3,5.3,2,3.3,5.6H222c-3.5.4-6.9-.7-10.3-1s-4.9-1.7-7.6-.8l-2.1-.5A4.1,4.1,0,0,0,198.1,586.8Z" transform="translate(-172.3 -476.2)" fill="#24befc"/><path d="M199,511.5c-.9,2.3-4.6,1.2-5.1,4.5,4,.3,8.1.8,12.2,1s6.3.1,9.4,0c4.9-.2,9.7-.6,8.8,6.7-.2.8.9,1.2,1.8,1.3.4,1.7-.9,2-2,2.6a2.1,2.1,0,0,1-2-.6c1.8-3.3.7-5-3-5-7.5,0-14.9-.1-22.3,0-3.9.1-7.1-1-9.6-4C190.4,514.6,193.9,511.6,199,511.5Z" transform="translate(-172.3 -476.2)" fill="#00abf1"/><path d="M725.8,539.9h-1.7c4.7-14.4,7.7-29.4,14.6-43.1,3.6-7.3,9.6-10.4,17.3-10.7a29.3,29.3,0,0,0,9.8,0c8.1.1,13,4.7,16.2,11.5,1.2,2.7,1.9,5.6,2.8,8.3a2,2,0,0,1-2.2.3c-2.4-2.1-2.6-5.3-3.9-8-2.6-5.3-6.5-8.2-12.4-8.7a47.7,47.7,0,0,0-16.4,1c-4.4,1-6.9,4.4-8.8,8.2-4.5,9-7,18.7-9.8,28.3-.9,3-1.8,6-2.8,9S727.8,539.5,725.8,539.9Z" transform="translate(-172.3 -476.2)" fill="#90a4bb"/><path d="M650,583.8c-12.3-3-19-10.4-21.5-23.3a68,68,0,0,1,2.5-35c2.6-7.9,7.8-13.2,15.8-15.6,1.1-.4,1.4.2,1.6,1.1s-1.6,2-2.8,2.5c-9.5,4.5-13.1,13-14.1,22.5a145,145,0,0,0-.5,18.7c.5,13.7,6.7,22.5,19.6,26.7C651.8,582.5,651.1,583.2,650,583.8Z" transform="translate(-172.3 -476.2)" fill="#6882a3"/><path d="M650,583.8l1-1.8c1.6-1.3,3.5-.5,5.3-.5,4.5.1,9,.2,13.4,0,17.8-.9,27.6-11.2,27.9-29.1.1-5.6-.8-11.3.7-16.8,1.1-1.5,1.8-.7,2.5.4l.3,3.8c-.1,3.5.3,6.9,0,10.4-.8,6.2-1.4,12.4-3.9,18.3-4,9.5-11.8,13.9-21.4,15.5A74.5,74.5,0,0,1,650,583.8Z" transform="translate(-172.3 -476.2)" fill="#547296"/><path d="M861.8,544.2c7,.8,9.7,5.7,11,11.8-1.1.5-1.3-.4-1.8-1-2.2-8.2-8.6-8.9-15.5-8.7-4.3.2-8.7.2-13,.1s-4.7,1.1-4.6,4.7c.1,9.6-.1,19.3-.1,28.9-.5.8-.8,1.6-2,1l.3-29.2c0-3.2.1-6.4,3.9-7.6A158.6,158.6,0,0,0,861.8,544.2Z" transform="translate(-172.3 -476.2)" fill="#6882a3"/><path d="M506.9,507.2c2.6.3,5.2.5,7.8,1,6.2,1,9.7,6.1,8.4,12a5.2,5.2,0,0,1-2.1-2.3c-2.2-5.4-6.9-7-12.1-7.3-7.6-.4-15.3-.9-22.8.8s-14.5,5.7-17.9,13.6c-.7,1.7-1.5,3.4-3.2,4.3a1.2,1.2,0,0,1-1.4-.5c1.5-10.7,12.3-19.6,22.2-20.7l8.3-.9A49.9,49.9,0,0,0,506.9,507.2Z" transform="translate(-172.3 -476.2)" fill="#7e95b0"/><path d="M463.6,528.8l1.2.2c1.8,1.5.9,3.3.6,5.1a76,76,0,0,0,.5,28.5c2,9.1,8.1,13.9,15.9,17.6.9.7,1.6,1.5,1.2,2.8-11.9-1.9-18.4-9.6-20.6-20.6S459.6,539.9,463.6,528.8Z" transform="translate(-172.3 -476.2)" fill="#768eab"/><path d="M700.8,536l-1.7-1.1c-1.5-1.1-1.5-2.8-2-4.4-4.1-14.2-10.6-19.5-25.4-20-6.5-.3-13-.6-19.4.9-1.4.3-2.9.8-4.3-.3l-1.2-1.2c4.1-2.6,8.9-1.5,13.3-2.7a46.6,46.6,0,0,0,11.8,0c5.1,1.2,10.4,1,15.3,3.6,7.8,4.1,11.2,10.8,12.8,18.8C700.4,531.7,700.5,533.9,700.8,536Z" transform="translate(-172.3 -476.2)" fill="#7990ac"/><path d="M490,569.1c9.5,1.8,18.8.6,28.2-.7,4.7-.6,6.5,2,4.7,6.4S515,584,508,583.9c-1-.6-1.8-1.3-.7-2.5a11.4,11.4,0,0,1,5.1-1.7,8,8,0,0,0,4.5-1.9c1.4-1.3,3.2-2.7,2.6-4.6s-3.2-1-4.8-.7c-6.6,1.3-13.3.7-19.9.8a8.1,8.1,0,0,1-5.6-1.7C488.3,570.4,489,569.7,490,569.1Z" transform="translate(-172.3 -476.2)" fill="#8297b3"/><path d="M540,479V581c-1.4-1.3-.9-3.1-.9-4.7V483.7C539.1,482.1,538.7,480.4,540,479Z" transform="translate(-172.3 -476.2)" fill="#8399b3"/><path d="M895.8,580c-3.9-7.2-6-15.1-9.1-22.7-1.2-2.8-2-6-3.3-8.7-3.1-6.5-.7-11.1,3.5-15.6a.9.9,0,0,1,1.3.1c-6.4,8.1-2.8,16.1.4,24.1l8,20.1C897,578.5,896.3,579.2,895.8,580Z" transform="translate(-172.3 -476.2)" fill="#7a91ae"/><path d="M444.9,529l-1.7.9c-.6-2.4-1.1-4.8-1.8-7.2-2.9-9.6-10.7-12.8-19.5-13.5-10.4-.9-20.9-.9-30.7,3.9,4.8-4.3,11-4.9,16.9-6,3.7,1.1,7.5-.3,11.1.9C433.8,507,442.6,514.2,444.9,529Z" transform="translate(-172.3 -476.2)" fill="#899eb7"/><path d="M822,580q0-43.7-.2-87.3c0-1.3-.1-2.7,1.2-3.6s1.2.1,1,1h0c-1.1,1.7-.5,3.6-.6,5.3,0,28,.1,55.9,0,83.9C823.2,580,822.8,580.2,822,580Z" transform="translate(-172.3 -476.2)" fill="#59769a"/><path d="M490,569.1l-1,1.8c-4.5,1.7-7.5-1-10.1-4-4.1-4.7-4.8-10.6-4.8-16.6a12.3,12.3,0,0,0,0-7.6c0-3.5-.3-7.1,2.3-10a2.2,2.2,0,0,1,1.6.3c-.6,7.6-1.3,15.2-.3,22.9S481.9,567.5,490,569.1Z" transform="translate(-172.3 -476.2)" fill="#647fa0"/><path d="M868.9,488.9l-17.7-.7c-6.3.5-12.5.7-18.7-.7l-.6-.6c6.3-1.5,12.7-.7,19.1-.7a19.1,19.1,0,0,0,7.9,0c4.1-.1,8.2-.7,12.2.7C870.7,488,869.6,488.2,868.9,488.9Z" transform="translate(-172.3 -476.2)" fill="#7d94af"/><path d="M783.1,506h1.7l6,20.8c1.3,4.4,2.6,8.8,4,13.2a2,2,0,0,1-2.3.2c-3.8-5.7-4.3-12.4-6.3-18.6-1.2-3.4-2.2-6.9-3.2-10.4C782.5,509.5,781.9,507.7,783.1,506Z" transform="translate(-172.3 -476.2)" fill="#748caa"/><path d="M395,581c4.9-.2,9.5,1.4,14.2,1.8s11.9-.3,17.8-.8c1.1.6,2.6-.3,3.4,1.2C418.4,585.5,406.5,586.4,395,581Z" transform="translate(-172.3 -476.2)" fill="#8fa2ba"/><path d="M793,540h1.8c2.1,7.4,4.2,14.8,6.4,22.1l3.6,12.9-1.9-1c-1.9.1-1.9-1.5-2.3-2.7-2.5-8.3-4.8-16.7-7.4-25.1C792.6,544.2,791.9,542.1,793,540Z" transform="translate(-172.3 -476.2)" fill="#748ca9"/><path d="M607.2,581.3c0-18.9-.1-37.7-.1-56.6a23.7,23.7,0,0,1,.8,3.4c0,16.8.1,33.6,0,50.4A16.4,16.4,0,0,1,607.2,581.3Z" transform="translate(-172.3 -476.2)" fill="#98aac0"/><path d="M555.1,580.2c0-17.7-.1-35.3-.1-52.9a10.1,10.1,0,0,1,.7-2.3c.1,17.3.1,34.6.2,51.8A5.1,5.1,0,0,1,555.1,580.2Z" transform="translate(-172.3 -476.2)" fill="#98aac0"/><path d="M222.1,590h6c3.5-2.7,7.6-1.2,11.4-1.6,2.2-.2,4.3.2,6.5.1,8.1-.2,16.3,0,24.4,0,2.2,0,4.3-.1,6.3,1a1,1,0,0,1,.3,1.6c-18.3.3-36.6.4-54.9-.1-.3-.2-.5-.4-.4-.7Z" transform="translate(-172.3 -476.2)" fill="#1bb2f0"/><path d="M591.2,533a4,4,0,0,1,.8,2.8c-.1,14.8-.1,29.6-.2,44.5-1-1.5-.7-3.2-.7-4.9C591.1,561.3,591.1,547.2,591.2,533Z" transform="translate(-172.3 -476.2)" fill="#98aac0"/><path d="M394.1,551.9c.9-1,2-.9,3.2-.9h44.1c-3.6,1.4-7.5.6-11.2.6C418.2,551.9,406.1,551.8,394.1,551.9Z" transform="translate(-172.3 -476.2)" fill="#899eb7"/><path d="M888.2,533.1h-1.3a49.8,49.8,0,0,0,5.1-26c.3-.4.4-1,1.1-1.2a20.2,20.2,0,0,0,.7,2.3,21.7,21.7,0,0,0,0,8.8C893,522.7,892.1,528.4,888.2,533.1Z" transform="translate(-172.3 -476.2)" fill="#8399b3"/><path d="M478,533h-1c-1.2-5.3,2.9-11.3,9.1-12.9a20.1,20.1,0,0,1,7.3-.9c1.3.5,2.7.9,2.5,2.6C487.2,521.2,481.3,525,478,533Z" transform="translate(-172.3 -476.2)" fill="#768eab"/><path d="M822,580h.9a2,2,0,0,0,1.1-.2c3.8,2.5,7.9.8,11.8,1.2l2-1c-.8,4.1-4.1,3.7-6.9,3.7S823.4,584.8,822,580Z" transform="translate(-172.3 -476.2)" fill="#748daa"/><path d="M889.2,498c-4.3-7.5-11.4-9-19.2-9.1-.3-2.6,2.3-.6,2.9-1.8,5.6.9,11.3,1.4,15.4,6.3a13.3,13.3,0,0,1,2.6,4.6A1,1,0,0,1,889.2,498Z" transform="translate(-172.3 -476.2)" fill="#889db6"/><path d="M183,575c3.7-2.5,6.6,2.4,10.1,1,.9,3.4,4.6.8,6.1,2.9a1.4,1.4,0,0,1-.1,1.4l-1.3.7a22.7,22.7,0,0,1-5.2.3c-2,.1-3.7-1-5.6-.9A21,21,0,0,1,183,575Z" transform="translate(-172.3 -476.2)" fill="#028cd9"/><path d="M880,576c3.7,5.3,9.4,5.4,15.1,5.1-.1.8,0,1.6-.8,2a9.6,9.6,0,0,1-5.8,0c-4.3-.8-8.4-1.9-9.5-7.1C879.3,575.5,879.6,575.5,880,576Z" transform="translate(-172.3 -476.2)" fill="#6e88a7"/><path d="M224.1,527c.6-.7,1.3-1.3,2-2,.9-4.6,4.5-8.2,5-13a2.1,2.1,0,0,1,2.2,1.8c-4.6,4.8-5.4,11.4-8.1,17.1a15.1,15.1,0,0,1-1.1,2.2,1,1,0,0,1-.4-.8q.2-.3.3-.3v-2A2.2,2.2,0,0,1,224.1,527Z" transform="translate(-172.3 -476.2)" fill="#059bdf"/><path d="M430.4,583.2c-1.2-.3-2.6.1-3.4-1.2,6.3-.5,11.4-2.8,14.1-9l1,1C440.2,579.7,435.8,582.1,430.4,583.2Z" transform="translate(-172.3 -476.2)" fill="#778fac"/><path d="M200.1,582l3.3.2c-1.1,4.4-5.5,1.5-7.3,3.8l-1-.2c-1.4-1.3-4.1-1.3-3.8-4.1C194.2,580.7,197.2,580.4,200.1,582Z" transform="translate(-172.3 -476.2)" fill="#29c6fb"/><path d="M880,576h-1c-2.6-3.6-3.5-7.9-5-12a1.1,1.1,0,0,1,1.8,0C877.1,568,879.8,571.6,880,576Z" transform="translate(-172.3 -476.2)" fill="#7e94b0"/><path d="M507,582a17.4,17.4,0,0,0,1,1.9,145.8,145.8,0,0,1-20.9,0,1.9,1.9,0,0,1,1.2-2.5,6.5,6.5,0,0,1,2.4-.1,60.5,60.5,0,0,0,14.1,0A2.6,2.6,0,0,1,507,582Z" transform="translate(-172.3 -476.2)" fill="#5e7a9c"/><path d="M346,539v-7c.3-1.6-.5-3.4.8-4.9l.3,2.5a60.5,60.5,0,0,1,0,15.9,10.8,10.8,0,0,1-1,6.6c-.1-.4-.1-.7-.2-1.1,0-2.3.1-4.7.1-7Z" transform="translate(-172.3 -476.2)" fill="#25aee8"/><path d="M200.1,582c-3,.4-6.2-.9-9.1.8-.2.6-.5.7-1,.2l-3-2.6c1.5-2.6,3.4.5,5.1-.4a7.8,7.8,0,0,0,6,0h1a2.1,2.1,0,0,1,3,0Z" transform="translate(-172.3 -476.2)" fill="#20bef5"/><path d="M224,509.3c-3,2-6-.3-8.9-.5s-8,1.8-12,.5A29.5,29.5,0,0,1,224,509.3Z" transform="translate(-172.3 -476.2)" fill="#0099db"/><path d="M522.1,518a2.7,2.7,0,0,1,1,2.2c-1.3,2.6-3.6,1.9-5.6,1.8l-10.4-.2c-.2-1.3.8-1.6,1.7-2.1a8.3,8.3,0,0,1,5.8-.5A9.9,9.9,0,0,0,522.1,518Z" transform="translate(-172.3 -476.2)" fill="#768eab"/><path d="M306,590.7c-6.9.6-13.9.3-20.9.2a1,1,0,0,1,.5-1.5,58.6,58.6,0,0,1,19.6-.2l.7.6A2.8,2.8,0,0,1,306,590.7Z" transform="translate(-172.3 -476.2)" fill="#0d98d5"/><path d="M889.2,498h1.7c2.1,2.2,2.1,5,2.2,7.8L892,507C891.1,504,890.1,501,889.2,498Z" transform="translate(-172.3 -476.2)" fill="#738ba9"/><path d="M320,588h2.2a6.7,6.7,0,0,1-5.9,2.1,26.9,26.9,0,0,1-10.2-.1H306c.3-2.4,2.2-2.2,3.7-2.3s5.3,0,7.9-.2A3.4,3.4,0,0,1,320,588Z" transform="translate(-172.3 -476.2)" fill="#099bdb"/><path d="M875.8,564H874c-.5-3.2-3.1-5.6-3-9l1.8,1C874.7,558.3,874.8,561.4,875.8,564Z" transform="translate(-172.3 -476.2)" fill="#778eac"/><path d="M509.2,520.9l-2.1.9H495.9l-1.9-1.7a3.1,3.1,0,0,1,2.9-.9,25.9,25.9,0,0,0,10,0C508,519.3,509.1,519.5,509.2,520.9Z" transform="translate(-172.3 -476.2)" fill="#8fa3bb"/><path d="M347.1,545.5V529.6A21.8,21.8,0,0,1,347.1,545.5Z" transform="translate(-172.3 -476.2)" fill="#209dd6"/><path d="M701.1,550.2c-.8-3.5-1.7-6.9,0-10.4A16.8,16.8,0,0,1,701.1,550.2Z" transform="translate(-172.3 -476.2)" fill="#7990ac"/><path d="M300,484.3l-.9.8h-13a1.9,1.9,0,0,0-.1-.8C290.7,483.7,295.4,483.4,300,484.3Z" transform="translate(-172.3 -476.2)" fill="#2ca5dc"/><path d="M222.1,590v1a40.6,40.6,0,0,1-11-.9c-.3-.3-.5-.5-.3-.8s.2-.3.3-.3Z" transform="translate(-172.3 -476.2)" fill="#1da2e0"/><path d="M824,490.1l-1-1c.6-1.2,1.8-1.6,3-2s3.9.2,5.8.4,2.2-.3,2,1.4C830.6,489.4,827.1,488.3,824,490.1Z" transform="translate(-172.3 -476.2)" fill="#859ab4"/><path d="M506.9,507.2a21.5,21.5,0,0,1-12.8,0A68.4,68.4,0,0,1,506.9,507.2Z" transform="translate(-172.3 -476.2)" fill="#42638c"/><path d="M671.9,507.2a18.3,18.3,0,0,1-11.8,0A51.7,51.7,0,0,1,671.9,507.2Z" transform="translate(-172.3 -476.2)" fill="#44648d"/><path d="M419.2,508c-3.7-.4-7.5,1.1-11.1-.9C411.8,507.2,415.7,505.8,419.2,508Z" transform="translate(-172.3 -476.2)" fill="#4c6b91"/><path d="M175.1,556c0,1.4-.1,2.9-.1,4.4a6.6,6.6,0,0,1-2-6.2,1,1,0,0,1,.1-1.4C175.2,553,176.2,553.8,175.1,556Z" transform="translate(-172.3 -476.2)" fill="#0083cb"/><path d="M341.1,562c2.1-.6,1.5-3.1,3-4.1a6,6,0,0,1-1.7,6.3A2.2,2.2,0,0,1,341.1,562Z" transform="translate(-172.3 -476.2)" fill="#17adeb"/><path d="M173.3,553.1l-.3,1.1a21.5,21.5,0,0,1-.1-10.4,2.1,2.1,0,0,1,1,1.4C173.9,547.9,174.7,550.6,173.3,553.1Z" transform="translate(-172.3 -476.2)" fill="#0099e4"/><path d="M765.8,486.2a12.8,12.8,0,0,1-9.8,0Z" transform="translate(-172.3 -476.2)" fill="#728aa9"/><path d="M337,570a3.3,3.3,0,0,0,2-2,1.9,1.9,0,0,1,2.2-2,5.9,5.9,0,0,1-2.2,5q-.5.8-.9,0Z" transform="translate(-172.3 -476.2)" fill="#10bafb"/><path d="M306.1,590h10.2c-3.4,1.1-6.9.3-10.3.6A1.5,1.5,0,0,1,306.1,590Z" transform="translate(-172.3 -476.2)" fill="#1faae5"/><path d="M594.8,583.1h10.4A14.4,14.4,0,0,1,594.8,583.1Z" transform="translate(-172.3 -476.2)" fill="#98aac0"/><path d="M893.8,516.9a9.7,9.7,0,0,1,0-8.8Z" transform="translate(-172.3 -476.2)" fill="#486990"/><path d="M173.2,544.9l-.3-1.1a6.8,6.8,0,0,1,2.1-6.2c0,1.5.1,2.9.1,4.4S175.8,545.1,173.2,544.9Z" transform="translate(-172.3 -476.2)" fill="#0085cb"/><path d="M552.3,476.9h-9.4A14.4,14.4,0,0,1,552.3,476.9Z" transform="translate(-172.3 -476.2)" fill="#8399b3"/><path d="M308.1,486.2c-3.7,1.4-4.4,1.2-4.9-1.3C305,484.5,306.5,485.4,308.1,486.2Z" transform="translate(-172.3 -476.2)" fill="#32abe1"/><path d="M346.2,524.1l-2.1-1.1-.9-5.5A14.7,14.7,0,0,1,346.2,524.1Z" transform="translate(-172.3 -476.2)" fill="#48b7e7"/><path d="M858.9,486.2a8.5,8.5,0,0,1-7.9,0Z" transform="translate(-172.3 -476.2)" fill="#7c93af"/><path d="M285.1,590v.9a27.5,27.5,0,0,1-8.1.2c0-.4.1-.8.1-1.1a2.4,2.4,0,0,1,1.4-1C280.8,588.6,283.1,588.1,285.1,590Z" transform="translate(-172.3 -476.2)" fill="#1faae5"/><path d="M211.1,589v1.1c-2.6.8-4.7-.7-7-1.4C206.5,586.9,208.7,589.4,211.1,589Z" transform="translate(-172.3 -476.2)" fill="#1b9dda"/><path d="M338.1,571h.9c.3,2.4-1.6,3.7-2.8,5.4a6.8,6.8,0,0,1-.2-1.4C336.6,573.6,338.1,572.7,338.1,571Z" transform="translate(-172.3 -476.2)" fill="#20b3ee"/><path d="M445.2,546.4c0-2.6,0-5.2-.1-7.8A9.6,9.6,0,0,1,445.2,546.4Z" transform="translate(-172.3 -476.2)" fill="#899eb7"/><path d="M285,484.5c-.6,2.9-2.9,2.4-4.9,2.5h0c-.6-2,1.6-1.1,2-2.1Z" transform="translate(-172.3 -476.2)" fill="#2eb6f0"/><path d="M190,583l1-.2a5.7,5.7,0,0,1,4.1,3C193,585.7,191.8,583.8,190,583Z" transform="translate(-172.3 -476.2)" fill="#44b9e8"/><path d="M483,583l-1-1.9c1.6-1.4,3-1.5,4.2.5s-1,2-2.5,1.6h-.4Z" transform="translate(-172.3 -476.2)" fill="#6882a2"/><path d="M282.1,484.9l-2,2.1c-1.1,0-2.2.2-3-.7C278.6,485.4,280.2,484.4,282.1,484.9Z" transform="translate(-172.3 -476.2)" fill="#27a5de"/><path d="M483.7,583.2l2.5-1.4a1.4,1.4,0,0,1,1.8.2l-.9,1.9A4.5,4.5,0,0,1,483.7,583.2Z" transform="translate(-172.3 -476.2)" fill="#778fac"/><path d="M831.9,488c-1.9-.4-4.1.9-5.9-.9l5.9-.2v.3c.3.2.5.3.4.5Z" transform="translate(-172.3 -476.2)" fill="#4f6e93"/><path d="M796.6,583.1h6.6A7.6,7.6,0,0,1,796.6,583.1Z" transform="translate(-172.3 -476.2)" fill="#738ca9"/><path d="M198.1,586.8c2-1.6,3.1-.5,3.9,1.4A3.7,3.7,0,0,1,198.1,586.8Z" transform="translate(-172.3 -476.2)" fill="#23b1ee"/><path d="M345,556h-1c0-1.7.2-3.3,2.2-4C346.9,553.7,345.8,554.8,345,556Z" transform="translate(-172.3 -476.2)" fill="#25aee8"/><path d="M888.5,583.1h5.8A6,6,0,0,1,888.5,583.1Z" transform="translate(-172.3 -476.2)" fill="#768eab"/><path d="M872.9,487.1l-2.9,1.8h-1.1c.1-1.3,1.1-1.7,2.2-2Z" transform="translate(-172.3 -476.2)" fill="#537195"/><path d="M867.8,533.9c-8.7,0-17.3-.1-25.9.2-3.9.1-5.7-1.6-5.7-5.2-.1-8.3-.1-16.6.1-24.9,0-2.2.2-4.9,3.6-4.9a2.5,2.5,0,0,1,.6,1.6c-1.5,10-2.2,20.1.2,30.1,4.9,1.8,9.9.4,14.8.8,2.8.2,5.7-.1,8.5.1S867.5,531.5,867.8,533.9Z" transform="translate(-172.3 -476.2)" fill="#869bb5"/><path d="M824,579.8c-.3.6-.6,1-1.1.2,0-28.1,0-56.3.1-84.4,0-1.9-.9-4,1-5.6Z" transform="translate(-172.3 -476.2)" fill="#8b9fb8"/><path d="M840,500.4c0-.4-.1-.9-.1-1.3,9.6-1.8,19.2-1,28.8,0,4.8.5,8.7,3.1,9.4,8.7.3,1.3-.4,1.5-1.4,1.3-4.5-6.9-11.7-7.2-18.9-7.7S845.8,502.5,840,500.4Z" transform="translate(-172.3 -476.2)" fill="#738ca9"/><path d="M867.8,533.9c-3.8-2-7.7-.6-11.6-.8-5.4-.3-10.8-.3-16.2-.4-.1,0-.2-.2-.2-.3s.2-.3.2-.5c1.8-1.7,4-1.4,6.1-1.4,8.6-.1,17.2.4,25.8-1,.9.4,1.9.7,1.1,2S869.9,534,867.8,533.9Z" transform="translate(-172.3 -476.2)" fill="#4b6a91"/><path d="M876.9,509l1.2-1.2c2.5,4.4,2,8.8.1,13.3a1.4,1.4,0,0,1-1.7-.3C875,516.8,874.6,512.9,876.9,509Z" transform="translate(-172.3 -476.2)" fill="#6882a3"/><path d="M861.8,544.2a61.4,61.4,0,0,1-21.8,0Z" transform="translate(-172.3 -476.2)" fill="#7990ad"/><path d="M831.9,488v-.8l19.3,1c-5.8,1.3-11.6.6-17.4.7Z" transform="translate(-172.3 -476.2)" fill="#6983a3"/><path d="M876.8,521h1.4a18.8,18.8,0,0,1-5.2,10.4,10,10,0,0,1-.8-1.4C872.1,526.2,873.9,523.3,876.8,521Z" transform="translate(-172.3 -476.2)" fill="#7f96b1"/><path d="M411.1,539.1h-14c-4.1,0-5.1-1.9-4-5.7,3.7-13,20.5-19.1,32.1-11.5,3.5,2.3,5.9,10.7,4.6,14.7-.8,2.4-2.4,2.5-4.2,2.5C420.7,539.2,415.9,539.1,411.1,539.1Z" transform="translate(-172.3 -476.2)" fill="#fdfdfd"/><path d="M320,588h-1.9c-5.8.8-11.6.5-17.4.9a4.3,4.3,0,0,1-3.5-1.7c-6.2-8.2-15.8-11.8-23.8-17.7-9.6-7.1-20.1-12.8-29.9-19.6-1.9-1.3-4.1-2.2-6.1-3.4s-3.6-2.7-1.5-5.5c-2.6,2.4-1.4,6.4-4.4,8.1a1.4,1.4,0,0,1-1.4-.1c1-5.2,3.1-10.1,5-15,2.2-1,2.4-3.4,3.6-5.9,3.1,10.1,12.6,11.7,19.5,16.3,15.7,10.6,31.8,20.6,47.7,31,3.6,2.4,8.1,3.9,8.9,9.3C315,586.6,318.8,586,320,588Z" transform="translate(-172.3 -476.2)" fill="#0db9fb"/><path d="M173.2,544.9l1.9-2.9c0,12,0,12,12,12,6.5,0,12.9-.1,19.4,0,4.6.1,5.8,2.2,3.6,6.4s-3.1,5.8-6,7.6c-1.8-2.7-4.6-2.9-7.4-3s-6.6.1-9.9,0c-5.9-.3-9.9-3.3-11.7-9a2.8,2.8,0,0,0-1.8-2.9C173.3,550.4,173.2,547.6,173.2,544.9Z" transform="translate(-172.3 -476.2)" fill="#0095e2"/><path d="M224,532a3.7,3.7,0,0,1,.1,1.1c-1.4,4.9-2.7,9.9-4.1,14.9-.8,6.7-4.1,12.4-7.3,18.1-.7,1.2-1.8,2.5-3.6,1.9h-1c1.6-2.7,3.3-5.3,5-8,2.6-6.7,5.3-13.4,7.9-20C221,536.9,221,533.9,224,532Z" transform="translate(-172.3 -476.2)" fill="#0095e2"/><path d="M203.1,571c-4.6,4-6.3,4.5-11.3,2.9,4.9-.4,8.2-3.8,12.3-5.9C204.1,569.1,201.9,569.5,203.1,571Z" transform="translate(-172.3 -476.2)" fill="#0095e2"/><path d="M552,478.9c2.5.6,2.1,2.6,2.1,4.4v21c0,6.6,1.2,7.3,7.7,6.3,8.6-1.2,17.4-2.4,26.2-.9,12.4,2,17.1,6.1,17.7,18.6.8,16.6.3,33.3.4,49.9,0,2.1-.8,3-2.9,3a33.8,33.8,0,0,0-4.5.1c-4.4.5-5.8-1.5-5.7-5.8.1-13.5.1-26.9-.2-40.4,0-4,.1-8.4-3.8-11.3s-7.3-2.7-11.1-3.6a11.4,11.4,0,0,1-5.8,0l-11.4.8c-5.3.3-6.7,1.6-6.7,7,0,16-.2,32,.2,47.9.1,5.4-2.5,5.3-6.3,5.4s-6.3-.4-6.2-5.6c.2-29.9.1-59.8.1-89.7,0-7,0-7,7.2-7Z" transform="translate(-172.3 -476.2)" fill="#012e64"/><path d="M572.1,520.2h5.8A4.8,4.8,0,0,1,572.1,520.2Z" transform="translate(-172.3 -476.2)" fill="#98aac0"/><path d="M793,540l9.9,34c.1,2.4,3,5.2-.5,6.9s-11.1-.2-12.4-4.1c-2.5-7.5-4.8-15.1-7.1-22.7-1.3-4.3-4.2-6-8.6-6-10.3.1-20.6,0-30.9,0-5.7.1-8,2.2-9.4,7.7s-3.5,12.7-5.5,18.9-6.2,7.5-11.8,6.5c-2.5-.5-2.4-2-1.9-3.7,1.8-6.3,3.4-12.8,5.5-19s4.1-12.3,5.5-18.6c3-9.6,5.8-19.3,9-28.9a91.5,91.5,0,0,1,5.7-14.2c2.5-4.6,6.3-7.8,12.2-8.2a102.8,102.8,0,0,1,12.4-.4c9.3.4,13.6,4,16.6,13.6.5,1.4,1,2.8,1.4,4.2Z" transform="translate(-172.3 -476.2)" fill="#002d64"/><path d="M224.1,527c0,1,0,2-.1,3-3.7,1-1.2-2-1.9-3Z" transform="translate(-172.3 -476.2)" fill="#00aef3"/><path d="M224.1,558v3c-2.2,6.2-6.9,10.4-12.1,14.1-2.8,2.3-6,3.1-9.4,3.6a7.3,7.3,0,0,1-3.4-1.4,1.1,1.1,0,0,1,0-1.3,2.7,2.7,0,0,1,.9,0c3.2-2.1,7.2-3.1,9.4-6.6,1.7-1.5,2.5-3.9,4.8-4.9a2,2,0,0,1,1.5,1.7,73.6,73.6,0,0,0,5.7-8.8c.6-.9,1.4-2,2.8-1.1S224.6,557.4,224.1,558Z" transform="translate(-172.3 -476.2)" fill="#115b96"/><path d="M214.1,565l-4,5a1.4,1.4,0,0,1-2,0,18.6,18.6,0,0,1,1-2c4.5-3.6,5.8-9,8.1-13.9.9-2,1-4.5,2.8-6.1h.1a4,4,0,0,1,.7,4.6C218.7,556.8,218.3,561.9,214.1,565Z" transform="translate(-172.3 -476.2)" fill="#1268a0"/><path d="M202.1,578c2.9-1.5,6.7-1.1,9-4a1.8,1.8,0,0,1,2.2-.1c-1.2,4.5-5.2,4.6-8.6,5.6-1.9-.2-3.8.3-5.6-.3a56.3,56.3,0,0,1-5.8-.3c-2.8-.6-1-1.9-.2-2.9h6v1c-1,.7-2.1.6-3.6,0C197.9,578.1,200.1,576.8,202.1,578Z" transform="translate(-172.3 -476.2)" fill="#1271b0"/><path d="M208.1,570h2c-2.4,3.6-6.3,4.8-10.1,6Z" transform="translate(-172.3 -476.2)" fill="#12619b"/><path d="M214.1,565c1.8-5.7,6-10.6,6-17,3.5-2.2,3.3-6.5,4.3-9.7s3.5-7.4,4.2-12.8c3,5.6-4.4,9.5-.4,14.1,1.6-4.1,3.2-8,5.1-13,1.9,6.1-1.7,10-2.5,14.3s-3.2,9.6-4.7,14.4a4,4,0,0,1-2,2.7c-.6-2.2-1.3-1.4-1.9,0a32.1,32.1,0,0,1-4.8,7.9C215.4,568.1,215,565.7,214.1,565Z" transform="translate(-172.3 -476.2)" fill="#12619b"/><path d="M230.1,549h1a3,3,0,0,1,1.9,2.3c.9,3.6-1.2,6.4-2.3,9.5s-2.3,5.3-4.9,6.9-3.7,4.3-6.8,4.7a1.6,1.6,0,0,1-1.4-1.4,69.8,69.8,0,0,1,6.5-8.9C227.2,558.2,227.9,553.3,230.1,549Z" transform="translate(-172.3 -476.2)" fill="#17bff7"/><path d="M224.1,562.1c-.8,3.8-4.3,5.9-5.9,9.1s-2.1,4-5,2.8h-2.1c5.8-2.9,8.8-8.5,12.9-13A4.5,4.5,0,0,1,224.1,562.1Z" transform="translate(-172.3 -476.2)" fill="#12619b"/><path d="M219.1,572c2.3-1.3,3.3-4.2,6-5,1,2.3,2.3,4.3,4.7,5.3,4.7,2.1,8.4,5.8,12.6,8.6s3.5,5.6,3.7,9.1h-18c-2.4-4.6-8.3-5.2-10.9-9.9-1.2-2.2-.6-3.4-.1-5.1A2.9,2.9,0,0,1,219.1,572Z" transform="translate(-172.3 -476.2)" fill="#1ebefd"/><path d="M219.1,572c-.7,1-1.4,2-2,3-4.4.9-7.1,5.6-12.1,5-.3-.3-.4-.5-.2-.7s.2-.3.3-.3c2.6-1.8,6.4-1.7,8.1-5,2.2.1,3-2.4,5-2.8Z" transform="translate(-172.3 -476.2)" fill="#20bef5"/><path d="M205.1,579a3.8,3.8,0,0,1-.1,1h-5.9v-.8Z" transform="translate(-172.3 -476.2)" fill="#1ea3e0"/><path d="M648,511.1a64.7,64.7,0,0,1,31.8-.9c11.9,2.6,17,8,19.3,24.7-.1,6.7.5,13.4-.3,20-1.1,8.7-3.2,17.3-11.1,22.9-4.5,3.2-9.8,4.2-14.9,4.8-7.2.9-14.6,1.2-21.8-.6-6.7.6-16.6-8.1-18.8-14.1s-2.7-12-2.7-18c-.2-8.2-.1-16.5,3.2-24.4S640.6,513.5,648,511.1Z" transform="translate(-172.3 -476.2)" fill="#012d64"/><path d="M488,582l-1.8-.2c-1.3-1-2.7-.8-4.2-.7-14.1-4-17.5-13-18.9-26.5a71.4,71.4,0,0,1,1.7-25.6c5-14.7,16.1-20.1,30.7-19.9,5.7.1,11.5-.4,17.3.6s8.1,3.4,9.3,8.3c-.5,3.3-2.8,3.1-5.2,2.9s-5.1-1.7-7.7,0c-.4-1-1.2-1.1-2.1-1-3.4-.1-6.7.3-10.1,0l-3,.2c-7,.5-13.4,2-16.3,9.6a17.6,17.6,0,0,0-.7,3.3c-1.5,3.2-1.7,6.7-1.9,10.1a13.1,13.1,0,0,1,0,6.8,40.1,40.1,0,0,0,1.9,11.5c2,5.6,6.2,8.7,12,9.5,9.5,1.8,18.9,1.3,28.3-.2,1.4-.3,2.8-1.4,4,.3s.1,2.9-.4,4.2c-2.6,6.4-8.6,5.9-13.9,6.8h-2a61.9,61.9,0,0,1-14.9,0Z" transform="translate(-172.3 -476.2)" fill="#012e64"/><path d="M475.1,549.9v-6.8A6,6,0,0,1,475.1,549.9Z" transform="translate(-172.3 -476.2)" fill="#9cadc2"/><path d="M230.1,561c-.7-3.6,3.1-6.3,2-10l44,27.8c3.6,2.3,7.6,5,7,10.4-1.6.7-3.5-.4-5,.8h-7c-4.6-.6-7.2-4.1-10.6-6.6-8.1-5.9-16.7-11.2-25.2-16.6-1.3-.9-2.7-1-4.2-1.5S228.1,563,230.1,561Z" transform="translate(-172.3 -476.2)" fill="#15bbfc"/><path d="M230.1,561c.2,1.1-1.4,2.7.8,3.3,11.9,3.3,20.6,12.2,30.8,18.5,3.2,1.9,6.2,4.8,9.4,7.2h-25c-2.8-9.8-11.6-13.4-19.2-17.9-2.5-1.5-2.5-3-1.8-5.1C228.2,566.2,225.9,560.9,230.1,561Z" transform="translate(-172.3 -476.2)" fill="#19bcfc"/><path d="M198.1,580a4.6,4.6,0,0,1-6,0Z" transform="translate(-172.3 -476.2)" fill="#1ea3e0"/><path d="M490.1,582.1H505A26.1,26.1,0,0,1,490.1,582.1Z" transform="translate(-172.3 -476.2)" fill="#5e7a9c"/><path d="M278.1,590c1.4-1.7,3.3-.8,5-1,5.1-3.7,10.5-3.2,16-1h19c-2.1,1.8-4.7.7-7,1s-3.6-.6-5.1,1H278.1Z" transform="translate(-172.3 -476.2)" fill="#10b3f3"/><path d="M497,519.9a15.2,15.2,0,0,1,10.1,0C503.7,521.3,500.4,521.8,497,519.9Z" transform="translate(-172.3 -476.2)" fill="#768eab"/><path d="M876.8,521l-4.6,9.1c-2.6,1.8-5.6,1.7-8.5,1.7H840a4.2,4.2,0,0,1-2.1-4q.3-11.4,0-22.8a6.7,6.7,0,0,1,2.1-4.7c9.2-.3,18.5-.8,27.7.7,5,.9,8.1,2.9,9.2,7.9S876.8,517,876.8,521Z" transform="translate(-172.3 -476.2)" fill="#fefefe"/><path d="M299.1,588c-5.4,0-10.8-.4-16,1-2.2-5.5-6.6-8.8-11.4-11.7-11.1-6.8-22.1-13.7-33.1-20.6-2.5-1.6-5.9-2.1-6.5-5.7l-1-2c1.6-3.9,3.1-7.7,4.7-11.5,1.4.5,1.5,1.6,1.2,2.1-2.9,5,1.4,5.5,4.1,7.5,9.2,6.9,19.8,11.3,28.6,18.7,6.2,5.1,13.7,8.7,20.5,13C294.1,581.3,296.4,584.7,299.1,588Z" transform="translate(-172.3 -476.2)" fill="#11bafc"/><path d="M775.9,536.8c-4.7,2.4-9.8,1.1-14.6,1.3s-9.6.2-14.4,0-6.7-2.1-5.7-6.9,2.5-8.8,3.7-13.2a1.5,1.5,0,0,1,2.3.2c.2,3.6-1.3,6.8-2.1,10.2s-.4,6,4.6,6.1h19.4c2.2,0,4.4-.2,6.4.8A1,1,0,0,1,775.9,536.8Z" transform="translate(-172.3 -476.2)" fill="#728ba9"/><path d="M775.9,536.8v-1.1c-3.6-7.6-5.1-15.8-7.2-23.7-1.7-6.4-4.7-10-11.4-10.2a3.5,3.5,0,0,1-2.5-1.9c8.3-2.6,12.8-.2,15.4,8.1s4.6,13.9,6.5,20.9C777.2,531.4,778.3,534.4,775.9,536.8Z" transform="translate(-172.3 -476.2)" fill="#5e7a9d"/><path d="M754.7,499.9c.9.1,1.8.2,2.2,1.1-4.6,3.7-6.6,8.9-8.3,14.2a3.9,3.9,0,0,1-1.9,2.8h-1.8c1.3-3.7,2.1-7.6,3.7-11.3A12.4,12.4,0,0,1,754.7,499.9Z" transform="translate(-172.3 -476.2)" fill="#627e9f"/><path d="M202.1,578h-7.2c1.4-1.6,2.9-.7,4.2-1S201.3,576.8,202.1,578Z" transform="translate(-172.3 -476.2)" fill="#0e4d88"/><path d="M225.6,543.1c.4,1.5.9,2.8-.1,4C224.7,545.7,225.2,544.3,225.6,543.1Z" transform="translate(-172.3 -476.2)" fill="#1268a0"/><path d="M641.7,546.2c.2-3.8-.1-7.7.7-11.4,1.8-7.5,5.8-13.2,14.2-14.9s14.5-1.9,21.4,1.4,8.3,8,8.7,13.7c.7,9,1.4,18.2-1.7,27.1a14.5,14.5,0,0,1-10.2,9.5c-7,1.9-14.2,1.4-21.2,0s-11-8.1-11.6-15.9c-.2-3.1,0-6.3,0-9.5Z" transform="translate(-172.3 -476.2)" fill="#6e87a6"/><path d="M746.7,518c1.2-3.8,2.1-7.6,3.5-11.3a8.2,8.2,0,0,1,6.7-5.7c9.3.2,10,.9,12.5,9.9,1.9,7,4.2,13.9,6.2,20.9a24.8,24.8,0,0,1,.2,3.9c-10.1.9-20.2.2-30.3.4-3,.1-3.2-1.9-2.7-3.9C744,527.4,745.4,522.7,746.7,518Z" transform="translate(-172.3 -476.2)" fill="#fdfdfd"/><path d="M663.2,571c-6.7.5-14.3-.6-17.3-8.3s-4.3-15.1-2.2-22.9c1.1-4.2.6-9,4-12.6s5.1-4.9,9.1-5.3c5.8-.5,11.6-1,17.4,0s8.5,5.2,9.9,9.9c2.6,9.4,1.4,18.7-.2,28-1,5.7-7.4,10.8-14.3,11.2Z" transform="translate(-172.3 -476.2)" fill="#fefefe"/></svg>