<svg xmlns="http://www.w3.org/2000/svg" width="960.3" height="240.4" viewBox="0 0 960.3 240.4"><path d="M247.2,492.9c11,2.1,22,3.5,32.5,7.5s12.6,8.5,11.9,18.7a206,206,0,0,1-6,34.8c-2.3,9-7.2,12.9-16.3,13-3,0-3.7.9-3.5,3.7s-.5,4.2-.8,6.4c-2.4,1.8-4.9,1.7-7.6.6a4,4,0,0,1-1.6-3.9c.4-4.9-2.6-6-6.5-6.2-11.5-.7-22.6-3.1-33.7-6.2a126.9,126.9,0,0,1-17.8-6.6c-7-3.1-11.2-8.6-13.6-15.7s-1.9-11.7-.9-17.7a8.1,8.1,0,0,0-7.2-9.6c-4-.2-7.2,3.3-7.6,8.3s.4,10.6-.5,15.8c-1.9,11.7-9.8,17.6-20,21.5-13.2,4.9-26.7,8.5-40.7,9.7-6.6.6-11.8,1.4-11.9,9.5-2.9,2.3-5.9,2.7-9,.4a7.7,7.7,0,0,1-.2-1.5c-.2-2.6.6-5.8-.6-7.7s-4.7-.3-7-.8c-5.8-1.4-10-4.7-11.6-10.5-3.8-13.3-6.7-26.7-6.9-40.6C60,508.2,63,504,70.3,501.1c10.9-4.4,22.4-6,33.8-8.1a18,18,0,0,1,9.9-2.4c8.6-1.1,17.2-1.5,25.8-2a28.3,28.3,0,0,1,15.8,3.8,10.6,10.6,0,0,0,9,.8,38.8,38.8,0,0,1,23.6.2c2.3.8,4.4,1.2,6.6-.3,6.2-4.2,13.3-5.2,20.5-4.4s14.7.5,21.9,1.9C240.7,490.5,244.2,490.8,247.2,492.9Z" transform="translate(-60.1 -419.3)" fill="#252526"/><path d="M552.1,566.8c-13.2,12.9-34.7,8.4-44.9-2.9-12.2-13.6-11.9-36.7,1.1-50.6,8.7-9.3,30-15.7,44.3-1.7.8-6.8.8-6.8,8-6.8,11.4,0,11.4,0,11.4,11.7,0,18.1.1,36.2,0,54.4-.2,15.3-5.7,28.1-20.6,34s-31,5.1-44.4-6.4a27,27,0,0,1-8.2-14c-.6-2.1-.4-3.1,1.9-3.5s3.8-1,5.8-1.5,5.4-2.1,8.1-2.1,2.6,4.3,4.3,6.4c4.5,5.9,11.6,8.3,20.6,6.2,7.3-1.7,11.6-6.5,12.5-14.3C552.3,573,552.9,570.2,552.1,566.8Z" transform="translate(-60.1 -419.3)" fill="#252526"/><path d="M470.6,512.4c-2.2-7.2.9-8.3,6-7.6s9.5-1.8,11.9,1,.7,7.6.7,11.6v52.9c-.1,15.3-5.2,28.3-20.1,34.4s-30.6,5.4-44.1-5.5a27.7,27.7,0,0,1-8.9-14.2c-.7-2.2-.5-3.8,2.4-4.1a43.7,43.7,0,0,0,6.2-1.7c5-1.7,8.8-3,11.6,4.1s10.6,8.6,19.5,6.8,11.9-5.8,13.2-13.1a27.6,27.6,0,0,0,.2-10c-7.2,6.8-15.5,8.8-24.9,7.3a31.4,31.4,0,0,1-22-13.1c-10.6-14.5-8.6-36.9,4.3-48.9S456.7,500.6,470.6,512.4Z" transform="translate(-60.1 -419.3)" fill="#252526"/><path d="M863.8,571.5c-14.9,16-43.9,7.7-52.3-13.6-10.4-26.1,5.3-54.3,31.2-54.9,7.7-.1,14.9,1.5,21.2,8.1V492.3c0-6.2.2-12.3,0-18.5-.1-2.6.7-3.6,3.4-3.3,5.2.4,11.9-2.2,15.3,1.1s.8,9.5.8,14.4c.3,29.7-.5,59.3.6,88.9,0,2.3-.4,3.4-2.9,3.1s-5.4,0-8,0C865.6,578,865.6,578,863.8,571.5Z" transform="translate(-60.1 -419.3)" fill="#252526"/><path d="M602.1,509.6c9-7.1,18.8-8.3,29-5.1s16.2,11.8,16.7,22.6c.7,16.1.3,32.2.4,48.4,0,1.9-.7,2.7-2.6,2.5h-.5c-5.5-.1-12.5,1.8-15.9-.9s-.9-10-1-15.3c-.2-8.6,0-17.3-.1-25.9s-4.4-14.8-12.8-14.9-13.7,5.5-13.8,14.9c-.1,12.6-.1,25.3.1,37.9,0,3.2-.6,4.6-4.1,4.3s-10.3,1.4-13.1-.8-.9-8.4-.9-12.9c-.1-29.4.1-58.9-.1-88.4,0-4.1.6-6.3,5.3-5.6s9.4-1.7,12,1,.7,7.9.8,12c.1,8.3,0,16.7.1,25A3.3,3.3,0,0,0,602.1,509.6Z" transform="translate(-60.1 -419.3)" fill="#252526"/><path d="M701.5,546.8c-7.5,0-15,.2-22.5,0-2.9-.1-3.6.8-2.7,3.4,2.4,7.2,7.4,11.5,14.7,12.6s13.8-.6,17.6-7.4c1.7-3,3.3-3.4,6.1-2.3a75.8,75.8,0,0,0,9.6,2.8c2.9.6,2.7,1.9,1.8,4.2-5.5,14.1-21.7,22.4-38.7,19.7s-30.4-17.1-31.3-36.5,9.9-36,27.9-39.5c29.4-5.8,46.3,13.5,44,40.9-.2,2.8-2.1,2.1-3.6,2.1C716.8,546.9,709.1,546.8,701.5,546.8Z" transform="translate(-60.1 -419.3)" fill="#252526"/><path d="M380.6,546.8c-7.3,0-14.6.2-21.9,0-3.5-.2-4.6.9-3.4,4.1,2.6,6.9,7.7,11,14.8,11.9s13.9-.7,17.5-7.7c1.6-3,3.2-3,5.8-2.1l6.6,2.1c6.8,2,6.8,2,3.2,8.4-6.7,12.1-20.6,18.4-36.3,16.4a36.3,36.3,0,0,1-30.7-27.1c-4.3-17.2,1.2-34.2,14-43.4s29.3-9,41.5-1.4S409,530.6,407,544.3c-.5,2.9-2.1,2.5-3.9,2.5Z" transform="translate(-60.1 -419.3)" fill="#252526"/><path d="M782.6,569.5c-9,10.1-18.7,12.3-29.7,9.5s-17-10.8-17.1-20.6,5.5-18.5,16.5-21.3c7.2-1.8,14.7-2.7,22.1-3.9,3-.4,5.8-1,6.3-4.5s-1.3-6.1-4.1-8c-7.2-4.8-17.8-1.6-20.8,6.5-1.1,3-2.5,3.3-5,2.7s-5.2-1.3-7.8-1.8c-6.8-1.4-6.8-1.4-4.2-7.8a25.1,25.1,0,0,1,13.4-14.1,40.3,40.3,0,0,1,33.8,0c9.3,4.1,13.8,11.8,14.1,21.8.5,15.8-.8,31.6.9,47.4.2,2.4-.9,2.7-2.9,2.6a60.3,60.3,0,0,0-8.5,0C784.5,578.6,781,577.7,782.6,569.5Z" transform="translate(-60.1 -419.3)" fill="#252526"/><path d="M983.6,579.5c-21.4,0-36.3-15.1-36.2-36.5s15.2-35.9,36.9-35.8,36.2,15.4,36.1,36.2S1005.2,579.5,983.6,579.5Z" transform="translate(-60.1 -419.3)" fill="#252526"/><path d="M86.4,576.9c2.8-.2,5.8.9,8.5-1a2.3,2.3,0,0,1,1,1.2c2.2,15.4,7.3,29.5,17.1,42,26.3,33.7,75.3,40.5,109.7,15.3,18.5-13.5,28.7-31.8,32.5-54.1.4-1.3.7-2.5,1.9-3.3H265c-2.6,30.7-17.2,54.3-43.5,69.9-53.9,32.1-122.4.7-134-61.1A86.5,86.5,0,0,1,86.4,576.9Z" transform="translate(-60.1 -419.3)" fill="#56555c"/><path d="M114.3,491.8,104.1,493c8.9-20.9,19.4-40.9,35.9-57,8-7.8,17.1-13.9,28.3-16,15.8-2.9,28.7,3.1,40.2,13.1,15.6,13.7,25.7,31.3,34.5,49.7,1.6,3.3,2.8,6.7,4.2,10.1L237,492c-4.4-7.1-7.4-14.9-11.8-22-6.1-10.1-12.6-20-21.5-28s-16.6-12.8-27.9-12.8c-9.2,0-16.7,4-23.7,9.3-9.3,7-16.1,16.4-22.3,26a193.7,193.7,0,0,0-12.3,22.3A12.6,12.6,0,0,1,114.3,491.8Z" transform="translate(-60.1 -419.3)" fill="#56555c"/><path d="M938.1,543.5c0,10.3-.1,20.7.1,31,0,2.8-.9,3.8-3.7,3.5-4.7-.4-10.9,2-13.8-1s-.7-8.5-.8-12.9c0-17,.1-34-.1-51,0-3.5.9-4.6,4.4-4.3s10.3-1.4,13,.9.8,8.4.9,12.8C938.2,529.5,938.1,536.5,938.1,543.5Z" transform="translate(-60.1 -419.3)" fill="#252526"/><path d="M929.2,480a10.8,10.8,0,0,1,10.7,10.8,10.9,10.9,0,0,1-11.1,11,11.1,11.1,0,0,1-10.7-11.4A10.7,10.7,0,0,1,929.2,480Z" transform="translate(-60.1 -419.3)" fill="#262627"/><path d="M900.9,577.8a7.6,7.6,0,0,1-7.5-7.7,7.5,7.5,0,0,1,7.5-7.6,7.7,7.7,0,1,1,0,15.3Z" transform="translate(-60.1 -419.3)" fill="#272728"/><path d="M256.1,580.1c-4,29.8-20,51.3-47,63.6-49.4,22.6-105.9-8.9-113.8-62.7a26.7,26.7,0,0,1-.1-4c2-1.8,4.6-2,7-2.2,14.5-1.2,28.4-4.9,42.3-9s20.4-14.3,22.1-28a4.5,4.5,0,0,1,.4-2c0-5.1-.1-10.2-.1-15.3s3.6-10.4,8.9-10.4,9.6,4.5,9.1,10.7a88.1,88.1,0,0,0,.4,17.8c.4,1.9.7,3.9,1.1,5.9,1.9,10.3,8.3,16.4,18,20a171.4,171.4,0,0,0,44.1,10.2,19,19,0,0,1,5.3.9C256.1,576.4,257.2,577.7,256.1,580.1Z" transform="translate(-60.1 -419.3)" fill="#fbfaf9"/><path d="M114.3,491.8c8.6-20.9,19.6-40.4,37.6-54.7,15.7-12.5,31.6-12.4,47.5-.3S224.5,465,233.1,482c1.6,3.2,3.8,6.2,3.9,10-8.8-.6-17.6-1.3-26.3-1.7-5.6-.2-11.1.7-15.5,4.4-2,1.7-3.6,1.5-5.8.7a38.3,38.3,0,0,0-26.9-.2c-1.5.5-3,1.8-4.6.4-7.6-6.5-16.7-5.4-25.7-5Z" transform="translate(-60.1 -419.3)" fill="#fbfaf9"/><path d="M250.9,552.9a118.5,118.5,0,0,1-46-11c-5.8-2.7-7.4-8.6-5.8-17.9s4-11.4,14-11.5a190.3,190.3,0,0,1,23.9,1c2.1.3,3.9.6,5.3,2.4l.6.2C248.1,527.8,251.3,540,250.9,552.9Z" transform="translate(-60.1 -419.3)" fill="#fbfaf9"/><path d="M153,528c.4,8.6-1.7,12.2-9.5,15.4a122.8,122.8,0,0,1-42.3,9.5c-1.1-1-.8-2.4-.7-3.7a188.7,188.7,0,0,1,6.6-29.8,8.1,8.1,0,0,1,2.1-3.4l1-1c4.7-2.4,10-2,15-2.4s10-.1,15-.1c8.6.2,11.6,3,12.4,11.6C152.7,525.4,152.3,526.8,153,528Z" transform="translate(-60.1 -419.3)" fill="#fbfaf9"/><path d="M256.1,580.1c-.2-4.5-4.1-3.8-6.7-4a155.8,155.8,0,0,1-48-11.4c-12-5.1-16.9-13-16.1-26.1,2.9,8.7,9.2,13.7,17.6,16.9a168.2,168.2,0,0,0,46.4,10.6c7.9.7,7.9.6,7.5,8.4a21.3,21.3,0,0,0,.3,2.5Z" transform="translate(-60.1 -419.3)" fill="#dfdfdf"/><path d="M167,535.8c-.3,8.7-1.2,17.2-8,23.8a26.3,26.3,0,0,1-9.8,5.7c-14.9,5.7-30.2,9.6-46.1,10.7-2.7.2-5.3.7-7.9,1l-.3-1.1c-.1-9.2-.1-9,9.3-9.9a177.5,177.5,0,0,0,43.1-9.9C157.3,552.5,164.7,546.7,167,535.8Z" transform="translate(-60.1 -419.3)" fill="#dfdfdf"/><path d="M242.3,515.9c-11.8-2.3-23.6-2.4-35.4-1.7-5.1.4-6.1,5.8-7.8,9.8-.4-4.3.6-8.6,1.6-12.7s4.2-7.5,9.1-7.7A246.5,246.5,0,0,1,237,505c2.1.1,2.4,1.6,2.9,2.9S241.5,513.2,242.3,515.9Z" transform="translate(-60.1 -419.3)" fill="#dfdfdf"/><path d="M153,528c-1.7-2-.9-4.7-1.7-7.1-1.6-4.7-4.4-6.9-9.5-7-10.6-.3-21.1.8-31.6,1.1,0-.1-.1-.3,0-.5,2.5-9.1,2.5-9.3,11.7-10.1,6.3-.5,12.6-.8,18.9-.8s9.1,2.6,10.4,8.6S153.3,522.6,153,528Z" transform="translate(-60.1 -419.3)" fill="#dfdfdf"/><path d="M92,554c-12.2-.1-11.1,1.9-14-11.1-.7-3.2-1.3-6.4-2-9.6s.2-3,2.6-2.6c4.4.7,8.8,1,13.2,1.5s5.5.8,4.6,6.1c-.7,3.7-1.4,7.4-1.9,11.2C94.3,551.3,94,553.1,92,554Z" transform="translate(-60.1 -419.3)" fill="#fdfdfd"/><path d="M260.2,532.1c4.3-.4,8.6-.7,12.8-1.4,2.5-.4,3.4,0,2.8,2.6-1.3,5.5-2.6,11-3.7,16.5-.6,3.2-2.4,4.4-5.6,4.2s-4.3,0-6.4,0-2.2-2.4-2.4-4.1c-.4-3.7-1.4-7.4-2-11.1C254.7,533.2,254.8,533,260.2,532.1Z" transform="translate(-60.1 -419.3)" fill="#fdfdfd"/><path d="M92,554c1.3-6.3,2.5-12.6,3.7-18.9.8-3.8-3.2-1.1-3.9-2.9,3.5.2,5.6-1.1,5.7-4.9s4.1-7.7,1.5-12.1a1.3,1.3,0,0,1,2-.3c2.4,2.3,5.5.4,8.2,1.1-3,12.3-6.4,24.4-8,36.9Z" transform="translate(-60.1 -419.3)" fill="#56555c"/><path d="M260.2,532.1c-3,.7-4.6,1.5-3.4,5.4,1.6,5.4,2.2,11,3.3,16.5-3.2.4-6.1-.6-9.2-1.1-1.6-12.5-5.1-24.6-8-36.8,8.8-.3,8.9-.2,11.2,8.8C254.9,528.3,254.3,533,260.2,532.1Z" transform="translate(-60.1 -419.3)" fill="#56555c"/><path d="M101,514.9l-2,.3-6.5-2.3-6.8-2.5c5.9-2.4,11.5-2.9,17.4-3.9Z" transform="translate(-60.1 -419.3)" fill="#f8f8f8"/><path d="M265.3,510.6c-3.1,1.1-6.3,2-9.3,3.4s-5.4.7-6-3.1c-.2-1.1-.6-2.2-1.1-4C254.8,506.9,259.9,508.8,265.3,510.6Z" transform="translate(-60.1 -419.3)" fill="#f8f8f8"/><path d="M535.4,521c9.9-.1,17.3,7.5,17.4,18s-6.9,18.5-17.2,18.5-17.5-7.5-17.4-18.3S525.6,521.1,535.4,521Z" transform="translate(-60.1 -419.3)" fill="#fefefe"/><path d="M453,557.5c-10.5,0-17.5-7.3-17.5-18.2s7-18.1,17-18.3,17.5,7.6,17.5,18.3S463,557.4,453,557.5Z" transform="translate(-60.1 -419.3)" fill="#fefefe"/><path d="M864.1,541.5c-.1,14.6-11.2,23.7-23.7,19.4-10.4-3.7-15.2-17.8-10-29.6a17.6,17.6,0,0,1,24.4-8.2C862,527.1,864.3,533.7,864.1,541.5Z" transform="translate(-60.1 -419.3)" fill="#fefefe"/><path d="M676.5,533c1-7.7,6.4-13.2,13.4-14s15,2.7,17.6,9.2c1.2,3.2,1.4,5-3.2,4.9C695,532.8,685.8,533,676.5,533Z" transform="translate(-60.1 -419.3)" fill="#fefefe"/><path d="M371.1,533H357.6c-1.6,0-2.8,0-2.3-2.3,1.2-6.1,8.1-11.5,15-11.7,8.5-.2,14.8,3.9,16.5,10.7.7,2.7,0,3.5-2.8,3.4S375.4,533,371.1,533Z" transform="translate(-60.1 -419.3)" fill="#fefefe"/><path d="M765.4,565.1c-5.6,0-9-2.6-9.6-7.3s1.9-8.6,7.6-9.7,9.5-1.4,14.2-2.3c2.3-.5,3.2-.1,3.3,2.6C781.2,558.2,775.1,565,765.4,565.1Z" transform="translate(-60.1 -419.3)" fill="#fdfdfd"/><path d="M1001.3,542.8c-.1,5.6-1.2,10.4-4.6,14.5a16.8,16.8,0,0,1-28.5-4.7,25.4,25.4,0,0,1-.9-16.1c2.3-8.3,9.1-13.4,17.3-13s14.7,6.3,16.2,14.9C1001.1,540,1001.1,541.7,1001.3,542.8Z" transform="translate(-60.1 -419.3)" fill="#fefefe"/></svg>