<svg id="Layer_1" data-name="Layer 1" xmlns="http://www.w3.org/2000/svg" viewBox="0 0 135.3 34"><defs><style>.cls-1{fill:#fff;}.cls-2{fill:#fcfbfa;}.cls-3{fill:#252526;}.cls-4{fill:#e0e0e0;}.cls-5{fill:#56555c;}.cls-6{fill:#fffffb;}</style></defs><path class="cls-1" d="M16.6,34a13,13,0,0,1-13-12.3h0A3.4,3.4,0,0,1,1,19.4a34.5,34.5,0,0,1-.9-5.6,3.1,3.1,0,0,1,1.7-2.7A17.9,17.9,0,0,1,6.3,9.9,28.9,28.9,0,0,1,9.9,3.8C12,1.3,14.2,0,16.6,0s4.5,1.3,6.6,3.8a28.9,28.9,0,0,1,3.6,6.1,17.9,17.9,0,0,1,4.5,1.2A3,3,0,0,1,33,13.8a34.5,34.5,0,0,1-.9,5.6,3.2,3.2,0,0,1-2.6,2.3h0A13,13,0,0,1,16.5,34Z" transform="translate(-0.1)"/><path class="cls-2" d="M16.5,2.2c6,0,10.9,12.8,10.9,18.8A10.9,10.9,0,0,1,5.7,21C5.7,15,10.6,2.2,16.5,2.2Z" transform="translate(-0.1)"/><path class="cls-3" d="M30.3,12.5l-4.4,1.6a17.2,17.2,0,0,0,.7,2.1l4.4-.6Zm-27.5,0,4.4,1.6-.7,2.1-4.4-.6.7-3.1Z" transform="translate(-0.1)"/><path class="cls-4" d="M12,12.2a1.2,1.2,0,0,1,1.4,1.1l.3,2.3a1.3,1.3,0,0,1-.1.6,7.7,7.7,0,0,0-.2-1.5A1.4,1.4,0,0,0,12,13.5l-5,.4a7.8,7.8,0,0,0,.5-1.4Zm15.4,8.3a20.4,20.4,0,0,1-8-1.9,2.8,2.8,0,0,1-1.6-2.3c-.1,1.6.2,3.1,1.7,3.8a21.1,21.1,0,0,0,7.8,1.8A6.6,6.6,0,0,0,27.4,20.5Zm-21.7,0a20.4,20.4,0,0,0,8-1.9,2.8,2.8,0,0,0,1.6-2.3c.1,1.6-.2,3.1-1.7,3.8a21.1,21.1,0,0,1-7.8,1.8A6.6,6.6,0,0,1,5.7,20.5Zm15.4-8.3a1.2,1.2,0,0,0-1.4,1.1l-.3,2.3a1.3,1.3,0,0,0,.1.6,7.7,7.7,0,0,1,.2-1.5,1.4,1.4,0,0,1,1.4-1.2l4.9.4a7.8,7.8,0,0,0-.5-1.4,31.5,31.5,0,0,0-4.4-.3Z" transform="translate(-0.1)"/><path class="cls-5" d="M7.1,11a23.6,23.6,0,0,1,3.7-6.5q2.7-3.3,5.7-3.3c2,0,4,1.1,5.8,3.3A23.6,23.6,0,0,1,26,11H24.8C23.6,8.1,21.6,4.5,18.9,3a4,4,0,0,0-2.4-.7,4.4,4.4,0,0,0-2.4.7c-2.6,1.5-4.6,5.1-5.8,7.9H7.1Zm20.4,8.2h-1a38.8,38.8,0,0,0-1.7-6.7v-.2H25l.9.2H26A30.8,30.8,0,0,1,27.6,19v.2Z" transform="translate(-0.1)"/><path class="cls-3" d="M26.5,14a10.9,10.9,0,0,0-.5-1.7h-.1l-1-.2h-.1v.2a8.8,8.8,0,0,1,.5,1.5Z" transform="translate(-0.1)"/><path class="cls-5" d="M5.6,19a30.8,30.8,0,0,1,1.6-6.7H8.4v.2A30.3,30.3,0,0,0,6.7,19H5.6Z" transform="translate(-0.1)"/><path class="cls-3" d="M7.2,12.2h0a9.8,9.8,0,0,0-.5,1.6H7.8a9.8,9.8,0,0,0,.5-1.6V12H7.2Z" transform="translate(-0.1)"/><path class="cls-5" d="M16.5,32.8A11.7,11.7,0,0,1,5.6,25.3a12.8,12.8,0,0,1-.9-4.8H5.8a10.7,10.7,0,0,0,18.5,7.9,9.9,9.9,0,0,0,2.2-3.5,11.1,11.1,0,0,0,.8-4.4h1a11,11,0,0,1-.8,4.8,11.7,11.7,0,0,1-10.9,7.5Z" transform="translate(-0.1)"/><path class="cls-3" d="M5.9,21.9a6.6,6.6,0,0,1-.1-1.4h-1a3.3,3.3,0,0,0,0,1.4H5.9Zm22.4-1.5h-1a6.6,6.6,0,0,1-.1,1.4h1.1a3.3,3.3,0,0,0,0-1.4Z" transform="translate(-0.1)"/><path class="cls-3" d="M29,20.7a24.6,24.6,0,0,1-6.7-.9,13.3,13.3,0,0,1-2.8-1h0c-1.8-.9-1.9-2.6-1.7-4.3a1.3,1.3,0,0,0-.6-1.2,1.1,1.1,0,0,0-1.3,0,1.3,1.3,0,0,0-.6,1.2c.2,1.7.1,3.4-1.7,4.3h0a13.3,13.3,0,0,1-2.8,1,24.4,24.4,0,0,1-6.6.9H4.1a2,2,0,0,1-1.9-1.6,24.2,24.2,0,0,1-.9-5.3,1.8,1.8,0,0,1,1.1-1.7c2.5-1.2,7.7-1.6,9.9-1.6a2.7,2.7,0,0,1,2,.9,5.9,5.9,0,0,1,2.3-.5,5.9,5.9,0,0,1,2.2.5,2.7,2.7,0,0,1,2-.9c1.3,0,7,.3,9.9,1.6a1.8,1.8,0,0,1,1.1,1.7,19.5,19.5,0,0,1-.9,5.3A2,2,0,0,1,29,20.7Zm-7.9-8.5a1.3,1.3,0,0,0-1.3,1.1,9.1,9.1,0,0,0-.3,2.3,1.8,1.8,0,0,0,.9,1.8,21.2,21.2,0,0,0,8.3,1.5.5.5,0,0,0,.5-.4,27.3,27.3,0,0,0,.8-4.6c0-.2-.1-.3-.3-.4-2.2-.9-6.9-1.3-8.6-1.3ZM3.3,13.5a.5.5,0,0,0-.2.4,27.3,27.3,0,0,0,.8,4.6.5.5,0,0,0,.5.4,21.2,21.2,0,0,0,8.3-1.5,1.8,1.8,0,0,0,.9-1.8,9.1,9.1,0,0,0-.3-2.3A1.3,1.3,0,0,0,12,12.2c-1,0-6.2.2-8.7,1.3Z" transform="translate(-0.1)"/><path class="cls-6" d="M47.8,20.5l-.6,1.3-1,1a4.6,4.6,0,0,1-1.4.7,5.7,5.7,0,0,1-1.8.3,4.5,4.5,0,0,1-2-.4,4.2,4.2,0,0,1-1.8-1.1,4.5,4.5,0,0,1-1.1-1.7,6.9,6.9,0,0,1-.5-2.4,9.3,9.3,0,0,1,.4-2.3,6.6,6.6,0,0,1,1.2-1.7,5.7,5.7,0,0,1,1.6-1.1,6.5,6.5,0,0,1,2-.4,4.9,4.9,0,0,1,3.8,1.5,5.4,5.4,0,0,1,1.3,3.9V19H40.4a2.4,2.4,0,0,0,.2.9A2.5,2.5,0,0,0,42,21.2l1,.2a2.5,2.5,0,0,0,1.6-.5,2.8,2.8,0,0,0,.8-1.1l2.4.7Zm-2.7-3.4a2.2,2.2,0,0,0-.1-.8,1.5,1.5,0,0,0-.5-.6,1.8,1.8,0,0,0-.7-.5l-1-.2-1,.2a1.8,1.8,0,0,0-.7.5,2,2,0,0,0-.6,1.4Zm6.4,6.3a2.9,2.9,0,0,0,.8,1.4,2.5,2.5,0,0,0,1.7.6,3.3,3.3,0,0,0,2.1-.7,3.5,3.5,0,0,0,.7-2.3v-.7a2.4,2.4,0,0,1-1.1.9,3.2,3.2,0,0,1-1.8.4,4.5,4.5,0,0,1-2-.4,4.9,4.9,0,0,1-1.5-1,5.4,5.4,0,0,1-1-1.6,5.5,5.5,0,0,1,0-4,3.4,3.4,0,0,1,1-1.6,3.3,3.3,0,0,1,1.5-1.1,3.4,3.4,0,0,1,2-.4,3.4,3.4,0,0,1,1.9.4c.5.3.9.6,1,1V13h2.8v9.4a4.5,4.5,0,0,1-.4,2,4.6,4.6,0,0,1-2.6,3,6.2,6.2,0,0,1-2.5.4,6.4,6.4,0,0,1-2-.3,4.4,4.4,0,0,1-1.5-.8,3.2,3.2,0,0,1-1.1-1.2,3.4,3.4,0,0,1-.5-1.4Zm2.8-2.8a2.3,2.3,0,0,0,1.8-.7,2.7,2.7,0,0,0,.7-2,2.5,2.5,0,0,0-.7-1.9,2.9,2.9,0,0,0-1.8-.7l-.9.2-.8.5a2.8,2.8,0,0,0-.6.9,1.7,1.7,0,0,0-.1,1,2.6,2.6,0,0,0,.7,2,2.2,2.2,0,0,0,1.7.7Zm9.1,2.8a2.9,2.9,0,0,0,.8,1.4,2.4,2.4,0,0,0,1.7.6,3,3,0,0,0,2-.7,3,3,0,0,0,.7-2.3v-.7a2.2,2.2,0,0,1-1,.9,3.6,3.6,0,0,1-1.9.4,4.3,4.3,0,0,1-1.9-.4,4,4,0,0,1-1.5-1A5.7,5.7,0,0,1,61.2,20a6.8,6.8,0,0,1,0-4,6.2,6.2,0,0,1,1-1.6,4.4,4.4,0,0,1,3.5-1.5,3.7,3.7,0,0,1,2,.4,2.4,2.4,0,0,1,1,1V13h2.7v9.4a6.4,6.4,0,0,1-.3,2,4.9,4.9,0,0,1-2.6,3,6.8,6.8,0,0,1-2.6.4,6.3,6.3,0,0,1-1.9-.3,4.8,4.8,0,0,1-1.6-.8,4,4,0,0,1-1-1.2,2.4,2.4,0,0,1-.5-1.4Zm2.8-2.8a2.4,2.4,0,0,0,1.8-.7,2.7,2.7,0,0,0,.7-2A2.9,2.9,0,0,0,68,16a2.9,2.9,0,0,0-1.8-.7l-1,.2-.8.5a2.6,2.6,0,0,0-.5.9,3.6,3.6,0,0,0-.2,1,3,3,0,0,0,.7,2,2.4,2.4,0,0,0,1.8.7Zm9.4,2.9H73.1V8.1h2.5v5.8a3.8,3.8,0,0,1,1.3-.9l1.5-.2,1.8.3a3.4,3.4,0,0,1,1.2.9,3.3,3.3,0,0,1,.7,1.3,4.4,4.4,0,0,1,.2,1.6v6.6H79.5V17.4a2.6,2.6,0,0,0-.4-1.5,1.8,1.8,0,0,0-1.5-.6,1.7,1.7,0,0,0-1.4.6,2,2,0,0,0-.6,1.4Zm18-3a3.8,3.8,0,0,1-.6,1.3,3.2,3.2,0,0,1-1,1,3.7,3.7,0,0,1-1.4.7,4.7,4.7,0,0,1-1.7.3,5.2,5.2,0,0,1-2.1-.4,4.5,4.5,0,0,1-1.7-1.1,6.6,6.6,0,0,1-1.2-1.7,6.7,6.7,0,0,1-.4-2.4,6.2,6.2,0,0,1,.4-2.3,6.6,6.6,0,0,1,1.2-1.7,4.6,4.6,0,0,1,1.6-1.1,6.5,6.5,0,0,1,1.9-.4,4.8,4.8,0,0,1,3.8,1.5,5.5,5.5,0,0,1,1.4,3.9v.6a.4.4,0,0,1-.1.3H86.3a2.4,2.4,0,0,0,.2.9,2.5,2.5,0,0,0,1.4,1.3l1,.2a2.5,2.5,0,0,0,1.6-.5,4.4,4.4,0,0,0,.8-1.1l2.3.7ZM91,17.1a2.4,2.4,0,0,0-.2-.8c0-.2-.2-.4-.4-.6a1.8,1.8,0,0,0-.7-.5l-1-.2a2.4,2.4,0,0,0-1.7.7,2.7,2.7,0,0,0-.7,1.4Zm3.7,3.5a3.1,3.1,0,0,1,.9-2.2l1-.6,1.2-.3,2.6-.4c.3-.1.5-.1.6-.3a.8.8,0,0,0,.2-.5,1.5,1.5,0,0,0-.4-.9,2,2,0,0,0-1.4-.4,2,2,0,0,0-1.4.5,2.3,2.3,0,0,0-.6,1.2l-2.5-.5a5,5,0,0,1,.4-1.3,3.1,3.1,0,0,1,.9-1.1l1.4-.8a5.6,5.6,0,0,1,3.9.1,2.9,2.9,0,0,1,1.4.8,2.6,2.6,0,0,1,.8,1.3,4,4,0,0,1,.3,1.5v6c0,.3.1.6.1.8h-2.6c0-.2-.1-.4-.1-.6v-.7a3.2,3.2,0,0,1-1.2,1.1,3.6,3.6,0,0,1-1.9.5,4,4,0,0,1-1.5-.3,2.6,2.6,0,0,1-1.1-.7A2.9,2.9,0,0,1,94.7,20.6Zm4.2,1.1h.9l.7-.4a3.5,3.5,0,0,0,.5-.8,5.2,5.2,0,0,0,.2-1.1v-.5l-2.4.4a1.6,1.6,0,0,0-.9.3,1.7,1.7,0,0,0-.3,1,1.1,1.1,0,0,0,.3.8,1.2,1.2,0,0,0,1,.4Zm16.9-.1a3.4,3.4,0,0,0,.1,1v.9h-2.7V23a2,2,0,0,1-.1-.7,2.2,2.2,0,0,1-1.1,1,2.8,2.8,0,0,1-1.8.4,5.2,5.2,0,0,1-2.1-.4,4.2,4.2,0,0,1-1.6-1.1,5.2,5.2,0,0,1-1-1.8,6.4,6.4,0,0,1,0-4.3,5.9,5.9,0,0,1,1-1.7,5,5,0,0,1,4.8-1.5l.8.3a1,1,0,0,1,.6.5.8.8,0,0,1,.4.4v-6h2.7Zm-7.9-3.4a2.9,2.9,0,0,0,.8,2.2,2.5,2.5,0,0,0,1.8.8,2.7,2.7,0,0,0,1.9-.8,2.9,2.9,0,0,0,.7-2.2,2.8,2.8,0,0,0-.7-2.1,2.7,2.7,0,0,0-1.9-.8,2.5,2.5,0,0,0-1.8.8,2.9,2.9,0,0,0-.8,2.1Zm9.4,4.2a1,1,0,0,1,1.1-1.1,1,1,0,0,1,1,1.1.9.9,0,0,1-.3.7,1.3,1.3,0,0,1-.7.4,1.2,1.2,0,0,1-.8-.4.9.9,0,0,1-.3-.7ZM120.8,11a1.6,1.6,0,0,1,1.6-1.5,1.5,1.5,0,0,1,1.5,1.5,1.5,1.5,0,0,1-1.5,1.5,1.5,1.5,0,0,1-1.6-1.5Zm.3,12.5V13.6h2.6v9.9Zm3.9-5a5,5,0,0,1,5.2-5.1,4.9,4.9,0,0,1,5.2,5.1,5,5,0,0,1-5.2,5.2A5,5,0,0,1,125,18.5Zm7.8,0a2.6,2.6,0,1,0-5.1,0c0,1.6.9,2.9,2.5,2.9A2.6,2.6,0,0,0,132.8,18.5Z" transform="translate(-0.1)"/></svg>