<svg id="Layer_1" data-name="Layer 1" xmlns="http://www.w3.org/2000/svg" viewBox="0 0 687.5 235.6"><defs><style>.cls-1{fill:#fff;}.cls-2{fill:#fed10a;}.cls-3{fill:#24bbb1;}.cls-4{fill:#ef5098;}.cls-5{fill:#17a8e0;}.cls-6{fill:#93c83e;}.cls-7{fill:#0779a1;}</style></defs><path class="cls-1" d="M236.6,123.5a46.5,46.5,0,0,0-30.8-43.9A67,67,0,0,0,140.2,0,66.7,66.7,0,0,0,86,27.7,35.5,35.5,0,0,0,28.8,55.8,36.8,36.8,0,0,0,31,68.2a46.8,46.8,0,0,0-.1,88,66.7,66.7,0,0,0,119.6,51.6,34.9,34.9,0,0,0,21.7,7.6,35.5,35.5,0,0,0,35.5-35.5,36.8,36.8,0,0,0-2.2-12.4,47.1,47.1,0,0,0,31.1-44"/><path class="cls-2" d="M93,101.5l51.8,23.6L197,79.3a54.7,54.7,0,0,0,1.1-11.5,58.3,58.3,0,0,0-106.5-33L82.9,79.9Z"/><path class="cls-3" d="M39.4,156.3A56.6,56.6,0,0,0,38.3,168a58.6,58.6,0,0,0,107,32.9l8.6-44.9-11.5-22-52-23.7Z"/><path class="cls-4" d="M39.1,66.7l35.5,8.4,7.8-40.3A28,28,0,0,0,39.1,66.7"/><path class="cls-5" d="M36,75.2a39.1,39.1,0,0,0-1.7,73.7l49.8-45L75,84.4Z"/><path class="cls-6" d="M154.3,200.9A28,28,0,0,0,197.5,169l-35.4-8.3Z"/><path class="cls-7" d="M161.5,151.4l39,9.1a39.1,39.1,0,0,0,1.7-73.7l-51,44.7Z"/><path d="M330.8,165.5l4.7-.5.3,9.6a240.6,240.6,0,0,1-31.8,2.6q-17.5,0-24.9-10.2c-4.9-6.8-7.3-17.4-7.3-31.7q0-42.9,34.1-42.9c11,0,19.2,3.1,24.6,9.2s8.1,15.8,8.1,28.9l-.7,9.3H284.1c0,9,1.6,15.7,4.9,20s8.9,6.5,17,6.5A230,230,0,0,0,330.8,165.5Zm-4.4-35.3c0-10-1.6-17.1-4.8-21.2s-8.4-6.2-15.6-6.2-12.7,2.2-16.3,6.5-5.5,11.3-5.6,20.9Z"/><path d="M355.6,175.7V58.7h12.2v117Z"/><path d="M444.9,118.8v40.1c0,4.1,10.1,4.9,10.1,4.9l-.6,10.8c-8.6,0-15.7.7-20-3.4a71.7,71.7,0,0,1-29.3,6.1c-7.5,0-13.2-2.1-17.1-6.4s-5.9-10.3-5.9-18.3,2-13.8,6-17.5,10.3-6.1,18.9-6.9l25.6-2.4v-7c0-5.5-1.2-9.5-3.6-11.9s-5.7-3.6-9.8-3.6H387.1V92.5h31.3c9.2,0,15.9,2.1,20.1,6.4S444.9,109.8,444.9,118.8ZM394.7,152c0,10,4.1,15,12.4,15a65.3,65.3,0,0,0,21.8-3.7l3.7-1.3V135.1l-24.1,2.3c-4.9.4-8.4,1.8-10.6,4.2S394.7,147.5,394.7,152Z"/><path d="M492.6,103.4c-11.8,0-17.8,4.1-17.8,12.4,0,3.8,1.4,6.5,4.1,8.1s8.9,3.2,18.6,4.9,16.5,4,20.5,7.1,6,8.7,6,17.1-2.7,14.5-8.1,18.4-13.2,5.9-23.6,5.9c-6.7,0-29.2-2.5-29.2-2.5l.7-10.6c12.9,1.2,22.3,2.2,28.6,2.2s11.1-1,14.4-3,5-5.4,5-10.1-1.4-7.9-4.2-9.6-9-3.3-18.6-4.8-16.4-3.7-20.4-6.7-6-8.4-6-16.3,2.8-13.8,8.4-17.6,12.6-5.7,20.9-5.7c6.6,0,29.6,1.7,29.6,1.7V105C509.4,104.3,499.5,103.4,492.6,103.4Z"/><path d="M583,104.8H557.1v39c0,9.3.7,15.5,2,18.4s4.6,4.4,9.7,4.4l14.5-1,.8,10.1a111.1,111.1,0,0,1-16.6,1.8c-8.5,0-14.3-2.1-17.6-6.2s-4.9-12-4.9-23.6V104.8H533.4V94.2H545v-25h12.1V94.1H583Z"/><path d="M600,75.7V61.6h12.2V75.8Zm0,100V94.2h12.2v81.5Z"/><path d="M665.2,92.5c3.6,0,9.7.7,18.3,2l3.9.5-.5,9.9a187.3,187.3,0,0,0-19.2-1.5c-9.2,0-15.5,2.2-18.8,6.6s-5,12.6-5,24.5,1.5,20.2,4.6,24.9,9.5,7,19.3,7l19.2-1.5.5,10.1c-10.1,1.5-17.7,2.3-22.7,2.3-12.7,0-21.5-3.3-26.3-9.8s-7.3-17.5-7.3-33,2.6-26.4,7.8-32.6S653,92.5,665.2,92.5Z"/></svg>