<?xml version="1.0" encoding="utf-8"?>
<!-- Generator: Adobe Illustrator 25.0.0, SVG Export Plug-In . SVG Version: 6.00 Build 0)  -->
<svg version="1.1" id="Layer_1" xmlns="http://www.w3.org/2000/svg" xmlns:xlink="http://www.w3.org/1999/xlink" x="0px" y="0px"
	 viewBox="0 0 482.9 271.1" style="enable-background:new 0 0 482.9 271.1;" xml:space="preserve">
<style type="text/css">
	.st0{fill:#4285F3;}
	.st1{fill:#0F9C58;}
	.st2{fill:#FABB04;}
	.st3{fill:#E94335;}
	.st4{fill:#717171;}
</style>
<path class="st0" d="M152.4,103.6c16.5,9.9,33,19.8,49.5,29.8c14.4,8.8,18.8,22.8,11.4,36.1c-7.5,13.6-21.6,17.9-36.7,9.5
	c-30.1-16.8-60-33.9-89.4-52C65.1,113.5,67.5,91,91.5,77.9c10.7-3.8,20.8-1.9,29.8,4.5C131.6,89.6,144.9,92.4,152.4,103.6z"/>
<path class="st1" d="M321.3,103.6c-16.5-9.8-33.3-19.2-49.6-29.5c-17.4-11-19.9-30.3-6.3-42.7c9.2-8.4,19.7-9.6,30.4-3.6
	c30.8,17.4,61.8,34.3,91.8,52.9c20.8,12.9,17.5,37.5-5.4,48.3c-8.6,3.5-16.8,2.7-24.9-1.9C345,119.9,330.8,115.4,321.3,103.6z"/>
<path class="st2" d="M321.3,103.6c11.2,6.2,22.7,12,33.6,18.6c8.6,5.2,17.4,8,27.4,6.8c-28.5,16.8-56.7,34-85.5,50.1
	c-14.7,8.2-29.8,3.6-36.9-9.5c-7.1-13.1-2.5-27.4,11.9-36.3C288.2,123.3,304.8,113.5,321.3,103.6z"/>
<path class="st3" d="M152.4,103.6c-11.2-6.2-22.5-12.1-33.5-18.7c-8.5-5.1-17.4-8.1-27.4-7C120,61.3,148.3,44.4,177,28.4
	c14.6-8.1,28.9-3.7,36.7,9.7c7,12.1,3.1,26.8-10.6,35.5C186.5,84,169.4,93.6,152.4,103.6z"/>
<g>
	<path class="st4" d="M21.9,235.9h14.2v19.4c-2.3,0.8-4.5,1.3-6.7,1.6s-4.4,0.5-6.9,0.5c-5.8,0-10.3-1.7-13.5-5.2
		c-3.2-3.5-4.7-8.3-4.7-14.6c0-6.2,1.8-11.1,5.4-14.6c3.6-3.5,8.5-5.3,14.7-5.3c4,0,7.8,0.8,11.4,2.3l-2.2,5.2
		c-3.1-1.4-6.3-2.2-9.4-2.2c-4.1,0-7.4,1.3-9.8,3.9c-2.4,2.6-3.6,6.1-3.6,10.6c0,4.7,1.1,8.3,3.2,10.7c2.2,2.5,5.3,3.7,9.3,3.7
		c2,0,4.2-0.3,6.5-0.8v-9.9h-8V235.9z"/>
	<path class="st4" d="M79.4,237.1c0,6.4-1.8,11.2-5.3,14.6s-8.6,5-15.3,5H48.1v-38.5H60c6.1,0,10.9,1.7,14.3,5
		C77.7,226.5,79.4,231.1,79.4,237.1z M72.8,237.3c0-9.2-4.3-13.8-12.9-13.8h-5.5v28h4.5C68.1,251.5,72.8,246.8,72.8,237.3z"/>
	<path class="st4" d="M106.2,235.9h14.2v19.4c-2.3,0.8-4.5,1.3-6.7,1.6s-4.4,0.5-6.9,0.5c-5.8,0-10.3-1.7-13.5-5.2
		c-3.2-3.5-4.7-8.3-4.7-14.6c0-6.2,1.8-11.1,5.4-14.6c3.6-3.5,8.5-5.3,14.7-5.3c4,0,7.8,0.8,11.4,2.3l-2.2,5.2
		c-3.1-1.4-6.3-2.2-9.4-2.2c-4.1,0-7.4,1.3-9.8,3.9c-2.4,2.6-3.6,6.1-3.6,10.6c0,4.7,1.1,8.3,3.2,10.7c2.2,2.5,5.3,3.7,9.3,3.7
		c2,0,4.2-0.3,6.5-0.8v-9.9h-8V235.9z"/>
	<path class="st4" d="M172.9,256.8l-3.8-10.7h-14.7l-3.8,10.7h-6.6l14.4-38.7h6.9l14.4,38.7H172.9z M167.4,240.6l-3.6-10.5
		c-0.3-0.7-0.6-1.8-1.1-3.3c-0.5-1.5-0.8-2.6-1-3.3c-0.5,2.2-1.2,4.5-2.1,7.1l-3.5,10H167.4z"/>
	<path class="st4" d="M212.4,256.8h-6.2v-17.9c0-2.2-0.5-3.9-1.4-5c-0.9-1.1-2.3-1.7-4.3-1.7c-2.6,0-4.5,0.8-5.7,2.3
		c-1.2,1.6-1.8,4.2-1.8,7.8v14.5h-6.2v-41h6.2v10.4c0,1.7-0.1,3.5-0.3,5.4h0.4c0.8-1.4,2-2.5,3.5-3.3s3.3-1.2,5.3-1.2
		c7.1,0,10.6,3.6,10.6,10.7V256.8z"/>
	<path class="st4" d="M248.3,256.8h-6.2v-18c0-2.2-0.4-3.9-1.3-5s-2.2-1.6-4-1.6c-2.4,0-4.1,0.8-5.3,2.3c-1.1,1.6-1.7,4.1-1.7,7.8
		v14.5h-6.2v-29.2h4.9l0.9,3.8h0.3c0.8-1.4,2-2.5,3.5-3.2c1.5-0.8,3.2-1.1,5.1-1.1c4.5,0,7.5,1.5,8.9,4.6h0.4
		c0.9-1.4,2.1-2.6,3.6-3.4s3.4-1.2,5.4-1.2c3.5,0,6,0.9,7.6,2.6c1.6,1.8,2.4,4.4,2.4,8v19h-6.2v-18c0-2.2-0.4-3.9-1.3-5
		c-0.9-1.1-2.2-1.6-4-1.6c-2.4,0-4.2,0.8-5.3,2.3c-1.1,1.5-1.7,3.8-1.7,6.9V256.8z"/>
	<path class="st4" d="M290.8,257.3c-4.5,0-8.1-1.3-10.6-4c-2.6-2.6-3.8-6.3-3.8-10.9c0-4.8,1.2-8.5,3.6-11.2s5.6-4.1,9.8-4.1
		c3.8,0,6.9,1.2,9.1,3.5c2.2,2.3,3.3,5.6,3.3,9.7v3.3h-19.4c0.1,2.8,0.9,5,2.3,6.5c1.4,1.5,3.5,2.3,6.1,2.3c1.7,0,3.3-0.2,4.8-0.5
		c1.5-0.3,3.1-0.9,4.8-1.6v5c-1.5,0.7-3,1.2-4.6,1.5C294.6,257.1,292.8,257.3,290.8,257.3z M289.7,231.8c-2,0-3.5,0.6-4.7,1.9
		s-1.9,3.1-2.1,5.5h13.2c0-2.4-0.6-4.2-1.7-5.5C293.2,232.4,291.6,231.8,289.7,231.8z"/>
	<path class="st4" d="M321.7,257.3c-3.6,0-6.5-1.3-8.5-4c-2-2.6-3.1-6.3-3.1-11.1c0-4.8,1-8.5,3.1-11.2c2.1-2.7,4.9-4,8.6-4
		c3.8,0,6.8,1.4,8.8,4.2h0.3c-0.3-2.1-0.4-3.7-0.4-5v-10.6h6.2v41h-4.9l-1.1-3.8h-0.3C328.5,255.8,325.6,257.3,321.7,257.3z
		 M323.4,252.3c2.5,0,4.4-0.7,5.6-2.1s1.8-3.8,1.8-7v-0.9c0-3.7-0.6-6.3-1.8-7.8c-1.2-1.5-3.1-2.3-5.6-2.3c-2.2,0-3.9,0.9-5,2.7
		c-1.2,1.8-1.8,4.3-1.8,7.6c0,3.2,0.6,5.7,1.7,7.4C319.4,251.4,321.1,252.3,323.4,252.3z"/>
	<path class="st4" d="M366.5,256.8l-1.2-4.1H365c-1.4,1.8-2.8,3-4.2,3.6c-1.4,0.6-3.3,1-5.5,1c-2.9,0-5.1-0.8-6.7-2.3
		c-1.6-1.5-2.4-3.7-2.4-6.6c0-3,1.1-5.3,3.3-6.8s5.6-2.4,10.2-2.5l5-0.2v-1.6c0-1.9-0.4-3.3-1.3-4.2c-0.9-0.9-2.2-1.4-4-1.4
		c-1.5,0-2.9,0.2-4.3,0.7s-2.7,1-4,1.6l-2-4.4c1.6-0.8,3.3-1.5,5.2-1.9s3.7-0.6,5.3-0.6c3.7,0,6.5,0.8,8.4,2.4
		c1.9,1.6,2.8,4.2,2.8,7.6v19.6H366.5z M357.2,252.5c2.2,0,4.1-0.6,5.4-1.9s2-3,2-5.3v-2.5L361,243c-2.9,0.1-5,0.6-6.4,1.5
		c-1.3,0.9-2,2.2-2,4c0,1.3,0.4,2.3,1.2,3C354.5,252.2,355.7,252.5,357.2,252.5z"/>
	<path class="st4" d="M397.2,227.1c3.6,0,6.5,1.3,8.5,4c2,2.6,3,6.3,3,11.1c0,4.8-1,8.5-3.1,11.2c-2.1,2.7-4.9,4-8.6,4
		c-3.7,0-6.6-1.3-8.6-4H388l-1.1,3.5h-4.6v-41h6.2v9.8c0,0.7,0,1.8-0.1,3.2s-0.1,2.3-0.2,2.7h0.3
		C390.4,228.5,393.3,227.1,397.2,227.1z M395.5,232.1c-2.5,0-4.3,0.7-5.4,2.2c-1.1,1.5-1.7,3.9-1.7,7.4v0.4c0,3.6,0.6,6.1,1.7,7.7
		c1.1,1.6,3,2.4,5.5,2.4c2.2,0,3.9-0.9,5-2.6c1.1-1.7,1.7-4.3,1.7-7.5C402.3,235.5,400.1,232.1,395.5,232.1z"/>
	<path class="st4" d="M436.8,256.8l-1.2-4.1h-0.2c-1.4,1.8-2.8,3-4.2,3.6c-1.4,0.6-3.3,1-5.5,1c-2.9,0-5.1-0.8-6.7-2.3
		c-1.6-1.5-2.4-3.7-2.4-6.6c0-3,1.1-5.3,3.3-6.8s5.6-2.4,10.2-2.5l5-0.2v-1.6c0-1.9-0.4-3.3-1.3-4.2c-0.9-0.9-2.2-1.4-4-1.4
		c-1.5,0-2.9,0.2-4.3,0.7s-2.7,1-4,1.6l-2-4.4c1.6-0.8,3.3-1.5,5.2-1.9s3.7-0.6,5.3-0.6c3.7,0,6.5,0.8,8.4,2.4
		c1.9,1.6,2.8,4.2,2.8,7.6v19.6H436.8z M427.6,252.5c2.2,0,4.1-0.6,5.4-1.9s2-3,2-5.3v-2.5l-3.7,0.2c-2.9,0.1-5,0.6-6.4,1.5
		c-1.3,0.9-2,2.2-2,4c0,1.3,0.4,2.3,1.2,3C424.9,252.2,426.1,252.5,427.6,252.5z"/>
	<path class="st4" d="M462.5,257.3c-3.6,0-6.5-1.3-8.5-4s-3.1-6.3-3.1-11.1c0-4.8,1-8.5,3.1-11.2c2.1-2.7,4.9-4,8.6-4
		c3.8,0,6.8,1.4,8.8,4.2h0.3c-0.3-2.1-0.4-3.7-0.4-5v-10.6h6.2v41h-4.9l-1.1-3.8h-0.3C469.2,255.8,466.3,257.3,462.5,257.3z
		 M464.1,252.3c2.5,0,4.4-0.7,5.6-2.1s1.8-3.8,1.8-7v-0.9c0-3.7-0.6-6.3-1.8-7.8s-3.1-2.3-5.6-2.3c-2.2,0-3.9,0.9-5,2.7
		c-1.2,1.8-1.8,4.3-1.8,7.6c0,3.2,0.6,5.7,1.7,7.4C460.1,251.4,461.8,252.3,464.1,252.3z"/>
</g>
</svg>
