<svg xmlns="http://www.w3.org/2000/svg" width="458.1" height="57.6" viewBox="0 0 458.1 57.6"><path d="M343.1,538,361,548.8c5.3,3.2,6.8,8.3,4.2,13.1s-7.8,6.5-13.3,3.4c-10.9-6-21.7-12.2-32.4-18.8-8-4.9-7.1-13,1.6-17.8a11.3,11.3,0,0,1,10.8,1.6C335.6,533,340.4,534,343.1,538Z" transform="translate(-314 -509.3)" fill="#4285f3"/><path d="M404.2,538c-5.9-3.5-12-6.9-17.9-10.6s-7.2-11-2.3-15.5c3.4-3,7.2-3.5,11.1-1.3,11.1,6.3,22.3,12.5,33.2,19.2,7.5,4.6,6.3,13.5-2,17.4a9.6,9.6,0,0,1-9-.7C412.8,543.9,407.7,542.3,404.2,538Z" transform="translate(-314 -509.3)" fill="#0f9c58"/><path d="M404.2,538c4.1,2.3,8.3,4.4,12.2,6.8s6.3,2.9,9.9,2.4c-10.3,6.1-20.5,12.3-30.9,18.2-5.3,2.9-10.8,1.3-13.4-3.5s-.9-9.9,4.4-13.1Z" transform="translate(-314 -509.3)" fill="#fabb04"/><path d="M343.1,538,331,531.3a15.3,15.3,0,0,0-9.9-2.6c10.3-6,20.5-12.1,30.9-17.9,5.3-2.9,10.5-1.3,13.3,3.5s1.1,9.7-3.8,12.8S349.3,534.4,343.1,538Z" transform="translate(-314 -509.3)" fill="#e94335"/><path d="M623,537.2c5.8,4.3,7.4,8.4,5.8,13.6s-6.5,8.1-13,8.1c-4.6,0-10.6,1.5-13.5-.7s-.9-8.8-1-13.3c-.2-8,.1-16-.1-23.9-.1-2.9.6-4.3,3.8-4s6.3.1,9.5,0c5.6,0,10.2,1.8,12.6,7.2S627.7,533.9,623,537.2Z" transform="translate(-314 -509.3)" fill="#676767"/><path d="M486.4,537h2.5c8.1,0,9,1.2,6.8,9.2s-10.4,13.9-19.8,13.8a21.5,21.5,0,0,1-12.1-39,21.6,21.6,0,0,1,24-.6c1.3.8,3.9,1.3,2.3,3.9s-2.8,1.7-4.8.4a16.4,16.4,0,0,0-21,2.3c-5.1,5.4-5.8,14.6-1.8,20.8a16.8,16.8,0,0,0,20.4,6,14.1,14.1,0,0,0,4.2-2.6c2.4-2.2,4.8-5.1,3.8-8.2s-4.5-.6-6.8-1a27.8,27.8,0,0,0-5,0c-1.7.1-2.8-.3-2.8-2.4s.7-2.7,2.6-2.6S483.9,537,486.4,537Z" transform="translate(-314 -509.3)" fill="#666"/><path d="M572.7,537h3c7.8,0,8.3.5,6.6,8.1-2.3,10.2-12.8,16.6-23.4,14.5s-19.4-12.8-17.5-24.5A21.5,21.5,0,0,1,573.6,520c1.4.9,4.3,1.4,2.8,4.2s-3.2,1.4-5.3.1a16.5,16.5,0,0,0-20.9,3.1,17.4,17.4,0,0,0-.8,21.2,16.8,16.8,0,0,0,20.7,4.8,13.3,13.3,0,0,0,7.2-8.5c.6-2.2.2-3-2.2-2.9s-6.3,0-9.5,0c-1.6,0-2.8-.1-2.9-2.3s1-2.8,3-2.7S570.4,537,572.7,537Z" transform="translate(-314 -509.3)" fill="#666"/><path d="M512.7,517a27.3,27.3,0,0,1,12,1.8c8.5,3.6,13,12.3,11.6,22.6s-7.9,16.2-18.1,17.4c-15,1.8-15,1.8-15-13,0-7.6.3-15.3-.2-22.9-.2-4.8,1.2-6.8,6-5.9A22.4,22.4,0,0,0,512.7,517Z" transform="translate(-314 -509.3)" fill="#676767"/><path d="M737.5,534.2v-14c0-1.9.1-3.3,2.6-3.2s2.2,1.5,2.2,3c0,12,0,24,.1,35.9,0,3.5-3.5,3.9-3.9,2.7-1.6-4-2.9-1.5-4.5-.6a12.1,12.1,0,0,1-15.8-2.5,15.9,15.9,0,0,1-.4-20.6C722.7,529,728.9,528.6,737.5,534.2Z" transform="translate(-314 -509.3)" fill="#686868"/><path d="M657.9,548.4v7.9c0,1.1.3,2.5-1.5,2.6s-2.7.6-3.1-.8c-.8-3.5-2-1.1-3.1-.4-4.7,3-9.5,2.9-13.5-.2s-4.7-12.1,1.7-15a14.9,14.9,0,0,1,11.2-.9c1,.3,2.4,1.1,3.1-.1s0-2.6-.9-3.6c-3-3.5-6.8-3.6-10.8-1.9-1.3.5-2.2,2-4,.9s-3.2-2.5-.5-4.2a15.4,15.4,0,0,1,15.2-1.3c4.9,2.2,6.4,6.4,6.2,11.5Z" transform="translate(-314 -509.3)" fill="#676767"/><path d="M772,548.6c0,2.5-.1,5,.1,7.5s-3.4,3.7-4,2.4c-1.8-3.5-2.9-1.3-4.5-.3-4.4,2.7-8.7,2.2-12.6-.6a8.3,8.3,0,0,1-3.5-9.2c1.1-4.8,5-6.4,9.2-7.2a15.1,15.1,0,0,1,7,.4c1,.3,2.4,1.1,3.1-.1s0-2.6-.9-3.7c-2.9-3.3-6.5-3.5-10.4-2-1.1.5-2.2,1.6-3.1,1.5a5.1,5.1,0,0,1-3.2-2.1c-.9-1.3.7-2,1.6-2.6a15.1,15.1,0,0,1,15.2-1.1c4.7,2.2,6.2,6.2,6,11.1Z" transform="translate(-314 -509.3)" fill="#666"/><path d="M681.8,545.1c-.1-8.6,6.2-15.1,14.5-15.1s14.3,6.4,14.3,14.8-6.2,15.2-14.5,15.1S681.9,553.6,681.8,545.1Z" transform="translate(-314 -509.3)" fill="#676767"/><path d="M669.4,534.8c2.6-2.9,5-4.6,8.2-4.7,1.3-.1,3.4-.5,3.2,1.8s-.5,2.8-2.5,3.2c-8,1.6-9.2,3.1-9.2,11.1,0,3,.1,6,0,9s.8,3.8-2.4,3.8-2.6-1.7-2.6-3.6V534.5c0-1.6-.5-3.3,2.2-3.6S668.9,532.6,669.4,534.8Z" transform="translate(-314 -509.3)" fill="#696969"/><path d="M613.5,554a20.5,20.5,0,0,0-3.5,0c-3.1.4-3.8-.9-3.9-3.9,0-10.2-.1-10.2,9.6-10.1,5.4.1,8.4,2.5,8.5,6.9s-3,7-8.7,7.1Z" transform="translate(-314 -509.3)" fill="#fdfdfd"/><path d="M613.2,522a25.4,25.4,0,0,1,3.9.1c3.7.4,5.7,2.7,5.8,6.2s-1.9,6.1-5.4,6.6-6,0-8.9.1-2.4-.7-2.4-2.3,0-2.4,0-3.5C606.2,522,606.2,522,613.2,522Z" transform="translate(-314 -509.3)" fill="#fcfcfc"/><path d="M508.2,537.8V524.9c0-1.4-.2-2.8,1.8-2.8,6.1-.1,12.5-1,17.3,4.2s5.1,11.4,3.3,17.8-14.7,13.3-21.4,9.7c-1.4-.7-1-1.9-1-3C508.1,546.5,508.2,542.1,508.2,537.8Z" transform="translate(-314 -509.3)" fill="#fefefe"/><path d="M728.5,555c-5.5,0-9.3-4.2-9.3-10s3.9-10.1,9.4-10,8.9,4.1,9,9.8S733.9,554.9,728.5,555Z" transform="translate(-314 -509.3)" fill="#fdfdfd"/><path d="M646.2,545.9c2.4.6,6-.8,6.6,3.1s-4.1,5.9-8,6-6.3-.6-6.3-4S642.6,546.2,646.2,545.9Z" transform="translate(-314 -509.3)" fill="#fbfbfb"/><path d="M760.3,545.9c2.6.2,5.8-.4,6.6,2.8s-4.1,6.2-8.2,6.3-6.3-.7-6.1-4.2S756.9,546.1,760.3,545.9Z" transform="translate(-314 -509.3)" fill="#fbfbfb"/><path d="M696.4,555c-5.7,0-9.5-3.8-9.6-9.8s3.6-10.1,9.2-10.2,9.5,4,9.7,9.8S701.9,554.9,696.4,555Z" transform="translate(-314 -509.3)" fill="#fdfdfd"/></svg>