<svg xmlns="http://www.w3.org/2000/svg" width="627" height="57.7" viewBox="0 0 627 57.7"><path d="M258.1,538,276,548.8c5.3,3.2,6.8,8.3,4.2,13.1s-7.8,6.5-13.3,3.4c-10.9-6-21.7-12.2-32.4-18.8-8-4.9-7.1-13,1.6-17.8a11.3,11.3,0,0,1,10.8,1.6C250.6,533,255.4,534,258.1,538Z" transform="translate(-229 -509.2)" fill="#4285f3"/><path d="M319.3,538c-6-3.5-12.1-6.9-18-10.6s-7.2-11-2.3-15.5c3.4-3,7.2-3.5,11.1-1.3,11.1,6.3,22.3,12.4,33.2,19.1,7.5,4.7,6.3,13.6-2,17.5a9.6,9.6,0,0,1-9-.7C327.8,543.9,322.7,542.3,319.3,538Z" transform="translate(-229 -509.2)" fill="#0f9c58"/><path d="M319.3,538c4,2.3,8.2,4.4,12.1,6.8s6.3,2.9,9.9,2.4c-10.3,6.1-20.5,12.3-30.9,18.2-5.3,3-10.8,1.3-13.4-3.5s-.9-9.9,4.4-13.1Z" transform="translate(-229 -509.2)" fill="#fabb04"/><path d="M258.1,538,246,531.3a15.3,15.3,0,0,0-9.9-2.6c10.3-6,20.5-12.1,30.9-17.9,5.3-2.9,10.5-1.3,13.3,3.5s1.1,9.7-3.8,12.8S264.3,534.4,258.1,538Z" transform="translate(-229 -509.2)" fill="#e94335"/><path d="M401.4,537h3c7.6,0,8.2.7,6.6,8.2s-8.9,14-18,14.7a21.5,21.5,0,1,1,9.3-39.8c1.4.8,4.4,1.3,2.9,4.1s-3.2,1.5-5.3.2a16.3,16.3,0,0,0-20.9,2.9c-5,5.7-5.5,15.2-.9,21.3a16.8,16.8,0,0,0,20.6,4.9,17.5,17.5,0,0,0,4.4-3.3c1.8-2,3.8-4.6,2.9-7.1s-4.1-.8-6.3-1.1a40.1,40.1,0,0,0-6,0c-1.6,0-2.4-.6-2.4-2.3s.6-2.8,2.6-2.7S398.9,537,401.4,537Z" transform="translate(-229 -509.2)" fill="#666"/><path d="M487.7,537h3.5c7.3,0,7.7.5,6.2,7.6a19.6,19.6,0,0,1-22.9,15.1c-11.9-2-19.7-12.3-18.2-24,2-15.4,19.5-23.8,32.7-15.5,1.3.8,3.9,1.5,2.5,4s-3.2,1.5-5.3.2a16.5,16.5,0,0,0-20.6,2.5,17.5,17.5,0,0,0-1.2,21.7,16.8,16.8,0,0,0,20.2,5.1,13,13,0,0,0,4.8-3.5c1.8-2.1,3.7-4.7,3-7.1s-4.1-.8-6.2-1a46.8,46.8,0,0,0-6.5-.1c-2,0-1.9-1.4-1.9-2.7s.3-2.3,1.9-2.3Z" transform="translate(-229 -509.2)" fill="#666"/><path d="M418.2,537.7c0-5.6.1-11.3-.1-16.9,0-2.7.5-4,3.6-3.8s6.6-.1,9.9.1c11.8.5,19.3,8.1,20.1,19.9s-6.4,19.9-17.7,21.7c-14.8,2.5-15.8,1.6-15.8-13Z" transform="translate(-229 -509.2)" fill="#676767"/><path d="M684.8,538l14.6-17.4c3.3-3.9,3.3-3.9,9.3-3-4.4,5.1-8.4,10-12.8,14.8-1.9,2.1-2.1,3.5-.3,5.9,4.9,6.5,9.4,13.2,14.1,20.1-4,1.4-6.4.3-8.4-3.1s-6.1-8.7-9-13.2c-1.4-2.1-2.2-2.5-4.4-.4-3.9,3.7-4.7,8-4.3,13,.1,1.7,1.1,4.2-2.4,4.3s-2.5-2.4-2.5-4.2V520.9c0-1.5-.9-3.8,2.2-3.9s2.8,2.1,2.8,4v16.4Z" transform="translate(-229 -509.2)" fill="#676767"/><path d="M653.3,534.2c0-5.1,0-9.5-.1-14,0-1.8.1-3.2,2.6-3.2s2.4,1.5,2.4,3.3v35.3c0,1.2.7,2.9-1.3,3.3s-3,.6-3.4-1.7-1.4-.9-2.1-.2c-6.9,5.8-14.7,2.1-18.1-2.3a16.2,16.2,0,0,1,1.1-20.6C639.5,528.8,645.3,528.7,653.3,534.2Z" transform="translate(-229 -509.2)" fill="#676767"/><path d="M535.5,555a14.1,14.1,0,0,0,10.9-4c1.9-2,3-1.1,4.4.4s-.4,2.6-1.3,3.4c-7.8,7.1-20.7,6.8-28.6-.7s-8.8-20.1-2.4-28.7,19.2-11,28.1-5.2c1.4.9,4.4,1.5,3.2,4s-3.5,1.5-5.7.1a16.7,16.7,0,0,0-19.1,1.3c-5.2,4.3-7.1,12.3-4.6,19.2S528.5,554.9,535.5,555Z" transform="translate(-229 -509.2)" fill="#676767"/><path d="M806.9,548.5v7.9c0,1,.2,2.3-1.2,2.4s-3.1,0-3.2-.3c-1-4.3-2.7-1.1-3.9-.4a11.1,11.1,0,0,1-14.1-1.6,8.7,8.7,0,0,1,3.4-14.3,15.8,15.8,0,0,1,10.7-.6c1,.3,2.4,1.2,3.2-.2s0-2.3-.8-3.2c-2.7-3.6-6.3-3.9-10.2-2.6a15.5,15.5,0,0,0-2.2,1.2c-1.9,1.4-3.3-.1-4.3-1.2s.7-2.6,1.7-3.2c4.9-2.9,10.1-3.3,15.2-.7s5.9,6.8,5.7,11.8C806.8,545.2,806.9,546.8,806.9,548.5Z" transform="translate(-229 -509.2)" fill="#676767"/><path d="M855.9,548.5v8c0,1,.1,2.1-1.2,2.3s-3.1.5-3.3-.4c-.7-3.7-2.1-1.5-3.4-.5-4.4,3-8.8,2.7-13-.2a8.6,8.6,0,0,1,1.5-15.3,16,16,0,0,1,11.2-.8c1,.3,2.3,1.2,3.1-.2s-.2-2.3-.8-3.3c-2.2-3.2-7-4.3-11.2-1.9-2.6,1.5-4.7,1.2-5.7-1.1s1.8-2.7,3.3-3.5c8-3.9,20.6-.8,19.5,12C855.8,545.2,855.9,546.9,855.9,548.5Z" transform="translate(-229 -509.2)" fill="#676767"/><path d="M780.8,558.5c-4.1,1.2-6.6.3-8.3-3.2a36.6,36.6,0,0,0-4-5.7c-.9-1.2-1.3-3.9-3.2-3.1s-4,2.5-4.1,5.2-.1,3.4,0,5-.8,2.3-2.4,2.3-2.6-.4-2.6-2.2V519.4c0-2.1,1.2-2.4,2.9-2.4s2.1,1.6,2.1,3.1v22.4c7.1-2.6,8.9-13,18.9-11.2-3.1,3.1-5.8,6-8.6,8.7s-1.8,2.8-.4,4.6C774.3,549,777.4,553.6,780.8,558.5Z" transform="translate(-229 -509.2)" fill="#686868"/><path d="M566.9,544.9c0-8.6,6.3-15.1,14.6-14.9s14.2,6.6,14.2,15a14.6,14.6,0,0,1-14.3,15C573.1,560.1,566.8,553.6,566.9,544.9Z" transform="translate(-229 -509.2)" fill="#676767"/><path d="M710.8,544.9c0-8.4,6-14.8,14.2-14.9s14.7,6.5,14.7,15-6.2,14.9-14.3,15S710.8,553.6,710.8,544.9Z" transform="translate(-229 -509.2)" fill="#676767"/><path d="M625,544.9c0,3.9,0,7.7-.1,11.5,0,1,.3,2.1-1.1,2.4s-3,.5-3.2-.5c-.8-3.8-2.2-1.3-3.5-.5-8.2,5.1-16.5.9-16.9-8.8-.2-4.8-.1-9.6-.1-14.5,0-1.9-.2-3.6,2.7-3.5s2.3,2.2,2.3,3.8c.1,4.2,0,8.3.1,12.5s2.1,7.5,6.5,7.7a7.5,7.5,0,0,0,8.1-7.1c.4-4.4.2-8.9.2-13.4,0-2-.1-3.7,2.7-3.5s2.2,1.9,2.2,3.5C625,538,625,541.4,625,544.9Z" transform="translate(-229 -509.2)" fill="#686868"/><path d="M824.1,559c-4.7-.1-7.8-2.8-8.2-7.3s0-6.6-.1-9.9,1.3-6.4-3.9-6c-1.3.1-1.1-1.4-1.1-2.3s-.1-2.6,1.6-2.4c3.7.4,3.3-2,3.4-4.4s-1.5-4.6,2.4-4.7,2.7,2.7,2.6,4.5c-.2,3.3.6,5.1,4.3,4.5,1.8-.3,2.7.5,2.7,2.5s-.9,2.8-2.7,2.5c-3.8-.6-4.5,1.2-4.3,4.5s.1,6,.1,9,.8,4.4,3.5,4.4,3.6,1.2,3.4,3.2S825.4,558.6,824.1,559Z" transform="translate(-229 -509.2)" fill="#676767"/><path d="M556.8,538.1c0-6,.1-11.9,0-17.9,0-1.8,0-3.3,2.5-3.2s2.6,1.4,2.6,3.2c0,11.9-.1,23.9,0,35.9,0,2-.6,2.9-2.8,2.9s-2.3-1.4-2.3-2.9Z" transform="translate(-229 -509.2)" fill="#6a6a6a"/><path d="M749.2,538.5v16.9c0,1.8.3,3.7-2.6,3.6s-2.4-1.6-2.4-3.3V520.3c0-1.7-.2-3.3,2.4-3.3s2.6,1.8,2.6,3.6Z" transform="translate(-229 -509.2)" fill="#6b6b6b"/><path d="M423.2,537.9V525c0-1.3-.3-2.8,1.7-3,12.5-1.2,23.1,2.7,21.3,19-.9,8.2-6.2,12.8-14.4,13s-8.6.2-8.6-8.6Z" transform="translate(-229 -509.2)" fill="#fefefe"/><path d="M653.5,544.9c.1,5.8-3.7,10.1-9.2,10.1s-9-3.9-9.2-9.6,3.5-10.3,8.9-10.4S653.5,539,653.5,544.9Z" transform="translate(-229 -509.2)" fill="#fdfdfd"/><path d="M795.4,545.9c2.3.7,6.6-.9,6.3,3.3s-4.1,5.7-8.1,5.8-6.3-.7-6.2-4.2S791.7,546.1,795.4,545.9Z" transform="translate(-229 -509.2)" fill="#fbfbfb"/><path d="M841.6,555c-2-.1-5-.7-5.2-4.2s2.7-4.1,5.4-4.7h1c2.9.3,6.7-1.2,8,2.7S846.7,554.9,841.6,555Z" transform="translate(-229 -509.2)" fill="#fbfbfb"/><path d="M581.3,555c-5.7,0-9.4-3.9-9.5-9.9s3.8-10.1,9.4-10.1,9.5,4.2,9.5,9.9S586.8,554.9,581.3,555Z" transform="translate(-229 -509.2)" fill="#fdfdfd"/><path d="M725.2,555c-5.6,0-9.4-3.9-9.4-9.9s3.7-10.1,9.3-10.1,9.5,4.2,9.6,9.9S730.8,554.9,725.2,555Z" transform="translate(-229 -509.2)" fill="#fdfdfd"/></svg>