<svg xmlns="http://www.w3.org/2000/svg" width="464.3" height="57.7" viewBox="0 0 464.3 57.7"><path d="M339.1,538,357,548.8c5.3,3.2,6.8,8.3,4.2,13.1s-7.8,6.5-13.3,3.4c-10.9-6-21.7-12.2-32.4-18.8-8-4.9-7.1-13,1.6-17.8a11.3,11.3,0,0,1,10.8,1.6C331.6,533,336.4,534,339.1,538Z" transform="translate(-310 -509.3)" fill="#4285f3"/><path d="M400.2,538c-5.9-3.5-12-6.9-17.9-10.6s-7.2-11-2.3-15.5c3.4-3,7.2-3.5,11.1-1.3,11.1,6.3,22.3,12.4,33.2,19.1,7.5,4.7,6.3,13.6-2,17.5a9.6,9.6,0,0,1-9-.7C408.8,543.9,403.7,542.3,400.2,538Z" transform="translate(-310 -509.3)" fill="#0f9c58"/><path d="M400.2,538c4.1,2.3,8.3,4.4,12.2,6.8a14.6,14.6,0,0,0,9.9,2.4c-10.3,6.1-20.5,12.3-30.9,18.2-5.3,3-10.8,1.3-13.4-3.5s-.9-9.9,4.4-13.1Z" transform="translate(-310 -509.3)" fill="#fabb04"/><path d="M339.1,538,327,531.3a15.3,15.3,0,0,0-9.9-2.6c10.3-6,20.5-12.1,30.9-17.9,5.3-2.9,10.5-1.3,13.3,3.5s1.1,9.7-3.8,12.8S345.3,534.4,339.1,538Z" transform="translate(-310 -509.3)" fill="#e94335"/><path d="M482.6,537h2c8.4,0,9.5,1.6,6.9,9.9s-9.6,12.7-18.3,13.1a21.5,21.5,0,1,1,10.3-39.8c1.4.8,4.5,1.3,2.5,4.2s-3,1.3-4.9.1a16.3,16.3,0,0,0-20.9,2.6,17.5,17.5,0,0,0-1.5,20.9,16.7,16.7,0,0,0,20.4,5.8,17.2,17.2,0,0,0,4.5-3.1c2.1-2.1,4.4-5,3.2-7.8s-4.2-.6-6.4-.9-3,0-4.5,0-3.7.3-3.6-2.6,2.2-2.3,3.9-2.4S480.5,537,482.6,537Z" transform="translate(-310 -509.3)" fill="#666"/><path d="M558.7,555c7.1-.1,12.5-3.7,14.4-9.5.8-2.4.8-3.8-2.4-3.6s-6.3,0-9.5.1-2.5-.8-2.5-2.7.7-2.3,2.4-2.3c5,0,10,.1,15,0,3.2-.1,2.8,2.1,2.7,4.1-.1,9.6-6.7,16.8-16.8,18.6a21.5,21.5,0,1,1,7-40c1.7.9,4.9,1.5,3.5,4.4s-3.6,1.3-5.7,0a16.6,16.6,0,0,0-19.1,1.8c-5.1,4.4-6.9,12-4.5,18.7S551.5,555,558.7,555Z" transform="translate(-310 -509.3)" fill="#666"/><path d="M499.2,538c0-6,0-11.9-.1-17.9,0-2,.4-3.2,2.7-3.1,4.7.2,9.4-.3,14,.5,10.8,1.8,17.4,10.3,16.9,21.2s-7.9,19.4-19.3,20.2c-3.7.2-7.4-.1-11,.1s-3.3-1.1-3.3-3.5C499.2,549.7,499.2,543.8,499.2,538Z" transform="translate(-310 -509.3)" fill="#676767"/><path d="M603.4,538.2c4.9-5.8,9.8-11.5,14.4-17.4,2.4-3.1,5-4.7,9.5-3.2-4.2,4.9-8.1,9.7-12.3,14.3-2.1,2.4-2.4,4.1-.4,6.8,4.8,6.3,9.2,13,13.8,19.7-3.9,1.4-6.4.4-8.4-3s-6-8.4-8.6-12.8-3-2.4-5.4-.2-3.9,7.7-3.8,12.2c0,1.7,1.3,4.3-2.3,4.4s-2.6-2.3-2.6-4.1q-.1-16.9,0-33.9c0-1.9-.6-4.2,2.7-4s2.2,2.4,2.2,4c.1,5.5,0,11.1,0,16.7Z" transform="translate(-310 -509.3)" fill="#676767"/><path d="M725.6,548.7v8c0,1,0,2.1-1.4,2.2s-2.9.7-3.1-.6c-.7-4.6-2.3-1.2-3.5-.4a11,11,0,0,1-13-.2c-5.6-4.1-5-12.1,1.2-15.1a15.8,15.8,0,0,1,11.7-.9c1,.3,2.3,1.1,3.1-.3s-.2-2.3-.9-3.2c-3-3.7-6.7-4-10.8-2.3-1.5.6-2.7,2-4.6.8s-2.7-2.3-.3-3.9a15.4,15.4,0,0,1,15.2-1.5c4.9,2.1,6.5,6.4,6.4,11.4Z" transform="translate(-310 -509.3)" fill="#676767"/><path d="M699.6,558.5c-3.9,1.2-6.4.4-8.2-3a27.4,27.4,0,0,0-3.9-5.7c-1.1-1.2-1.3-4.2-3.6-3.1s-4,2.5-3.8,5.3,0,2.7,0,4,.1,3-2.2,3-2.9-.9-2.8-2.9v-36c0-1.8.1-3.1,2.6-3.1s2.4,1.6,2.4,3.3v22.2c7-2.7,8.9-13,18.5-11.3-2,3.5-5.1,5.7-7.8,8.2s-2.2,3.6-.4,5.9C693.6,549.5,696.4,553.9,699.6,558.5Z" transform="translate(-310 -509.3)" fill="#676767"/><path d="M774.3,548.6v7.9c0,3.4-3.7,2.9-3.9,2.1-1.4-4.3-2.9-1.4-4.4-.4-4.3,2.7-8.5,2.2-12.6-.5s-4.3-5.4-3.6-9.2,4.8-6.4,9.1-7.3a14.4,14.4,0,0,1,7.4.5c1,.2,2.4,1.1,3.1-.3s-.2-2.2-.9-3.2c-2-3.1-6.6-4.1-10.7-2.4-.9.4-1.7,1.2-2.7,1.3a3.6,3.6,0,0,1-3.7-1.9c-.7-1.4.9-2.1,1.8-2.6a14.9,14.9,0,0,1,15.1-1.1c4.9,2.3,6.2,6.6,6,11.6Z" transform="translate(-310 -509.3)" fill="#666"/><path d="M658.4,545.2c-.1,8.5-6.2,14.8-14.3,14.8s-14.5-6.5-14.4-15.2,6.1-14.7,14.3-14.8S658.4,536.4,658.4,545.2Z" transform="translate(-310 -509.3)" fill="#676767"/><path d="M743.3,559c-5.1,0-8.4-2.8-8.7-7.4s-.1-8.3-.1-12.5c0-1.8-.1-3.4-2.6-3.1s-2.4-1-2.4-2.7.8-2.4,2.4-2.3c3.8.1,2.2-2.8,2.6-4.6s-1.2-4.2,2.3-4.4,2.9,2.5,2.8,4.4.2,5.2,4.1,4.6c1.9-.3,2.7.6,2.7,2.6s-1.1,2.6-2.8,2.4c-3.6-.6-4.2,1.2-4,4.3s0,6.3.1,9.4.8,4.4,3.6,4.2,3.4,1.6,3.3,3.4S744.2,558.6,743.3,559Z" transform="translate(-310 -509.3)" fill="#676767"/><path d="M663.1,538V520c-.1-1.9.3-3.1,2.7-3s2.3,1.2,2.3,2.8v36.4c0,1.7-.2,2.8-2.4,2.8s-2.7-1.2-2.6-3.1Z" transform="translate(-310 -509.3)" fill="#6a6a6a"/><path d="M510.1,522.1c13.9-1.2,20.2,10.3,16.4,22.5-2.3,7.4-13.2,12-20.9,9.3-1.6-.5-1.4-1.5-1.4-2.7,0-8.8-.1-17.6,0-26.4C504.3,519.5,508.6,523.3,510.1,522.1Z" transform="translate(-310 -509.3)" fill="#fefefe"/><path d="M714.6,546c2.1.3,5.3-.5,5.9,2.9s-4.4,6.1-8.5,6.1-5.8-.8-6-4.4S709.4,545.9,714.6,546Z" transform="translate(-310 -509.3)" fill="#fbfbfb"/><path d="M763.2,546c2.3.2,5.5-.5,6.1,2.9s-4.4,6.1-8.4,6.1-6.3-.8-5.9-4.4S759.4,546,763.2,546Z" transform="translate(-310 -509.3)" fill="#fcfcfc"/><path d="M643.8,555c-5.5-.1-9.2-4.1-9.1-10.2s3.9-9.9,9.5-9.8,9.4,4.4,9.3,10.2S649.4,555.1,643.8,555Z" transform="translate(-310 -509.3)" fill="#fdfdfd"/></svg>