<svg xmlns="http://www.w3.org/2000/svg" width="465.2" height="335.4" viewBox="0 0 465.2 335.4"><path d="M650.4,487.1l-60.1-34.9c-7.9-4.6-15.7-8.9-20.8-17.1-10.1-16.1-3.2-40,13.8-48.3,14.9-7.3,27.8-2.9,40.8,4.9,20.9,12.5,42.1,24.4,63.1,36.5,17.5,10.2,35.2,20,52.3,30.7,11.9,7.4,16.4,19.1,14.6,33S745.2,514,733,519.1c-1.4.9-3,1.4-4.5,2.4-9.3,3.6-18,1.1-26.2-3.3-16.5-8.9-32.5-18.8-48.8-28.1A6,6,0,0,1,650.4,487.1Z" transform="translate(-308.2 -382.9)" fill="#44965c"/><path d="M428.2,487.1c7,5.3,15,9,22.5,13.5,16,9.5,32.4,18.2,48,28.1,11.8,7.4,16,19.1,14.4,32.7s-8.1,21.2-19.2,26.5-23,4.1-34.1-2.4C437,572.1,414,559,391,545.7c-17.4-10.1-35.1-19.9-52.2-30.5-11.4-7-15.9-18.3-14.7-31.2s8.8-23.6,21.9-29c1.7-.9,3.6-1.6,5.4-2.6,8.2-1.7,16.3-1.1,23.7,3q25.9,14.6,51.4,30A4,4,0,0,1,428.2,487.1Z" transform="translate(-308.2 -382.9)" fill="#5980b9"/><path d="M650.4,487.1c14.8,8.4,29.7,16.6,44.3,25.4,10.6,6.4,21.3,11.4,34.1,8.4.5-.3.9-.3,1.2.2l-85.2,49.3c-10.6,6.1-20.9,12.7-32,18.1-16,7.8-38.3-1.2-45.2-17.6-7.8-18.6,1.3-37.3,17.4-46,21.5-11.5,42.4-24.1,63.5-36.2C649.2,488.3,649.7,487.6,650.4,487.1Z" transform="translate(-308.2 -382.9)" fill="#f1b947"/><path d="M428.2,487.1c-9.9-4.6-18.9-10.8-28.5-16s-19.6-12.3-30.5-16.6c-6-2.4-12-1.5-18.1-1.3-.9.3-1.1-.1-1.1-.9l78.2-45.2c12.6-7.2,24.9-15.1,38-21.4,14.9-7,35.3-.1,42.9,14.6,9.7,18.7,3.1,38.5-15.2,48.7C471.7,461.3,450.1,474.4,428.2,487.1Z" transform="translate(-308.2 -382.9)" fill="#da5346"/><path d="M367.9,691.9c.3-2.8-1.4-3.2-3.7-3.2H348c-1.3,0-3.1,1-3.7-1.2a1,1,0,0,1,1.1-.9c5.5.8,11.1.1,15.9.4-4.3-.9-9.7,1.4-14.7-1.2a2.9,2.9,0,0,1,.5-3.2c8.1-1.4,16.2-.8,24.2-.4,5.2.2,3.4,5,3.7,8.2-1.4,7.8-4.6,14.5-10.9,19.5-3.2,2.6-6.4,4.8-10.6,5-1.8-.2-2.7,1.6-4.3,1.9a106.5,106.5,0,0,1-11.3,0c-3.5-1.8-7.6-2-11-4a33.2,33.2,0,0,1-13.4-13.9,3.7,3.7,0,0,0-1.7-1.8h0c-1.3-9.7-2.6-19.3.9-28.8s12-15.8,22.5-18.3c1.9-.6,4-.3,6-1a10.2,10.2,0,0,1,4.6-.1c1.6.6,3.4.6,5.1,1.2,5.2,1,10.3,2.3,14.2,6.4a1.9,1.9,0,0,1,.3,1.5c-1,1.7-2.3,2.9-4.5,2.4a29.6,29.6,0,0,0-24.4-5.2c-10,2.2-19.9,13.5-20.6,23.6a14.7,14.7,0,0,0,0,7.8c.3,1.6.3,3.2,1.1,4.7,1.8,6.3,5.8,11,10.8,15,9.8,8.7,34,6.4,39.9-11.1A5.7,5.7,0,0,0,367.9,691.9Z" transform="translate(-308.2 -382.9)" fill="#767676"/><path d="M762,705.9c1.9,3.9,6.2,2.2,9.1,3.9a4.6,4.6,0,0,1-2,1.3,3.8,3.8,0,0,0,1.9-1.3c1.3,1.9,3.1,3.6,2.2,6.3a54.2,54.2,0,0,0-10.6-.9c-5.6-1.6-7.6-3.9-7.6-9.5-.1-7.7-.2-15.5,0-23.3-.2,8.2.1,16.3-.1,24.4a3.3,3.3,0,0,1-1,2.3c-1.9-8.1-1-16.4-.7-24.6.1-5.1-1.6-6.8-6.3-6.4.8-3.3,3.2-.7,4.4-1.6-1.5-.8-6.1,1.7-4.4-3.6l.7-.6.8-.2c-.3-.2-.5,0-.8,0-2.1.5,0,3.8-2.6,3.9-.9-3.9-.3-6.5,4.6-5.8,3,.5,3.4-1.3,3.5-3.8s-1.2-6.5.8-9.4a2.8,2.8,0,0,1,.5,2.3c0,2.9.1,5.8,0,8.8.2-3.1-.2-6.1.3-9.1,1.1-.9,2.5-.4,3.7-.5,2.3,2.6.3,5.6,1.1,8.5.4.2.3.3.1-.3-1-2.6,1.3-5.8-1.1-8.2-1.7-.1-3.5.4-4.6-1.5,7.1-1.9,7.8-1.4,7.8,5.5,0,1.2.1,2.3,0,3.5-.5,3.2.7,4.5,4.1,4.3s4.2-.9,6.2.6a2.4,2.4,0,0,1-1.9,1,14,14,0,0,1-2.9,0c1.3.1,2.7-.1,3.8.9s.9,3.1,0,4.6-1.7.8-2.7.9c-6.6.3-6.7.3-6.6,7.2s.2,13.6.3,20.4c-3.1-.6-2.3-3.4-2.4-5.1-.3-6.2-.3-12.4-.1-18.7-.1,6-.3,11.9,0,17.8C759.6,702,758.6,705,762,705.9Z" transform="translate(-308.2 -382.9)" fill="#757575"/><path d="M738,682.8c1.9,5.8.6,11.8.9,17.7.2,3.9,0,7.9,0,11.9.1,2.4.4,4.7-3.3,4.5s-5.6.5-4.7-4c.4-2.1-1.4-1.8-2.6-1.9a62.4,62.4,0,0,1-8,5.8,45,45,0,0,1-9-.1c-4.9-2.1-9-4.8-10.9-10.1-2.5-7.2.3-16.6,13.3-17.9,1.3.1,2.6.2,3.4,1.5-1.1,3.6-5.3,2.7-7.3,5.2a14.5,14.5,0,0,0-3.1,3.4c-1.1,6.2-.2,8.5,3.8,11,1.6,1.1,2.2.2,3.2-.6a9.7,9.7,0,0,1,6.5,0c1,0,.1,3.1,2.5,1.1s5.8-4.4,7.8-7.6,2.4-5.7-1.1-8a5.2,5.2,0,0,1-1.7-1.9,2.5,2.5,0,0,1,.1-1.2c.6-.9-.5-1.8.1-2.7,3.3.4,2.9-1.9,2.8-3.9a1.2,1.2,0,0,1,1.7.4c.2.3.3.2.1-.2-2.2-5.8-8.9-10.5-14.6-10.1-4.2.2-7.3,2.9-10.9,4.6-1.9.1-3.3-.7-3.5-2.6s1.1-2.6,2.4-3.5c4.8-3.3,10.2-3.2,15.7-3s12.6,3.6,14.6,11.2c.5,10.4.1,20.8.3,31.3-.3,1.3-1.2,1.5-2.3,1.6s-1.1-.8-1.4-.4,0-.3.2.3c2.7.8,4.4.4,3.5-3-.1-7.6,0-15.2,0-22.8C736.5,686.7,736.2,684.5,738,682.8Z" transform="translate(-308.2 -382.9)" fill="#767676"/><path d="M650.5,671.7c1.9-3,4.3-1.4,6.6-.8-.4,10.4,0,20.7-.1,31.1-.1,3.5,0,7-.1,10.4s-2.1,2.5-4.1,2.3c1.1.5,2.3.1,3.3.5a2,2,0,0,1,.9.9c-3.1.4-7,3.3-7.3-3.5-.1-3.2-1.8.3-2.8.3s-4.3,2.9-7.1,1.7a1.6,1.6,0,0,1-1.1-1.6c1.1-2.9,5.3-2.1,6.1-5.3h0a12.1,12.1,0,0,0,5.7-9.9A152.8,152.8,0,0,0,650.5,671.7Z" transform="translate(-308.2 -382.9)" fill="#747474"/><path d="M669.2,671a7.3,7.3,0,0,1,6.9-.1,1.4,1.4,0,0,0-.2.6,3.9,3.9,0,0,0,.4,4.4c.4,2.8,1.8,1.2,3,.7,2.5-2.9,5.3-5.4,9.3-5.8s5.9.6,5.1,4.9c-.3,1-1,1.4-2.2,1.4-10.2.4-13.4,3.2-15.5,13.3-.5,7.9.8,15.8-.8,23.7a3.7,3.7,0,0,1-4.5,0c-1.2-1.8-.7-3.8-.7-5.8-.1-10.5,0-21-.1-31.4C669.9,674.9,670.3,672.8,669.2,671Z" transform="translate(-308.2 -382.9)" fill="#747474"/><path d="M639,713l1,1c-1.5,2.9-5.8,4.1-10.2,2.4a20.2,20.2,0,0,1-5.7-2.8,13.3,13.3,0,0,1-5.1-11.3V676.9c-.1,7.3,0,14.6-.1,21.9,0,1.8.6,3.8-1,5.2-1.8-5.3-.5-10.8-.8-16.2-.2-3.5-.1-7-.1-10.5,0-7.9.1-8,8.2-6.5l-.4.6c-.3.4-.8.8-.8,1.2.9,9.9-.5,19.8.9,29.6a11.5,11.5,0,0,0,9.6,9.1C636,711.7,637.8,711.5,639,713Z" transform="translate(-308.2 -382.9)" fill="#747474"/><path d="M506.1,659.1c-2,3.6-3.5,4.6-7.7,1.5-12.6-9.1-29.8-4.9-37.6,8.5l-1.9,2.9c-1.7,2.7-1,5.9-1.9,8.8a3.8,3.8,0,0,0,0,4.3c1.1,2.1.1,4.4.7,6.5a2.4,2.4,0,0,1-.6,1.5c-2.5.2-2.9-1.7-3.2-3.5A31.8,31.8,0,0,1,470,655.3c8.8-4.6,17.8-4.4,26.7-.2,3,1.4,5.9,2.7,9.3,2.6A.9.9,0,0,1,506.1,659.1Z" transform="translate(-308.2 -382.9)" fill="#676767"/><path d="M475.9,717.2c-14.2-2.2-25.3-15.9-26.7-27.8-.9-8-1.1-16.2,3.8-23.4,1.1-1.6,2.1-1.5,2.8.3-1.6,6.2-3.1,12.3-2.6,18.9,1,13.9,7.8,23.1,21.1,27.8a3.8,3.8,0,0,1,2.2,2.1,2.6,2.6,0,0,1-.1,1.5Z" transform="translate(-308.2 -382.9)" fill="#666"/><path d="M421.8,652c7.3,2.9,13.2,7.4,16.2,15,1.5,2.1,1.1,4.7,2.2,6.9h0c1,1.9-.5,4.3,1,6.1h-.1a9.8,9.8,0,0,1,0,6.1h0c-1.5,1.8.1,4.2-1,6.1h.1c-1.6,1,.5,4-2.2,4.4a1.4,1.4,0,0,1-1.3-.8c-.9-6,.4-11.9.2-17.8-.3-14.6-13.7-23.8-25.6-24.4-7-.3-14,.3-20.9-.3l-1.6-.7c-.7-.7-1.2-1.4-.7-2.4,7.7-1.2,15.4-.2,23.1-.5C414.6,651.1,418.5,650.1,421.8,652Z" transform="translate(-308.2 -382.9)" fill="#656565"/><path d="M457,693v-1.1c2-.6,1.1,1.6,2,2.1,4.4,8,10.6,13.7,20,15.5,11.8,2.2,21.5-2.7,28-14.5,1.2-1.8,1.2-4.1,2.2-6.3,2.9,2,1.8,4.4,1.2,6.7-4.4,10.2-11.6,16.6-23,17.9-13.2,1.4-22.8-4-29.8-14.8C456.5,696.8,455.4,695,457,693Z" transform="translate(-308.2 -382.9)" fill="#656565"/><path d="M594.2,648.8c2.4.6,4.9,1,6.5,3.2-.1,2.5,3,3,3.3,5.3.5,4-.2,4.6-4.3,3.4-7-7.1-13.6-8.2-21-3.6l-3.4,2.2a2,2,0,0,0-1.5,2.2,4.9,4.9,0,0,1-1.8,3.7c-1.6.1-2.1-1.1-2.6-2.2a8.3,8.3,0,0,1-.4-1.5c.4-5,3.6-7.9,7.7-10,1.6-.8,3.2-1.4,4.8-2.3,3.9-1,7.9-.3,11.9-.3Z" transform="translate(-308.2 -382.9)" fill="#767676"/><path d="M316,692c-1.6-1.4-.7-3.4-.9-5a14,14,0,0,1,0-8.1c1-12.2,8.3-20.1,18.9-24.1s19.2-2.3,27.1,5.1c-.5,1-1,1.7-2.2,1.1-16.4-12.3-38.9-1.5-41.8,16.9a17,17,0,0,0,.1,10h0a6.8,6.8,0,0,1,.2,4A.9.9,0,0,1,316,692Z" transform="translate(-308.2 -382.9)" fill="#666"/><path d="M727.9,688.9c-.5,1.3,4.9.7,1,3-5-.1-9.8-2.7-15-2-7-.5-12,5-12.9,8.6a13.9,13.9,0,0,0,7.8,15.5,3.9,3.9,0,0,1,2.1,1.9,18.9,18.9,0,0,0,10,0,12.1,12.1,0,0,1,7.4-4.9c-3,6.1-8.2,7.6-14.4,7s-11.9-2.8-14.1-9.7c-2-4.2-1.4-8.3.1-12.5s6.1-6.7,10.7-8a48.2,48.2,0,0,1,14.2.2C725.7,688.9,726.9,688.6,727.9,688.9Z" transform="translate(-308.2 -382.9)" fill="#676767"/><path d="M509.1,695c.7-1.7,1.5-3.3.4-5.3-.9,1.8-.6,4.1-2.5,5.3,1.1-6.3,1.1-6.1-5.4-6.3s-11.8,1-17.6-.7l.6-.6a4.7,4.7,0,0,1,3.1-.4c4.6,0,9.2-.1,13.8,0H490.7c-1.6,0-3.4.4-4.3-1.7s.9-3.2,2.9-3.1c8.2,0,16.4-.8,24.6.4,2.3,4.7,1.9,9-1,11.9-2.1-2.9-.3-5.7-.3-8.1-.8,1.7-.3,4.2-.9,6.5S511.5,696.1,509.1,695Z" transform="translate(-308.2 -382.9)" fill="#747474"/><path d="M412.1,650.1H391.7c-1.3,0-2.7-.3-3.6,1,1.4,2.2,1.4,4.7,1.4,7.2,0,16.3-.1,32.6,0,49,0,1.9-.3,4,.4,5.9s3.2,1.4,5,1.4h12.3c1.7,0,3.6-.2,5,1.4-7.6,1.7-15.3.3-22.8.8-2.1.1-2.4-1.3-2.4-3V651.9c0-1.7.4-3,2.4-2.9,8,.5,16-1,23.9.9C412.9,650.3,412.5,650.4,412.1,650.1Z" transform="translate(-308.2 -382.9)" fill="#707070"/><path d="M412.2,716H392.8c-1.6-.1-3.4.6-4.7-1a3.3,3.3,0,0,1,1.7-1.8l1.6-.5c6.9-.3,13.7,0,20.5-.1a39.1,39.1,0,0,0,7.6-1.4c6.5-2.4,11.7-6.3,14.9-12.7.5-1.1.8-2.7,2.6-2.5h1.1a2.4,2.4,0,0,1-.1,2.9A27.8,27.8,0,0,1,418.1,715c-1.9.9-4.2-.2-6,1.1Z" transform="translate(-308.2 -382.9)" fill="#646464"/><path d="M311.8,697.1a2.5,2.5,0,0,1,2.9,1.4c4.4,8.5,10.9,14.2,20.7,15.8.6.1,1.1,1.1,1.7,1.6a31.6,31.6,0,0,0,13,0,2.9,2.9,0,0,1,3-1.9c.6,1.1-.7,1.5-.9,2.3-3.8,3.1-8.2,1.7-12.3,1.6C327.9,717.6,315,707.9,311.8,697.1Z" transform="translate(-308.2 -382.9)" fill="#666"/><path d="M367.9,691.9c2.2-.8,1.9.1,1.4,1.8-2.7,9.7-11.1,17.3-21.2,18.2-7.5.6-15,.6-21.1-4.9-.1-1.7.6-1.7,1.8-1,2.6,2.4,5.8,3.3,9.2,3.8s7.3.8,11,.3C358.6,707.4,364.5,700.9,367.9,691.9Z" transform="translate(-308.2 -382.9)" fill="#666"/><path d="M735.9,713.9c-1.7-3.1-.9-6.5-.9-9.7-.1-7.8-.1-15.5-.1-23.3a1.3,1.3,0,0,1,1.2-.1c.2.2.1.6.4.8a3.1,3.1,0,0,1-.1-1,1.1,1.1,0,0,1,.8-.8,3.3,3.3,0,0,1,.8,3c0,10.4-.1,20.8-.1,31.2A1.4,1.4,0,0,1,735.9,713.9Z" transform="translate(-308.2 -382.9)" fill="#737373"/><path d="M600.1,704c2.5-7.6.7-11.8-6.2-15.6-4.9-2.6-10.5-3.3-15.1-6.3a3.4,3.4,0,0,1,2.9-1.4c9.1.9,17,4,22,12.2,2.9,4.5,2.1,9.4-1.9,13.2C600.1,706.3,600.5,704.8,600.1,704Z" transform="translate(-308.2 -382.9)" fill="#6a6a6a"/><path d="M655.9,713.9c-.3-13.6.9-27.2-.7-40.7-.2-1.6.7-2.1,1.9-2.3s.7,2.8.7,4.2V712c0,1.4.7,3-.8,4.1.1-.1,0-.3-.1-.5A2.3,2.3,0,0,1,655.9,713.9Z" transform="translate(-308.2 -382.9)" fill="#5a5a5a"/><path d="M669.2,671c2.7.7,1.7,2.9,1.7,4.6.1,12.8.1,25.6.1,38.4a1.5,1.5,0,0,1-.1,2.1c-1.3-.1-2.2-.4-2.2-2C669.1,699.7,668.2,685.4,669.2,671Z" transform="translate(-308.2 -382.9)" fill="#646464"/><path d="M455,666c-.6-1.2-1.3-.1-2,0,4.5-9.2,11.9-14.7,21.8-17.2,1.9-.5,4-.3,6-.8s4.1-.1,6.1.1,3.5-.1,5,.9a.7.7,0,0,1,.4.7,2.9,2.9,0,0,1-1.1,1.1c-3.8,1.1-7.7,0-11.5.8-8.6,1-15.4,5.1-20.9,11.7C457.8,664.5,457.1,666.3,455,666Z" transform="translate(-308.2 -382.9)" fill="#666"/><path d="M600.1,704a2.1,2.1,0,0,1,.9,2c.5,2.4-1.3,3.6-2.9,4.8-9.4,7-24.7,1.2-27.4-10.4a1.2,1.2,0,0,1,1.1-.9c1.7-.3,1.3,1.9,2.5,2.3,3.3,4,7,7.6,12.5,8A14.5,14.5,0,0,0,600.1,704Z" transform="translate(-308.2 -382.9)" fill="#686868"/><path d="M707.9,678.9c4.2-4.7,11.8-6.5,16.4-4,6.2,3.3,10,9.5,8.7,14.5-1.9-1.1-.2-3.8-2.3-4.4-5.2-9.3-10.8-10.5-21.7-5C708.6,679.7,708,679.6,707.9,678.9Z" transform="translate(-308.2 -382.9)" fill="#696969"/><path d="M596.1,680.6c14,5.5,18.2,17.9,9.9,29.4a3.1,3.1,0,0,1-1.5-2.6c.3-2.6,1.1-5.1,1.3-7.8.4-6.4-1.7-11.3-7.4-14.5-1.3-.7-2.6-1.4-2.9-3.1A1.8,1.8,0,0,1,596.1,680.6Z" transform="translate(-308.2 -382.9)" fill="#676767"/><path d="M617.9,704V671.6c2.4,1.9,2,3.1,2,4.1.1,8.6,0,17.3.1,25.9,0,4.5.9,8.6,5,11.3,0,1.9-1.1,1.6-2.2,1.1s-2.3-2.3-2.9-3.9-1.1-4.2-2-6.1Z" transform="translate(-308.2 -382.9)" fill="#606060"/><path d="M650.5,671.7a2.6,2.6,0,0,1,1.4,2.4c0,8.2.6,16.4-.2,24.4-.4,3.7-1.3,8.8-6.9,9.3,6.1-7.5,4.5-16.4,4.8-25C649.8,679.1,648.4,675.2,650.5,671.7Z" transform="translate(-308.2 -382.9)" fill="#656565"/><path d="M352.2,716.3l.9-2.3c8.8-1.5,17.2-9.5,19-18.2a6.3,6.3,0,0,1,1.9-3.9,1.3,1.3,0,0,1,1.2,1.1C373.9,704.8,363.7,715.2,352.2,716.3Z" transform="translate(-308.2 -382.9)" fill="#656565"/><path d="M476,715.9l-1-1.9c2.7-1.5,5.5-.4,8.3-.3,9.7.3,17.8-2.8,23.9-10.5a6.1,6.1,0,0,1,3-2.5,1.7,1.7,0,0,1,1.8,1.2c-4.4,8-10.7,13.3-19.7,15.2a2,2,0,0,1-1.7.1C485.8,716.2,480.7,718.1,476,715.9Z" transform="translate(-308.2 -382.9)" fill="#6e6e6e"/><path d="M314.1,668c-3.6,8.1-1.7,16.6-1.7,25,0,1.5.4,2.9-.6,4.2-1.7-.9-2-2.3-1.8-4s.3-3.7-.9-5.2v-1.7a12.7,12.7,0,0,1,0-6.7.4.4,0,0,1,0-.6c1.4-2,0-4.3,1-6.3s1.4-4.9,2.9-7C314,666.1,313.5,667.3,314.1,668Z" transform="translate(-308.2 -382.9)" fill="#6c6c6c"/><path d="M514,683H490.8c-2.1,0-4,.1-3.8,3a2.6,2.6,0,0,1-1.3.8,2.2,2.2,0,0,1-2.1-1c0-1.5-.5-3.1.4-4.6,10.3-1,20.7-.4,31-.3a2,2,0,0,1,.3,2.1A.9.9,0,0,1,514,683Z" transform="translate(-308.2 -382.9)" fill="#6f6f6f"/><path d="M578,656.9c5.7-6.3,15.6-4.9,22,3a2.1,2.1,0,0,1-1,2c-6.2-6.6-11.8-7.7-19.9-3.7A1.5,1.5,0,0,1,578,656.9Z" transform="translate(-308.2 -382.9)" fill="#6e6e6e"/><path d="M707.9,678.9,709,680c-2.1,3.8-4.1,1.4-6.1-.1a6.4,6.4,0,0,1-1.1-4c1.6-2.7,4.1-4,6.9-5.1,5.3-1.9,10.7-1.6,16.1-.8a.9.9,0,0,1,.5.8c-.8,1.2-2.5.1-3.4,1.2-5.1,0-10.5-.8-15.1,2.5-1,.8-2.8,1-2.5,2.7S706.4,678.9,707.9,678.9Z" transform="translate(-308.2 -382.9)" fill="#666"/><path d="M754.9,679c1.9,2.1.9,4.7,1,7.1.1,6.4-.1,12.9.1,19.3.1,4.5,1.8,8,6.9,8.6.8.8,2.6,0,3.3,1.8a8.4,8.4,0,0,1-5.6.3,9.7,9.7,0,0,1-6.7-7,19.4,19.4,0,0,1,.2-2.4c.7-7.4.1-14.9.4-22.4C754.5,682.5,754,680.7,754.9,679Z" transform="translate(-308.2 -382.9)" fill="#676767"/><path d="M692.9,676c-.4-4.1-3.1-5.5-6.9-3.3a61.2,61.2,0,0,0-7,5.3,1.5,1.5,0,0,1-.1-2.1,14.1,14.1,0,0,1,15.1-6.6c1.5.3,2.7,1.1,2,2.5s-.2,4-1.9,5.4C693.4,677,693.3,676.4,692.9,676Z" transform="translate(-308.2 -382.9)" fill="#676767"/><path d="M375.2,693l-1.2-1.1a25.4,25.4,0,0,1,.1-3.9c.4-4-1.5-5.2-5.3-5.1-7.2.2-14.5.1-21.7.1-.7,1-1.6,1.9-2.8,1.1s-.9-1.9-.2-3a3,3,0,0,1,2.9-.2,113.9,113.9,0,0,0,26.1,0c2.2-.7,3.1.4,3.1,2.4S376.7,689.9,375.2,693Z" transform="translate(-308.2 -382.9)" fill="#656565"/><path d="M622.8,714a2.5,2.5,0,0,0,2.2-1.1c3.5,1.4,6.8,3.7,10.9,3.1,1.7-.3,3.3-.3,4.1-2,2,.3,3.3-1,4.7-2.2s2-.5,2.2,1.1C639.8,719.7,631.1,720.2,622.8,714Z" transform="translate(-308.2 -382.9)" fill="#656565"/><path d="M580.9,717.1c-8.5-1.8-13-8.2-16.5-15.3-1.6-3.2,2.8-1.4,3.5-3.1a1.9,1.9,0,0,1,.7,1.1c.7,7,5.7,10.4,11.2,13.3a4.6,4.6,0,0,1,1.7,2.2,2.9,2.9,0,0,1-.1,1.3C581.2,716.8,581.1,717,580.9,717.1Z" transform="translate(-308.2 -382.9)" fill="#666"/><path d="M314.1,668c-.9-.5-1-1.4-1.2-2.3,3.4-7.4,9.3-12,16.7-14.9l5.4-2a2,2,0,0,1,.6,1.1,1.6,1.6,0,0,1-.5,1.1C325.3,653.3,318.7,659.3,314.1,668Z" transform="translate(-308.2 -382.9)" fill="#636363"/><path d="M335.1,650a4.9,4.9,0,0,1-.1-1.2h-.1c5.7-1,11.4-1.4,17,.2s11.3,3,15.2,7.9a1.5,1.5,0,0,1-2.2.1c-4.4-2.5-8.9-4.9-13.8-6-1.5-1.2-3.5.1-5.1-1h-4.9A8.8,8.8,0,0,1,335.1,650Z" transform="translate(-308.2 -382.9)" fill="#686868"/><path d="M582,681.9l-3.2.2c-5.1-1.7-8.9-4.8-10.9-10a39.7,39.7,0,0,1,0-12.4,1.9,1.9,0,0,1,.9-2.1c1.5,1.2,0,3.1,1.2,4.3v1.7a13.8,13.8,0,0,0,.8,4.5,11.8,11.8,0,0,1,.4,2c1,4,4.2,6.1,7.3,8.3C579.9,679.4,582.2,679.5,582,681.9Z" transform="translate(-308.2 -382.9)" fill="#656565"/><path d="M574.2,666.7c3.3,6.5,10.2,7.9,15.9,11.1,1.1.6,2.5.7,3.2,1.9a2.2,2.2,0,0,1-1.5,1.7c-7.3-.8-13.1-4.2-18.2-9.3a3.8,3.8,0,0,1-1.2-4A2.2,2.2,0,0,1,574.2,666.7Z" transform="translate(-308.2 -382.9)" fill="#6d6d6d"/><path d="M692.9,676l1.2,1.2c-.4.8-.9,1.7-1.7,1.4-7.2-2.1-11.1,2.1-14.4,7.4-.8,1-.7,2.5-1.9,3.3a1.1,1.1,0,0,1-1.2-.4C677.9,678.7,681.8,675.9,692.9,676Z" transform="translate(-308.2 -382.9)" fill="#686868"/><path d="M639,713c-8.3-.2-12.7-3.2-15-10a1.1,1.1,0,0,1,1-.6,1.6,1.6,0,0,1,1.1.5,12.8,12.8,0,0,0,6.9,7,11.6,11.6,0,0,0,8,0l3.8-2.2C644.8,711.7,641,711.3,639,713Z" transform="translate(-308.2 -382.9)" fill="#696969"/><path d="M721.9,672c.9-1.3,2.2-1,3.4-1.2,6.3-.1,9.5,4,11.9,9l-.5.3a1.4,1.4,0,0,1-.8.9h-1C732.3,675.5,728.3,672.1,721.9,672Z" transform="translate(-308.2 -382.9)" fill="#656565"/><path d="M328.8,706a1.7,1.7,0,0,0-1.8,1,30,30,0,0,1-11-15h1.1c2.6-.3.6,2.6,2.1,3A46.3,46.3,0,0,0,328.8,706Z" transform="translate(-308.2 -382.9)" fill="#676767"/><path d="M570,661.9c-1.5-1.1-.8-2.8-1.2-4.3a16.8,16.8,0,0,1,11-8.8,1.5,1.5,0,0,1,1.3,0,.9.9,0,0,1-.1,1.2c-.6,1.6-2.2,1.7-3.5,2.3C573.5,654.3,570.2,657,570,661.9Z" transform="translate(-308.2 -382.9)" fill="#626262"/><path d="M675.9,689l2.1-3c-1.6,8.8-.5,17.8-.9,26.7,0,1.9.9,4.9-3,3.6.3-1.5,1.8-2.6,1.4-4.4C675.8,704.3,674.9,696.6,675.9,689Z" transform="translate(-308.2 -382.9)" fill="#747474"/><path d="M605,707.9a2.2,2.2,0,0,1,1,2.1c-2.5,4-6.9,5.1-10.8,7a2.6,2.6,0,0,1-2.1.3,2.1,2.1,0,0,1-.5-1.3,3.7,3.7,0,0,1,.9-1.9C597.6,712.5,600.9,709.6,605,707.9Z" transform="translate(-308.2 -382.9)" fill="#676767"/><path d="M626.1,702.9H625c-1.2-1.7-1.1-3.7-1-5.7.4-8.7-1-17.4.8-26.1l.4-.3c1.8,2.1.7,4.7.8,7C626.1,686.2,626,694.6,626.1,702.9Z" transform="translate(-308.2 -382.9)" fill="#747474"/><path d="M506.1,659.1a4.1,4.1,0,0,1-.1-1.1c-4.6-1.1-8.5-4-13-5.5a2.1,2.1,0,0,1-1-2.5l.3-.3,2.7.2c1.8.7,3.7,1.1,5.5,1.9l4.8,3.2C506.9,656.1,508.3,657.3,506.1,659.1Z" transform="translate(-308.2 -382.9)" fill="#656565"/><path d="M599,661.9a2.1,2.1,0,0,1,1-2c1,.4,1.9,1.3,3,.4s.5-2.2,0-3.3.4-1.1,1.1-1.3c3.6,4.7,2.9,7.1-2.4,8.2C599.9,664.3,599.3,663.4,599,661.9Z" transform="translate(-308.2 -382.9)" fill="#646464"/><path d="M514,683h1c2.1,4,.3,7.9,0,11.9-1.1,2.4-1.1,5.2-3,7.1l-1.1-1c-1.3-2.6-.1-4.7,1.1-6.9,3.2-.8,1.7-3.4,1.9-5.2A37.5,37.5,0,0,0,514,683Z" transform="translate(-308.2 -382.9)" fill="#636363"/><path d="M760.6,716.1l4.6-.3-2.3-1.8c3.5.4,7.4-1.4,10.3,2.1C769,717.7,764.8,718.2,760.6,716.1Z" transform="translate(-308.2 -382.9)" fill="#6b6b6b"/><path d="M373.1,680.9c-2.1,2-4.8,1.1-7.1,1-6.3-.4-12.8,1.3-19-1Q360,680.3,373.1,680.9Z" transform="translate(-308.2 -382.9)" fill="#6e6e6e"/><path d="M574.2,666.7,573,668a1,1,0,0,1-1.4-.2,2.3,2.3,0,0,1,.4-2.8l1-4a3.1,3.1,0,0,1,2-2,3.1,3.1,0,0,1,3-2.1l1.1,1.3C575.7,660,574.6,663.1,574.2,666.7Z" transform="translate(-308.2 -382.9)" fill="#616161"/><path d="M351.9,649l-17-.2C340.6,646.6,346.3,646.2,351.9,649Z" transform="translate(-308.2 -382.9)" fill="#777"/><path d="M581,649.2l-1.2-.4a15.9,15.9,0,0,1,14.4,0l-.6.4A66.3,66.3,0,0,1,581,649.2Z" transform="translate(-308.2 -382.9)" fill="#767676"/><path d="M515,694.8v-14C518.7,685.5,516.6,690.2,515,694.8Z" transform="translate(-308.2 -382.9)" fill="#747474"/><path d="M491.9,649H487a8.8,8.8,0,0,0-6,0h-6.2C480.5,646.7,486.2,646.1,491.9,649Z" transform="translate(-308.2 -382.9)" fill="#787878"/><path d="M724.8,670l-16.1.8C713.9,668.2,719.3,668.4,724.8,670Z" transform="translate(-308.2 -382.9)" fill="#767676"/><path d="M745,676c1.9-1.1-.1-3.8,1.9-4.9.7.4,1.6.7,1,1.8-2,5,2.8,2.1,4,3.6-1.4,1.2-3.9-.4-5,1.6C745.3,678.3,744.6,677.6,745,676Z" transform="translate(-308.2 -382.9)" fill="#5a5a5a"/><path d="M358.9,661l2.2-1.1c1.7.2,2.6-1.3,3.9-2a1.4,1.4,0,0,1,1.2,1.2C364.2,661.4,362.7,665.4,358.9,661Z" transform="translate(-308.2 -382.9)" fill="#636363"/><path d="M490.8,716.8l1.5.3a29.5,29.5,0,0,1-16.4.1c.1-.2.1-.4.2-.5A80.2,80.2,0,0,1,490.8,716.8Z" transform="translate(-308.2 -382.9)" fill="#767676"/><path d="M344.1,681.1c-.2,2.5.8,3.1,3,1.9v2.9a2.1,2.1,0,0,1-2,1l-.8.6C342.7,685.4,343.3,683.3,344.1,681.1Z" transform="translate(-308.2 -382.9)" fill="#6e6e6e"/><path d="M724.8,688l-14.2-.2C715.4,686.3,720.1,686,724.8,688Z" transform="translate(-308.2 -382.9)" fill="#6d6d6d"/><path d="M592.9,716.8l2.3.2a20.7,20.7,0,0,1-14.3.1l.2-.4A13.6,13.6,0,0,1,592.9,716.8Z" transform="translate(-308.2 -382.9)" fill="#767676"/><path d="M699.9,695.8c-.5,4.2-1.1,8.4-.1,12.5C697.1,704.1,697.5,700,699.9,695.8Z" transform="translate(-308.2 -382.9)" fill="#6e6e6e"/><path d="M678.9,675.9c0,.7.1,1.4.1,2.1l-3.6,1.2.3-3.5a4.1,4.1,0,0,1,0-4.5l.4-.3c1.4,1.1.6,2.6.6,3.9S677.5,676.9,678.9,675.9Z" transform="translate(-308.2 -382.9)" fill="#777"/><path d="M675.9,713.9c.3,1.5-.9,1.9-1.8,2.4s-2.2,1.3-3.2-.2a14.8,14.8,0,0,1,.1-2.1h3.9C675.2,713.4,675.6,713.5,675.9,713.9Z" transform="translate(-308.2 -382.9)" fill="#5a5a5a"/><path d="M567.9,659.7v12.4A15.3,15.3,0,0,1,567.9,659.7Z" transform="translate(-308.2 -382.9)" fill="#747474"/><path d="M604.1,655.7,603,657l-3-3.1c-1.2-1.2-.5-1.6.7-1.9C601.3,653.7,604,653.5,604.1,655.7Z" transform="translate(-308.2 -382.9)" fill="#5e5e5e"/><path d="M349,710.1c-3.7,1.3-7.4,1.7-11-.3Z" transform="translate(-308.2 -382.9)" fill="#676767"/><path d="M412.1,650.1l1.2-.2c3,.1,6.1-.2,8.5,2.1A35.5,35.5,0,0,1,412.1,650.1Z" transform="translate(-308.2 -382.9)" fill="#6c6c6c"/><path d="M459,694l-2-2.1v-6.8C458.5,687.9,458.4,691,459,694Z" transform="translate(-308.2 -382.9)" fill="#6d6d6d"/><path d="M317.2,687.9a10.4,10.4,0,0,1-.1-10C317.1,681.3,317.2,684.6,317.2,687.9Z" transform="translate(-308.2 -382.9)" fill="#6b6b6b"/><path d="M457,680.8c.2-3-.8-6.3,1.9-8.8C458.4,674.9,458.4,678,457,680.8Z" transform="translate(-308.2 -382.9)" fill="#6d6d6d"/><path d="M440.2,673.9c-1.8-2-1.8-4.5-2.2-6.9C439.9,668.9,440.2,671.4,440.2,673.9Z" transform="translate(-308.2 -382.9)" fill="#727272"/><path d="M319.2,694.9c-1.4-.4-.9-2.3-2.1-3s.1-2.7.1-4.1C318.6,690,318.9,692.5,319.2,694.9Z" transform="translate(-308.2 -382.9)" fill="#767676"/><path d="M438,698.9c0-1,.1-2,.1-2.9,1.5-.9.3-3.3,2.1-4C440.2,694.5,440,697,438,698.9Z" transform="translate(-308.2 -382.9)" fill="#767676"/><path d="M350,452.3l1.1.9A7.4,7.4,0,0,1,346,455C346.8,453.3,348.4,452.8,350,452.3Z" transform="translate(-308.2 -382.9)" fill="#b67683"/><path d="M641,709.9a7.1,7.1,0,0,1-8,0Z" transform="translate(-308.2 -382.9)" fill="#747474"/><path d="M574.3,701.8l-2.3-1.9c-.6-.8-2-.9-2.3-2.1C574.8,695.2,572.8,700.4,574.3,701.8Z" transform="translate(-308.2 -382.9)" fill="#767676"/><path d="M569.7,697.8c1.3.2,2.3.6,2.3,2.1h-1a2.1,2.1,0,0,1-3-.1v-1.2C568.2,697.9,569,697.8,569.7,697.8Z" transform="translate(-308.2 -382.9)" fill="#545454"/><path d="M701.8,675.9c1.6,1,1,2.6,1.1,4C700.9,679,698.9,678.1,701.8,675.9Z" transform="translate(-308.2 -382.9)" fill="#575757"/><path d="M771,677.4c-.2-1.5.4-3.2-1.1-4.4s-.6-1.3.1-1.8l2-.3h0a8.8,8.8,0,0,1-.1,6.2Z" transform="translate(-308.2 -382.9)" fill="#5e5e5e"/><path d="M617.9,704a8,8,0,0,1,2,6.1A8.1,8.1,0,0,1,617.9,704Z" transform="translate(-308.2 -382.9)" fill="#747474"/><path d="M412.1,716.1c1.8-1.6,3.8-1.7,6-1.1C416.2,716.2,414.2,716.2,412.1,716.1Z" transform="translate(-308.2 -382.9)" fill="#707070"/><path d="M484,681.1l.3,5.1a1.2,1.2,0,0,1,0,1.4l-.3.4A8.3,8.3,0,0,1,484,681.1Z" transform="translate(-308.2 -382.9)" fill="#747474"/><path d="M771.9,677.1c0-2.1,0-4.1.1-6.2,1.6,2,.7,4.2.6,6.3l-.3.2Z" transform="translate(-308.2 -382.9)" fill="#757575"/><path d="M441.2,679.9c-2.1-1.7-.9-4-1-6.1C441.5,675.7,441.3,677.8,441.2,679.9Z" transform="translate(-308.2 -382.9)" fill="#727272"/><path d="M500.5,651.8c-2.1-.1-4-.4-5.5-1.9A6.6,6.6,0,0,1,500.5,651.8Z" transform="translate(-308.2 -382.9)" fill="#6c6c6c"/><path d="M309,679.6v6.7A7.9,7.9,0,0,1,309,679.6Z" transform="translate(-308.2 -382.9)" fill="#747474"/><path d="M310,672.7c-.2,2.1.9,4.4-1,6.3A10.4,10.4,0,0,1,310,672.7Z" transform="translate(-308.2 -382.9)" fill="#747474"/><path d="M440.1,692.1c.2-2.1-.9-4.4,1-6.1C441.3,688.1,441.5,690.2,440.1,692.1Z" transform="translate(-308.2 -382.9)" fill="#727272"/><path d="M441.1,686v-6.1A6.6,6.6,0,0,1,441.1,686Z" transform="translate(-308.2 -382.9)" fill="#727272"/><path d="M366.2,659.1l-1.2-1.2a2.8,2.8,0,0,0-.1-.9h2.2C368.1,658.2,367.3,658.7,366.2,659.1Z" transform="translate(-308.2 -382.9)" fill="#505050"/><path d="M309.1,688c1.7,1.5.8,3.4.9,5.2A7.9,7.9,0,0,1,309.1,688Z" transform="translate(-308.2 -382.9)" fill="#767676"/><path d="M592,680.9l1.3-1.2c.9.3,2.2-.4,2.8.9s-.1.9-.1,1.3C594.4,682.7,593.1,682.1,592,680.9Z" transform="translate(-308.2 -382.9)" fill="#5c5c5c"/><path d="M730,521.1l-1.2-.2a6.2,6.2,0,0,1,4.2-1.8A3.9,3.9,0,0,1,730,521.1Z" transform="translate(-308.2 -382.9)" fill="#b6b761"/><path d="M345.1,686.9c.4-.8,1.2-.9,2-1h20.2v1.6C359.9,687.8,352.5,688.9,345.1,686.9Z" transform="translate(-308.2 -382.9)" fill="#646464"/><path d="M350.1,715.9a18.2,18.2,0,0,1-13,0Z" transform="translate(-308.2 -382.9)" fill="#5c5c5c"/><path d="M315.1,678.9V687A7.4,7.4,0,0,1,315.1,678.9Z" transform="translate(-308.2 -382.9)" fill="#6b6b6b"/><path d="M335.1,650h6c-1.8,1.7-4,.7-6,1Z" transform="translate(-308.2 -382.9)" fill="#6b6b6b"/><path d="M346,650c1.7.2,3.6-.7,5.1,1C349.4,650.7,347.5,651.6,346,650Z" transform="translate(-308.2 -382.9)" fill="#6b6b6b"/><path d="M762,705.9c-.3.6-.3,2-1.4,1a5.4,5.4,0,0,1-1.6-4.1,170.8,170.8,0,0,1,.9-23.7c0,6,.1,11.9,0,17.9,0,3.1.1,6.3,2.1,8.9Z" transform="translate(-308.2 -382.9)" fill="#5f5f5f"/><path d="M754.9,679c0,7.7.1,15.4,0,23.1,0,1.5.6,3.3-.8,4.6V679.1a.4.4,0,0,1,.4-.3Z" transform="translate(-308.2 -382.9)" fill="#5d5d5d"/><path d="M770,671.2a10.9,10.9,0,0,1-.1,1.8c-2.4-.3-5,.5-8.4-1.1C765,670.6,767.5,671.1,770,671.2Z" transform="translate(-308.2 -382.9)" fill="#686868"/><path d="M758.8,658.1c.9.1,2,.2,1.7,1.3-1,3.1-.1,6.3-1.6,9.4v-9.9c-.3-.1-.4-.3-.3-.5S758.7,658.1,758.8,658.1Z" transform="translate(-308.2 -382.9)" fill="#5e5e5e"/><path d="M747.9,672.9l-1-1.8c1.8.1,3.8-.6,5.7.7C751.2,673.7,749.4,672.7,747.9,672.9Z" transform="translate(-308.2 -382.9)" fill="#676767"/><path d="M755,659v9.8h-.9v-9.9A.5.5,0,0,1,755,659Z" transform="translate(-308.2 -382.9)" fill="#5c5c5c"/><path d="M761.9,676.5a16.7,16.7,0,0,1,8-.1A15.5,15.5,0,0,1,761.9,676.5Z" transform="translate(-308.2 -382.9)" fill="#5b5b5b"/><path d="M771,709.8c-.4,2.6-2.2,2.2-5,1.7l5.1-1.7Z" transform="translate(-308.2 -382.9)" fill="#4f4f4f"/><path d="M755,659h-.9c-.1-.7-.1-1.3-.2-1.9h0c1.5,1,3.2,1,4.9,1.1a2.5,2.5,0,0,1,.1.8Z" transform="translate(-308.2 -382.9)" fill="#4a4a4a"/><path d="M720.9,709.9h-8c-3.7.2-5.3-2.3-6.7-5.1a23.6,23.6,0,0,1-.2-4.6,4.2,4.2,0,0,1,.4-1.5,9.9,9.9,0,0,1,3.8-3.8c5.8-3.3,11.8-3.3,17.7-1,3.9,1.4,4.8,3.8,3,7.5S726.3,709.5,720.9,709.9Z" transform="translate(-308.2 -382.9)" fill="#fdfdfd"/><path d="M720.9,709.9c3.8-2.2,7.3-4.6,9.1-8.8s.6-4.9-2.7-6.1a20.3,20.3,0,0,0-17.2,1.2,1.5,1.5,0,0,1-1.2-1.3c1.9-2.9,5.2-3,8-4s7.4.1,11,1.1c7.3,5.8,7.5,7.7,1.1,14.7-3,3.3-6.5,5.9-11.4,6.1C717.9,710.5,720.4,711.4,720.9,709.9Z" transform="translate(-308.2 -382.9)" fill="#686868"/><path d="M707.1,704.9a21.7,21.7,0,0,0,5.8,5.1c.3.9,1.9,1,1.5,2.3-7.3-.9-11.9-6.9-8.4-14.3a1.4,1.4,0,0,1,1.2,1.1,1.9,1.9,0,0,1-.2.8A4.7,4.7,0,0,0,707.1,704.9Z" transform="translate(-308.2 -382.9)" fill="#6a6a6a"/><path d="M727.9,692l-11-1.1c-.7-1.1-1.9-.9-3-1,5.4-2.1,10.3-.6,15,2Z" transform="translate(-308.2 -382.9)" fill="#6d6d6d"/><path d="M735.9,713.9h2c-1.5,3.4-3.8,1.9-6,.9.4-.3.5-.9,1.1-1Z" transform="translate(-308.2 -382.9)" fill="#606060"/><path d="M720.9,715.9a11,11,0,0,1-10,0Z" transform="translate(-308.2 -382.9)" fill="#5b5b5b"/><path d="M707.2,699.1,706,698a6.3,6.3,0,0,1,2.9-3.1l1.2,1.3Z" transform="translate(-308.2 -382.9)" fill="#666"/><path d="M733,713.9l-1.1,1c.1-.5,0-1,.1-1.4s0-2.2.9-2S733.1,713,733,713.9Z" transform="translate(-308.2 -382.9)" fill="#5c5c5c"/><path d="M655.9,713.9a1.7,1.7,0,0,1,1,1.7c-.1.1-.3.2-.4.1-1.9-.4-5.3,1.8-5.2-1.9C651.4,712.2,654.2,715,655.9,713.9Z" transform="translate(-308.2 -382.9)" fill="#5d5d5d"/><path d="M675.9,713.9h-1v-25h1Z" transform="translate(-308.2 -382.9)" fill="#5d5d5d"/><path d="M675.7,671.2v4.5C673.3,674,673.3,673,675.7,671.2Z" transform="translate(-308.2 -382.9)" fill="#555"/><path d="M624.8,671.1c.1,10.6.1,21.2.2,31.8h-1c-2-5-.4-10.2-1-15.3s1.3-10.1-1.1-15C621.1,671.1,623.7,671.5,624.8,671.1Z" transform="translate(-308.2 -382.9)" fill="#5e5e5e"/><path d="M512,694a16.2,16.2,0,0,1-1.1,6.9c-3.6,3.5-6.3,7.8-11,10.4-8.1,4.4-16.3,4.3-24.9,2.7s-14.5-6.9-19.2-13.7-3.6-17.9-3.6-27.1c0-2.6,3.2-4.3,2.8-7.2,5.6-7.2,11.8-13.3,21.2-15.2a5.3,5.3,0,0,1,2.8.1c4.7-.3,9.5-1.6,14,1.1,5.1.3,9,3.3,13,6-3.4,2.6-6.2.2-9.1-1.2-15.1-7.4-28.6-2.5-37.5,9.9-5.5,7.7-4.7,15.7-4.2,24.1,0,1,.9,1.7,1.8,2.2,2.6,9.9,9.7,16,19,18.2,14.7,3.4,26.9-1.1,33.1-16.2,3-.7,1.5-3.2,1.9-4.9a49.9,49.9,0,0,1,1.6-5.1C513,688,513.5,691.1,512,694Z" transform="translate(-308.2 -382.9)" fill="#767676"/><path d="M490.8,716.8H476.1c0-.3-.1-.5-.1-.8C480.9,716.4,485.9,715,490.8,716.8Z" transform="translate(-308.2 -382.9)" fill="#5c5c5c"/><path d="M437,695.9c-3.4,7.8-8.5,13.7-17,16.1-2.2,1-5.1-.3-7,1.9H390.1c-1.2-1.4-1-3.1-1-4.7-.1-17.5-.1-35,0-52.4,0-1.7-.2-3.4,1-4.8,8.9.4,17.8-.9,26.8.9,10.5,2.1,21.4,12.2,21.3,24.5C438.2,683.7,438.4,689.8,437,695.9Z" transform="translate(-308.2 -382.9)" fill="#767676"/><path d="M389.1,713.9l-1,1V651l1,1c.8,1.5.4,3.2.4,4.9v52.2C389.5,710.7,389.9,712.4,389.1,713.9Z" transform="translate(-308.2 -382.9)" fill="#626262"/><path d="M389.1,713.9V652h1v61.9Z" transform="translate(-308.2 -382.9)" fill="#707070"/><path d="M581,649.2h12.6c-4.1,1.7-8.4.4-12.6.8Z" transform="translate(-308.2 -382.9)" fill="#5a5a5a"/><path d="M572,665v2.9c.4,1.7-.4,2.3-2,2.1v-2a5.5,5.5,0,0,1,0-5h0C570.7,663.6,571.3,664.3,572,665Z" transform="translate(-308.2 -382.9)" fill="#757575"/><path d="M575,659a3.9,3.9,0,0,1-2,2C572,658.6,572.6,657.9,575,659Z" transform="translate(-308.2 -382.9)" fill="#757575"/><path d="M486,686h21.3a10.9,10.9,0,0,0,.1,1.8H486.8C486.2,687.3,485.3,687,486,686Z" transform="translate(-308.2 -382.9)" fill="#646464"/><path d="M486,686a8.9,8.9,0,0,1,.8,1.7h-2.5v-1.4Z" transform="translate(-308.2 -382.9)" fill="#565656"/><path d="M413,713.9c1.7-3.1,4.6-1.6,7-1.9C418,713.5,415.3,712.9,413,713.9Z" transform="translate(-308.2 -382.9)" fill="#707070"/><path d="M735.9,681l.8-.9c.1,1.3.1,2.6.2,4.1C735.4,683.2,736.2,682,735.9,681Z" transform="translate(-308.2 -382.9)" fill="#585858"/><path d="M570,670a3.5,3.5,0,0,0,2-2.1h1c.9,4.3,4.5,6.3,7.7,8.2s7.5,3.2,11.3,4.7a8.2,8.2,0,0,1,4,1c2.3,2.4,5.9,3.1,7.9,5.9,4.6,6.5,4.2,13.2,1.1,20.1-2.7,3.9-6.9,5.4-11,7s-9.5,2.2-14-1c-6.2-1.4-9.7-6-12.5-11.2-.6-1.1.2-1.9.5-2.8h3c1.8,4.9,5.3,8.3,9.8,10.8,6.7,3.7,14.9,1.7,20.2-4.8s3.1-13-2-17.1-10.4-6.8-17-7c-3.2-2.4-7.2-3.8-9.9-7.2C571,673.2,569.7,672,570,670Z" transform="translate(-308.2 -382.9)" fill="#767676"/><path d="M493,652c-4.6-1.6-9.3-.8-14-1.1,4.2-2.1,8.7-.4,13-.9C492.3,650.7,492.7,651.3,493,652Z" transform="translate(-308.2 -382.9)" fill="#6c6c6c"/><path d="M481,648.9a4.8,4.8,0,0,1,6,0Z" transform="translate(-308.2 -382.9)" fill="#6c6c6c"/><path d="M580,713.9c4.6,1.6,9.3.9,14,1l-1,1.1a30.3,30.3,0,0,1-12-.1Z" transform="translate(-308.2 -382.9)" fill="#6d6d6d"/><path d="M581,715.9h12a2.5,2.5,0,0,1-.1.8H581.1A2.2,2.2,0,0,1,581,715.9Z" transform="translate(-308.2 -382.9)" fill="#5b5b5b"/><path d="M570,663v5C568.5,666.3,568.5,664.6,570,663Z" transform="translate(-308.2 -382.9)" fill="#747474"/><path d="M707.1,704.9c-1.8-1.6-1.6-3.3-.1-5C707,701.6,707.1,703.3,707.1,704.9Z" transform="translate(-308.2 -382.9)" fill="#767676"/><path d="M433,691c-.2.1-.2.3-.1.5a28.4,28.4,0,0,1-3.4,7.8c-3.9,4.3-7.9,8.7-14.5,8.6l-15.4.3c-2.7.1-3.9-.7-3.8-3.6.1-14.6.1-29.3,0-43.9-.1-3,1.1-3.6,3.8-3.5s7.6-.1,11.5-.1c9.6-1.1,19.4,7,21.8,18h-.1c.9,1.2.9,2.7,1.2,4a23.3,23.3,0,0,1,0,7.9A20.4,20.4,0,0,1,433,691Z" transform="translate(-308.2 -382.9)" fill="#fdfdfd"/><path d="M432.9,675.1c-2.4-1.5-2-4.3-3.2-6.4-4.3-7.1-11.1-9.8-18.6-11.6-4.8-2.6-10.1-.2-15.1-1.4-.1-1.9,1.3-1.8,2.3-1.7,7.2.8,14.7-.2,21.6,3.1s11.2,7.3,13.5,14.3A4.3,4.3,0,0,1,432.9,675.1Z" transform="translate(-308.2 -382.9)" fill="#676767"/><path d="M415,707.9c5.2-2.1,10.2-4.6,13.7-9.1,1.1-.4,1.4.2,1.4,1.2a24.1,24.1,0,0,1-20.2,10.9,97,97,0,0,1-14.2-.6c1.9-1.8,4.2-1,6.2-1.3C406.3,708.4,410.8,710.2,415,707.9Z" transform="translate(-308.2 -382.9)" fill="#686868"/><path d="M393.2,706.7V658.2h.5v48.6Z" transform="translate(-308.2 -382.9)" fill="#5e5e5e"/><path d="M432.6,678.1c-1.3-1.1,0-2.1.2-3.1,3.5,1,2.9,4.2,3.1,6.5s.1,6.9-2.9,9.5c-.4-1-1.8-1.9-.4-3.2A11,11,0,0,0,432.6,678.1Z" transform="translate(-308.2 -382.9)" fill="#616161"/><path d="M430.1,700l-1.4-1.2c1.9-2.1,1-5.9,4.2-7.3C434.1,695,432.8,697.7,430.1,700Z" transform="translate(-308.2 -382.9)" fill="#6e6e6e"/><path d="M432.6,678.1c2.3,3.2,2.4,6.5,0,9.7Z" transform="translate(-308.2 -382.9)" fill="#767676"/></svg>