<?xml version="1.0" encoding="utf-8"?>
<!-- Generator: Adobe Illustrator 25.0.0, SVG Export Plug-In . SVG Version: 6.00 Build 0)  -->
<svg version="1.1" id="Layer_1" xmlns="http://www.w3.org/2000/svg" xmlns:xlink="http://www.w3.org/1999/xlink" x="0px" y="0px"
	 viewBox="0 0 465.2 335.4" style="enable-background:new 0 0 465.2 335.4;" xml:space="preserve">
<style type="text/css">
	.st0{fill:#4285F3;}
	.st1{fill:#0F9C58;}
	.st2{fill:#FABB04;}
	.st3{fill:#E94335;}
	.st4{fill:#676767;}
</style>
<path class="st0" d="M141.9,131.2c16.5,9.9,33,19.8,49.5,29.8c14.4,8.8,18.8,22.8,11.4,36.1c-7.5,13.6-21.6,17.9-36.7,9.5
	c-30.1-16.8-60-33.9-89.4-52C54.6,141.1,57,118.6,81,105.5c10.7-3.8,20.8-1.9,29.8,4.5C121.1,117.2,134.4,120,141.9,131.2z"/>
<path class="st1" d="M310.8,131.3c-16.5-9.8-33.3-19.2-49.6-29.5c-17.4-11-19.9-30.3-6.3-42.7c9.2-8.4,19.7-9.6,30.4-3.6
	c30.8,17.4,61.8,34.3,91.8,52.9c20.8,12.9,17.5,37.5-5.4,48.3c-8.6,3.5-16.8,2.7-24.9-1.9C334.5,147.6,320.3,143,310.8,131.3z"/>
<path class="st2" d="M310.8,131.3c11.2,6.2,22.7,12,33.6,18.6c8.6,5.2,17.4,8,27.4,6.8c-28.5,16.8-56.7,34-85.5,50.1
	c-14.7,8.2-29.8,3.6-36.9-9.5c-7.1-13.1-2.5-27.4,11.9-36.3C277.7,151,294.3,141.2,310.8,131.3z"/>
<path class="st3" d="M141.9,131.2c-11.2-6.2-22.5-12.1-33.5-18.7c-8.5-5.1-17.4-8.1-27.4-7C109.5,89,137.8,72,166.5,56
	c14.6-8.1,28.9-3.7,36.7,9.7c7,12.1,3.1,26.8-10.6,35.5C176,111.6,158.9,121.2,141.9,131.2z"/>
<g>
	<path class="st4" d="M104.1,262.1h13.4v18.3c-2.2,0.7-4.3,1.2-6.3,1.5c-2,0.3-4.2,0.4-6.6,0.4c-5.5,0-9.8-1.6-12.8-4.9
		s-4.5-7.9-4.5-13.8c0-5.9,1.7-10.5,5.1-13.8c3.4-3.3,8-5,14-5c3.8,0,7.4,0.7,10.8,2.2l-2.1,5c-3-1.4-5.9-2-8.9-2
		c-3.9,0-7,1.2-9.2,3.7c-2.3,2.4-3.4,5.8-3.4,10c0,4.5,1,7.9,3.1,10.2c2,2.3,5,3.5,8.8,3.5c1.9,0,4-0.2,6.2-0.7v-9.4h-7.6V262.1z"/>
	<path class="st4" d="M158.5,263.3c0,6-1.7,10.6-5,13.8c-3.3,3.2-8.2,4.8-14.5,4.8h-10.2v-36.5h11.3c5.8,0,10.3,1.6,13.6,4.7
		C156.9,253.2,158.5,257.6,158.5,263.3z M152.2,263.5c0-8.7-4.1-13.1-12.3-13.1h-5.2v26.5h4.2C147.8,276.8,152.2,272.4,152.2,263.5z
		"/>
	<path class="st4" d="M183.8,262.1h13.4v18.3c-2.2,0.7-4.3,1.2-6.3,1.5c-2,0.3-4.2,0.4-6.6,0.4c-5.5,0-9.8-1.6-12.8-4.9
		c-3-3.3-4.5-7.9-4.5-13.8c0-5.9,1.7-10.5,5.1-13.8c3.4-3.3,8-5,14-5c3.8,0,7.4,0.7,10.8,2.2l-2.1,5c-3-1.4-5.9-2-8.9-2
		c-3.9,0-7,1.2-9.2,3.7c-2.3,2.4-3.4,5.8-3.4,10c0,4.5,1,7.9,3.1,10.2c2,2.3,5,3.5,8.8,3.5c1.9,0,4-0.2,6.2-0.7v-9.4h-7.6V262.1z"/>
	<path class="st4" d="M245.5,272c0,3.2-1.2,5.8-3.5,7.6c-2.3,1.8-5.6,2.8-9.7,2.8c-4.1,0-7.5-0.6-10.1-1.9v-5.6
		c1.7,0.8,3.4,1.4,5.3,1.8c1.9,0.4,3.6,0.7,5.2,0.7c2.4,0,4.1-0.4,5.2-1.3s1.7-2.1,1.7-3.6c0-1.4-0.5-2.5-1.5-3.5
		c-1-0.9-3.2-2.1-6.4-3.4c-3.3-1.3-5.7-2.9-7-4.6c-1.4-1.7-2-3.8-2-6.2c0-3,1.1-5.4,3.2-7.2c2.2-1.7,5.1-2.6,8.7-2.6
		c3.5,0,7,0.8,10.4,2.3L243,252c-3.2-1.4-6.1-2-8.7-2c-1.9,0-3.4,0.4-4.4,1.3c-1,0.8-1.5,2-1.5,3.3c0,0.9,0.2,1.8,0.6,2.4
		c0.4,0.7,1.1,1.3,2,1.9s2.6,1.4,4.9,2.4c2.7,1.1,4.6,2.2,5.9,3.1s2.2,2.1,2.7,3.3S245.5,270.3,245.5,272z"/>
	<path class="st4" d="M274,281.9l-0.8-3.6h-0.3c-0.8,1.3-2,2.3-3.5,3s-3.2,1.1-5.2,1.1c-3.3,0-5.8-0.8-7.5-2.5
		c-1.6-1.7-2.5-4.2-2.5-7.6v-18.1h5.9v17c0,2.1,0.4,3.7,1.3,4.8c0.9,1.1,2.2,1.6,4.1,1.6c2.5,0,4.3-0.7,5.4-2.2s1.7-3.9,1.7-7.4
		v-13.8h5.9v27.6H274z"/>
	<path class="st4" d="M303.5,253.7c1.2,0,2.2,0.1,2.9,0.2l-0.6,5.5c-0.8-0.2-1.7-0.3-2.6-0.3c-2.3,0-4.2,0.8-5.7,2.3s-2.2,3.5-2.2,6
		v14.4h-5.9v-27.6h4.6l0.8,4.9h0.3c0.9-1.6,2.1-3,3.6-3.9C300.2,254.2,301.8,253.7,303.5,253.7z"/>
	<path class="st4" d="M331.4,281.9l-1.2-3.8H330c-1.3,1.7-2.7,2.8-4,3.4c-1.3,0.6-3.1,0.9-5.2,0.9c-2.7,0-4.8-0.7-6.4-2.2
		s-2.3-3.5-2.3-6.2c0-2.8,1.1-5,3.2-6.4c2.1-1.4,5.3-2.2,9.7-2.4l4.8-0.1v-1.5c0-1.8-0.4-3.1-1.2-4c-0.8-0.9-2.1-1.3-3.8-1.3
		c-1.4,0-2.8,0.2-4.1,0.6c-1.3,0.4-2.5,0.9-3.7,1.5l-1.9-4.2c1.5-0.8,3.1-1.4,4.9-1.8c1.8-0.4,3.5-0.6,5-0.6c3.5,0,6.2,0.8,8,2.3
		c1.8,1.5,2.7,3.9,2.7,7.2v18.6H331.4z M322.6,277.9c2.1,0,3.8-0.6,5.1-1.8s1.9-2.9,1.9-5v-2.4l-3.5,0.1c-2.8,0.1-4.8,0.6-6,1.4
		c-1.3,0.8-1.9,2.1-1.9,3.8c0,1.2,0.4,2.2,1.1,2.9C320.1,277.5,321.2,277.9,322.6,277.9z"/>
	<path class="st4" d="M356.6,277.6c1.4,0,2.9-0.2,4.3-0.7v4.4c-0.6,0.3-1.5,0.5-2.5,0.7c-1,0.2-2.1,0.3-3.2,0.3
		c-5.6,0-8.3-2.9-8.3-8.8v-14.9h-3.8v-2.6l4-2.1l2-5.8h3.6v6.1h7.9v4.4h-7.9v14.8c0,1.4,0.4,2.5,1.1,3.1S355.5,277.6,356.6,277.6z"
		/>
</g>
</svg>
