<svg id="Layer_1" data-name="Layer 1" xmlns="http://www.w3.org/2000/svg" viewBox="0 0 230.4 83"><defs><style>.cls-1,.cls-2{fill:#181616;}.cls-1{fill-rule:evenodd;}.cls-3{fill:#100e0f;}</style></defs><path class="cls-1" d="M46.7,1.5A42.5,42.5,0,0,0,33.3,84.4c2.1.4,2.9-.9,2.9-2s-.1-4.4-.1-7.9C24.3,77,21.8,69.4,21.8,69.4c-1.9-4.9-4.7-6.2-4.7-6.2-3.9-2.6.3-2.6.3-2.6,4.2.3,6.5,4.4,6.5,4.4,3.8,6.5,9.9,4.6,12.4,3.5A8,8,0,0,1,39,62.9c-9.5-1.1-19.4-4.8-19.4-21.1A16.2,16.2,0,0,1,24,30.4c-.5-1.1-1.9-5.4.4-11.2,0,0,3.5-1.2,11.7,4.3a41.7,41.7,0,0,1,10.6-1.4,42.4,42.4,0,0,1,10.7,1.4c8.1-5.5,11.7-4.3,11.7-4.3a15.4,15.4,0,0,1,.4,11.2,16.6,16.6,0,0,1,4.4,11.4c0,16.4-10,20-19.5,21,1.6,1.3,2.9,3.9,2.9,7.9V82.4c0,1.1.7,2.4,2.9,2A42.5,42.5,0,0,0,46.7,1.5Z" transform="translate(-4.2 -1.5)"/><path class="cls-2" d="M20.3,62.6a.5.5,0,0,1-.7.1c-.4-.1-.5-.4-.4-.6a.5.5,0,0,1,.7-.1c.3.1.5.4.4.6ZM22,64.5c-.2.2-.6.1-.9-.2s-.3-.7-.1-.9.6-.1.9.2a.6.6,0,0,1,.1.9ZM23.7,67c-.3.2-.7,0-1-.4a.9.9,0,0,1,0-1c.3-.2.7,0,1,.3a.8.8,0,0,1,0,1.1ZM26,69.3c-.2.3-.7.2-1.1-.1s-.5-.9-.2-1.1.7-.2,1.1.1.4.9.2,1.1Zm3.2,1.4c-.1.3-.6.5-1.1.4s-.8-.6-.7-.9.6-.5,1.1-.4.8.6.7.9Zm3.4.3c.1.3-.4.6-.9.6s-.9-.3-.9-.6.4-.6.9-.7A.8.8,0,0,1,32.6,71Zm3.3-.6c0,.4-.3.7-.8.8s-1-.1-1-.5.3-.7.8-.8a1,1,0,0,1,1,.5Z" transform="translate(-4.2 -1.5)"/><path class="cls-3" d="M131.8,40.5H121.1a.5.5,0,0,0-.5.5v5.3a.5.5,0,0,0,.5.5h4.2v6.5a14.4,14.4,0,0,1-3.6.3c-3,0-7.3-1.1-7.3-10.5s4.4-10.7,8.6-10.7a17,17,0,0,1,6.2,1,.5.5,0,0,0,.6-.5l1.2-5.1a.8.8,0,0,0-.2-.4c-.4-.2-2.9-1.6-9.1-1.6s-14.4,3-14.4,17.6,8.3,16.8,15.4,16.8a17.2,17.2,0,0,0,9.4-2.5.4.4,0,0,0,.2-.4V41a.5.5,0,0,0-.5-.5ZM186.4,27h-6a.5.5,0,0,0-.5.5h0V39.2h-9.4V27.5a.5.5,0,0,0-.5-.5h-6a.5.5,0,0,0-.5.5h0V59.1a.5.5,0,0,0,.5.5h6a.5.5,0,0,0,.5-.5h0V45.6h9.4V59.1a.5.5,0,0,0,.5.5h6a.5.5,0,0,0,.5-.5h0V27.5A.5.5,0,0,0,186.4,27Zm-47.1.8a3.8,3.8,0,0,0-3.9,3.9,3.9,3.9,0,1,0,7.7,0A3.8,3.8,0,0,0,139.3,27.8Zm2.9,9.6h-6a.5.5,0,0,0-.5.5V58.8c0,.6.4.8.9.8H142c.6,0,.7-.3.7-.8V37.9a.5.5,0,0,0-.5-.5Zm67.6,0h-6a.5.5,0,0,0-.5.5h0V53.4a6.6,6.6,0,0,1-3.6,1.1c-2.2,0-2.8-1-2.8-3.1V37.9a.5.5,0,0,0-.4-.5h-6.1a.5.5,0,0,0-.5.5V52.4c0,6.3,3.5,7.8,8.3,7.8a14,14,0,0,0,7.1-2.2l.2,1.3a.5.5,0,0,0,.5.3h3.8a.5.5,0,0,0,.5-.5h0V37.9a.5.5,0,0,0-.5-.5Zm16.4-.7a11.3,11.3,0,0,0-5.7,1.5V27.5a.6.6,0,0,0-.5-.5h-6.1a.5.5,0,0,0-.5.5h0V59.1a.5.5,0,0,0,.5.5h4.2c.2,0,.3-.1.5-.3a10.4,10.4,0,0,0,.2-1.5,10.8,10.8,0,0,0,7.2,2.4c5.4,0,8.6-2.8,8.6-12.5s-5-11-8.4-11Zm-2.4,17.8a7.7,7.7,0,0,1-3.5-1v-10a7.2,7.2,0,0,1,3.1-1c2.2-.2,4.2.4,4.2,5.6s-.9,6.4-3.8,6.4Zm-63.7-.2-1.6.2c-2.2,0-3-1.1-3-2.4V43.2H160a.5.5,0,0,0,.5-.5h0V37.9a.5.5,0,0,0-.5-.5h-4.5v-6a.4.4,0,0,0-.4-.4H149a.4.4,0,0,0-.4.4v6.2l-3.3.8a.4.4,0,0,0-.4.4v3.9a.5.5,0,0,0,.5.5h3.2v9.3c0,7,4.9,7.7,8.1,7.7a14.2,14.2,0,0,0,3.6-.6.5.5,0,0,0,.3-.5V54.8a.5.5,0,0,0-.5-.5Z" transform="translate(-4.2 -1.5)"/></svg>