<?xml version="1.0" encoding="utf-8"?>
<!-- Generator: Adobe Illustrator 25.0.0, SVG Export Plug-In . SVG Version: 6.00 Build 0)  -->
<svg version="1.1" id="Layer_1" xmlns="http://www.w3.org/2000/svg" xmlns:xlink="http://www.w3.org/1999/xlink" x="0px" y="0px"
	 viewBox="0 0 131.5 47.4" style="enable-background:new 0 0 131.5 47.4;" xml:space="preserve">
<style type="text/css">
	.st0{fill:#100E0F;}
</style>
<path class="st0" d="M26.6,20.7H15.9c-0.3,0-0.5,0.2-0.5,0.5v5.3c0,0.3,0.2,0.5,0.5,0.5h4.2v6.5c-1.2,0.3-2.4,0.4-3.6,0.3
	c-3,0-7.3-1.1-7.3-10.5s4.4-10.7,8.6-10.7c2.1-0.1,4.2,0.3,6.2,1c0.3,0.1,0.5-0.1,0.6-0.4c0,0,0-0.1,0-0.1L25.8,8
	c0-0.1-0.1-0.3-0.2-0.4C25.2,7.4,22.7,6,16.5,6S2.1,9,2.1,23.6s8.3,16.8,15.4,16.8c3.3,0.1,6.6-0.8,9.4-2.5c0.1-0.1,0.2-0.2,0.2-0.4
	V21.2C27.1,20.9,26.9,20.7,26.6,20.7z M81.2,7.2h-6c-0.3,0-0.5,0.2-0.5,0.5l0,0v11.7h-9.4V7.7c0-0.3-0.2-0.5-0.5-0.5h-6
	c-0.3,0-0.5,0.2-0.5,0.5l0,0v31.6c0,0.3,0.2,0.5,0.5,0.5h6c0.3,0,0.5-0.2,0.5-0.5l0,0V25.8h9.4v13.5c0,0.3,0.2,0.5,0.5,0.5h6
	c0.3,0,0.5-0.2,0.5-0.5l0,0V7.7C81.7,7.4,81.5,7.2,81.2,7.2z M34.1,8c-2.1-0.1-3.8,1.6-3.9,3.7c0,0.1,0,0.1,0,0.2
	c-0.3,2.1,1.1,4.1,3.2,4.5c2.1,0.3,4.1-1.1,4.5-3.2c0.1-0.4,0.1-0.8,0-1.2C38,9.8,36.3,8,34.2,8C34.2,8,34.1,8,34.1,8L34.1,8z
	 M37,17.6h-6c-0.3,0-0.5,0.2-0.5,0.5V39c0,0.6,0.4,0.8,0.9,0.8h5.4c0.6,0,0.7-0.3,0.7-0.8V18.1C37.5,17.8,37.3,17.6,37,17.6L37,17.6
	z M104.6,17.6h-6c-0.3,0-0.5,0.2-0.5,0.5l0,0v15.5c-1.1,0.7-2.3,1.1-3.6,1.1c-2.2,0-2.8-1-2.8-3.1V18.1c0-0.2-0.2-0.5-0.4-0.5h-6.1
	c-0.3,0-0.5,0.2-0.5,0.5v14.5c0,6.3,3.5,7.8,8.3,7.8c2.5-0.1,5-0.8,7.1-2.2l0.2,1.3c0.1,0.2,0.3,0.3,0.5,0.3h3.8
	c0.3,0,0.5-0.2,0.5-0.5l0,0V18.1C105.1,17.8,104.9,17.6,104.6,17.6z M121,16.9c-2,0-4,0.5-5.7,1.5V7.7c0-0.3-0.2-0.5-0.5-0.5h-6.1
	c-0.3,0-0.5,0.2-0.5,0.5l0,0v31.6c0,0.3,0.2,0.5,0.5,0.5h4.2c0.2,0,0.3-0.1,0.5-0.3c0.1-0.5,0.2-1,0.2-1.5c2,1.6,4.6,2.5,7.2,2.4
	c5.4,0,8.6-2.8,8.6-12.5S124.4,16.9,121,16.9z M118.6,34.7c-1.2,0-2.4-0.4-3.5-1v-10c0.9-0.6,2-0.9,3.1-1c2.2-0.2,4.2,0.4,4.2,5.6
	S121.5,34.7,118.6,34.7z M54.9,34.5l-1.6,0.2c-2.2,0-3-1.1-3-2.4v-8.9h4.5c0.3,0,0.5-0.2,0.5-0.5l0,0v-4.8c0-0.3-0.2-0.5-0.5-0.5
	h-4.5v-6c0-0.2-0.2-0.4-0.4-0.4h-6.1c-0.2,0-0.4,0.2-0.4,0.4v6.2l-3.3,0.8c-0.2,0-0.4,0.2-0.4,0.4v3.9c0,0.3,0.2,0.5,0.5,0.5h3.2
	v9.3c0,7,4.9,7.7,8.1,7.7c1.2,0,2.4-0.2,3.6-0.6c0.2-0.1,0.3-0.3,0.3-0.5V35C55.4,34.7,55.2,34.5,54.9,34.5L54.9,34.5z"/>
</svg>
