<?xml version="1.0" encoding="utf-8"?>
<!-- Generator: Adobe Illustrator 25.0.0, SVG Export Plug-In . SVG Version: 6.00 Build 0)  -->
<svg version="1.1" id="Layer_1" xmlns="http://www.w3.org/2000/svg" xmlns:xlink="http://www.w3.org/1999/xlink" x="0px" y="0px"
	 viewBox="0 0 237.6 86.8" style="enable-background:new 0 0 237.6 86.8;" xml:space="preserve">
<style type="text/css">
	.st0{fill-rule:evenodd;clip-rule:evenodd;fill:#181616;}
	.st1{fill:#181616;}
	.st2{fill:#100E0F;}
</style>
<g>
	<path class="st0" d="M46.7,1.5c-23.5,0-42.5,19-42.5,42.5c0,18.8,12.2,34.7,29.1,40.4c2.1,0.4,2.9-0.9,2.9-2c0-1,0-4.4-0.1-7.9
		c-11.8,2.6-14.3-5-14.3-5c-1.9-4.9-4.7-6.2-4.7-6.2c-3.9-2.6,0.3-2.6,0.3-2.6c4.3,0.3,6.5,4.4,6.5,4.4c3.8,6.5,10,4.6,12.4,3.5
		c0.4-2.8,1.5-4.6,2.7-5.7c-9.5-1.1-19.4-4.7-19.4-21c0-4.6,1.7-8.4,4.4-11.4c-0.4-1.1-1.9-5.4,0.4-11.3c0,0,3.6-1.1,11.7,4.4
		c3.4-0.9,7-1.4,10.6-1.4c3.6,0,7.3,0.5,10.7,1.4c8.1-5.5,11.7-4.4,11.7-4.4c2.3,5.9,0.9,10.2,0.4,11.3c2.7,3,4.4,6.8,4.4,11.4
		c0,16.3-10,19.9-19.4,21c1.5,1.3,2.9,3.9,2.9,7.9c0,5.7,0,10.3,0,11.7c0,1.1,0.8,2.5,2.9,2c16.9-5.6,29.1-21.6,29.1-40.4
		C89.3,20.6,70.2,1.5,46.7,1.5z"/>
	<path class="st1" d="M20.3,62.6c-0.1,0.2-0.4,0.3-0.7,0.1c-0.3-0.1-0.5-0.4-0.4-0.6c0.1-0.2,0.4-0.3,0.7-0.1
		C20.2,62.1,20.4,62.4,20.3,62.6L20.3,62.6z M22,64.5c-0.2,0.2-0.6,0.1-0.9-0.2c-0.3-0.3-0.3-0.7-0.1-0.9c0.2-0.2,0.6-0.1,0.9,0.2
		C22.2,63.9,22.2,64.3,22,64.5L22,64.5z M23.7,67c-0.3,0.2-0.7,0-1-0.4c-0.3-0.4-0.3-0.8,0-1c0.3-0.2,0.7,0,1,0.4
		C24,66.3,24,66.8,23.7,67L23.7,67z M26,69.3c-0.2,0.3-0.7,0.2-1.1-0.2c-0.4-0.3-0.5-0.8-0.2-1.1c0.2-0.3,0.7-0.2,1.1,0.2
		C26.1,68.6,26.2,69.1,26,69.3L26,69.3z M29.2,70.7c-0.1,0.3-0.6,0.5-1.1,0.3c-0.5-0.1-0.8-0.5-0.7-0.9c0.1-0.3,0.6-0.5,1.1-0.3
		C28.9,70,29.3,70.4,29.2,70.7L29.2,70.7z M32.6,71c0,0.3-0.4,0.6-0.9,0.6c-0.5,0-0.9-0.3-0.9-0.6c0-0.4,0.4-0.6,0.9-0.7
		C32.2,70.3,32.6,70.6,32.6,71z M35.9,70.4c0.1,0.3-0.3,0.7-0.8,0.8c-0.5,0.1-1-0.1-1-0.5c-0.1-0.3,0.3-0.7,0.8-0.8
		C35.4,69.9,35.8,70.1,35.9,70.4L35.9,70.4z"/>
</g>
<path class="st2" d="M131.8,40.5h-10.7c-0.3,0-0.5,0.2-0.5,0.5v5.2c0,0.3,0.2,0.5,0.5,0.5h4.2v6.5c0,0-0.9,0.3-3.5,0.3
	c-3.1,0-7.3-1.1-7.3-10.5c0-9.4,4.4-10.6,8.6-10.6c3.6,0,5.2,0.6,6.2,0.9c0.3,0.1,0.6-0.2,0.6-0.5l1.2-5.1c0-0.2-0.1-0.3-0.2-0.4
	c-0.4-0.3-2.9-1.7-9.1-1.7c-7.1,0-14.5,3-14.5,17.7c0,14.6,8.4,16.8,15.5,16.8c5.9,0,9.4-2.5,9.4-2.5c0.1-0.1,0.2-0.3,0.2-0.4V41
	C132.3,40.7,132.1,40.5,131.8,40.5L131.8,40.5z M186.4,27h-6c-0.3,0-0.5,0.2-0.5,0.5c0,0,0,0,0,0l0,11.6h-9.4V27.5
	c0-0.3-0.2-0.5-0.5-0.5c0,0,0,0,0,0h-6c-0.3,0-0.5,0.2-0.5,0.5c0,0,0,0,0,0v31.5c0,0.3,0.2,0.5,0.5,0.5h6c0.3,0,0.5-0.2,0.5-0.5
	c0,0,0,0,0,0V45.6h9.4l0,13.5c0,0.3,0.2,0.5,0.5,0.5h6c0.3,0,0.5-0.2,0.5-0.5c0,0,0,0,0,0V27.5C186.9,27.3,186.7,27,186.4,27z
	 M139.3,27.8c-2.1,0-3.9,1.8-3.9,3.9c0,2.2,1.7,3.9,3.9,3.9c2.1,0,3.9-1.8,3.9-3.9C143.1,29.5,141.4,27.8,139.3,27.8z M142.2,37.4
	h-6c-0.3,0-0.5,0.3-0.5,0.6v20.9c0,0.6,0.4,0.8,0.9,0.8h5.4c0.6,0,0.7-0.3,0.7-0.8v-6.3V37.9C142.7,37.6,142.5,37.4,142.2,37.4
	C142.2,37.4,142.2,37.4,142.2,37.4L142.2,37.4z M209.8,37.4h-6c-0.3,0-0.5,0.2-0.5,0.5c0,0,0,0,0,0v15.5c0,0-1.5,1.1-3.7,1.1
	c-2.2,0-2.7-1-2.7-3.1V37.9c0-0.3-0.2-0.5-0.5-0.5c0,0,0,0,0,0h-6.1c-0.3,0-0.5,0.2-0.5,0.5v14.5c0,6.3,3.5,7.8,8.3,7.8
	c3.9,0,7.1-2.2,7.1-2.2s0.2,1.2,0.2,1.3c0.1,0.1,0.2,0.3,0.4,0.3l3.9,0c0.3,0,0.5-0.2,0.5-0.5v0l0-21.2
	C210.3,37.6,210.1,37.4,209.8,37.4L209.8,37.4z M226.2,36.7c-3.4,0-5.7,1.5-5.7,1.5V27.5c0-0.3-0.2-0.5-0.5-0.5c0,0,0,0,0,0h-6
	c-0.3,0-0.5,0.2-0.5,0.5c0,0,0,0,0,0v31.5c0,0.3,0.2,0.5,0.5,0.5c0,0,0,0,0,0h4.2c0.2,0,0.3-0.1,0.4-0.3c0.1-0.2,0.3-1.5,0.3-1.5
	s2.5,2.3,7.1,2.3c5.5,0,8.6-2.8,8.6-12.5S229.6,36.7,226.2,36.7L226.2,36.7z M223.8,54.5c-2.1-0.1-3.5-1-3.5-1v-10
	c0,0,1.4-0.8,3.1-1c2.2-0.2,4.2,0.5,4.2,5.6C227.6,53.5,226.7,54.5,223.8,54.5L223.8,54.5z M160.1,54.3c-0.3,0-0.9,0.1-1.6,0.1
	c-2.2,0-3-1-3-2.4v-8.9h4.5c0.3,0,0.5-0.2,0.5-0.5c0,0,0,0,0,0v-4.9c0-0.3-0.2-0.5-0.5-0.5c0,0,0,0,0,0h-4.5l0-6
	c0-0.2-0.1-0.3-0.4-0.3H149c-0.2,0-0.4,0.1-0.4,0.3v6.2c0,0-3.1,0.7-3.3,0.8c-0.2,0.1-0.4,0.3-0.4,0.5v3.9c0,0.3,0.2,0.5,0.5,0.5
	c0,0,0,0,0,0h3.2v9.3c0,6.9,4.9,7.6,8.1,7.6c1.5,0,3.3-0.5,3.6-0.6c0.2-0.1,0.3-0.3,0.3-0.5l0-4.3C160.6,54.6,160.4,54.3,160.1,54.3
	L160.1,54.3z"/>
</svg>
