<svg xmlns="http://www.w3.org/2000/svg" width="916.2" height="146" viewBox="0 0 916.2 146"><path d="M150.8,542.4c-2.4,2.3-3.2,5.4-4.5,8.2l-7.2,15.6a18.2,18.2,0,0,1-1.4-1.9c-1.5-1.4-.8-3.2-.5-4.8,1.8-9.9,3.6-19.7,5.6-29.6a28.6,28.6,0,0,1,1.3-5.8c.9-1.9,2.5-2.4,4.4-2.4,5.6-.3,11.3.4,16.8-.5-.1-.9-.8-1.3-1.3-1.8-2.2-2.1-2.5-4.2-.2-6.5a12.1,12.1,0,0,0,1.6-1.6c-.7-.6-1.4,0-2.1-.2H148.7a3.1,3.1,0,0,1-1.6-.6,2.8,2.8,0,0,1-.2-2.2c1-2.9,3.9-3.7,6-5.5l3.1-1.9c1.4-.9,2.9-1.9,4.2-2.9l4.7-3.1,3.9-2.5c1.5-1,3.1-1.9,4.6-3.1a16.5,16.5,0,0,0,2.5-1.5l3-1.9a39.1,39.1,0,0,0,4.1-3,68,68,0,0,0,7.1-4.8c2.6-1.1,4.6-3.3,7.4-4l1.8-.3a35,35,0,0,1,6.4-.8c5.4-.1,10.7.2,16-.8a111.9,111.9,0,0,0,16.4-.8,121,121,0,0,0,17-.8h2.1c2.2.3,4.5-.4,6.7.7s.5,3.5.1,5.2c-.6,3.2-1.6,6.4-2.2,9.7a49.1,49.1,0,0,1-1.7,5.8,5.3,5.3,0,0,1-1.2,1.4,35.7,35.7,0,0,1-5.6,2.6c-2.2.9-4.2,2.1-6.4,3a30.1,30.1,0,0,0-5.5,2.5c-3.8,1.9-7.8,3.4-11.6,5.3a38.2,38.2,0,0,0-5.5,2.4l-3.5,1.7c-3.1,1-5.9,2.8-9,3.9A42.3,42.3,0,0,0,207,517l-3.5,1.6c-2.9,1-5.5,2.6-8.4,3.9a26.1,26.1,0,0,0-5.4,2.4c-1.8.9-3.7,1.6-5.5,2.4s-4.3,2.1-6.4,3a32.8,32.8,0,0,0-5.4,2.4,43.7,43.7,0,0,1-5.5,2.4c-2.3.9-4.3,2.2-6.5,3.1S154.3,541.6,150.8,542.4Z" transform="translate(-76.6 -464.7)" fill="#f0f1f1"/><path d="M532.4,498.7l9.9,55.8c-5.9,1-5.9,1-6.8-4.4-1.8-10.2-3.5-20.5-5.9-30.8-4.8,12.4-9.7,24.7-14.9,38L499.3,518c-2,12-3.8,22.9-5.7,33.8a3.8,3.8,0,0,1-5.5,3.1c-1.7-.7-.6-2.1-.5-3,3-17,6-33.9,9.1-50.9a5,5,0,0,1,1-2.6c5.5,14.5,11.1,29,17,44.3l17-44Z" transform="translate(-76.6 -464.7)" fill="#050505"/><path d="M357.4,526.5h8.2c1.4,0,2.1.3,2.2,1.9,1.8,19.2-16.1,33.1-34.1,26.5a23.5,23.5,0,0,1-13.2-12.3c-6.1-12.4-3.6-29,5.7-37.8s27.9-8,36.4,2.7c2.7,3.2,0,4.1-1.6,5.7s-2.7-.2-3.6-1.3a17.8,17.8,0,0,0-28.4-.4c-7.6,9.4-6.8,25.8,1.7,33.8,5.4,5.1,11.8,6.2,18.6,4s9.9-7.3,11.4-13.8c.6-2.2.2-3.5-2.5-3.3s-6.1-.1-9.1.1-2.3-1.2-2.3-2.9-.1-3.1,2.3-2.9S354.6,526.5,357.4,526.5Z" transform="translate(-76.6 -464.7)" fill="#050505"/><path d="M710.8,529.2l18.4,25.3c-5.1,1.3-8.4.1-11.1-4.5-4.4-7.2-9.6-13.9-14.4-20.9-1.5.8-.8,2-.8,2.8-.1,7-.2,13.9,0,20.8,0,2.6-1.5,2.3-3,2.2s-3.2.6-3.2-2.1c.1-16.9.1-33.9.1-50.9-.1-1.9.8-2.1,2.4-2.1,4.8.1,9.6,0,14.5.2a10.8,10.8,0,0,1,9.6,7,19.4,19.4,0,0,1,1,12.6c-1.1,5-4.2,8-9.3,8.8Z" transform="translate(-76.6 -464.7)" fill="#060606"/><path d="M150.8,542.4c2.5-2.8,6-3.6,9.3-4.9,2.5.5,3.3,3.1,4.8,4.6,20.1,19.9,40,39.8,59.9,59.8,1.4,1.4,3.5,2.6,2.5,5.2-2.4,4.6-2.3,4.6-6.1,1.1l-67.7-63.6Z" transform="translate(-76.6 -464.7)" fill="#03bdfe"/><path d="M660.6,527.2c0-8.2.1-16.3,0-24.4-.1-2.4.6-3.1,3-3.1,6.8.2,13.7.2,20.5,0,2.5,0,3,.8,2.9,3.1s-.3,3.5-3.1,3.4c-4.7-.3-9.4,0-14.1-.2-2.3,0-3.4.5-3.2,3a73.7,73.7,0,0,1,0,9.4c-.1,2.4.6,3.3,3.1,3.2,4.9-.2,9.9.1,14.9-.1,2.8-.1,2.3,1.5,2.4,3.2s.2,3.3-2.5,3.2c-4.8-.2-9.7,0-14.5-.1-2.5-.1-3.5.5-3.4,3.2.2,5,.2,9.9,0,14.9-.1,2.3.8,2.8,2.9,2.8,5-.2,10,.1,14.9-.1,3.2-.2,2.4,1.7,2.6,3.4s-.1,3-2.6,3c-7.1-.2-14.2-.2-21.2,0-2.2,0-2.6-.8-2.6-2.7C660.7,543.9,660.6,535.5,660.6,527.2Z" transform="translate(-76.6 -464.7)" fill="#060606"/><path d="M966.1,527.4c0-8.1.1-16.2-.1-24.3,0-2.4.4-3.4,3.2-3.4,6.8.2,13.6.3,20.4,0,2.7-.1,3.1.9,3.2,3.3s-1.1,3.2-3.4,3.1c-4.9-.1-9.7.1-14.6,0-2-.1-2.7.4-2.6,2.5.2,4.2-1.3,9.5.7,12.2s7.6.5,11.6.7a20.6,20.6,0,0,0,4.3,0c3.4-.6,4.2,1,4,4.1s-1,2.3-2.7,2.3H974.8c-1.6,0-2.7.1-2.6,2.2q.1,8.3,0,16.5c0,1.8.6,2.2,2.2,2.2,5.3-.1,10.5.1,15.7-.1,3.2-.2,2.5,1.7,2.6,3.4s-.1,3.1-2.6,3c-7.1-.2-14.1-.2-21.2,0-2.2,0-2.9-.6-2.9-2.8C966.2,543.9,966.1,535.7,966.1,527.4Z" transform="translate(-76.6 -464.7)" fill="#060606"/><path d="M434.7,527.1c0-8.1.1-16.2-.1-24.3,0-2.5.6-3.1,3.1-3.1,6.6.2,13.3.2,20,.1,2.3-.1,3.4.2,3.4,3.1s-1.1,3.3-3.7,3.2c-4.5-.1-9.1.1-13.7,0-2.1-.1-3,.4-2.9,2.7a86.8,86.8,0,0,1,0,10.2c-.1,2.1.7,2.6,2.7,2.6,4.6-.2,9.2,0,13.7-.1,2.3,0,3.9-.2,4,3.1s-1.8,3.3-4.2,3.2c-4.5,0-9.1.1-13.7,0-1.8,0-2.5.4-2.5,2.4.1,5.3.1,10.7,0,16.1,0,1.8.5,2.4,2.4,2.4,5.1-.1,10.2.1,15.3-.1,2.7-.1,2.6,1.3,2.5,3.1s.5,3.4-2.3,3.3q-10.8-.3-21.6,0c-2.4,0-2.4-1.1-2.4-2.8Z" transform="translate(-76.6 -464.7)" fill="#060606"/><path d="M650.4,512.8c-5.6-5.9-11.7-9.2-19.5-7.6-14.2,2.8-21.3,20.6-13.8,34.3,5,9.1,15.2,13,24.3,9.3,3.5-1.4,6-4,8.7-6.6,1.6,7.6.7,9.4-6.2,12.2-15.5,6.4-32.5-3.3-35.5-20.2-1.6-9.6-.2-18.5,6-26.3a25.1,25.1,0,0,1,28.3-7.9C650.5,502.7,651.1,503.6,650.4,512.8Z" transform="translate(-76.6 -464.7)" fill="#050505"/><path d="M929.7,554.5c-5.3,1.7-7.6-.4-8.7-5.1-.7-2.9-2.2-5.6-3.1-8.4s-1.7-3.2-4.2-3c-4.6.2-9.1.1-13.7,0-1.9,0-2.8.6-3.4,2.4s-2.8,6.2-3.6,9.5c-1,4.8-3.8,5.9-8.5,4.7,7.4-18.7,14.7-37.4,22.5-57.2Z" transform="translate(-76.6 -464.7)" fill="#060606"/><path d="M880.9,542.2c.9,8.6.3,9.7-7.1,12.6-15.8,6-33.1-5.1-35.1-22.6-1.1-10,.9-19.1,8.3-26.3s16.8-9.2,26.8-5.8c7.4,2.5,8,4,7.1,12.5-2.9-2.7-5.6-5.2-9.2-6.6-9.1-3.4-18.7.3-23.7,9.2-7.7,13.5-1.3,30.9,12.6,34.5C867.6,551.4,873.3,549.4,880.9,542.2Z" transform="translate(-76.6 -464.7)" fill="#050505"/><path d="M227.3,607.1c-.1-2.1-1.7-3.1-3-4.4Q194,572.3,163.5,542a21.3,21.3,0,0,1-3.4-4.5,24.7,24.7,0,0,1,6.6-3c.6-.5,1.4-.6,1.6.2,1.5,3.8,4.9,6.1,7.6,8.8l56.2,56.2C230.6,602.2,229.4,605,227.3,607.1Z" transform="translate(-76.6 -464.7)" fill="#08befe"/><path d="M787.4,527.5c0-8.3.1-16.5,0-24.7-.1-2.5.6-3.1,3-3.1,6.9.2,13.9.2,20.8,0,2.4,0,2.8,1,2.7,3s.2,3.6-2.7,3.5c-5.1-.3-10.2,0-15.3-.1-1.8-.1-2.7.4-2.4,2.3v.4c.3,4.2-1.8,9.4.8,12.1s7.5.5,11.4.6a24.6,24.6,0,0,0,4.7,0c3.1-.5,3.7,1,3.6,3.8s-.8,2.6-2.8,2.6c-5-.2-9.9,0-14.9-.1-2.2-.1-2.9.7-2.9,2.9.1,7-.1,14.1.1,21.1.1,2.8-1,3.1-3.3,3.2s-2.8-1.2-2.8-3.2C787.5,543.7,787.4,535.6,787.4,527.5Z" transform="translate(-76.6 -464.7)" fill="#060606"/><path d="M408.6,541.5l8.1-23.6,4.5-12.9c2-5.5,2-5.5,8.3-4.9l-20.9,57.3-21.1-57.1c6.2-1.1,6.2-1.1,8.2,4.4Z" transform="translate(-76.6 -464.7)" fill="#050505"/><path d="M144.8,524.3l-1,5.6c-1.3,1.2-2.5,2.5-4.5,1.5L76.6,472.8a63.1,63.1,0,0,1,11.3-.4,2.3,2.3,0,0,1,1.6-.2c2.2,1.2,3.5,3.5,5.2,5.2l44,43.9c1.4,1.4,2.6,3.2,5,2A1.2,1.2,0,0,1,144.8,524.3Z" transform="translate(-76.6 -464.7)" fill="#03bdfe"/><path d="M544,500.2c4.7-1.2,7.6-.1,9.7,4.5,2.8,6.2,6.5,12.1,10.1,18.7l10-18.4c3-5.5,3-5.5,9.8-4.9-2.6,4.6-4.7,9.4-7.7,13.6-7.6,10.4-10.7,21.7-9.1,34.5.2,1,0,2.1.1,3.1s.1,3.8-3.1,3.8-3.6-1.2-3.2-3.7c2.1-15.2-1.9-28.8-10.8-41.1C547.5,507.2,545.9,503.6,544,500.2Z" transform="translate(-76.6 -464.7)" fill="#060606"/><path d="M945.7,530.7c0,7.2-.1,14.3,0,21.5.1,2.3-.7,2.9-2.9,2.8s-3.3,0-3.3-2.8c.2-14.3.1-28.5.2-42.7,0-2.4-.4-3.6-3.2-3.3s-4.9-.1-7.4.1-3.8-.1-3.8-3.2,1.1-3.4,3.7-3.4c9.3.2,18.5.2,27.8,0,2.9,0,3,1.2,3.1,3.4s-.3,3.5-2.9,3.2-4.5.2-6.7-.1-5,.5-4.8,4.5C945.9,517.3,945.7,524,945.7,530.7Z" transform="translate(-76.6 -464.7)" fill="#060606"/><path d="M742.8,530.6c0-7.2-.1-14.4,0-21.6.1-2.2-.5-3-2.8-2.8s-6-.1-9,.1-2.4-1.4-2.2-3-1-3.6,2-3.5h30.3c2.7,0,2,1.8,1.9,3.2s.9,3.4-1.9,3.2-5.5.2-8.2,0-4,.4-3.9,3.7c.2,13.8,0,27.7.1,41.5,0,2.5-.2,3.6-3.2,3.7s-3.2-1.4-3.2-3.8C742.8,544.4,742.8,537.5,742.8,530.6Z" transform="translate(-76.6 -464.7)" fill="#050505"/><path d="M177.4,529.6a26.3,26.3,0,0,1,6.6-3c.6-.4,1.5-.5,1.5.2.1,2.9,2.4,4.3,4.1,6,16.1,16.2,32.3,32.3,48.4,48.6,1.4,1.3,3.7,2.4,2.6,5.1a13.7,13.7,0,0,1-3.1,4.8c-1.5-.4-2.3-1.6-3.3-2.6l-53.9-53.8C178.8,533.4,177.1,532.1,177.4,529.6Z" transform="translate(-76.6 -464.7)" fill="#13c1fe"/><path d="M232.1,599.7c-1.8,0-2.7-1.4-3.8-2.5-19.4-19.3-38.8-38.8-58.3-58.1-1.4-1.4-1.6-3.5-3.3-4.6a14.7,14.7,0,0,1,5.4-2.4c2.7.5,3.3,3.3,5,4.9,11.2,10.4,21.5,21.6,32.4,32.3,7.5,7.3,14.8,14.8,22.2,22.2,1.1,1.1,2.4,2,2.9,3.6A7.5,7.5,0,0,1,232.1,599.7Z" transform="translate(-76.6 -464.7)" fill="#0dbffe"/><path d="M109.3,471.7h4.5c3.3-.7,6.5-.1,9.7-.3a3.4,3.4,0,0,1,3.1,1.4c6.3,6.9,13.2,13.3,19.7,20a7.7,7.7,0,0,1,2.6,5.8,24,24,0,0,1-2.1,9.6c-1.3,1.5-2.3.2-3.3-.3a18.2,18.2,0,0,1-4.2-3.6l-27.9-28C110.2,475,108.2,474,109.3,471.7Z" transform="translate(-76.6 -464.7)" fill="#12c1fe"/><path d="M234.6,595.1c-1.5-.6-2.5-1.9-3.6-3-13.6-13.6-27.4-27.1-40.8-41-4.3-4.4-8.8-8.4-13-12.8-1.9-2-3.9-3.8-5.1-6.2a15.2,15.2,0,0,1,5.3-2.5,18.4,18.4,0,0,0,3.4,4.5l53.7,53.6c1.1,1.1,2,2.4,3,3.6Z" transform="translate(-76.6 -464.7)" fill="#10c0fe"/><path d="M189.3,524.2a15.4,15.4,0,0,1,5.4-2.4c2.5.5,3.2,3.1,4.8,4.6,15.2,15,30.2,30.1,45.2,45.1,1.2,1.2,2.7,2.2,3.2,3.9a15.2,15.2,0,0,1-3.1,4.8c-2.2.8-3.4-.8-4.7-2.1L191,529C189.6,527.7,188.5,526.3,189.3,524.2Z" transform="translate(-76.6 -464.7)" fill="#1bc3fe"/><path d="M229.3,506.1a75.9,75.9,0,0,1,12-5.4c.2-.2.6-.2.6-.1-1.1,3.7,1.8,5.5,3.9,7.6,8.2,8.2,16.5,16.4,24.7,24.7,1.1,1.1,2.8,2,2.4,4.1s-2.4,5.1-4.6,7-2.4-.6-3.3-1.5l-34.3-34.2A4,4,0,0,1,229.3,506.1Z" transform="translate(-76.6 -464.7)" fill="#37cafe"/><path d="M247.9,575.4a10.2,10.2,0,0,1-3.5-3l-46.3-46.2a17.9,17.9,0,0,1-3.4-4.4,39.5,39.5,0,0,1,8.6-4c.6-.1,1.4.2,1.1.5-2.3,3,.2,4.4,1.8,6.1,14,14,28.1,28,42,42,1.2,1.2,3.2,2.1,2.7,4.4A13.1,13.1,0,0,1,247.9,575.4Z" transform="translate(-76.6 -464.7)" fill="#1fc4fe"/><path d="M109.3,471.7c0,1.7,1.4,2.5,2.4,3.5l29.4,29.4a20.2,20.2,0,0,0,5.3,3.9,1,1,0,0,1,1.5.1l-.8,1.2c-1.2,1.6-1.1,3.9-2.7,5.2s-.7-.2-.8-.7c-1,5-3.2,1.8-4.5.5-8.2-7.9-16.3-15.9-24.2-24-4.7-4.8-9.5-9.4-14.1-14.2-1.1-1.2-3.3-2.3-1.4-4.5,2-.3,4,.4,6-.4Z" transform="translate(-76.6 -464.7)" fill="#0cbffe"/><path d="M189.3,524.2a10.6,10.6,0,0,0,2.5,4.5c16.2,16,32.2,32.1,48.3,48.1a14.1,14.1,0,0,0,4.7,3.4,28.8,28.8,0,0,1-4.2,6.3c0-2-1.6-2.9-2.8-4.1l-47.2-47.2c-2.5-2.6-5.7-4.7-6.6-8.6A17,17,0,0,1,189.3,524.2Z" transform="translate(-76.6 -464.7)" fill="#17c2fe"/><path d="M250.9,570.8c-1-1.2-2-2.4-3.1-3.5l-43.9-43.9c-1.8-1.8-3.6-3.2-.1-5a1,1,0,0,1-.1-.3l-.4-.3a7.1,7.1,0,0,1,3.3-1.5c1.9.7,2.7,2.6,3.9,3.8q20.7,20.4,41.1,41.1c1.3,1.3,3.4,2.4,2.4,4.8A13.7,13.7,0,0,1,250.9,570.8Z" transform="translate(-76.6 -464.7)" fill="#23c5fe"/><path d="M272.9,537c-6.9-7.9-14.7-14.9-22-22.4-2.8-2.9-5.6-5.9-8.6-8.5s-2.4-3.3-1-5.4a13.6,13.6,0,0,1,5.3-2.5c1.4-.3,2.2.5,3.1,1.4,8.6,8.5,17.3,17,25.8,25.7,1.1,1.2,3.1,2.2,2,4.5A33.9,33.9,0,0,1,272.9,537Z" transform="translate(-76.6 -464.7)" fill="#3eccfe"/><path d="M254,566c-.1-1.9-1.7-2.8-2.8-4l-41.8-41.7a10.4,10.4,0,0,1-2.8-4,12.8,12.8,0,0,1,4.9-2.2c1.7-1,2.4.5,3.2,1.4,6.8,7.3,14.2,14.1,20.9,21.6s13.4,12.3,19.6,19c1.1,1.1,2.5,2,2.9,3.6A26.3,26.3,0,0,1,254,566Z" transform="translate(-76.6 -464.7)" fill="#26c6fe"/><path d="M258.1,559.7l-3.6-3c-14.1-13.9-28.3-27.8-41.9-42.3-.2-.2-.7-.2-1.1-.3a43.8,43.8,0,0,1,9.1-4.1c.4-.2,1.1,0,1,.2-1.2,3.3,1.2,4.9,3.1,6.7l33.7,33.8c1.2,1.2,3.2,2.1,2.7,4.4A14.1,14.1,0,0,1,258.1,559.7Z" transform="translate(-76.6 -464.7)" fill="#2bc7fe"/><path d="M261.1,555.1c-3.2-4.2-7.2-7.6-10.8-11.3-9.3-9.3-18.6-18.7-28-27.9-1.8-1.8-3.2-3.3-1.7-5.9a7.1,7.1,0,0,1,3.3-1.5c1.2-.5,1.7.5,2.3,1.1,11.7,12.1,23.8,23.8,35.7,35.9,1.2,1.3,3.3,2.3,2.3,4.8A13.7,13.7,0,0,1,261.1,555.1Z" transform="translate(-76.6 -464.7)" fill="#2fc8fe"/><path d="M775.6,527.1c0,8.2-.1,16.4.1,24.7.1,2.6-.7,3.2-3.3,3.2s-3-.6-3-3c.1-16.5.2-32.9,0-49.4,0-2.7,1.1-2.8,3.2-2.9s3.2.5,3.1,3.1C775.5,510.9,775.6,519,775.6,527.1Z" transform="translate(-76.6 -464.7)" fill="#070707"/><path d="M264.2,550.3c0-1.8-1.5-2.7-2.5-3.8L230.1,515c-2.1-2.1-4.1-4.3-6.2-6.5a13.8,13.8,0,0,1,5.4-2.4c3.2,2.1,5.6,5.1,8.2,7.7,9.2,9.1,18.4,18.3,27.5,27.5,1.1,1,2.2,1.8,3.3,2.7A26.3,26.3,0,0,1,264.2,550.3Z" transform="translate(-76.6 -464.7)" fill="#33c9fe"/><path d="M376.4,527.1c0-8.1.1-16.2-.1-24.3,0-2.4.5-3.2,3-3.1s3.2.4,3.2,3q-.2,24.8,0,49.5c0,2.7-1.2,2.7-3.3,2.8s-2.9-.4-2.9-2.8C376.5,543.9,376.4,535.5,376.4,527.1Z" transform="translate(-76.6 -464.7)" fill="#090909"/><path d="M822.8,527.4c0-8.2.1-16.4-.1-24.7,0-2.5.8-3,3.1-3s3.1.6,3.1,3.1c-.1,16.5-.1,33,0,49.4,0,2.9-1.4,2.7-3.4,2.8s-2.8-.6-2.8-2.8C822.9,543.9,822.8,535.7,822.8,527.4Z" transform="translate(-76.6 -464.7)" fill="#090909"/><path d="M147.9,498.5c.2-2.1-.8-3.6-2.2-5.1-6.7-6.9-14-13.2-20.1-20.6-.9-1.1-2-1.1-3.2-1.1h-8.6c8.4-1.1,16.8-.8,25.2-.8a2.4,2.4,0,0,1,3.1.9c2.7,3.3,5.6,6.3,9.6,8.1.8,2.5-.9,5.3.7,7.8s-.2,4-.6,5.9S150.1,497.6,147.9,498.5Z" transform="translate(-76.6 -464.7)" fill="#1ac2fd"/><path d="M277.5,529.8c0-1.7-1.3-2.5-2.3-3.5-7.9-7.6-15.2-16-23.8-23.1-1.7-1.4-2.4-4-4.8-5a26.3,26.3,0,0,1,6.6-3,1,1,0,0,1,1.4-.1c7.9,9.3,17.1,17.4,25.5,26.2a4.1,4.1,0,0,1,1.5,2.3C280.3,525.7,279.3,528,277.5,529.8Z" transform="translate(-76.6 -464.7)" fill="#42cdfe"/><path d="M281.6,523.6c-9.4-8.3-17.7-17.6-26.7-26.2-.7-.7-.1-2.4-1.7-2.2a17,17,0,0,1,5.3-2.4c1.6-.6,2.4.7,3.3,1.6,7.1,6.9,14.1,14,21.1,21,.9.9,2,1.7,1.7,3.3S283.2,522.3,281.6,523.6Z" transform="translate(-76.6 -464.7)" fill="#46cefe"/><path d="M284.6,518.7c-8.4-8.9-17-17.6-26.1-25.9l1-.8c1.2-2.1,3.2-2.5,5.4-2.6a3.3,3.3,0,0,1,2,1.1c7,7.6,14.6,14.6,21.8,22.1A21.1,21.1,0,0,1,284.6,518.7Z" transform="translate(-76.6 -464.7)" fill="#4acffe"/><path d="M139.3,531.4l4.5-1.5c-1.9,10.3-3.9,20.6-5.7,31-.2,1.1-.3,2.3-.4,3.4-1.1,7.3-4.1,13.9-7.3,20.3-1.5.1-.9-.8-.8-1.5Q134.6,557.1,139.3,531.4Z" transform="translate(-76.6 -464.7)" fill="#17708e"/><path d="M264,471.7h-6.9c1.4-3.3,3.8-.1,5.3-1.1-2.1.1-3.8-.7-3-3.6h.7c4.6-.7,9.3-.4,14-.2s10.2,7.8,9.3,11.6c-2.8,2.8-6.6,3.4-10.2,4.3-.4,0-1,0-1.1-.2-1.1-4.1-4.7-6.2-7.4-9C264.3,472.9,264.6,472.1,264,471.7Z" transform="translate(-76.6 -464.7)" fill="#57d3fe"/><path d="M288.7,512.6c-1.8,0-2.7-1.5-3.8-2.5l-20-20.3c1.1-2.2,3.1-2.8,5.3-2.9a5.6,5.6,0,0,1,3,1.7c6.1,5.8,12.1,11.8,17.9,17.9a2.1,2.1,0,0,1,.7,1.3A13.7,13.7,0,0,1,288.7,512.6Z" transform="translate(-76.6 -464.7)" fill="#4ed0fe"/><path d="M283.2,478c.4-1.7-.5-2.9-1.5-4.2-4.2-5.6-9.6-8-16.6-6.9a27.8,27.8,0,0,1-5,0c7.5-1.3,15.2-.6,22.8-.8a26.6,26.6,0,0,1,8.9-.2c3.6.3,4.7,3.7,6.3,6.3.1.2.2.6,0,.7C293.6,476,288.8,478.3,283.2,478Z" transform="translate(-76.6 -464.7)" fill="#60d5fe"/><path d="M291.8,507.8c-6-4.9-11.1-10.9-16.7-16.2l-4.7-4.1c.9-2.1,2.8-2.6,4.7-2.9a8.2,8.2,0,0,1,5.5,2.6l12.7,12.7c.9.9,2,1.7,1.6,3.3S293.2,506.6,291.8,507.8Z" transform="translate(-76.6 -464.7)" fill="#52d1fe"/><path d="M302,492.2a25.3,25.3,0,0,1-4,6.2c-6.1-4.9-12-9.8-15.9-16.7a9.9,9.9,0,0,1,7-3.5c5,3.5,8.7,8.2,12.8,12.6A1.4,1.4,0,0,1,302,492.2Z" transform="translate(-76.6 -464.7)" fill="#59d3fe"/><path d="M302,492.2c-4.3-4.4-8.5-8.9-12.7-13.4,2-3,5.2-3.8,8.5-4.4,3.9,2.3,6.6,6,9.8,9.1A41.7,41.7,0,0,1,302,492.2Z" transform="translate(-76.6 -464.7)" fill="#5fd5fe"/><path d="M282.2,482,298,498.4a17.2,17.2,0,0,1-3.1,4.8c-4.9-5.9-10.7-10.8-15.9-16.4-1.1-1.2-2.8-.6-3.8-1.6A6.1,6.1,0,0,1,282.2,482Z" transform="translate(-76.6 -464.7)" fill="#56d2fe"/><path d="M151.1,479.8a6,6,0,0,1-4.4-1.6c-2.6-2.4-4.1-6-7.7-7.4,7.1-1.1,14.3-.6,21.4-.8,1.2,2.1,4.3,2.3,4.6,5.1-1.7,1.2-3.7.4-5.5,1.1l-3,1a9.4,9.4,0,0,0-2.2,1.2C153.3,478.9,152.4,479.9,151.1,479.8Z" transform="translate(-76.6 -464.7)" fill="#21c5fe"/><path d="M305,465.4a80.3,80.3,0,0,1,15-.6l-8.7,13.1c-2.5-1.5-3.4-4.8-6.5-5.7a3.8,3.8,0,0,1,.1-1.5C305.2,468.9,303.5,467.1,305,465.4Z" transform="translate(-76.6 -464.7)" fill="#6ad8fe"/><path d="M221.7,473.2a101.4,101.4,0,0,1-16.5.8c-3.4-.4-6.6-.4-9.5-3.1s-4.8-.3-7.2-.5-2.3-.2-3.1-1.2c8.6-1.1,17.3-.7,25.9-.8a2.3,2.3,0,0,1,1.8-.1c1.8,1.8,3.6,3.5,6.5,3.3C220.5,471.5,221.8,471.7,221.7,473.2Z" transform="translate(-76.6 -464.7)" fill="#3acbfe"/><path d="M185.4,469.2l3.3.2a9.6,9.6,0,0,0,4.9,2.2c1,.1,2.6,0,2.1,1.9a5.7,5.7,0,0,1-3.6.8c-2.2.1-4.4-.4-6.5.4a23.4,23.4,0,0,1-2.7,1.5,5.8,5.8,0,0,1-1.9.4c-2.2-.1-4.5.6-6.5-.9,1.9-2.8,4.4-.7,6.5-1.1-.9-.6-2.1-.2-3.2-.2s-4.2,0-5.8-1.8-3-1.3-4.7-1.4-3.5.3-4.8-1.2C170.1,468.9,177.8,469.4,185.4,469.2Z" transform="translate(-76.6 -464.7)" fill="#2ec8fd"/><path d="M305,471.8c3.5.6,5,3.2,6.3,6.1a19.5,19.5,0,0,1-3.7,5.6c-4.2-1.7-6.5-5.6-9.6-8.6.3-1.5,1.7-1.9,2.8-2.5S303.5,470.9,305,471.8Z" transform="translate(-76.6 -464.7)" fill="#64d6fe"/><path d="M221.7,473.2c-.9-1.1-2.2-.8-3.3-.7-3,.3-4.7-1.1-5.4-3.9,3.3-1,6.7-.2,10-.5,1.4-.1,2.8.3,4.2-.3h3.2c1.5,1.6,3.2,3,5.6,3s2.3,0,2.2,1.6A114,114,0,0,1,221.7,473.2Z" transform="translate(-76.6 -464.7)" fill="#43cdfe"/><path d="M305,465.4c-.3,1.9,1.3,3.6.8,5.6a26.2,26.2,0,0,0-6.2,1.9,1.6,1.6,0,0,1-1.5-.4c-.3-.1-.6-.2-.7-.4-3.1-6.2-8.6-6.6-14.5-6C290.2,464.9,297.6,465.6,305,465.4Z" transform="translate(-76.6 -464.7)" fill="#67d7fd"/><path d="M238.2,472.4c-.8-1-1.9-.8-2.8-.7-3.1.3-4.7-1-5-3.9h5.3c4.2-.3,8.4-1.4,12.3,1.5,1.1.9,2.7.4,4.1.6s3-.2,3.4,1.8A125.3,125.3,0,0,1,238.2,472.4Z" transform="translate(-76.6 -464.7)" fill="#4acffe"/><path d="M255.5,471.6c-1.3-1.3-3-.6-4.5-.7s-4.5.4-5.9-2.3-3.1-.7-4.8-.8a35.3,35.3,0,0,0-4.6-.1c7.9-1.3,15.8-.6,23.7-.8.8,1.8,1,4.2,4.4,3.3-2.4,1.3-4.8-.2-6.7,1.4Z" transform="translate(-76.6 -464.7)" fill="#51d1fe"/><path d="M162.5,470h5.9c1.9-.1,3.5.1,4.7,1.9,2,3.4,5.7,1.3,8.7,2.4-2.4,1.2-5.1-.5-7.2,1.1s-3.4,1.2-5.2,1.3-3.2-.7-4.3-2.1-4.4-1.8-4.7-4.7Z" transform="translate(-76.6 -464.7)" fill="#2bc6fb"/><path d="M105.4,471.7c-2,1.5-4.2.4-6.3.8s-6.2,1.4-9.4.1l-1.8-.2C93.7,471.4,99.6,471.8,105.4,471.7Z" transform="translate(-76.6 -464.7)" fill="#12c1fe"/><path d="M227.2,467.8c-4.6,1.7-9.5.2-14.2.8l-1.7-.2C216.6,467.4,221.9,467.9,227.2,467.8Z" transform="translate(-76.6 -464.7)" fill="#4acffe"/><path d="M129.6,583.1l.8,1.5-1,2.4A3.6,3.6,0,0,1,129.6,583.1Z" transform="translate(-76.6 -464.7)" fill="#659fb4"/><path d="M298.1,472.5h1.4c.8-.4,1.6-.7,1.6.8a30.7,30.7,0,0,0-3.1,1.7l-8.7,3.9a28.2,28.2,0,0,0-7.1,3.2,27.6,27.6,0,0,0-7,3.2l-4.8,2.3c-2,.2-3.7,1.4-5.5,2.3l-5.4,2.2a14.9,14.9,0,0,1,1.4-5.5c3.4-3,7.6-3.9,11.9-4.6a54.2,54.2,0,0,0,10.4-3.9A98.6,98.6,0,0,0,298.1,472.5Z" transform="translate(-76.6 -464.7)" fill="#166f8d"/><path d="M272.8,481.9c-3.8,2-7.9,3.1-11.9,4.6,1-5,2.1-9.9,3.1-14.8l3.8,3.2C269.9,476.9,272.2,478.8,272.8,481.9Z" transform="translate(-76.6 -464.7)" fill="#52d1fd"/><path d="M147.9,498.5c.6-1.8,1.1-3.7,3.1-4.5.3-1,1-.7,1.7-.5,1.7,3.1,1,6.5.9,9.7s-5.1,2.2-5.7,5.4h-1.5Z" transform="translate(-76.6 -464.7)" fill="#f00405"/><path d="M143.9,514.9c1.1-.7.8-1.9.7-2.8s1-2.2,2.5-2.3l1.5.4c2,3.4,1.1,7.1.8,10.7a1.9,1.9,0,0,1-.7,1.2c-1.5.3-3,.3-4.5.5a1.7,1.7,0,0,1-1.2-.5,2.9,2.9,0,0,1-.5-1.8A23.8,23.8,0,0,1,143.9,514.9Z" transform="translate(-76.6 -464.7)" fill="#e40101"/><path d="M183,475.5l1.8-1.5c2.2-.7,4.4-.2,6.6-.4h1.8c.2,2.4-2.4,3.1-2.9,5s-4.5,3.3-6.9,4.8-1.2-.6-1-1.3S182.8,477.7,183,475.5Z" transform="translate(-76.6 -464.7)" fill="#8f0708"/><path d="M173.8,489.6a13.5,13.5,0,0,1-4.6,3.3c-1.6.3-1.3-1-1.2-1.7s-.1-4.4-.3-6.6a7.8,7.8,0,0,1,6.8-4.5,2.4,2.4,0,0,1,.6,1.1C174.2,483.9,176.1,487.1,173.8,489.6Z" transform="translate(-76.6 -464.7)" fill="#b90505"/><path d="M160.5,498.6l-4,2.7c-2-3.1-1.1-6.4-.8-9.7s2.4-3.6,5.1-2.8C163,492.4,163,495.2,160.5,498.6Z" transform="translate(-76.6 -464.7)" fill="#db0404"/><path d="M168.3,484.2c1.7,2.8.1,5.9.9,8.7a10.9,10.9,0,0,1-3.8,2.5c-1.9.1-1.9-1.4-2.1-2.5a15.6,15.6,0,0,1,.1-5.7C164.4,485.1,165.5,483.3,168.3,484.2Z" transform="translate(-76.6 -464.7)" fill="#c60505"/><path d="M174.6,481.1v-.7c.8-2.5,2.8-3.2,5.2-3.1,3,2.6,2.9,5.1-.5,9l-3,1.9c-1.7.3-1.2-1-1.3-1.7S175.4,482.8,174.6,481.1Z" transform="translate(-76.6 -464.7)" fill="#a50707"/><path d="M156.5,491.2v10.1l-2.9,1.9c-2.2-3-.5-6.5-1.1-9.7S154.3,490.6,156.5,491.2Z" transform="translate(-76.6 -464.7)" fill="#e70303"/><path d="M164.5,513.6c-2,1.8-2.3,3.5.1,5.2a16.7,16.7,0,0,1,2.8,2.5c-2.1,2.2-4.6.6-6.9.9a40.2,40.2,0,0,1-.1-12h3.2C165.2,511,164.9,512.3,164.5,513.6Z" transform="translate(-76.6 -464.7)" fill="#8f0505"/><path d="M195.8,473.2c-.9-1.1-2.1-.8-3.2-.7s-3.6-.8-3.9-3.1c3.8,0,7.9-1.2,10.8,3,1.2,1.9,4.1-.1,5.7,1.6l-6,.4C198.1,473.8,196.6,474.4,195.8,473.2Z" transform="translate(-76.6 -464.7)" fill="#37c9fb"/><path d="M164.3,486.5c.6,2.9-1.1,6.2,1.1,8.9a16,16,0,0,1-4.9,3.2c.9-3.2,1.3-6.5-.1-9.8C160.9,486.7,162.2,485.9,164.3,486.5Z" transform="translate(-76.6 -464.7)" fill="#d00505"/><path d="M179.3,486.3c1-2,1.9-4,1.6-6.5a2.1,2.1,0,0,0-1.9-2c.1-1.9,1.9-1.6,3-2.2h1c2.5,2.5,0,5.4.4,8Z" transform="translate(-76.6 -464.7)" fill="#9b0909"/><path d="M152.6,510.2h2.3c1.9,3.8,1.6,7.7.3,11.7a2.8,2.8,0,0,1-2.9,0C151.1,518,150.8,514.1,152.6,510.2Z" transform="translate(-76.6 -464.7)" fill="#c00303"/><path d="M148.7,521.8c0-3.9,0-7.8-.1-11.6H151c1.1,3.9,1.5,7.8-.3,11.7C150,522.3,149.3,522.5,148.7,521.8Z" transform="translate(-76.6 -464.7)" fill="#d80202"/><path d="M160.4,510.2a18.1,18.1,0,0,1,0,11.5c-.7,1-1.6.7-2.5.2.1-3.9-1.1-8,.9-11.7Z" transform="translate(-76.6 -464.7)" fill="#9c0404"/><path d="M154.9,521.7V510.2h1.6c2.1,2.5,2.2,8.3.3,11.7C156.1,522.3,155.5,522.5,154.9,521.7Z" transform="translate(-76.6 -464.7)" fill="#b30303"/><path d="M156.5,521.7a18.8,18.8,0,0,0,0-11.5h2.3c-.3,3.8.9,7.8-.7,11.5C157.6,522.5,157,522.5,156.5,521.7Z" transform="translate(-76.6 -464.7)" fill="#a80303"/><path d="M150.2,521.8c1.6-3.8.4-7.8.8-11.6h1.6v11.6A1.6,1.6,0,0,1,150.2,521.8Z" transform="translate(-76.6 -464.7)" fill="#cd0202"/><path d="M190.3,478.7c-.7-2.7.8-3.9,3.1-4.5s2.8-1.4,4,.4C194.8,475.7,193.1,478.2,190.3,478.7Z" transform="translate(-76.6 -464.7)" fill="#7f0d0e"/><path d="M174.6,481.1c1.9.2,1.3,1.8,1.6,3s-.9,2.8.1,4.1a3,3,0,0,1-2.5,1.4C174.5,486.8,172.8,483.8,174.6,481.1Z" transform="translate(-76.6 -464.7)" fill="#b00909"/><path d="M150.2,521.8h10.2c2.4,0,4.7.7,7-.4,1.6,1.6-.3,1.2-.8,1.2l-17.8-.3-.2-.2v-.2Z" transform="translate(-76.6 -464.7)" fill="#952e2e"/><path d="M164.5,513.6a7.8,7.8,0,0,0-.9-3.4,6.9,6.9,0,0,1,4,.1A9,9,0,0,1,164.5,513.6Z" transform="translate(-76.6 -464.7)" fill="#780101"/><path d="M197.4,474.6c-1.3-1-2.7-.5-4-.4l-1.7-.3a.6.6,0,0,1,.5-.6h3.6c1.1.5,2.9-.9,3.4,1.3Z" transform="translate(-76.6 -464.7)" fill="#5c2029"/><path d="M148.6,522v.2c-1.4.4-3.4-.2-3.9,2.1l-.9-.8a1,1,0,0,1-.1-1.5Z" transform="translate(-76.6 -464.7)" fill="#d8171b"/><path d="M702.8,514.3a5.9,5.9,0,0,1,.1-2.3c1-2.1-2.6-6,2-6.5,8.1-.9,12.5,1.3,13.5,6.1,1.8,8.1-1.2,11.8-9.5,12H705c-1.8.1-2.3-.7-2.2-2.3S702.8,516.7,702.8,514.3Z" transform="translate(-76.6 -464.7)" fill="#fdfdfd"/><path d="M907.1,512.6c2.5,6.5,4.6,11.9,6.8,17.3.8,1.9.4,2.5-1.7,2.4H899.3Z" transform="translate(-76.6 -464.7)" fill="#fdfdfd"/><path d="M143.8,522v1.5c-.8,1.7-1.8,2.4-3.4.9l-1.4-1.4L92.4,476.4a14.6,14.6,0,0,1-2.7-3.8h9.4c0,1.6,1.4,2.5,2.4,3.5,7.2,7.3,14.6,14.6,21.9,21.8l16.8,16.9c1.3,1.2,2.8,3,3-.7,0-.4,0-1.3.6-.3s.1.8.1,1.2.6,3.8-.8,5.5-.4,1,.1,1.5Z" transform="translate(-76.6 -464.7)" fill="#08befe"/><path d="M182,475.6l-3,2.2-4.4,2.6a21.2,21.2,0,0,0-6.3,3.8,10.7,10.7,0,0,0-4,2.3,10.9,10.9,0,0,0-3.9,2.3,9.8,9.8,0,0,0-3.9,2.4,10.7,10.7,0,0,0-4,2.3l-1.5.5.9-6.7c-.6-2.2,1.1-3.2,2.4-4.4l2.7-1.5,2.3-1.2,3.6-2.2c2-.8,3.7-2.8,6.2-1.8l5.5-.7Z" transform="translate(-76.6 -464.7)" fill="#f0f0f0"/><path d="M154.9,483.3a7.9,7.9,0,0,0-3,4c-1.6-.4-1.8-1.5-1.4-2.9s.4-3.1.6-4.6a5.2,5.2,0,0,1,3-2C157.2,479.2,155.8,481.3,154.9,483.3Z" transform="translate(-76.6 -464.7)" fill="#e70102"/><path d="M159.6,480.8l-2.2,1.2c-3-1.1-1.3-3.6-1.6-5.4l3.1-1a2.4,2.4,0,0,1,2.3-.2C162.1,477.6,161,479.3,159.6,480.8Z" transform="translate(-76.6 -464.7)" fill="#c60607"/><path d="M161.1,475.7h-2.2c2-1.1,4.2-.3,6.2-.9a6.4,6.4,0,0,1,4,1.5c-2.5.1-4,2.2-6.3,2.7-.1-.2-.3-.4-.3-.6C162.9,476.2,163,476.2,161.1,475.7Z" transform="translate(-76.6 -464.7)" fill="#921011"/><path d="M155.8,476.6c1.4,1.5-.2,4,1.6,5.4a3.4,3.4,0,0,1-2.5,1.3c-.3-1.8.7-3.8-.8-5.4C154.6,477.4,154.7,476.3,155.8,476.6Z" transform="translate(-76.6 -464.7)" fill="#d90a0a"/><path d="M301.1,473.2c-.4-.7-1-.7-1.6-.8,2-.9,3.8-2.5,6.3-1.5l-.8.9Z" transform="translate(-76.6 -464.7)" fill="#2583a2"/><path d="M192.2,473.3l-.5.6h-6.9C187.1,472.5,189.7,473.5,192.2,473.3Z" transform="translate(-76.6 -464.7)" fill="#37c9fb"/><path d="M143.2,521.9c-1.8-.8-.5-2.1-.7-3.3.8.5.5,1.2.6,1.8A7.6,7.6,0,0,0,143.2,521.9Z" transform="translate(-76.6 -464.7)" fill="#03bdfe"/><path d="M161.1,475.7c4-.8,2.4,1.5,1.7,3.2l-3.2,1.9Z" transform="translate(-76.6 -464.7)" fill="#ae0c0e"/></svg>