<svg id="Layer_1" data-name="Layer 1" xmlns="http://www.w3.org/2000/svg" viewBox="0 0 119.4 35"><defs><style>.cls-1{fill:#66d9fb;}.cls-2{fill:#c28aeb;}.cls-3{fill:#7dfa8c;}.cls-4{fill:#ff9f1a;}.cls-5{fill:#ff3838;}.cls-6{fill:#333;}</style></defs><g id="Layer_2" data-name="Layer 2"><g id="Layer_1-2" data-name="Layer 1-2"><path class="cls-1" d="M111.3,8.2v8.2h-5.4V8.2"/><path class="cls-2" d="M111.3,21.7v8.2h-5.4V21.7"/><path class="cls-3" d="M111.2,16.3h8.2v5.5h-8.2"/><path class="cls-4" d="M97.6,16.3h8.3v5.5H97.6"/><rect class="cls-5" x="105.9" y="16.3" width="5.4" height="5.42"/><path class="cls-6" d="M6.3,34.3H0V0H6.3V12.9a8.1,8.1,0,0,1,6.3-2.5c5.9,0,8.7,4.1,8.7,9.2V34.3H15V20.7c0-2.6-1.3-4.6-4.4-4.6S6.4,18,6.3,20.6Z"/><path class="cls-6" d="M30.8,20.9l5.8-.9c1.3-.2,1.7-.8,1.7-1.6a4,4,0,0,0-3.9-3.1A4.3,4.3,0,0,0,30,19.1l-5.7-1.2c.4-3.6,3.8-7.6,10-7.6s10.2,4.1,10.2,8.8V30.6c0,1.2.1,2.5.2,3.7H39a13.3,13.3,0,0,1-.3-2.8A7.8,7.8,0,0,1,31.9,35c-5,0-8-3.4-8-7.1S26.9,21.5,30.8,20.9Zm7.5,4V23.8l-5.2.8c-1.7.2-2.9,1.1-2.9,2.9a2.7,2.7,0,0,0,2.7,2.7h.3C35.9,30.3,38.3,29,38.3,24.9Z"/><path class="cls-6" d="M52.9,22.6c0,4.2,2.7,6.6,6,6.6a5.2,5.2,0,0,0,5.3-3.9l5.6,1.8a10.9,10.9,0,0,1-11,7.9A12.1,12.1,0,0,1,46.6,23.1v-.5A11.9,11.9,0,0,1,58.1,10.3h.6c6.3,0,9.9,3.8,10.9,7.8L64,20a5.4,5.4,0,0,0-5.2-3.9C55.6,16.1,52.9,18.4,52.9,22.6Z"/><path class="cls-6" d="M85.3,20.8l9.5,13.5H87.1l-6.2-8.9-2.6,2.7v6.2H72V0h6.3V19.7L86.4,11h8.2Z"/></g></g></svg>