<?xml version="1.0" encoding="utf-8"?>
<!-- Generator: Adobe Illustrator 25.0.0, SVG Export Plug-In . SVG Version: 6.00 Build 0)  -->
<svg version="1.1" id="Layer_1" xmlns="http://www.w3.org/2000/svg" xmlns:xlink="http://www.w3.org/1999/xlink" x="0px" y="0px"
	 viewBox="0 0 188 203.8" style="enable-background:new 0 0 188 203.8;" xml:space="preserve">
<style type="text/css">
	.st0{fill:url(#XMLID_2_);}
	.st1{fill:url(#XMLID_3_);}
	.st2{fill:url(#XMLID_4_);}
	.st3{fill:url(#XMLID_5_);}
	.st4{fill:#FFFFFF;}
	.st5{fill:none;}
</style>
<g>
	
		<linearGradient id="XMLID_2_" gradientUnits="userSpaceOnUse" x1="65.7521" y1="48.2993" x2="144.1511" y2="95.6171" gradientTransform="matrix(1 0 0 -1 0 205.6)">
		<stop  offset="0" style="stop-color:#FCEE39"/>
		<stop  offset="1" style="stop-color:#F37B3D"/>
	</linearGradient>
	<path id="XMLID_3041_" class="st0" d="M152.5,108.6c0.9-0.8,1.4-1.9,1.5-3.2c0.1-2.6-1.8-4.7-4.4-4.9c-1.2-0.1-2.4,0.4-3.3,1.1l0,0
		l-83.8,45.9c-1.9,0.8-3.6,2.2-4.7,4.1c-2.9,4.8-1.3,11,3.6,13.9c3.4,2,7.5,1.8,10.7-0.2l0,0l0,0c0.2-0.2,0.5-0.3,0.7-0.5l78-54.8
		C151.2,109.7,152.3,108.9,152.5,108.6L152.5,108.6L152.5,108.6z"/>
	
		<linearGradient id="XMLID_3_" gradientUnits="userSpaceOnUse" x1="82.3265" y1="161.9151" x2="153.8837" y2="99.2688" gradientTransform="matrix(1 0 0 -1 0 205.6)">
		<stop  offset="0" style="stop-color:#EF5A6B"/>
		<stop  offset="0.57" style="stop-color:#F26F4E"/>
		<stop  offset="1" style="stop-color:#F37B3D"/>
	</linearGradient>
	<path id="XMLID_3049_" class="st1" d="M152.7,101.9L152.7,101.9L88.9,39.3c-1.4-1.5-3.4-2.5-5.7-2.5c-4.3,0-7.7,3.5-7.7,7.7l0,0
		c0,2.1,0.8,3.9,2.1,5.3l0,0l0,0c0.4,0.4,0.8,0.7,1.2,1l67.4,57.7l0,0c0.8,0.7,1.8,1.2,3,1.3c2.6,0.1,4.7-1.8,4.9-4.4
		C154.1,104.1,153.6,102.8,152.7,101.9z"/>
	
		<linearGradient id="XMLID_4_" gradientUnits="userSpaceOnUse" x1="86.8727" y1="105.1284" x2="44.4639" y2="131.6129" gradientTransform="matrix(1 0 0 -1 0 205.6)">
		<stop  offset="0" style="stop-color:#7C59A4"/>
		<stop  offset="0.3852" style="stop-color:#AF4C92"/>
		<stop  offset="0.7654" style="stop-color:#DC4183"/>
		<stop  offset="0.957" style="stop-color:#ED3D7D"/>
	</linearGradient>
	<path id="XMLID_3042_" class="st2" d="M91,96.3c-0.1,0-39.4-31-40.2-31.5l0,0l0,0c-0.6-0.3-1.2-0.6-1.8-0.9
		c-5.8-2.2-12.2,0.8-14.4,6.6c-1.9,5.1,0.2,10.7,4.6,13.4l0,0l0,0c0.7,0.4,1.3,0.7,2,0.9c0.4,0.2,45.4,18.8,45.4,18.8l0,0
		c1.8,0.8,3.9,0.3,5.1-1.2C93.2,100.5,92.9,97.8,91,96.3z"/>
	
		<linearGradient id="XMLID_5_" gradientUnits="userSpaceOnUse" x1="86.105" y1="165.1149" x2="44.702" y2="130.9197" gradientTransform="matrix(1 0 0 -1 0 205.6)">
		<stop  offset="0" style="stop-color:#EF5A6B"/>
		<stop  offset="0.364" style="stop-color:#EE4E72"/>
		<stop  offset="1" style="stop-color:#ED3D7D"/>
	</linearGradient>
	<path id="XMLID_3057_" class="st3" d="M83.2,36.8c-1.7,0-3.3,0.6-4.6,1.5L38.8,65.1c-0.1,0.1-0.2,0.1-0.2,0.2h-0.1l0,0
		c-1.7,1.2-3.1,3-3.9,5.1c-2.2,5.8,0.8,12.3,6.6,14.4c3.6,1.4,7.5,0.7,10.4-1.4l0,0l0,0c0.7-0.5,1.3-1,1.8-1.6L88,50.6l0,0
		c1.8-1.4,3-3.6,3-6.1l0,0C91,40.3,87.5,36.8,83.2,36.8z"/>
	<g id="XMLID_3008_">
		<rect id="XMLID_3033_" x="68.5" y="74.2" width="51" height="51"/>
		<rect id="XMLID_3032_" x="72.9" y="115.6" class="st4" width="19.1" height="3.2"/>
		<g id="XMLID_3009_">
			<path id="XMLID_3030_" class="st4" d="M72.7,87.6l1.5-1.4c0.4,0.5,0.8,0.8,1.3,0.8c0.6,0,0.9-0.4,0.9-1.2v-5.3h2.3v5.3
				c0,1-0.3,1.8-0.8,2.3s-1.3,0.8-2.3,0.8C74.1,89,73.3,88.4,72.7,87.6z"/>
			<path id="XMLID_3028_" class="st4" d="M79.2,80.6h6.7v1.9h-4.4v1.3h4v1.8h-4v1.3H86v2h-6.7L79.2,80.6z"/>
			<path id="XMLID_3026_" class="st4" d="M88.9,82.6h-2.5v-2h7.3v2h-2.5v6.3h-2.3V82.6z"/>
			<path id="XMLID_3022_" class="st4" d="M72.9,90.8h4.3c1,0,1.8,0.3,2.3,0.7c0.3,0.3,0.5,0.8,0.5,1.4l0,0c0,1-0.5,1.5-1.3,1.9
				c1,0.3,1.6,0.9,1.6,2l0,0c0,1.4-1.2,2.3-3.1,2.3h-4.3V90.8z M77.7,93.4c0-0.5-0.4-0.7-1-0.7h-1.5v1.5h1.4
				C77.3,94.1,77.7,93.9,77.7,93.4L77.7,93.4z M76.9,95.8h-1.8v1.5h1.8c0.7,0,1.1-0.3,1.1-0.8l0,0C78,96,77.6,95.8,76.9,95.8z"/>
			<path id="XMLID_3019_" class="st4" d="M80.7,90.8h3.9c1.3,0,2.1,0.3,2.7,0.9c0.5,0.5,0.7,1.1,0.7,1.9l0,0c0,1.3-0.7,2.1-1.7,2.6
				l2,2.9h-2.6L84,96.6h-1v2.5h-2.3L80.7,90.8z M84.5,94.8c0.8,0,1.2-0.4,1.2-1l0,0c0-0.7-0.5-1-1.2-1H83v2H84.5z"/>
			<path id="XMLID_3016_" class="st4" d="M90.7,90.8h2.2l3.5,8.4h-2.5l-0.6-1.5h-3.2l-0.6,1.5h-2.4L90.7,90.8z M92.7,95.8l-0.9-2.3
				l-0.9,2.3H92.7z"/>
			<path id="XMLID_3014_" class="st4" d="M96.7,90.8H99v8.3h-2.3V90.8z"/>
			<path id="XMLID_3012_" class="st4" d="M99.6,90.8h2.1l3.4,4.4v-4.4h2.3v8.3h-2l-3.5-4.5v4.6h-2.3V90.8z"/>
			<path id="XMLID_3010_" class="st4" d="M107.6,97.9l1.3-1.5c0.8,0.7,1.7,1,2.7,1c0.6,0,1-0.2,1-0.6l0,0c0-0.4-0.3-0.5-1.4-0.8
				c-1.8-0.4-3.1-0.9-3.1-2.6l0,0c0-1.5,1.2-2.7,3.2-2.7c1.4,0,2.5,0.4,3.4,1.1l-1.2,1.6c-0.8-0.5-1.6-0.8-2.3-0.8
				c-0.6,0-0.8,0.2-0.8,0.5l0,0c0,0.4,0.3,0.5,1.4,0.8c1.9,0.4,3.1,1,3.1,2.6l0,0c0,1.7-1.3,2.7-3.4,2.7
				C110,99.3,108.6,98.8,107.6,97.9z"/>
		</g>
	</g>
</g>
<rect x="15" y="16.3" class="st5" width="157.9" height="171.2"/>
</svg>
