<svg id="jetbrains-simple" xmlns="http://www.w3.org/2000/svg" viewBox="0 0 700 700"><defs><style>.cls-1{fill:#fff;}</style></defs><path d="M0,0H700V700H0Z"/><path class="cls-1" d="M60.4,568.8H322.9v43.7H60.4Z"/><path class="cls-1" d="M57.4,184.3l20.4-19.2c5.5,6.7,10.8,10.6,17.9,10.6s12.9-5.4,12.9-16V87.5h31.5v72.4c0,14.3-3.6,24.4-11.3,32.1s-18.2,11.5-31.3,11.5C77.6,203.5,65.6,195.2,57.4,184.3Z"/><path class="cls-1" d="M147.4,87.5h91.8v26.7H178.7v17.5h54.8v24.9H178.7v18.1H240v26.9H147.4Z"/><path class="cls-1" d="M280.5,115.2H246.4V87.5h99.9v27.7H312.1v86.4H280.5Z"/><path class="cls-1" d="M139.7,282.7c10.1-4.4,17.6-12.2,17.6-25.4v-.4a25.1,25.1,0,0,0-7.3-18.5c-6.7-6.6-16.8-10.1-31.1-10.1H60.4V342.4h58.8c27.2,0,43.2-11.9,43.2-31.5v-.3C162.4,295.1,153.6,287.3,139.7,282.7Zm-48.5-29h20.7c9.3,0,14.3,3.4,14.3,9.8v.3c0,6.7-5.5,9.9-15.1,9.9H91.2v-20Zm39.6,52.8c0,6.7-5.4,10.4-15.2,10.4H91.2v-21h24.1c10.6,0,15.5,4.1,15.5,10.3v.3Z"/><path class="cls-1" d="M335.8,227.4H305.3L262.7,328.6l-17.8-26c14.1-6.1,23.4-17.6,23.4-35.2V267c0-11.2-3.4-19.8-10.1-26.5s-19.7-12.2-37.1-12.2h-54V342.4h31.6V307.8h14.1l22.9,34.6H290l8.1-20.6h44.2l8.2,20.6h33.9Zm-99.1,42.1c0,8.3-6.4,13.5-16.9,13.5H198.7V255.5h20.9c10.4,0,17.1,4.5,17.1,13.7v.3Zm70.7,27.7,12.9-32.3L333,297.2Z"/><path class="cls-1" d="M388.1,228.3h31.6V342.4H388.1Z"/><path class="cls-1" d="M427.6,228.3h29.5L504,288.6V228.3h31.3V342.4H507.8l-48.9-62.6v62.6H427.6Z"/><path class="cls-1" d="M537.3,325.4l17.6-21c11.4,8.9,23.8,13.7,37,13.7,8.6,0,13.2-3,13.2-7.9v-.3c0-4.9-3.8-7.3-19.4-11.1-24.3-5.5-43.1-12.4-43.1-35.7v-.3c0-21.2,16.8-36.5,44.2-36.5,19.4,0,34.6,5.2,47,15.2L618,263.8c-10.5-7.5-21.9-11.3-32-11.3-7.6,0-11.4,3.1-11.4,7.4v.3c0,5.2,3.9,7.5,19.9,11.1,26.1,5.7,42.4,14.2,42.4,35.5v.3c0,23.3-18.5,37.2-46.2,37.2C570.5,344.3,551.5,338,537.3,325.4Z"/></svg>