<svg xmlns="http://www.w3.org/2000/svg" width="299.8" height="68.1" viewBox="0 0 299.8 68.1"><path d="M390.1,509c6.8-4.9,12.5-3.2,15.3,4.8,3.7,10.5,7.3,21,11.4,32.6,2.9-8.6,5.5-16.2,8.1-23.7,1.2-3.5,2.2-7,3.5-10.5s4.9-6.5,10.6-5.6,4.8,4.2,4.8,7.9v37.4c0,2.4-.1,5.1-2.7,5.8s-5.3,1.3-7.1-1.7c-1-8.4-.1-16.8-.5-25.1,0-1.3,1.2-3.3-1.3-3.8-3.1,8.4-6.2,16.7-9.1,25.1-1.1,3.1-2.7,5.4-6.2,5.5s-5.6-2.2-6.7-5.4c-3.1-8.2-6.2-16.4-10.1-24.5,0,7.5-.4,15,.1,22.4s-1.7,9.8-10.1,6.8Z" transform="translate(-390.1 -506.1)" fill="#5e2f7d"/><path d="M689.9,557c-7.7,2.8-10,1.3-10-6.8,0-5,.1-9.9,0-14.9s-.1-7.2-5.1-7.5-8.2,2.2-8.7,7a89.8,89.8,0,0,0-.2,10.4,62.6,62.6,0,0,0,0,7.5c.2,3.8-1.5,5.5-5.3,5.5s-5-1.7-5-5.2q.1-20.7,0-41.4c-.1-3.8,1.5-5.6,5.3-5.5s5.2,2,5,5.7,0,7,0,11.1c4.3-3.2,8.5-4.9,13.7-4.2s7.9,4.2,10.3,8.3Z" transform="translate(-390.1 -506.1)" fill="#5e2f7d"/><path d="M615.2,547.2a23.9,23.9,0,0,1-45.8,9.7c-1.4-3.3-2-4.1-5.6-2-11.9,7.1-26.6,2.4-33.2-10s-1-26.7,11.3-32.5a23.6,23.6,0,0,1,32.1,12c1.4,3.4,2.1,3.8,5.4,1.9A23.8,23.8,0,0,1,615.2,547.2Z" transform="translate(-390.1 -506.1)" fill="#26b57c"/><path d="M513.7,554.1c-4.5,2.8-9.2,4.7-14.6,3.1a14.8,14.8,0,0,1-9-6.6c-4.5-7-4.1-19.3.9-26s13-7.6,19.3-4.2c1.9,1,2.8,2.3,5.1-.1s8.9-.7,8.9,4.2c.1,11.9.8,23.9-.5,35.9-.8,6.7-4.6,11.3-11.4,12.8s-11.9,1.3-17.7-.9c-3.3-1.2-5-3.5-3.5-6.9s4.3-3.1,7.2-1.6l2.2,1C509.1,567.9,514.6,563.6,513.7,554.1Z" transform="translate(-390.1 -506.1)" fill="#5e2f7d"/><path d="M482.2,542.1c0,3.5.1,7,0,10.5,0,5.4-3.5,7.6-8.1,4.5-2.6-1.7-4-1.1-6.2-.1-5.1,2.4-10.4,2.5-15.2-.7s-4.7-6.4-4.3-10.6,3.8-8.1,8.5-9.3,7.8-1.4,11.7-2.2c1.5-.3,3.8.8,4-1.8a4.7,4.7,0,0,0-3.5-5,10.7,10.7,0,0,0-9,1.3c-5.6,3.3-8.3,3.2-9.7-.1s1.1-6.4,6-8.3a28.1,28.1,0,0,1,17.2-.9c5.4,1.3,8.2,4.7,8.5,10.3.3,4.1.1,8.3.1,12.4Z" transform="translate(-390.1 -506.1)" fill="#5e2f7d"/><path d="M634,559.1a26.4,26.4,0,0,1-12-2.8c-3.3-1.6-4.4-4.1-2.5-7.3s4.3-2.7,6.9-1,6,3.4,9.8,2.9c2.1-.3,3.8-1.1,3.9-3.6s-1.4-3.2-3.4-3.6-5.9-1-8.8-1.8c-5.7-1.5-8.6-4.9-8.9-9.9s2.3-10.1,8.2-12.1a24,24,0,0,1,18.4.8c3.1,1.5,5.7,3.5,3.6,7.3s-4.7,2.1-7.3.7a12.8,12.8,0,0,0-8.5-1.9c-1.9.2-3.9.5-4.2,2.8s1.5,3.1,3.4,3.6l7.3,1.6c7.9,2,11.1,5.5,10.9,12S647,557,639.5,558.5A51.4,51.4,0,0,1,634,559.1Z" transform="translate(-390.1 -506.1)" fill="#5e2f7d"/><path d="M432.2,527.1c0-1-.1-2,1.8-2.5V556c-2-3.2-.7-6.7-1-10.1C432.5,539.7,434,533.3,432.2,527.1Z" transform="translate(-390.1 -506.1)" fill="#a68cb7"/><path d="M538.5,530.1a13.6,13.6,0,0,1,5.9,5.2c2.5,3.3,4.8,3.9,7.9.3s7.6-7.4,11.1-11.3,4.3-1.9,6.3,0,1.4,4-.5,5.9c-5.8,5.7-11.5,11.4-17.2,17.3-2.1,2.2-4.1,2.5-6.3.4l-10.6-10.5c-1.2-1.2-1.9-2.5-.6-3.9S536.5,530.5,538.5,530.1Z" transform="translate(-390.1 -506.1)" fill="#fbfdfc"/><path d="M610.2,540.3c-.6.7-1.2,1.5-1.9,2.2-5.9,6-11.9,12-17.7,18.1-1.9,2-3.3,2.7-5.5.3s-7.2-6.8-10.8-10.3-1.4-4,.5-5.9,3.7-1.7,5.3.4,4.8,3.2,6.4,6,2,0,2.9-.9l13-13.1c1.2-1.2,2.6-2.4,4.2-1S609.7,538.2,610.2,540.3Z" transform="translate(-390.1 -506.1)" fill="#fbfdfc"/><path d="M497.9,538.2c-.1-6.7,3.2-10.9,8.3-10.7s8.2,4.2,8.2,10.9-3.4,10.6-8.6,10.5S497.9,544.7,497.9,538.2Z" transform="translate(-390.1 -506.1)" fill="#fdfdfd"/><path d="M463.7,550.3c-2.5.1-5-.4-5.4-3.3s1.7-4.2,4.1-4.9a13.2,13.2,0,0,1,4.8-.9c1.8,0,4.4-1.8,5.3.8s-.6,4.9-2.7,6.5A10.4,10.4,0,0,1,463.7,550.3Z" transform="translate(-390.1 -506.1)" fill="#fcfbfc"/></svg>