<svg id="Layer_1" data-name="Layer 1" xmlns="http://www.w3.org/2000/svg" viewBox="0 0 152.8 34.2"><defs><style>.cls-1{fill:#fff;}.cls-2{fill:#27b67c;}</style></defs><path class="cls-1" d="M22.2,8.3,16.3,24.6A2.6,2.6,0,0,1,15.2,26a3.1,3.1,0,0,1-1.7.4,3.4,3.4,0,0,1-2-.5,4,4,0,0,1-1-1.5L5,9.6v15a2.5,2.5,0,0,1-.5,1.5,2.7,2.7,0,0,1-2,.6,2.9,2.9,0,0,1-1.9-.5A2.4,2.4,0,0,1,0,24.5V3A2.3,2.3,0,0,1,.9,1,4.6,4.6,0,0,1,3.4.4,4.4,4.4,0,0,1,5.9,1,3,3,0,0,1,7.1,2.7L13.6,21,19.7,3a3.8,3.8,0,0,1,1.4-2A5.4,5.4,0,0,1,23.8.4a4.6,4.6,0,0,1,2.5.6,2,2,0,0,1,.9,1.8V24.6a2.5,2.5,0,0,1-.5,1.5,2.7,2.7,0,0,1-2,.6,2.5,2.5,0,0,1-1.9-.6,2.2,2.2,0,0,1-.6-1.7ZM46.9,24.6a2.5,2.5,0,0,1-.5,1.6,3,3,0,0,1-1.8.5,3.5,3.5,0,0,1-1.8-.5,1.9,1.9,0,0,1-.7-1.6v-.7l-.9,1a5,5,0,0,1-1.2.9l-1.7.7a7.3,7.3,0,0,1-2.2.3,6.5,6.5,0,0,1-4.6-1.5,5.3,5.3,0,0,1-1.7-4.1,6.2,6.2,0,0,1,.5-2.5A3.9,3.9,0,0,1,31.7,17a7.8,7.8,0,0,1,2-1.1,10.2,10.2,0,0,1,2.5-.6l2.8-.4,3.1-.3v-.7a4.1,4.1,0,0,0-.1-1.1,3.1,3.1,0,0,0-.5-1,2.6,2.6,0,0,0-1-.7,3.5,3.5,0,0,0-1.6-.3H37.8l-1,.2-1,.5-1.1.7-.9.6-1.1.2a1.8,1.8,0,0,1-1.5-.7,2.4,2.4,0,0,1-.7-1.6A3,3,0,0,1,31,9.4a4.3,4.3,0,0,1,1.6-1.3,12.5,12.5,0,0,1,6.2-1.4c2.9,0,4.9.6,6.2,1.7s1.9,2.9,1.9,5.2Zm-4.8-7-2.7.3-1.9.3a3.3,3.3,0,0,0-2.3,1.1,2.2,2.2,0,0,0,.1,2.9,2.8,2.8,0,0,0,2,.5,5.7,5.7,0,0,0,3.6-1.1,3.5,3.5,0,0,0,1.3-2.7V17.6Zm26.1,7.6a13.5,13.5,0,0,1-.6,4.3,6.5,6.5,0,0,1-1.8,2.9,7.4,7.4,0,0,1-3,1.7,12.5,12.5,0,0,1-4,.5,16.3,16.3,0,0,1-4.3-.5,10.4,10.4,0,0,1-2.3-1,2,2,0,0,1-.9-1.7,2.7,2.7,0,0,1,.6-1.7,1.9,1.9,0,0,1,1.6-.8l1,.2,1,.5,1.3.5a5.9,5.9,0,0,0,2,.2A4.2,4.2,0,0,0,62,29.1a4.5,4.5,0,0,0,1.2-3.4V23.6a7.4,7.4,0,0,1-2.1,1.7,7.1,7.1,0,0,1-3.4.8,7.4,7.4,0,0,1-3.4-.7,7.3,7.3,0,0,1-2.6-2,7.6,7.6,0,0,1-1.6-3.1,12.5,12.5,0,0,1-.6-4,13.1,13.1,0,0,1,.6-4.1,9.2,9.2,0,0,1,1.7-3.1,7.3,7.3,0,0,1,2.6-2,7.7,7.7,0,0,1,3.4-.7,6,6,0,0,1,2,.3,5.2,5.2,0,0,1,1.5.7,4.8,4.8,0,0,1,1.1.9l.8.9V8.6a1.4,1.4,0,0,1,.7-1.3,4.3,4.3,0,0,1,1.7-.4,2.8,2.8,0,0,1,2,.6,2.3,2.3,0,0,1,.6,1.6Zm-4.8-8.6a7.3,7.3,0,0,0-1.1-4.1A3.8,3.8,0,0,0,59,10.9a3.6,3.6,0,0,0-3.1,1.5,7,7,0,0,0-1.1,4,6.8,6.8,0,0,0,1.1,4,3.4,3.4,0,0,0,3,1.5,3.9,3.9,0,0,0,3.3-1.4A6,6,0,0,0,63.4,16.6Zm69.3,4.2a5.4,5.4,0,0,1-2.3,4.7,11.1,11.1,0,0,1-6.2,1.6,16.2,16.2,0,0,1-4-.5,8.1,8.1,0,0,1-2.8-1.3,1.8,1.8,0,0,1-.7-.8,1.3,1.3,0,0,1-.2-.8,2.3,2.3,0,0,1,.4-1.4,2.4,2.4,0,0,1,.8-.9,2.1,2.1,0,0,1,1.1-.4,2.3,2.3,0,0,1,1.1.3l1.2.8,1.5.8a6.9,6.9,0,0,0,2.2.3,4.4,4.4,0,0,0,2.3-.5,1.5,1.5,0,0,0,.7-1.4,1.8,1.8,0,0,0-.5-1.2c-.3-.4-1-.6-2.1-.8l-2.2-.4a9.1,9.1,0,0,1-2.5-.7,9.5,9.5,0,0,1-2-1.1,5.5,5.5,0,0,1-1.3-1.7,6.1,6.1,0,0,1-.4-2.4,5.3,5.3,0,0,1,.6-2.6,6.5,6.5,0,0,1,1.7-2,8.9,8.9,0,0,1,2.6-1.2,11.5,11.5,0,0,1,3.3-.4,12.5,12.5,0,0,1,4.2.6,8.8,8.8,0,0,1,2.4,1.2l.7.8a2.4,2.4,0,0,1,.2.8,2.5,2.5,0,0,1-.5,1.5l-.6.6-.8.2-.8-.2-.7-.4-1.9-1a7.5,7.5,0,0,0-2.4-.4,3.6,3.6,0,0,0-2.1.5,1.3,1.3,0,0,0-.7,1.2,2.1,2.1,0,0,0,.5,1.2,4.8,4.8,0,0,0,2.2.8l2,.4a9.8,9.8,0,0,1,4.9,2,8.1,8.1,0,0,1,1.1,4.2ZM146,6.6a7.3,7.3,0,0,1,3.2.6A6.3,6.3,0,0,1,151.4,9a7,7,0,0,1,1.2,2.8c.1,1,.2,2,.2,2.9v9.9a2.1,2.1,0,0,1-.6,1.6,3.3,3.3,0,0,1-1.9.5,3.2,3.2,0,0,1-1.8-.5,1.7,1.7,0,0,1-.7-1.6V14.8a7,7,0,0,0-.3-2.4,1.9,1.9,0,0,0-1-1,4.3,4.3,0,0,0-1.7-.3,4.7,4.7,0,0,0-1.7.3,3.5,3.5,0,0,0-1.2.7,2.3,2.3,0,0,0-.7,1,10.4,10.4,0,0,1-.4,1,6.8,6.8,0,0,0-.2,1.5v8.9a2.2,2.2,0,0,1-.6,1.7,3.4,3.4,0,0,1-2,.5,3,3,0,0,1-1.8-.5,2,2,0,0,1-.7-1.6V2.4a1.8,1.8,0,0,1,.6-1.5,2.8,2.8,0,0,1,2-.5h.9l.8.3.6.6a3.1,3.1,0,0,1,.2,1.1V9.4a7,7,0,0,1,2.2-1.9A5.1,5.1,0,0,1,146,6.6Z" transform="translate(0 -0.4)"/><path class="cls-2" d="M102.5,8.9A12.4,12.4,0,0,0,94.4,12,12.1,12.1,0,1,0,82.5,26.5a12.4,12.4,0,0,0,8.1-3.1A12.1,12.1,0,1,0,102.5,8.9ZM92.1,11.1l-11,11.2h-.5l-7.4-7.1a.4.4,0,0,1,0-.5l2-2.1h.5l4.9,4.6c.1.1.2.1.2,0l8.6-8.5h.5l2.2,2C92.2,10.7,92.2,10.9,92.1,11.1Zm9,17.8a.4.4,0,0,1-.5,0l-7.4-7.1a.4.4,0,0,1,0-.5l2-2.1h.5l4.9,4.6h.2l8.6-8.5a.4.4,0,0,1,.5,0l2.2,2a.4.4,0,0,1,0,.5Z" transform="translate(0 -0.4)"/><path class="cls-1" d="M92.4,10.7l-11,11.2a.4.4,0,0,1-.5,0l-7.4-7.1a.4.4,0,0,1,0-.5l2-2.1H76l4.9,4.6h.2l8.6-8.5a.4.4,0,0,1,.5,0l2.2,2A.3.3,0,0,1,92.4,10.7Zm9,17.8a.4.4,0,0,1-.5,0l-7.4-7.1a.4.4,0,0,1,0-.5l2-2.1a.4.4,0,0,1,.5,0l4.9,4.6c.1.1.2.1.2,0l8.6-8.5h.5l2.2,2a.4.4,0,0,1,0,.5Z" transform="translate(0 -0.4)"/></svg>