<?xml version="1.0" encoding="utf-8"?>
<!-- Generator: Adobe Illustrator 25.0.0, SVG Export Plug-In . SVG Version: 6.00 Build 0)  -->
<svg version="1.1" id="Layer_1" xmlns="http://www.w3.org/2000/svg" xmlns:xlink="http://www.w3.org/1999/xlink" x="0px" y="0px"
	 viewBox="0 0 1080 1080" style="enable-background:new 0 0 1080 1080;" xml:space="preserve">
<style type="text/css">
	.st0{fill-rule:evenodd;clip-rule:evenodd;fill:#2BBDF7;}
	.st1{fill-rule:evenodd;clip-rule:evenodd;fill:#2891F9;}
	.st2{fill-rule:evenodd;clip-rule:evenodd;fill:#2B6DEF;}
</style>
<g>
	<path class="st0" d="M450.4,486.9L540,685.7l133.4-76.9l0.1,0V454.8L450.4,486.9z"/>
	<path class="st1" d="M845.7,339.4l-83.3-31.4l-89-7.2v478.3L807,856.1l105.4-215.6L845.9,432L845.7,339.4z"/>
	<path class="st0" d="M837.9,300.9L807,377.8h0V856l133.5-76.9V300.9H837.9z"/>
	<path class="st2" d="M807,223.9l-133.5,77l133.5,77l133.5-77L807,223.9z"/>
	<path class="st1" d="M540,531.7L540,531.7L406.6,382.3l-267-81.4v478.2L273,856l38.1-264.6l95.4,17.3v-0.1l133.5,76.9L540,531.7
		L540,531.7z"/>
	<path class="st2" d="M273.1,223.9l-133.5,77L540,531.8l60.5-34.9l73-42.1L273.1,223.9z"/>
	<path class="st0" d="M273.1,531.7L273.1,531.7l0,324.3l133.5-76.9V608.7L273.1,531.7z"/>
</g>
</svg>
