<svg id="Layer_1" data-name="Layer 1" xmlns="http://www.w3.org/2000/svg" viewBox="0 0 238 52.5"><defs><style>.cls-1{fill:#0092ff;}.cls-2{fill:#fff;}</style></defs><path class="cls-1" d="M79.5,30.3a2,2,0,0,0,.1.7c.1.3,0,.4,0,.6a9.4,9.4,0,0,1-.5,3,8.9,8.9,0,0,1-1.5,2.7,13.4,13.4,0,0,1-2,2.1A16.4,16.4,0,0,1,73,41a11.1,11.1,0,0,1-2.9,1,15.5,15.5,0,0,1-3.1.3H60.1l-1.5.5c-.4-1.4-.9-2.6-1.3-3.8a17,17,0,0,0-1.2-3c-.4-.9-.8-1.8-1.2-2.5a23.9,23.9,0,0,0,3.7,1.5,27.3,27.3,0,0,0,3.4.8l3,.4h4.3l2-.4-.5-.6-.5-.4-.5-.3L68.6,34l-1.7-.4-2.1-.5-2.1-.7-2-.9L59,30.4a5.2,5.2,0,0,1-1-1.1,3.4,3.4,0,0,1-.6-1.2,5.3,5.3,0,0,1-.3-1.2,4.9,4.9,0,0,1-.1-1.2l-1,.4-.8.3-.2.2a16.8,16.8,0,0,1,1.5-3,23.4,23.4,0,0,1,2.3-2.2,22.6,22.6,0,0,1,2.6-1.6,14.8,14.8,0,0,1,2.7-1,31,31,0,0,1,7-1.1h2.5l2.6-.2,3.1-.5a8,8,0,0,0-.8,1.6,10.9,10.9,0,0,0-.5,1.7,9.9,9.9,0,0,0-.2,1.7c0,.6-.1,1.1-.1,1.5V25a1.3,1.3,0,0,0,.1.6,23.2,23.2,0,0,0-5.3-1.7,28.1,28.1,0,0,0-4.9-.5h-3a2.3,2.3,0,0,0,.6,1.2l.9.8,1.1.5,2.5.9,2.7,1.3a15.9,15.9,0,0,1,2.7,1.8,12.6,12.6,0,0,1,2.2,2.4,5.7,5.7,0,0,0,1.1-1.1A2.3,2.3,0,0,0,79.5,30.3Zm29.8,3.3-1.4.7-1.4.8a30.7,30.7,0,0,0,1.7,3.1l2,2.9a24.6,24.6,0,0,0-4.9.5,20.2,20.2,0,0,0-4.5,1.6c.1-.3.1-.5.2-.9v-1a15,15,0,0,0-.2-2c-.1-.7-.3-1.5-.5-2.3l-1.6.2H97l-2.6-.2a9.5,9.5,0,0,1-2.4-.7,27.4,27.4,0,0,0-.5,2.8c-.2,1-.3,1.9-.5,3l-1.7-.8-2-.5a9.7,9.7,0,0,0-2.5-.2l-2.3.2a13.6,13.6,0,0,0-2.5.7L82.2,39l1.9-2.5c.6-.8,1-1.6,1.5-2.3a22,22,0,0,1,1.2-1.9,3.8,3.8,0,0,1-.9-1.3l-.7-1.5,1.2.6,1.3.5c.5-1.1,1.1-2.2,1.7-3.3a32.1,32.1,0,0,1,1.9-3.1L90.8,23c-.2-.4-.4-1-.7-1.5a10,10,0,0,0-.8-1.4l-.8-1.3,3.1.7a16.6,16.6,0,0,0,3.2.3l1.8-1.6,2.1-1.3L98,18.3a10,10,0,0,1-.8,1.4l1.9-.2,1.8-.3c.4,1.7.9,3.5,1.4,5.2s1.1,3.3,1.7,4.9l1.5-.9,1.5-1.1a33.8,33.8,0,0,0,1.1,3.4,9.3,9.3,0,0,0,1.3,2.9Zm-11-2.1c-.9-2.2-2-4.4-3.2-6.8-.4,1.1-.7,2.3-1.1,3.5s-.7,2.4-1,3.6h3.5A4,4,0,0,0,98.3,31.5Zm38.8-1.2a2,2,0,0,0,.1.7v.6a9.4,9.4,0,0,1-.5,3,8.7,8.7,0,0,1-1.4,2.7,13.4,13.4,0,0,1-2,2.1,16.4,16.4,0,0,1-2.6,1.6,17.6,17.6,0,0,1-3,1,15.3,15.3,0,0,1-3,.3h-7l-1.5.5c-.4-1.4-.8-2.6-1.2-3.8a28.5,28.5,0,0,0-1.2-2.9,21.7,21.7,0,0,0-1.2-2.6,27.5,27.5,0,0,0,3.6,1.5l3.5.9,3,.4h4.2l2-.4-.5-.7-.5-.4-.5-.3-1.2-.4-1.7-.4-2-.5-2.1-.7-2-.9-1.8-1.1a5.2,5.2,0,0,1-1-1.1,3.4,3.4,0,0,1-.6-1.2,5.3,5.3,0,0,1-.3-1.2,4.9,4.9,0,0,1-.1-1.2l-1,.4-.7.3-.6.3a14,14,0,0,1,1.5-3,15.2,15.2,0,0,1,2.2-2.2,22.6,22.6,0,0,1,2.6-1.6,19,19,0,0,1,2.8-1,29.3,29.3,0,0,1,6.9-1.1h2.6l2.6-.2,3-.5a8,8,0,0,0-.8,1.6,10.9,10.9,0,0,0-.5,1.7A9.9,9.9,0,0,0,135,22c0,.7-.1,1.2-.1,1.6v1.5a1.3,1.3,0,0,0,.1.6,22.5,22.5,0,0,0-5.2-1.7,30.2,30.2,0,0,0-5-.5h-3a2.3,2.3,0,0,0,.6,1.2l.9.8,1.1.5,2.5.9a14.3,14.3,0,0,1,2.8,1.3,15.1,15.1,0,0,1,2.6,1.8,12.6,12.6,0,0,1,2.2,2.4,5.7,5.7,0,0,0,1.1-1.1,2.7,2.7,0,0,0,1.5-1.2Zm12.7,11.1a10,10,0,0,0-2.4-.4h-4.8l-2.5.4a38.1,38.1,0,0,0,2-6.8,32.6,32.6,0,0,0,.7-7,34,34,0,0,0-.3-4.5c-.2-1.5-.5-3-.8-4.5l2,.5,1.9.4,2,.3h2.2c.1,1.6.1,3.3.1,4.9s.1,3.3.1,4.9l2.9-.3,2.9-.4c.1-1.9.3-3.7.6-5.7a55.4,55.4,0,0,1,1.1-5.6l1.8.6,1.6.4,1.7.2h2.8a36.9,36.9,0,0,0-1.7,4.2,24.6,24.6,0,0,0-.9,4.4l1.6-.4,1.6-.4a14.9,14.9,0,0,0-.2,2.1c0,.7-.1,1.4-.1,2.1a17,17,0,0,0,.1,2.2c.1.9.1,1.5.2,2.3h-3.1a27.4,27.4,0,0,0,.5,2.8c.2.9.5,1.9.8,2.8h-3.6l-1.5.2-1.5.3-1.5.4-.3-3.9c-.1-1.3-.1-2.6-.1-4l-3-.8-2.8-1c0,1.5,0,3.1-.1,4.7s0,3,0,4.6ZM179.1,18c-.3,2.1-.6,4.2-.7,6.4s-.3,4.4-.3,6.6,0,3.3.1,4.9.2,3.3.4,4.9h-2.4l-2.8.2-3,.5c.3-1.8.6-3.6.8-5.5a51.2,51.2,0,0,0,.3-5.6c0-1.6-.1-3.3-.2-5s-.4-3.2-.7-4.8l2.1-.3,2.2-.5L177,19a10.2,10.2,0,0,1,2.1-1Zm29.5,10.2a10.2,10.2,0,0,1-.2,3.5,12.7,12.7,0,0,1-1.3,3.2,10.6,10.6,0,0,1-2.2,2.9A15.8,15.8,0,0,1,202,40a17,17,0,0,1-3.5,1.4,15,15,0,0,1-3.7.5l-2.6-.3a9,9,0,0,1-2.7-1.1l-2.8.5a17.1,17.1,0,0,0-3,.9,56,56,0,0,0,2.1-8.3,46,46,0,0,0,.8-8.4,3.4,3.4,0,0,0-1.1.7l-1.1.7c0-.3.1-.5.1-.8v-.9a13.4,13.4,0,0,0-.5-3.5,13,13,0,0,0-1.6-3.1l1.3-.3,1.6-.3,1.8-.2,1.8-.2h3a18.7,18.7,0,0,1,4.2.4,18.9,18.9,0,0,1,3.6,1,15.1,15.1,0,0,1,3.1,1.6,8.8,8.8,0,0,1,2.2,2.1,9.4,9.4,0,0,1,1.4,2.6,8.6,8.6,0,0,1,.5,2.7v1l.7-.2,1-.2Zm-7,1.2a8.9,8.9,0,0,0-.8-1.7l-1.2-1.3a6,6,0,0,0-1.5-.9l-1.6-.7-1.6-.4-1.5-.2c-.1,2.6-.1,5-.1,7.5s0,4.5.1,6.8a13.9,13.9,0,0,0,2.8-1.2,6.7,6.7,0,0,0,2.2-1.9,8.7,8.7,0,0,0,1.4-2.7,8.3,8.3,0,0,0,.3-3.2h1.5Zm31.6-10.8-1.1,1.1-1,1.2a11.5,11.5,0,0,1,3.1,1.1,9.2,9.2,0,0,1,2.5,1.9,10,10,0,0,1,1.7,2.8,9,9,0,0,1,.6,3.4,11.6,11.6,0,0,1-.6,3.8,11.7,11.7,0,0,1-1.7,3.1,10.3,10.3,0,0,1-2.7,2.3,19.1,19.1,0,0,1-3.2,1.6,22.2,22.2,0,0,1-3.7.9,26.9,26.9,0,0,1-4,.3h-2.8l-1.3-.2a2.9,2.9,0,0,1-1-.3l1-.9.8-.9a9.6,9.6,0,0,1-3-1,11,11,0,0,1-2.5-1.7,6.1,6.1,0,0,1-1.8-2.6,8.8,8.8,0,0,1-.6-3.3,10.2,10.2,0,0,1,.7-4,11.1,11.1,0,0,1,2.1-3.2,13.7,13.7,0,0,1,2.9-2.4,14.6,14.6,0,0,1,3.6-1.6,27.1,27.1,0,0,1,4.1-.9,29.7,29.7,0,0,1,4.2-.3h1.8A6.1,6.1,0,0,1,233.2,18.6ZM232,28.7a7.8,7.8,0,0,0-.2-1.6,3.1,3.1,0,0,0-.6-1.3l-.9-1-1.1-.8a5.6,5.6,0,0,0-.4,1.2,4.9,4.9,0,0,1-.4,1.1l-1.6-.4h-1.4a6.2,6.2,0,0,0-2.3.4,6.5,6.5,0,0,0-3.7,3,4.8,4.8,0,0,0-.6,2.4,5.1,5.1,0,0,0,.2,1.3,3.4,3.4,0,0,0,.6,1.2,3.1,3.1,0,0,0,.9,1.1,3.5,3.5,0,0,0,1.1,1,5,5,0,0,0,.3-1.3,5.7,5.7,0,0,0,.1-1.3,12.1,12.1,0,0,0,2,.7l1.7.2a5.9,5.9,0,0,0,2.3-.4,8.2,8.2,0,0,0,2-1.2,4.5,4.5,0,0,0,1.4-1.9,3.3,3.3,0,0,0,.6-2.3Z" transform="translate(-1 -3.8)"/><path class="cls-2" d="M22.9,25.8c-7.4,0-13.4,3.8-13.4-3.7s6-12.5,13.4-12.5,13.4,5.1,13.4,12.5S30.4,25.8,22.9,25.8Z" transform="translate(-1 -3.8)"/><path class="cls-1" d="M25.6,7c0-1.5-1.2-3.2-2.7-3.2S20.2,5.5,20.2,7M23,56.2a7.5,7.5,0,0,0,7-5.3H15.9A7.8,7.8,0,0,0,23,56.2Z" transform="translate(-1 -3.8)"/><ellipse class="cls-1" cx="15.5" cy="16.6" rx="2.1" ry="2.7"/><path class="cls-1" d="M22.9,6.5a15.9,15.9,0,0,0-16,16L8,40.2c.5,4.8,2.6,8.6,7.4,9.1H30.5c4.8-.5,7-4.2,7.5-9.1l1.1-17.7A16.1,16.1,0,0,0,22.9,6.5Zm0,19.3c-7.4,0-13.4,3.8-13.4-3.7s6-12.5,13.4-12.5,13.4,5.1,13.4,12.5S30.4,25.8,22.9,25.8Z" transform="translate(-1 -3.8)"/><ellipse class="cls-1" cx="28.4" cy="16.6" rx="2.1" ry="2.7"/><path class="cls-1" d="M4.2,29.5H4.1A1.5,1.5,0,0,0,2.6,31V46.2a1.5,1.5,0,0,0,1.5,1.5h.1a1.5,1.5,0,0,0,1.5-1.5V31A1.4,1.4,0,0,0,4.2,29.5Z" transform="translate(-1 -3.8)"/><circle class="cls-1" cx="3.2" cy="42.3" r="3.2"/><path class="cls-1" d="M10.8,35.3h-4a4.1,4.1,0,0,1-4.2-4.1v-.3a4.1,4.1,0,0,1,4.2-4.1h4a4.1,4.1,0,0,1,4.1,4.1v.3A4.1,4.1,0,0,1,10.8,35.3Zm31-5.8h-.1A1.5,1.5,0,0,0,40.2,31V46.2a1.5,1.5,0,0,0,1.5,1.5h.1a1.5,1.5,0,0,0,1.5-1.5V31A1.5,1.5,0,0,0,41.8,29.5Z" transform="translate(-1 -3.8)"/><circle class="cls-1" cx="40.7" cy="42.3" r="3.2"/><path class="cls-1" d="M39.2,35.3H35.1A4.1,4.1,0,0,1,31,31.2v-.3a4.1,4.1,0,0,1,4.1-4.1h4.1a4.1,4.1,0,0,1,4.1,4.1v.3A4.1,4.1,0,0,1,39.2,35.3Z" transform="translate(-1 -3.8)"/><circle class="cls-2" cx="21.9" cy="29.2" r="1.9"/><circle class="cls-2" cx="26.6" cy="29.2" r="1.3"/><circle class="cls-2" cx="17.4" cy="29.2" r="1.3"/></svg>