<svg id="Layer_1" data-name="Layer 1" xmlns="http://www.w3.org/2000/svg" viewBox="0 0 250 43"><defs><style>.cls-1{fill:#2d9cdb;}.cls-2{fill:#0b2946;}.cls-3{fill:#feffff;}.cls-4{fill:#016666;}.cls-5{fill:#79455b;}.cls-6{fill:#c8842c;}.cls-7{fill:#02a484;}.cls-8{fill:#2d9bda;}.cls-9{fill:#fdffff;}.cls-10{fill:#ffcc34;}.cls-11{fill:#fff;}</style></defs><path class="cls-1" d="M61.9,33.4l.4-2.9a15.8,15.8,0,0,0,8.8,2.6c4.5,0,7.1-1.8,7.1-4.9,0-8.3-16.6-2.8-16.6-13.4C61.6,9.7,65,7,71,7s8.5,2.4,9,6.3l-2.8.6c-.4-3-2.5-4.4-6.3-4.4s-6.4,1.8-6.4,5c0,8.6,16.5,2.6,16.6,13.6,0,5.2-3.3,7.7-10,7.7C66.2,35.7,63.5,34.4,61.9,33.4Z" transform="translate(0)"/><path class="cls-1" d="M88.5,18.8V30.6c0,2.2,1,2.7,2.5,2.7a6,6,0,0,0,2.8-.7l.3,2.5a13.1,13.1,0,0,1-3.9.6c-2.9,0-4.5-1-4.5-5.1V18.8H82.2V16.4h3.5V10.9h2.8v5.5h6v2.4Z" transform="translate(0)"/><path class="cls-1" d="M106.7,16.3l-.2,2.8a3.7,3.7,0,0,0-1.4-.2c-2.9,0-4.7,3.3-4.7,6.4v9.9H97.6V16.4h2.5l.2,3.6c1-2.3,2.7-4,4.7-4A4.6,4.6,0,0,1,106.7,16.3Z" transform="translate(0)"/><path class="cls-1" d="M124.3,33.8c-1,.8-3.5,2-7.4,2-6.1,0-9.1-3.7-9.1-9.8s3-10,9.3-10,7.1,2.6,7.1,5.5c0,4.7-4.1,6.2-13.4,6.6.6,3.7,2.9,5.2,6.3,5.2a12.4,12.4,0,0,0,6.7-2.1Zm-13.7-8c8.2-.3,10.8-1.2,10.8-4.1s-1.1-3.2-4.4-3.2S110.7,20.4,110.6,25.8Z" transform="translate(0)"/><path class="cls-1" d="M143.5,16.4V35.3h-2.4l-.3-2.7a7.6,7.6,0,0,1-6.4,3.2c-5,0-8.3-3.6-8.3-9.6S129.7,16,134.8,16a7,7,0,0,1,6,2.8l.3-2.3h2.4Zm-2.9,11.5V24.5c0-2.6-1.3-6-5.5-6s-6.2,2.9-6.2,7.7,2.1,7,5.9,7S140.6,31,140.6,27.9Z" transform="translate(0)"/><path class="cls-1" d="M176.1,23.5V35.3h-2.9V24c0-3.4-1.3-5.4-4.3-5.4a5.3,5.3,0,0,0-5.5,5.2V35.3h-2.8V23.8c0-3.3-1.4-5.2-4.2-5.2a5.3,5.3,0,0,0-5.5,5.3V35.3H148V16.4h2.2l.4,3.3a7.1,7.1,0,0,1,6.5-3.7,5.7,5.7,0,0,1,5.8,4,7.1,7.1,0,0,1,6.7-4C173.7,16,176.1,18.5,176.1,23.5Z" transform="translate(0)"/><path class="cls-1" d="M200.8,7.4,190.5,24.6V35.3h-5.3V24.6L174.9,7.4h6l7,12.3,7-12.3Z" transform="translate(0)"/><path class="cls-1" d="M215.8,16.4V35.3h-4l-.6-2.3a7.4,7.4,0,0,1-6.1,2.8c-5,0-8.5-3.6-8.5-9.6S200.4,16,205.5,16a7.2,7.2,0,0,1,5.7,2.4l.4-2Zm-5.3,10.8V24.5a4,4,0,0,0-4.2-4.1c-2.7,0-4.6,2-4.6,5.7s1.6,5.3,4.4,5.3A4,4,0,0,0,210.5,27.2Z" transform="translate(0)"/><path class="cls-1" d="M230.6,16.4l-.3,4.9a4.6,4.6,0,0,0-1.7-.3c-2,0-3.9,1.8-3.9,5.4v8.9h-5.2V16.4h4.2l.4,2.9c1.1-2,2.6-3.3,4.6-3.3A3.3,3.3,0,0,1,230.6,16.4Z" transform="translate(0)"/><path class="cls-1" d="M250,7.4V35.3h-4.4l-.5-2.2a8,8,0,0,1-6.2,2.7c-4.6,0-8-3.2-8-9.6S234.5,16,240.2,16a11.7,11.7,0,0,1,4.6.9V7.4Zm-5.2,19.2v-5a6.6,6.6,0,0,0-4-1.2c-2.8,0-4.6,1.8-4.6,5.7s1.7,5.3,4,5.3A4.6,4.6,0,0,0,244.8,26.6Z" transform="translate(0)"/><path class="cls-2" d="M45.6,24.9l-1.4-1.1a58.3,58.3,0,0,1-7.4-6.5,17.6,17.6,0,0,0-3.1-7.6,12.5,12.5,0,0,0-6.2-5.1C26.1.8,18.8.2,15.9,0h-1C9.4,0,8.2,3.8,8,5.4a8,8,0,0,0-3.6,1C1.2,8.2.3,12,.1,14.8a18.7,18.7,0,0,0,0,3.8,6.9,6.9,0,0,0,3,5.4,106.4,106.4,0,0,0-2,14.2v.4c.1.2,3.1,4,9.6,4.4h.9a11,11,0,0,0,9.9-5.7v-.4a9.2,9.2,0,0,1,.3-5c.8-2.7,3.7-3.1,4.5-3.2,3.4,2.6,13,7.6,15.6,8.6a9.3,9.3,0,0,0,3.5.8A2.9,2.9,0,0,0,48.1,37a2.4,2.4,0,0,0-.4-3.3h2.2a2.3,2.3,0,0,0,2.6-2.2C52.7,29.9,50,27.8,45.6,24.9ZM11.7,42.5ZM14.8.6h0Zm3.9.3,1.2.2Z" transform="translate(0)"/><path class="cls-2" d="M44,24.3a60.2,60.2,0,0,1-7.6-6.7A16.1,16.1,0,0,0,33.5,10a13.4,13.4,0,0,0-6.2-5C26.2,1.4,18.9.8,16.1.6,8.6.1,8.7,6.2,8.7,6.2L6,15.1,4,23.7A101.3,101.3,0,0,0,1.9,38.3s2.8,3.8,9.2,4.2a10.5,10.5,0,0,0,10.2-5.4s-.7-1.9.3-5.3,5.2-3.7,5.2-3.7c3.3,2.6,13.1,7.7,15.6,8.7s4.9.8,5.5-.1.7-1.8-.9-3.1l-1.6-1.2a16.5,16.5,0,0,0,3.6.9c1.6.2,2.9.2,3.2-1.7S47.7,26.9,44,24.3Z" transform="translate(0)"/><path class="cls-3" d="M11.8,37.7A14.2,14.2,0,0,1,4,35.5l-.3,2.2a12.9,12.9,0,0,0,7.8,3.1A8.5,8.5,0,0,0,19.3,37a10.7,10.7,0,0,1,0-2C18.1,36.1,16.5,37.9,11.8,37.7Z" transform="translate(0)"/><path class="cls-2" d="M3.7,35.3l.3.2v-.3Z" transform="translate(0)"/><path class="cls-2" d="M19.8,34.5h-.5V35C19.5,34.8,19.6,34.6,19.8,34.5Z" transform="translate(0)"/><path class="cls-4" d="M34.1,14.7c-1.8-4.5-5.1-8-8.8-9.1S16,3.3,14.2,7.4c0,0-8.2,14.2-8.7,17.5L4.1,35.2v.3a14.7,14.7,0,0,0,7.9,2.2c4.6.2,6.3-1.6,7.4-2.7v-.5a10.8,10.8,0,0,1,1.8-5.2c2.4-2.9,6.5-3,6.5-3a7.2,7.2,0,0,0,5.3-1.9C35.1,22.1,35.9,19.1,34.1,14.7Z" transform="translate(0)"/><path class="cls-5" d="M36.8,26.9,41,30.6c1.1.9,5.8,4.2,5.8,4.9s-11.7-5.3-11.7-5.3-10-6.9-10-7.1a8.7,8.7,0,0,1,.7-1.7c.2-.1,4.9.1,4.9.1Z" transform="translate(0)"/><path class="cls-6" d="M25.7,23.2a25.1,25.1,0,0,1,8.1,4,61.3,61.3,0,0,0,8.4,5.9c1.3.6,4.7,2,4.6,2.5s-.5,1.4-3.5.2-11-5.9-12.1-6.6l-6.7-4.6Z" transform="translate(0)"/><path class="cls-7" d="M16.8,14.5a8.6,8.6,0,0,1,7,2.3c2.6,2.5,3.1,4.5,2.3,6.3s-2,3.1-4.7,1.7-5.2-3.2-6-5.4S16.8,14.5,16.8,14.5Z" transform="translate(0)"/><path class="cls-2" d="M.8,18.6c.3,2.2.9,3.7,3.5,5.6a7.4,7.4,0,0,0,5.3,1.3,7,7,0,0,0,5.6-4.1c.9-2,2.5-6.6,1.3-10.3s-3.2-4.2-4.2-4.6-4.7-1.2-7.5.4-3.8,4.9-4,8A15.5,15.5,0,0,0,.8,18.6Z" transform="translate(0)"/><path class="cls-8" d="M5.7,8.7a6,6,0,0,1,4.1-.4A5,5,0,0,1,14,13.1c0,2.3-.2,6.4-2.4,8.5s-6.3,2.7-8.2-.8,2.7-6.1,2.7-6.1Z" transform="translate(0)"/><path class="cls-7" d="M19.6,11.1c-.4-1.2.6-2.6,3-3.1s4.9,0,6.1,2.2-1.1,3.4-2.5,3.7S20.5,13.9,19.6,11.1Z" transform="translate(0)"/><path class="cls-9" d="M22.9,15.4c.3-1.7,1.3-2.9,2.4-3a1.4,1.4,0,0,1,1.2.6,4.7,4.7,0,0,0-.7-1.2c-1.2-1.3-3.4-.2-4.1,2.3s.3,4.6,1.3,4.8a2.5,2.5,0,0,0,1.2.1H24C22.5,18.1,22.9,16,22.9,15.4Z" transform="translate(0)"/><path class="cls-2" d="M26.5,13a5.4,5.4,0,0,1-.3,3.8c-.5,1-1.1,1.9-2,2.1" transform="translate(0)"/><path class="cls-2" d="M26.2,16.8a6,6,0,0,0,.3-3.8,1.4,1.4,0,0,0-1.2-.6,3.2,3.2,0,0,0-2.4,3c0,.6-.4,2.8,1.1,3.4h.2C25.1,18.7,25.7,17.8,26.2,16.8Z" transform="translate(0)"/><path class="cls-10" d="M48.5,30.7c-.7-.7-1.6-1.4-1.3-1.8a1.6,1.6,0,0,1,1.2,0l-4.7-3.1c-3.9-2.8-8.6-7.1-9.1-7.5s-1.9.1-1.9.7a1.9,1.9,0,0,1-1.4,2c-1.5.6-3.1,0-4.1-.1s-.9.6-.4,1,18,9.2,21.5,9.9h.3A.9.9,0,0,0,48.5,30.7Z" transform="translate(0)"/><path class="cls-6" d="M50.9,31.4c.1-.5-.9-1.3-2.5-2.5a1.6,1.6,0,0,0-1.2,0c-.3.4.6,1.1,1.3,1.8a.8.8,0,0,1,0,1.2C50.4,32.2,50.7,32.2,50.9,31.4Z" transform="translate(0)"/><path class="cls-6" d="M34.3,22.1a2.5,2.5,0,0,0,2.3,1.3c.8-.2.4-.9-.5-1.8S33.7,20.8,34.3,22.1Z" transform="translate(0)"/><path class="cls-2" d="M7.6,25l.2,15.4,1.9.6L9.4,25Z" transform="translate(0)"/><path class="cls-11" d="M11.5,19.5c-1.5,3.3-4,3.2-6.1,2.6s-2.8-2.7-2.9-4.8.4-5.7,1.8-7.6,4.1-1.4,5-1.2a4.9,4.9,0,0,1,3.3,5.3C12.2,17.7,12,18.2,11.5,19.5Z" transform="translate(0)"/><path class="cls-8" d="M4,18.7,4.5,17s2,1.1,3,.7.5-1.4-.6-1.8a2.5,2.5,0,0,1-1.8-3.2c.5-2,1.9-2.6,5.3-1.4l-.6,1.8s-2.8-1.4-3,.1,3.7,1.2,3,4.2S4,18.7,4,18.7Z" transform="translate(0)"/></svg>