<svg xmlns="http://www.w3.org/2000/svg" version="1.1" viewBox="0 0 562 150">
<mask id="logo_title_dark_mode_svg__a" mask-type="alpha" maskUnits="userSpaceOnUse" x="0" y="0" width="150" height="150"><path fill-rule="evenodd" clip-rule="evenodd" d="M75 150c41.421 0 75-33.579 75-75S116.421 0 75 0 0 33.579 0 75s33.579 75 75 75z" fill="#000"></path></mask><g mask="url(#logo_title_dark_mode_svg__a)"><path fill="#F64942" d="M-15.44-3.971h189.412v115.588H-15.44z"></path><path d="M33.04 122.54c-9.61-18.837-.34-41.643 24.724-47.772 72.812-11.892 61.894-34.445 84.196-42.484 41.493-14.957 31.001 37.102 22.655 51.657-8.346 14.554 11.42 42.166-16.91 44.174-17.833 1.264-23.031-8.784-54.462 4.19-16.164 6.672-17.11 5.196-33.89-.216l-14.369-7.259-11.943-2.29z" fill="#F4CE45"></path><path d="M71.01-14.5C51.654-11.918-47.41 8.926-54.473 12.153l17.23 97.783c10.342-.996 29.533 9.299 29.533-5.204 0-14.071 2.856-20.074 12.564-36.939C19.12 43.014 50.695 43.428 61.696 42.89c26.026-1.272 54.496-9.602 69.043-30.728 49.85-72.397 2.548-43.834-59.73-26.663z" fill="#5B95BF"></path><path d="M50.108 99.06c-20.181.06-41.457 6.282-60.887 13.58l7.627 82.618c52.883-6.618 147.934-22.437 153.846-32.461 6.853-11.622-2.801-19.374 17.112-29.963 15.93-8.471 33.569-41.965-3.997-42.342-20.803.17-26.127 4.481-42.353 10.569-26.742 10.034-55.885-2.047-71.348-2.001z" fill="#EF90A4"></path><path fill-rule="evenodd" clip-rule="evenodd" d="M75.6 24.264a6.268 6.268 0 015.745 3.764.573.573 0 00.527.342.542.542 0 00.42-.195 6.284 6.284 0 014.806-2.251 6.269 6.269 0 016.202 5.35.565.565 0 00.877.373 6.301 6.301 0 013.612-1.14 6.268 6.268 0 016.216 6.984.568.568 0 00.751.588 6.307 6.307 0 012.156-.38c1.603 0 3.205.61 4.428 1.834a6.27 6.27 0 011.397 6.735.567.567 0 00.572.762 6.26 6.26 0 015.984 3.109 6.268 6.268 0 01-.394 6.866.567.567 0 00.356.885 6.268 6.268 0 012.818 11.083.566.566 0 00.115.947 6.267 6.267 0 01-.135 11.428c-.38.166-.465.682-.148.948a6.267 6.267 0 01-3.099 11.008.567.567 0 00-.373.878 6.268 6.268 0 01-5.905 9.825.568.568 0 00-.526.754 6.266 6.266 0 01-8.188 7.982.54.54 0 00-.198-.038.57.57 0 00-.564.611 6.269 6.269 0 01-6.232 6.824 6.3 6.3 0 01-3.743-1.234.54.54 0 00-.323-.106.569.569 0 00-.561.462 6.265 6.265 0 01-11.082 2.818.546.546 0 00-.432-.205.56.56 0 00-.514.32 6.27 6.27 0 01-5.684 3.629 6.266 6.266 0 01-5.744-3.764.573.573 0 00-.528-.342.543.543 0 00-.42.194 6.282 6.282 0 01-4.806 2.252 6.27 6.27 0 01-6.202-5.35.565.565 0 00-.877-.373 6.302 6.302 0 01-3.612 1.14 6.269 6.269 0 01-6.216-6.985.567.567 0 00-.75-.587 6.306 6.306 0 01-2.156.38 6.241 6.241 0 01-4.428-1.834 6.271 6.271 0 01-1.397-6.736.567.567 0 00-.573-.762 6.261 6.261 0 01-5.984-3.108 6.268 6.268 0 01.395-6.867.567.567 0 00-.357-.885 6.267 6.267 0 01-2.817-11.082.567.567 0 00-.115-.947 6.267 6.267 0 01.135-11.43c.38-.165.465-.68.148-.946a6.268 6.268 0 01-2.037-6.432 6.269 6.269 0 015.135-4.577.567.567 0 00.373-.877 6.266 6.266 0 015.844-9.829.568.568 0 00.588-.75 6.268 6.268 0 011.453-6.586 6.24 6.24 0 014.428-1.834c.783 0 1.567.146 2.307.438a.537.537 0 00.198.037.57.57 0 00.564-.61 6.268 6.268 0 016.232-6.825c1.34 0 2.657.43 3.742 1.235a.569.569 0 00.885-.357 6.267 6.267 0 016.175-5.191c1.922 0 3.728.892 4.907 2.373.11.14.27.206.432.206a.563.563 0 00.514-.32 6.266 6.266 0 015.683-3.63" fill="#fff"></path><path fill-rule="evenodd" clip-rule="evenodd" d="M98.344 99.616c-5.65 0-5.206-7.976 0-7.976s5.65 7.976 0 7.976m-46.686 0c-5.65 0-5.206-7.976 0-7.976s5.65 7.976 0 7.976m63.755-29.468h-1.914a8.437 8.437 0 01-7.699-4.992 8.439 8.439 0 01-7.7 4.992 8.437 8.437 0 01-7.699-4.992 8.438 8.438 0 01-7.7 4.992 8.437 8.437 0 01-7.699-4.992 8.437 8.437 0 01-7.699 4.992 8.439 8.439 0 01-7.7-4.992 8.437 8.437 0 01-7.699 4.992 8.437 8.437 0 01-7.699-4.992 8.438 8.438 0 01-7.7 4.992h-1.892c-2.871 3.089-1.05 5.698 6.04 5.698v15.862c0 14.907 17.165 22.361 34.33 22.361 17.166 0 34.331-7.454 34.331-22.36V75.845c7.096 0 8.948-2.61 6.099-5.698" fill="#000"></path><path fill-rule="evenodd" clip-rule="evenodd" d="M75.549 19.119c-2.514 0-4.92.787-6.918 2.173a12.15 12.15 0 00-7.565-.411 12.15 12.15 0 00-6.127 3.897 11.96 11.96 0 00-1.34-.076c-2.123 0-4.22.563-6.065 1.628a12.15 12.15 0 00-4.908 5.348 12.053 12.053 0 00-6.753 3.42 12.146 12.146 0 00-3.359 6.443 12.162 12.162 0 00-5.636 5.043 12.145 12.145 0 00-1.576 7.086 12.133 12.133 0 00-4.14 6.336 12.152 12.152 0 00.312 7.254 12.135 12.135 0 00-2.358 7.191c0 2.518.79 4.926 2.178 6.926a12.134 12.134 0 00-.417 7.556 12.156 12.156 0 003.897 6.126 12.134 12.134 0 001.554 7.407 12.154 12.154 0 005.35 4.911 12.141 12.141 0 003.417 6.751 12.057 12.057 0 006.442 3.368 12.133 12.133 0 005.044 5.625 12.141 12.141 0 007.094 1.586 12.131 12.131 0 006.329 4.13 12.128 12.128 0 007.266-.303 12.135 12.135 0 007.179 2.349c2.513 0 4.92-.787 6.917-2.173 1.388.542 2.881.827 4.418.827a12.145 12.145 0 009.273-4.313c.445.05.893.076 1.342.076 2.123 0 4.22-.564 6.064-1.628a12.15 12.15 0 004.908-5.347 12.055 12.055 0 006.753-3.42 12.156 12.156 0 003.359-6.444 12.162 12.162 0 005.636-5.042 12.143 12.143 0 001.576-7.087 12.128 12.128 0 003.828-13.59 12.14 12.14 0 002.358-7.191c0-2.517-.79-4.926-2.178-6.925a12.14 12.14 0 00.416-7.558 12.144 12.144 0 00-3.896-6.125 12.129 12.129 0 00-6.903-12.318 12.133 12.133 0 00-3.418-6.75 12.05 12.05 0 00-6.442-3.369 12.151 12.151 0 00-12.138-7.21 12.134 12.134 0 00-6.328-4.13 12.128 12.128 0 00-7.266.303 12.135 12.135 0 00-7.18-2.35m.002 5.99a6.158 6.158 0 015.645 3.698.563.563 0 00.518.336.533.533 0 00.413-.192 6.174 6.174 0 014.722-2.212 6.16 6.16 0 016.094 5.257.555.555 0 00.862.367 6.192 6.192 0 013.55-1.12 6.157 6.157 0 016.108 6.862.558.558 0 00.737.577 6.197 6.197 0 012.118-.374 6.16 6.16 0 015.724 8.42.556.556 0 00.562.749 6.151 6.151 0 015.88 3.054 6.157 6.157 0 01-.387 6.746.557.557 0 00.35.87 6.158 6.158 0 012.768 10.889.557.557 0 00.113.93 6.157 6.157 0 01-.132 11.229c-.373.163-.457.67-.145.93a6.157 6.157 0 01-3.045 10.817.556.556 0 00-.367.862 6.156 6.156 0 01-5.742 9.657.559.559 0 00-.577.738 6.155 6.155 0 01-1.429 6.469 6.128 6.128 0 01-4.35 1.803c-.77 0-1.54-.144-2.267-.43a.516.516 0 00-.195-.038.56.56 0 00-.554.601 6.155 6.155 0 01-3.054 5.879 6.117 6.117 0 01-3.07.826 6.19 6.19 0 01-3.677-1.213.53.53 0 00-.317-.105.56.56 0 00-.552.455 6.156 6.156 0 01-10.889 2.768.537.537 0 00-.425-.201.55.55 0 00-.504.314 6.157 6.157 0 01-11.23-.132.563.563 0 00-.518-.336.53.53 0 00-.413.191 6.177 6.177 0 01-4.722 2.212 6.16 6.16 0 01-6.094-5.256.554.554 0 00-.862-.367 6.192 6.192 0 01-3.55 1.12 6.16 6.16 0 01-6.108-6.863.557.557 0 00-.737-.577 6.187 6.187 0 01-2.118.374c-1.576 0-3.15-.6-4.351-1.802a6.16 6.16 0 01-1.373-6.618.557.557 0 00-.562-.749 6.152 6.152 0 01-5.88-3.054 6.158 6.158 0 01.387-6.747.557.557 0 00-.35-.869 6.158 6.158 0 01-2.768-10.888.557.557 0 00-.113-.93 6.158 6.158 0 01.133-11.23c.372-.163.456-.67.144-.93a6.158 6.158 0 013.045-10.817.557.557 0 00.367-.862 6.156 6.156 0 015.742-9.657.558.558 0 00.577-.738 6.158 6.158 0 011.428-6.47 6.131 6.131 0 014.351-1.801c.77 0 1.54.143 2.267.43.064.025.13.037.194.037a.56.56 0 00.555-.6 6.158 6.158 0 019.8-5.493.535.535 0 00.318.104.559.559 0 00.552-.454 6.158 6.158 0 0110.889-2.768.535.535 0 00.424.202c.206 0 .41-.11.506-.316a6.157 6.157 0 015.584-3.565" fill="#000"></path></g><path fill-rule="evenodd" clip-rule="evenodd" d="M211.227 105.914c.828.919 1.241 2.1 1.241 3.544s-.546 2.625-1.638 3.544c-1.091.918-2.498 1.378-4.218 1.378h-1.787c-3.242 0-6.203-.837-8.883-2.51-2.68-1.674-4.781-3.954-6.303-6.842-1.522-2.887-2.283-6.136-2.283-9.745V70.969h-4.566c-1.39 0-2.514-.394-3.375-1.181-.86-.788-1.29-1.772-1.29-2.954 0-1.312.43-2.362 1.29-3.15.861-.787 1.985-1.18 3.375-1.18h4.566V48.327c0-1.444.463-2.625 1.39-3.544.926-.918 2.117-1.378 3.573-1.378s2.647.46 3.573 1.378c.927.92 1.39 2.1 1.39 3.544v14.175h8.437c1.389 0 2.514.394 3.374 1.181.861.788 1.291 1.838 1.291 3.15 0 1.182-.43 2.166-1.291 2.953-.86.788-1.985 1.182-3.374 1.182h-8.437v24.314c0 2.625.728 4.823 2.183 6.595 1.456 1.772 3.243 2.658 5.36 2.658h3.375c1.191 0 2.2.459 3.027 1.378zm48.637-42.18c4.136 2.395 7.411 5.676 9.826 9.843 2.416 4.168 3.623 8.81 3.623 13.93v21.951c0 1.444-.479 2.641-1.439 3.593-.959.951-2.167 1.427-3.623 1.427-1.456 0-2.663-.476-3.623-1.427-.959-.952-1.439-2.149-1.439-3.593v-3.642a24.28 24.28 0 01-8.437 6.595c-3.309 1.575-6.882 2.362-10.72 2.362-4.764 0-9.082-1.181-12.953-3.543-3.871-2.363-6.915-5.628-9.132-9.795-2.216-4.167-3.325-8.81-3.325-13.929 0-5.118 1.191-9.761 3.573-13.929 2.383-4.167 5.675-7.448 9.877-9.843 4.202-2.396 8.85-3.593 13.945-3.593 5.096 0 9.711 1.197 13.847 3.593zM255 103.502c2.68-1.607 4.781-3.806 6.303-6.595 1.522-2.789 2.283-5.923 2.283-9.4 0-3.479-.761-6.629-2.283-9.45-1.522-2.823-3.623-5.038-6.303-6.645-2.68-1.608-5.674-2.412-8.983-2.412-3.308 0-6.303.804-8.982 2.412-2.68 1.607-4.798 3.822-6.353 6.644-1.555 2.822-2.333 5.972-2.333 9.45 0 3.478.778 6.612 2.333 9.401 1.555 2.79 3.673 4.988 6.353 6.595 2.679 1.608 5.674 2.412 8.982 2.412 3.309 0 6.303-.804 8.983-2.412zm36.974 9.204c-3.971-1.378-7.081-3.183-9.331-5.414-.86-.853-1.29-1.87-1.29-3.051 0-1.575.662-2.855 1.985-3.839 1.258-.92 2.416-1.379 3.474-1.379 1.324 0 2.581.591 3.772 1.772 1.257 1.378 3.143 2.576 5.658 3.593 2.514 1.017 5.194 1.526 8.04 1.526 3.772 0 6.7-.623 8.784-1.87 2.084-1.247 3.127-2.921 3.127-5.02 0-2.035-1.026-3.725-3.077-5.07-2.052-1.345-5.526-2.477-10.422-3.396-12.705-2.428-19.058-7.613-19.058-15.553 0-3.216.96-5.94 2.879-8.17 1.919-2.232 4.433-3.905 7.543-5.02 3.11-1.117 6.419-1.674 9.926-1.674 4.301 0 8.156.689 11.563 2.067 3.408 1.378 6.105 3.281 8.09 5.71.86 1.05 1.29 2.1 1.29 3.15 0 1.115-.562 2.132-1.687 3.05-.728.526-1.654.788-2.779.788-1.721 0-3.276-.623-4.665-1.87-1.655-1.51-3.408-2.576-5.261-3.2-1.853-.623-4.103-.934-6.75-.934-3.044 0-5.541.508-7.494 1.525-1.952 1.017-2.928 2.445-2.928 4.282 0 1.313.331 2.412.993 3.298.662.886 1.919 1.706 3.772 2.461 1.853.755 4.532 1.493 8.04 2.215 7.212 1.444 12.324 3.445 15.335 6.004 3.011 2.56 4.516 5.874 4.516 9.943 0 3.018-.827 5.758-2.481 8.219-1.655 2.461-4.086 4.397-7.296 5.808-3.209 1.411-7.064 2.116-11.563 2.116-4.5 0-8.735-.689-12.705-2.067zm85.461-2.461c0 1.444-.596 2.658-1.787 3.643-.992.787-2.051 1.181-3.176 1.181-1.456 0-2.647-.591-3.573-1.772L350.04 90.164l-4.963 4.331v15.061c0 1.444-.447 2.609-1.34 3.495-.894.886-2.068 1.329-3.524 1.329s-2.63-.443-3.524-1.329c-.893-.886-1.34-2.051-1.34-3.495V42.323c0-1.443.447-2.608 1.34-3.494.894-.886 2.068-1.329 3.524-1.329s2.63.443 3.524 1.329c.893.886 1.34 2.05 1.34 3.494v40.065l24.119-21.361c.861-.854 1.886-1.28 3.077-1.28 1.39 0 2.515.525 3.375 1.575.86.853 1.29 1.87 1.29 3.051 0 1.379-.529 2.494-1.588 3.347l-18.263 16.144 19.256 23.428c.728.788 1.092 1.772 1.092 2.953zm44.418-46.511c4.135 2.395 7.411 5.676 9.826 9.843 2.415 4.168 3.623 8.81 3.623 13.93v21.951c0 1.444-.48 2.641-1.439 3.593-.96.951-2.167 1.427-3.623 1.427-1.456 0-2.664-.476-3.623-1.427-.96-.952-1.439-2.149-1.439-3.593v-3.642a24.289 24.289 0 01-8.437 6.595c-3.309 1.575-6.882 2.362-10.72 2.362-4.764 0-9.082-1.181-12.953-3.543-3.871-2.363-6.915-5.628-9.132-9.795-2.217-4.167-3.325-8.81-3.325-13.929 0-5.118 1.191-9.761 3.573-13.929 2.382-4.167 5.674-7.448 9.876-9.843 4.202-2.396 8.851-3.593 13.946-3.593 5.095 0 9.711 1.197 13.847 3.593zm-4.864 39.768c2.68-1.607 4.781-3.806 6.303-6.595 1.522-2.789 2.283-5.923 2.283-9.4 0-3.479-.761-6.629-2.283-9.45-1.522-2.823-3.623-5.038-6.303-6.645-2.68-1.608-5.674-2.412-8.983-2.412-3.308 0-6.303.804-8.983 2.412-2.68 1.607-4.797 3.822-6.352 6.644-1.555 2.822-2.333 5.972-2.333 9.45 0 3.478.778 6.612 2.333 9.401 1.555 2.79 3.672 4.988 6.352 6.595 2.68 1.608 5.675 2.412 8.983 2.412 3.309 0 6.303-.804 8.983-2.412zm80.448-64.624c.927.919 1.39 2.133 1.39 3.642v44.888c0 5.119-1.208 9.761-3.623 13.929-2.415 4.167-5.691 7.448-9.826 9.843-4.136 2.396-8.752 3.593-13.847 3.593-5.095 0-9.744-1.197-13.946-3.593-4.202-2.395-7.494-5.676-9.876-9.843-2.382-4.168-3.573-8.81-3.573-13.93 0-5.118 1.108-9.76 3.325-13.928 2.217-4.167 5.261-7.432 9.132-9.795 3.871-2.362 8.189-3.543 12.953-3.543 3.838 0 7.411.787 10.72 2.362a24.292 24.292 0 018.437 6.595V42.52c0-1.51.48-2.723 1.439-3.642.96-.919 2.167-1.378 3.623-1.378 1.522 0 2.746.46 3.672 1.378zm-16.923 64.624c2.68-1.607 4.781-3.822 6.303-6.644 1.522-2.822 2.283-5.972 2.283-9.45 0-3.478-.761-6.612-2.283-9.401-1.522-2.789-3.623-4.988-6.303-6.595-2.68-1.608-5.674-2.412-8.983-2.412-3.308 0-6.303.804-8.983 2.412-2.68 1.607-4.797 3.806-6.352 6.595-1.555 2.79-2.333 5.923-2.333 9.4 0 3.479.778 6.629 2.333 9.45 1.555 2.823 3.672 5.038 6.352 6.645 2.68 1.608 5.675 2.412 8.983 2.412 3.309 0 6.303-.804 8.983-2.412zm80.151-13.78c-.861.82-1.952 1.23-3.276 1.23h-37.718c.728 4.593 2.829 8.301 6.303 11.123 3.474 2.822 7.726 4.233 12.755 4.233 1.985 0 4.053-.361 6.203-1.083 2.151-.722 3.921-1.608 5.311-2.658.926-.722 2.018-1.083 3.275-1.083 1.257 0 2.25.329 2.978.985 1.191.984 1.787 2.1 1.787 3.347 0 1.181-.53 2.165-1.589 2.953-2.25 1.772-5.045 3.215-8.387 4.331-3.342 1.116-6.534 1.673-9.578 1.673-5.426 0-10.29-1.164-14.591-3.494s-7.66-5.562-10.075-9.696c-2.415-4.135-3.623-8.827-3.623-14.077s1.142-9.958 3.425-14.126c2.283-4.167 5.459-7.415 9.528-9.745 4.07-2.33 8.685-3.494 13.847-3.494 5.095 0 9.495 1.115 13.201 3.346 3.706 2.232 6.551 5.349 8.536 9.352 1.985 4.003 2.978 8.597 2.978 13.781 0 1.247-.43 2.28-1.29 3.101zm-35.187-17.178c-3.011 2.625-4.913 6.136-5.708 10.533h33.053c-.595-4.397-2.25-7.908-4.963-10.533-2.713-2.625-6.253-3.938-10.62-3.938-4.831 0-8.751 1.313-11.762 3.938z" fill="#fff"></path>
</svg>