<svg xmlns="http://www.w3.org/2000/svg" width="312.6" height="100.1" viewBox="0 0 312.6 100.1"><path d="M384,510c4.8,0,9.6-.1,14.4,0,1.3,0,1.6-.4,1.6-1.7-.1-3.2-.2-6.3,0-9.5a4.3,4.3,0,0,0-1.8-3.8c-1.1-1-2.2-2.1-1.9-3.9s.2-1.1,1-1.1c3.1,0,6.1-.1,9.2.1s2.8,1.1,4.2,1.9.3.9.3,1.3c0,5,0,10-.1,15,0,1.4.4,1.7,1.7,1.7l37.3-.3a4.4,4.4,0,0,1,3.9,1.6c.7.9,2.2,1.6,2.3,2.6s-1.4,1.7-2.2,2.5c-7.5,7.3-15.1,14.7-22.5,22.3,2,0,3.6-.7,5.4-.5,9.2,1.4,15.7,6.2,18.9,15a31.2,31.2,0,0,1-.4,22.3,20.3,20.3,0,0,1-12.4,12.4c-7.5,2.8-15.1,3.1-22.6.1a15.8,15.8,0,0,1-9.3-15.4c.3-3.3,2.7-5.5,6.2-5.8a6.5,6.5,0,0,1,7.2,4.8,7,7,0,0,1-3.1,8.3c-.8.5-.6.7-.1,1.2l1.2.8c4.6,2.4,12.8,3.6,18.4-1.3,2.9-2.6,4.3-6.1,5-9.9a33.5,33.5,0,0,0-1.3-18c-2.6-7.1-11.4-11.6-19-7.1-1.5.9-3.2,1.6-4.7,2.4s-1.3.3-1.3-.8a3.4,3.4,0,0,1,.9-2.4l20.4-27.2.9-1.3c-.4-.6-.9-.4-1.3-.4h-28c-.9,0-1.5.1-1.5,1.3.1,10.3.1,20.6.1,31,.1,4,2,6.8,5,7.6a8.1,8.1,0,0,0,6.7-1.3,17.9,17.9,0,0,0,4.6-4.5c.4-.7.9-1.5,1.9-1.2A2.3,2.3,0,0,1,431,551a4.8,4.8,0,0,1-.4,2.6c-2.6,5.3-6.7,8.4-12.8,8.5a36.1,36.1,0,0,1-7.3-.7c-6.4-1.4-10.3-5.8-10.4-12.4-.2-10.1-.1-20.2-.1-30.3v-1.8c0-.7-.3-1-1-1-5,.1-10-.2-15,.1Z" transform="translate(-384 -490)" fill="#2c7df6"/><path d="M696.6,560.3c-.1.1-.2.1-.2.2-1.5,5.9-5.8,8.6-11.3,9.3s-12.7-.9-17.6-6c-1.6-1.7.5-2,1-2.9s1.2-.2,1.8.3a16.1,16.1,0,0,0,15.9,4.8c4.1-1,6.5-3.9,6.4-7.6a5.9,5.9,0,0,0-2.3-4.6,21.1,21.1,0,0,0-6.2-3.5,92.8,92.8,0,0,1-9.1-4c-3.2-1.7-5.8-3.9-6.4-7.8a9.5,9.5,0,0,1,5-10.6,19,19,0,0,1,17.5-.1,6.6,6.6,0,0,1,3.7,7.8c0,.2,0,.6-.4.6h-2.5c-1.4-.1-.7-1.3-.8-2a3.8,3.8,0,0,0-1.6-3.1c-3.6-2.6-11.4-2.5-14.9.3a6.4,6.4,0,0,0-.7,9.3c1.7,1.9,4,2.9,6.3,3.9s7.1,2.6,10.3,4.6,5.5,4.2,5.8,8c.4.9-.1,1.8.3,2.7Z" transform="translate(-384 -490)" fill="#2c7df6"/><path d="M696.6,560c-.7-.8-.2-1.8-.3-2.7h.3Z" transform="translate(-384 -490)" fill="#9bc1fa"/><path d="M550.9,547.3c-5.1,0-10.2.1-15.3,0-1.2,0-1.7.2-1.6,1.5.7,7.3,3.6,13.1,10.5,16.1s13.6,1.9,19.5-2.9c1.1-.8,1.4-.5,1.9.4s1.3,1.9-.6,3.3c-10.9,7.8-26.1,4.8-32.3-6.4a24.8,24.8,0,0,1,2.8-27.1c5.1-5.9,15-8.2,22.1-5s8.6,7.6,9.7,13.6a22.4,22.4,0,0,1,.4,5.2c0,1-.4,1.4-1.5,1.4Z" transform="translate(-384 -490)" fill="#2c7df6"/><path d="M638.6,570c-12.2,0-21.8-9.8-21.8-22.3a21.9,21.9,0,0,1,43.8-.1A22,22,0,0,1,638.6,570Z" transform="translate(-384 -490)" fill="#2c7df6"/><path d="M581,565.7h25.2a1.7,1.7,0,0,0,1.9-1.9,10.8,10.8,0,0,0,0-1.8c-.2-1.6.5-1.9,2-1.9s1.8.3,1.6,1.7a26.1,26.1,0,0,0,0,2.8c-.2,3.1-1.5,4.4-4.6,4.4H580.9a13.3,13.3,0,0,1-2,0c-.8-.2-2.2.6-2.5-.5a3.3,3.3,0,0,1,.7-3.5l20.7-26.1,7-8.7H582.9c-2.6,0-2.9.3-2.9,2.9v.6c0,1.8-1.4,2.6-3.1,1.9s-.4-.6-.4-.9,0-2.9.1-4.3,1.3-3.1,3.4-3.5h27.7c.7,0,1.8-.4,2.1.4a3.5,3.5,0,0,1-.4,3.3c-2.5,3-4.8,6-7.2,9l-19.8,24.7Z" transform="translate(-384 -490)" fill="#2c7df6"/><path d="M509.2,541.3c0,8.7,0,17.4.1,26,0,1.7-.7,1.7-2,1.7s-2,0-2-1.7c.1-17.3.1-34.7.1-52.1,0-1.5-.3-1.9-1.8-1.8-4.8.1-9.7,0-14.5,0-2,0-2.4.4-2.4,2.4V517c0,2.4-.6,2.9-3,2.4-.7-.1-.7-.5-.7-.9s0-3.5.1-5.2,1.3-3.3,3.6-3.3h41.1c2.3,0,3.4,1,3.7,3.3a46.4,46.4,0,0,1,.1,5.3c0,.2,0,.7-.3.7a9.4,9.4,0,0,1-2.9,0c-.8-.2-.4-1.2-.4-1.8-.1-4.1-.1-4.1-4.1-4.1s-8.6.1-12.9,0c-1.4-.1-1.8.3-1.8,1.8Z" transform="translate(-384 -490)" fill="#2c7df6"/><path d="M549.1,544H535.6c-.6,0-1.4.3-1.2-.9a16.4,16.4,0,0,1,20.1-13.4c5.5,1.4,10,7.8,9.6,13.5,0,1-.7.8-1.2.8Z" transform="translate(-384 -490)" fill="#fefefe"/><path d="M638.6,566.5c-10.2-.1-18.1-8.4-18-19a18.1,18.1,0,0,1,18.1-18.2c10.2.1,18,8.2,18,18.6S648.7,566.5,638.6,566.5Z" transform="translate(-384 -490)" fill="#fefefe"/></svg>