<svg xmlns="http://www.w3.org/2000/svg" width="216.8" height="273.2" viewBox="0 0 216.8 273.2"><path d="M632.9,433.1c3.6,3,8.6,3.9,11.2,8.6,4.1,7.5,4.1,15.6,3.8,23.6A51,51,0,0,1,640,491c-3.6,5.6-7.6,10.8-14.8,13l4.8,2.9-.5.6a4.3,4.3,0,0,1-2.9.6c-3.7-1.5-7,.6-10.4,1.1s-7.4,1.8-11.2,1.4c.1,2.2-1.7,2.6-3.1,3.4-4.2,2.2-8.9,3.2-13.4,4.9-5.5,3.3-12,4.1-17.5,7.4l-1.3.6c-4,1.3-8.1,2.5-11.8,4.6l-1.3.5c-2,.6-4,1.2-5.5,2.7a7.6,7.6,0,0,1-2.9,1.3,5.7,5.7,0,0,1-2.6.2c-2.5-.2-3.1-1.8-3.1-4.1.2-17.5-.2-35,.2-52.5,1.1-3.4,4.2-6.5,1.8-10.6,1.2-3,4.4-3.1,6.8-4.3,7.1-2.9,14.5-4.7,21.1-8.8s13.8-6.6,21.4-8.2,11.5-3.9,17.1-6.1C618.3,438.8,625.8,436.5,632.9,433.1Z" transform="translate(-431.2 -406.9)" fill="#e8e8e8"/><path d="M633.9,508c9.3,3.8,13.4,11.2,14,20.6.8,14.5-1.9,28.2-10.3,40.6a29.4,29.4,0,0,1-13.8,10.9c-15.7,6.3-31.6,12.4-47.4,18.6L558,606c-.5.4-1,.3-1.2-.3,2.1-4,.7-8.1.7-12.2V554.1c.1-3.6.2-6.7-5.1-5.3-2.5.7-4.3-1.3-5.7-3.3a3.5,3.5,0,0,1-.4-3c3.3-3.2,7.8-3.8,11.9-5.1,8.3.7,16.3,4.5,24.9,3.3,2.1-.3,4.8.9,5.9-1.5s.6-6.5.1-9.8c-.3-1.5-2-.7-3-.3s-2.2-.1-1.1,2-2.1,4-3.2,3.3c-3.9-2.7-7.3,0-10.8.1a4.4,4.4,0,0,1-2-.3,2.1,2.1,0,0,1-.5-1.3c1.7-3.1,5-3.3,7.7-4.5a50.9,50.9,0,0,0,5.4-2.2,90.5,90.5,0,0,0,10.2-4.1,14.7,14.7,0,0,1,4.2-1.3c7.5-.2,13.6-4.4,20.3-6.8a20.2,20.2,0,0,0,5.6-3,11.6,11.6,0,0,1,4-2,19.8,19.8,0,0,1,4.2-.3C631.4,508.5,632.7,508.7,633.9,508Z" transform="translate(-431.2 -406.9)" fill="#e8e8ea"/><path d="M569,418.1h2.9c7.4,1.8,14.7,4,22.2,5.5,10.8,2.6,21.6,5.8,32.5,8,3.6,1.5,3.3,3,0,4.3a11.8,11.8,0,0,1-3.3,1.2c-6.6,1-12.4,4.3-18.6,6.6-9.4,3.6-19,6.8-28.4,10.5-5.2,2-9.9,5.4-15.5,6.4-.9.1-2.2-1.7-2.7.5-6,2.6-11.6,6.5-18.6,5.9a12.5,12.5,0,0,1-4.3.3,9.1,9.1,0,0,1-4.5-2.5c-2.3-2-5.2-2.9-7.9-4.2s-4.9-1-7.4-.8-4.4-.1-6.3-1.3-3.2-2-2.2-4.3a3.5,3.5,0,0,1,3.4-1c2,1.3,4,1.9,6,.1a9.3,9.3,0,0,1,5.7.6c1.3.5,2.9,1,3.3-1.2-2.2-2.5-4.3-1-6.4,0s-4.8,0-7.2,0-4,.1-5.3,1.9c-5.1,4.1-10.1.2-15-.2-.8-.1-1-1.3-.6-2.1,2.2-2.4,5.5-.3,7.9-1.9.4-.4.8-1,1.5-1-.9,0-1.2.8-1.9,1.2-2.5,1.2-5.7-.7-7.8,1.9s-4.8.8-7.3,1a26.6,26.6,0,0,1-16.2-4.3c-1.5-2-3.9-1.7-6-2a3.4,3.4,0,0,1-1.9-.9,2,2,0,0,1-.5-1.9c1.4-2.6-1.7-.9-1.9-2-1.8-2.3-4.8-2.6-6.9-4.5,1.7-2.6,4.9-2,7.2-3.3,6.2-2,12.2-4.7,18.3-7.2a9.5,9.5,0,0,1,3.7-1.2c.8.1,1.6.3,2.1-.6a3.9,3.9,0,0,1,.8-1,7.4,7.4,0,0,1,2.8-1.4,11.9,11.9,0,0,0,4.9-1.3l1.2-.6a18.1,18.1,0,0,0,11.1-4.6,10.6,10.6,0,0,1,3.9-1.3c1.9,1.2,3,.5,3.4-1.6,4.6-2.4,9.5-3.9,14.3-5.7a12.1,12.1,0,0,1,7.3.1Z" transform="translate(-431.2 -406.9)" fill="#989898"/><path d="M547,545c3.5,3.5,7.4,3.2,12-.2v48.5a16,16,0,0,0,.3,4.9c1,3.2.9,5.9-2.3,7.8-1.1,1.1-2.7,1.2-4,2a29.3,29.3,0,0,0-6.5,3.5c-1.8,1.4-4.1,3.4-6.5.5a4.4,4.4,0,0,1,1.9-1.7c1.8-2.3,1.7-5,1.7-7.6,0-16.9-.1-33.8,0-50.7,0-2.3-.4-4.7.9-6.8A1.8,1.8,0,0,1,547,545Z" transform="translate(-431.2 -406.9)" fill="#e8e8e8"/><path d="M539,667c-1.1,3.3-2.1,6.6-3.2,9.8-.6,1.5-.8,3.3-3.2,3.1s-2.2-1.6-2.7-3a51.8,51.8,0,0,0-3.8-9.6V677c0,1.2.4,2.8-1.7,2.9s-2.2-1.5-2.2-3.1V662.9c0-1.4-.4-3.2,2-3.2s4-.5,4.7,2.3,2.3,7.6,3.9,12.8c1.7-4.7,3.2-8.2,4.1-11.9s2.5-3.4,5.1-3.2,1.8,2.7,1.8,4.2c.2,4,.2,8,.1,12-.1,1.5,1,4-2.2,3.9s-1.7-2.3-1.8-3.7c-.1-3,0-6,0-8.9Z" transform="translate(-431.2 -406.9)" fill="#070707"/><path d="M435.1,576c1.9-12.2.9-24.5.5-36.8,0-1.8-.5-3.6-.5-5.4,0-29,0-57.9-.1-86.9a25.5,25.5,0,0,1,1.1-6.8c.4-.9,1.4-.5,2-1l6.1-1c-.1,2.9-3.3,2.5-4.5,4.2a5.3,5.3,0,0,0-1.1,2.1c-.3,41.1,0,82.3-.1,123.4,0,3.2-.1,6.4,1.2,9.4a3.2,3.2,0,0,1-.6,1.8l-2.1-1C435,578.7,434.3,578.1,435.1,576Z" transform="translate(-431.2 -406.9)" fill="#eee6de"/><path d="M512.2,667.1l-3.3,10.5c-.5,1.3-1,2.3-2.7,2.3s-2.3-.9-2.7-2.3-1.8-5.7-2.6-8.6c-2.3-.8-1.2,1.1-1.3,1.8-.5,3,.7,6.1-.7,8.9-2.4.6-3.3-.3-3.3-2.8.2-4.6,0-9.3.1-14,0-1.3-.6-3.2,1.9-3.1s3.9-.7,4.6,2.2,2.5,7.9,4.1,12.9c1.6-4.7,2.9-8.3,3.8-11.9s2.4-3.6,5.1-3.3,1.8,2.7,1.9,4.1c.1,4.4-.1,8.7.1,13,0,2.3-.5,3.6-3.1,2.9-1.2-3.4-.2-7-.6-10.5C513.4,668.4,514.3,666.8,512.2,667.1Z" transform="translate(-431.2 -406.9)" fill="#050505"/><path d="M585,659.9c2.5-.7,3.2.4,3.1,2.8-.1,4.5,0,8.9-.1,13.4,0,1.3,1,3.3-1.2,3.7s-4.2.4-5.5-2.2a55.8,55.8,0,0,0-7.3-11.1c0,3.5.1,7,0,10.5,0,1.2.4,2.8-1.7,2.9s-2.2-1.5-2.2-3c0-4.5,0-9,.1-13.4,0-1.3-.9-3.4,1.3-3.7s4-.7,5.3,1.7,4.2,7.5,6.3,11.3c2.2.3,1.3-1.4,1.4-2.2C584.8,667,583.9,663.4,585,659.9Z" transform="translate(-431.2 -406.9)" fill="#080808"/><path d="M491.4,669.7c0,6.7-3.3,10.3-9.4,10.3s-9.9-3.8-9.8-10.5,3.7-10.2,9.8-10.2S491.4,663.1,491.4,669.7Z" transform="translate(-431.2 -406.9)" fill="#050505"/><path d="M538,621c5,3.3,5.8,8.2,4.5,13.5s-4.5,6.8-9.7,6.6-7.9-2.6-8.7-7.2-.2-10,4.9-12.9A16.2,16.2,0,0,1,538,621Z" transform="translate(-431.2 -406.9)" fill="#070607"/><path d="M547.1,630.8c0-.5-.2-1.1,0-1.5,1.4-2.7-3.1-7.6,2.7-8.4,7.9-1.2,12.6,1.6,13.9,7.2s-1.3,10.4-6.2,12.1c-2.4.9-4.9.5-7.4.8s-3.2-1-3-3.2S547.1,633.1,547.1,630.8Z" transform="translate(-431.2 -406.9)" fill="#080707"/><path d="M508.9,620.8c4.8-.2,8.9.8,10.7,5.3s1.6,8.2-1.6,11.7-8.1,3.1-12.6,3.1c-1.7,0-1.5-1.4-1.5-2.5-.1-5,0-10-.1-14.9S507.4,621.7,508.9,620.8Z" transform="translate(-431.2 -406.9)" fill="#060506"/><path d="M603.2,640.3c-4.3,2-5.4-1.2-7-3.6s-1.3-3.7-3.2-3.4-.9,2.8-1.1,4.3.4,3.5-2.4,3.3-1.9-2.2-1.9-3.6a83.4,83.4,0,0,1,0-10c.2-2.1-1.7-5.7,1.5-6.3s8.3-1.4,11.2,2.3,1.6,5.7-1.2,7.9-.7,1.9-.1,2.9Z" transform="translate(-431.2 -406.9)" fill="#060506"/><path d="M584.8,640.4c-2.4.7-4.5,1.3-5.1-1.9s-2.6-2.5-4.6-2.4-3.8-.4-4.2,2.3-2.6,2.9-5.2,2c2-5.8,4.2-11.6,6-17.4.7-2,1.9-2.3,3.8-2.3a2.7,2.7,0,0,1,3.2,2.3C580.7,628.8,582.7,634.6,584.8,640.4Z" transform="translate(-431.2 -406.9)" fill="#070607"/><path d="M618.1,640.4c-.4-2-.2-4.6-3.4-4.3s-5.2-1.1-5.9,2.7-2.8,2.1-5.1,1.8c2.1-5.9,4.2-11.6,6.1-17.3a3.7,3.7,0,0,1,7.1-.1c1.9,5.3,3.9,10.5,5.9,15.8C622.6,641.8,621.7,642.1,618.1,640.4Z" transform="translate(-431.2 -406.9)" fill="#060606"/><path d="M501.1,640.5c-2.6.6-4.7,1.1-5.2-2.1s-2.3-2.4-4.2-2.3-4.2-.4-4.6,2.4-2.5,2.6-5.1,2.1c2.1-6.1,4.1-12.1,6.2-18.1.5-1.6,1.7-1.8,3.2-1.8s2.9.1,3.5,1.9C496.9,628.6,499,634.5,501.1,640.5Z" transform="translate(-431.2 -406.9)" fill="#090808"/><path d="M548.8,667.5v-5c-.1-1.6,0-2.9,2.3-2.8s1.9,1.3,1.9,2.7v9.5c0,2.7,1,4.6,4,4.6s4-1.9,4-4.6v-9.5c0-1.4-.1-2.6,1.9-2.7s2.4,1.2,2.3,2.8c0,3.4.1,6.7,0,10-.2,5.2-3.1,7.6-8.5,7.6s-7.7-2.5-7.9-7.6C548.7,670.9,548.8,669.2,548.8,667.5Z" transform="translate(-431.2 -406.9)" fill="#060606"/><path d="M472.6,635.9c1.5-4.8,3-8.7,4.1-12.7.5-2,1.6-2.9,3.5-2.3s.6,2.5.3,3.5c-1.4,4.6-3,9.1-4.6,13.7-.5,1.6-1,2.9-3.3,2.9s-2.8-1.2-3.3-2.8c-1.6-4.8-3.2-9.5-4.7-14.2-.4-1-1.7-2.6.4-3.1s2.9-.1,3.4,1.9C469.6,626.9,471,631,472.6,635.9Z" transform="translate(-431.2 -406.9)" fill="#070707"/><path d="M458.8,669.7c-.1,5.3,1.8,6.9,7.3,6.5,1-.1,2.4-1.1,2.8.8s-.6,2.5-2.1,2.8c-4.1.6-8,.7-10.8-3.2s-2.4-10.2.3-13.7,6.7-4,10.8-3c1.2.2,2.4.5,2,2.2s-1.2,1.8-2.9,1.5C460.9,662.6,458.9,664.4,458.8,669.7Z" transform="translate(-431.2 -406.9)" fill="#090909"/><path d="M616.7,660.1c6.6-1.8,5.3,5.1,8.5,6.8,2.9-2,1.9-8.4,8.4-6.9-1.4,2.7-2.5,5.2-4,7.5a15.2,15.2,0,0,0-2.5,9.9c.1,1.1.2,2.4-1.6,2.5s-2.7.1-2.5-1.6C624.1,671.3,619.2,666.3,616.7,660.1Z" transform="translate(-431.2 -406.9)" fill="#070707"/><path d="M608.6,659.7a10.5,10.5,0,0,1,2.5.1c1.6.3,4.1-1.2,4.6,1.2s-2.3,1.9-3.8,2.2-1.7,1.8-1.7,3.1v10.9c0,1.3.2,2.6-1.9,2.7s-2.4-1.1-2.3-2.8.1-5-.1-7.5,1.6-7.1-4.1-6.5c-1.1.1-1.2-1-1.2-1.8a1.3,1.3,0,0,1,1.5-1.5h6.5Z" transform="translate(-431.2 -406.9)" fill="#050505"/><path d="M522,606c-5.7-.1-10.8-2.7-16.1-4.3-10.1-3.1-19.9-6.8-29.9-10.3a22.6,22.6,0,0,1-2-1.3,3.4,3.4,0,0,1,2-1.3c5.4-.2,10,3,15,4.2a186.1,186.1,0,0,0,17.8,6,27.4,27.4,0,0,0,6.3,2.1c2.7,1.5,6.7.9,8.1,4.7A.7.7,0,0,1,522,606Z" transform="translate(-431.2 -406.9)" fill="#f6e8e8"/><path d="M506,416.1l-4,1a1.5,1.5,0,0,1-1.8.3l-.3-.5a184.7,184.7,0,0,1,24-9.6,9.9,9.9,0,0,1,5.4-.1c12.9,3.2,25.7,6.6,38.6,10,.4.1.7.5,1.1.9-5.5-.1-10.6-2.2-15.9-3.5-6.8-1.7-13.7-3.5-20.5-5.4-9.1-2.7-16.2,2.1-23.6,5.9C508.3,416.3,506.9,415.4,506,416.1Z" transform="translate(-431.2 -406.9)" fill="#b2b2b2"/><path d="M597.4,669.7v7.9c0,1.4-.3,2.3-1.9,2.3s-2.5-.6-2.4-2.3V661.7c-.1-1.6.8-2,2.2-2s2.1.5,2.1,2Z" transform="translate(-431.2 -406.9)" fill="#0c0c0c"/><path d="M623,436.1l3.7-1.1c2.8-.9,1-1.9,0-2.8a1.6,1.6,0,0,1,2.3-.2l3.9,1.1c0,1,.2,2.4-.9,2.6-12.8,2.8-24.1,9.9-36.7,13.3a7.5,7.5,0,0,1-1.5,0c0-1.9,1.6-1.9,2.7-2.4C605.2,442.7,614.1,439.3,623,436.1Z" transform="translate(-431.2 -406.9)" fill="#e5e5e5"/><path d="M542,611.9h-3c-.8-.7-3.5-.6-1.4-2.8s3-2.8,3-5.2c-.2-19.3.1-38.5-.1-57.8a3.7,3.7,0,0,1,.1-1.8c.7-1.1,1.4-2.2,2.9-.9a4.1,4.1,0,0,1,.5,1.8c0,19.7,0,39.3-.1,58.9C543.9,606.8,544.9,609.9,542,611.9Z" transform="translate(-431.2 -406.9)" fill="#eebec4"/><path d="M476.1,589.9l-2.1.2c-7.8-1.3-14.9-4.5-22.4-6.8L439.1,579v-1.2c1.1-1,2.3-.9,3.6-.7a28.3,28.3,0,0,0,6.3,1.8c2.1.6,4,1.5,6.1,2.2s5.2,1.7,7.7,2.8a14.6,14.6,0,0,0,3.7,1.2l1.2.4c1.8,1,3.8,1.2,5.8,1.6S476.2,588,476.1,589.9Z" transform="translate(-431.2 -406.9)" fill="#f5e3d8"/><path d="M629,432l-2.2.2a302,302,0,0,1-32.8-8.1c-.4-.3-.5-.5-.4-.7a.5.5,0,0,1,.4-.3C605.8,425.4,617.4,428.6,629,432Z" transform="translate(-431.2 -406.9)" fill="#e8e8e8"/><path d="M480,427.1c-5.8,1.2-11.2,3.9-16.5,6.4a16.8,16.8,0,0,1-6.4,1.6c-.4-.3-.5-.5-.4-.8s.2-.3.3-.3c6.4-3.3,13.3-5.5,20-8,1.7-.2,3.1-2,5-.9v1C481.5,426.6,481.2,427.7,480,427.1Z" transform="translate(-431.2 -406.9)" fill="#9da09c"/><path d="M536.9,610.1l2.1,1.8c-6-1-12.2-1.2-17-5.9h1.2c3.5-2.5,6.3,1.1,9.6,1.1C534.4,607.7,536.4,607.9,536.9,610.1Z" transform="translate(-431.2 -406.9)" fill="#f7efee"/><path d="M485,602c.6-2.8,2.9-2.4,4.3-1.8s4.2,2.6,6.7.3c.4-.4,1.3.2,1.3.9a2.1,2.1,0,0,1-2,2.5,19.7,19.7,0,0,1-8.3-.9A2.3,2.3,0,0,1,485,602Z" transform="translate(-431.2 -406.9)" fill="#f6f4f1"/><path d="M594,423.1v1a99,99,0,0,1-22.1-6C579.5,418.6,586.6,421.5,594,423.1Z" transform="translate(-431.2 -406.9)" fill="#d9d9d9"/><path d="M444.5,586.7c-3.1,1.8-5.3,1.2-7.3,1.2s-2.4-1.2-1.8-2.7a1.7,1.7,0,0,1,2.8-.8C439.7,585.9,441.8,585.9,444.5,586.7Z" transform="translate(-431.2 -406.9)" fill="#f2f8f4"/><path d="M457,434v1.1c-2.2,1.3-5.1,1.2-7.1,3s-4.8,2.5-7.1,3.8-2.7.3-3.7-.9l5-2.9Z" transform="translate(-431.2 -406.9)" fill="#a1a79f"/><path d="M438.1,439.1a2.6,2.6,0,0,1-2,1c-1.1-.7-1.5-2.2-3-2h0c.6-1.5-2.7-2.4-.9-3.7s3,.8,4,1.9A11.5,11.5,0,0,1,438.1,439.1Z" transform="translate(-431.2 -406.9)" fill="#f1f8f6"/><path d="M512.2,667.1c-.1-.6-.2-1.4.6-1.6s1.1.8,1.1,1.5c.1,4.3.2,8.5.2,12.7-2.3-1.8-.8-4.3-1.2-6.5S513.6,669,512.2,667.1Z" transform="translate(-431.2 -406.9)" fill="#555454"/><path d="M498.9,679.7V665.9c1.5.8,2.3,1.7,2,3.1s-.5,4-.9,6S501,678.6,498.9,679.7Z" transform="translate(-431.2 -406.9)" fill="#868686"/><path d="M482,425.1l-5,.9a39.1,39.1,0,0,1,12.9-5.1l.5.3c.1.3,0,.6-.4.9h0c-1.4,1.4-3.3,1.2-5,2Z" transform="translate(-431.2 -406.9)" fill="#b6b6b6"/><path d="M485,602a1.9,1.9,0,0,1,2,1c-2.4,1.7-4.8,1.1-8.1.3C481.2,601.4,483.2,602.2,485,602Z" transform="translate(-431.2 -406.9)" fill="#f1f8f8"/><path d="M585,659.9v12.2c-.1,1.9-.3,3.2-1.9.7,1.7-2.6.3-5.4.8-8S582.9,661.2,585,659.9Z" transform="translate(-431.2 -406.9)" fill="#5b5b5b"/><path d="M489.9,420.9a32.3,32.3,0,0,1,10-4l.3.3c-2.3,3.9-6,4.4-10,4Z" transform="translate(-431.2 -406.9)" fill="#b6b6b6"/><path d="M451.8,586.7c-3,1.6-4.6,1.4-6.8.5C447.2,585.5,448.8,586,451.8,586.7Z" transform="translate(-431.2 -406.9)" fill="#f2f8f4"/><path d="M435.1,576a1.8,1.8,0,0,0,1.9,2c-.3,2.1-1.8,2.6-3.1,1.4S432.8,576.5,435.1,576Z" transform="translate(-431.2 -406.9)" fill="#eefaf5"/><path d="M538,621a24.8,24.8,0,0,0-9,0A8,8,0,0,1,538,621Z" transform="translate(-431.2 -406.9)" fill="#e8e5e3"/><path d="M433.1,438.1c-.3,1.1.6,2.6-1.3,3.5-.8-1.7-1.1-3.1,1.3-3.5Z" transform="translate(-431.2 -406.9)" fill="#fdf2f6"/><path d="M618.1,640.4c1.8.2,4,2,4.7-1.4,1.1.8,1.6,2,.2,2.5S619.3,642.8,618.1,640.4Z" transform="translate(-431.2 -406.9)" fill="#efefef"/><path d="M633.9,508a2.8,2.8,0,0,1-3.1,1.9c1.5-1.5-1.6-1.5-.9-2.8v-.2Z" transform="translate(-431.2 -406.9)" fill="#e8e8e8"/><path d="M553,608a5.2,5.2,0,0,1,4-2h1A6.3,6.3,0,0,1,553,608Z" transform="translate(-431.2 -406.9)" fill="#edeeee"/><path d="M623,436.1c-8,4.6-17.1,6.7-25.3,10.8l-3.9,2.1c-7.3,1.7-14.1,4.8-20.8,8s-14,5.3-20.8,8.3a41.4,41.4,0,0,0-8.8,3.5,3.7,3.7,0,0,1-2.1-.3A2.6,2.6,0,0,1,540,466l.6-1.3c7,2.9,11.4-3.9,17.4-4.6a1.3,1.3,0,0,1,2-.1l57.8-22.9A10.5,10.5,0,0,1,623,436.1Z" transform="translate(-431.2 -406.9)" fill="#9b9b9b"/><path d="M542.8,468c3.2-.7,5.8-2.9,9.2-3,.3.2.4.4.3.7s-.2.3-.3.3a25.5,25.5,0,0,0-7,3c.3,3.1.7,6.2-1,9,0,18.1.1,36.1-.2,54.1-.1,3.4,1.6,2.8,3.5,3.1-.5,1.6-1.7,1.8-3.1,1.9-3.1-.4-3.6-2.7-3.6-5.1-.1-19.8-.1-39.5,0-59.2A5.3,5.3,0,0,1,542.8,468Z" transform="translate(-431.2 -406.9)" fill="#ecd8d7"/><path d="M588,518l14.5-5.8c.3-.1,2.2.4.9-1.1s-.9-.2-2.7-.7l15.3-2.3c-.3,2.8-3.2,2.4-4.8,3.8s-5,1.9-7.4,3.1c-4.3,1.4-8.4,3.6-13,4.2A3.3,3.3,0,0,1,588,518Z" transform="translate(-431.2 -406.9)" fill="#e7e7e9"/><path d="M549.1,535l1.9-1.2c1.6-1.8,4.1-1.6,6.1-2.7H557c4.2-2,8.7-3.4,13.1-5H570c3.4-1.7,6.7-3.7,10.7-3.6a1.3,1.3,0,0,1,.5,1.4c-2.6,3.1-6.7,3.4-10,5.2-5.1,1.7-10.1,3.7-15.1,5.6-1.8.7-3.7,1.5-5.7,1.1A3.8,3.8,0,0,1,549.1,535Z" transform="translate(-431.2 -406.9)" fill="#77767c"/><path d="M580.9,522.8,570,526.2c1.4-3.4,5.5-4.2,7.5-4.4,4-.5,6.8-3.1,10.5-3.8h3c.6,1.4-.6,1.9-1.2,2.7a8.6,8.6,0,0,1-4,1.8l-1.2.4A7.7,7.7,0,0,1,580.9,522.8Z" transform="translate(-431.2 -406.9)" fill="#e3e3e6"/><path d="M552,466v-1a110.9,110.9,0,0,1,21-8C566.6,461.4,558.8,462.7,552,466Z" transform="translate(-431.2 -406.9)" fill="#ede1dd"/><path d="M610.9,510.9c1.2-1.7,3.7-1.4,5.1-2.8,3.6-.9,7.1-3.1,10.9-1.1.7.7,2.4.4,2,1.7s-1.6.8-2.6.7c-3-1.1-5.8-.1-8.6,1.1s-3.6,1.6-5.7,1.3A2.4,2.4,0,0,1,610.9,510.9Z" transform="translate(-431.2 -406.9)" fill="#939393"/><path d="M544,478c.4-3-1-6.1,1-9C548.7,472.5,547.1,475.3,544,478Z" transform="translate(-431.2 -406.9)" fill="#ede1dd"/><path d="M570.1,526.1a38.7,38.7,0,0,1-13.1,5C560.8,527.9,565.4,526.8,570.1,526.1Z" transform="translate(-431.2 -406.9)" fill="#e6e5e7"/><path d="M626,509.1c.7-.1,1.7.3,2-.6s-.7-1-1.1-1.5h3c.7.8,2.2,1.4.9,2.8l-4.8.2-.4-.6Z" transform="translate(-431.2 -406.9)" fill="#b2b2b2"/><path d="M557.1,531.1c-1.7,1.6-4,2-6.1,2.7C552.2,531.1,554.7,531.2,557.1,531.1Z" transform="translate(-431.2 -406.9)" fill="#e6e5e7"/><path d="M549.1,535h.9c.4,1.4-.8,1.8-1.6,2.4a5.8,5.8,0,0,1-1.9.4l-1.2-.4a.9.9,0,0,1-.4-1.1l2.4-1.2Z" transform="translate(-431.2 -406.9)" fill="#7a7878"/><path d="M569,534c2.7-1.5,6.3-.7,8.8-3.1a1.7,1.7,0,0,1,2.5.6c.4,3.6,2.9,2,3.6,1.1s-1.6-1.7-1.9-3,.2-.5.4-.6c8-3.2,8-3.2,8.6,5.1s.5,7.5-7.6,8-17.1-1.6-25.4-4.1A11.2,11.2,0,0,1,569,534Z" transform="translate(-431.2 -406.9)" fill="#e9e9ed"/><path d="M612,511.2l8.3-3.1c2.1-.9,4.1-1.2,5.7,1h0c-2.1,1.1-4,2.5-6.1,3.6a134.4,134.4,0,0,1-23.7,9.4l-4,1a13.5,13.5,0,0,1-4,.8,3.6,3.6,0,0,1-3.4-2.1c.9-1.6,3.2-.3,4.1-1.8,4.8-2.1,9.6-3.7,14.4-5.5A53.7,53.7,0,0,1,612,511.2Z" transform="translate(-431.2 -406.9)" fill="#6e6d71"/><path d="M596.2,522.1,620,512a2.4,2.4,0,0,1,2.9-.1C614.5,516.6,605.9,520.8,596.2,522.1Z" transform="translate(-431.2 -406.9)" fill="#e3e2e6"/><path d="M569,534l-11,4c-3.5,1.9-7,3.6-11,4.1a5.3,5.3,0,0,1-2.8,2.3,1.2,1.2,0,0,1-1.1-.4v-1.2a1.2,1.2,0,0,1,.1-1.3c4.6-2.8,9.9-3.9,14.7-6.3a48.7,48.7,0,0,0,5.3-2.1c2-.5,3.8-1.8,5.8-.3Z" transform="translate(-431.2 -406.9)" fill="#d9d9dc"/><path d="M568.9,532.8l-5.9,1.4c-.5-2.4,1.5-2.6,2.9-3.2s4.6-1.4,6.8-2.6,5.8-3.1,9.3-2.6a1,1,0,0,1,0,1.4Z" transform="translate(-431.2 -406.9)" fill="#77767c"/><path d="M582,527.2V526c1-3,3.7-2.5,6-3h4.2A33.6,33.6,0,0,1,582,527.2Z" transform="translate(-431.2 -406.9)" fill="#7c7b7f"/><path d="M622.9,511.9H620a9.8,9.8,0,0,1,6-2.9v1Z" transform="translate(-431.2 -406.9)" fill="#939393"/><path d="M544,544l3-1.9V545h-2C544.1,545.2,543.6,545,544,544Z" transform="translate(-431.2 -406.9)" fill="#f2e9ed"/><path d="M491,452.1c.2,1.7,1.5,2,2.9,1.9,4.4-.3,8.7,1.9,13.1.1,1.1,5,6.1,3.2,9,5a1.1,1.1,0,0,1-.2,1.4,5.1,5.1,0,0,1-1.5.7c-2.5.3-5,.5-7.4-.4-6.8-2.6-14.1-3.3-21-5.4a6.9,6.9,0,0,1-2.8-1.1,1.7,1.7,0,0,1-.1-2.2Z" transform="translate(-431.2 -406.9)" fill="#9f9495"/><path d="M483,452.1v1.8l-.5.7a4.8,4.8,0,0,1-2.3.7c-4.8.8-9.2-.7-13.5-2.5-2.1-1.2-4.4-1.1-6.7-1.4s-3.8-.5-3.4-3.2a2.7,2.7,0,0,1,2.2-1.2h4.2c1.4,0,2.8-.1,3.9,1C472.2,450.2,477.2,452.6,483,452.1Z" transform="translate(-431.2 -406.9)" fill="#e8675e"/><path d="M507,454.1c1.8-2.5,3.8-3.9,7.1-2.4,1.4.6,3.3.3,4.9.4a7.7,7.7,0,0,1,8,0c.3,4.7-2.6,4.8-5.5,3.2a10,10,0,0,0-5.5-1.2,3.9,3.9,0,0,1-5,0Z" transform="translate(-431.2 -406.9)" fill="#979a95"/><path d="M443.1,441c1.7-2.3,4.8-1.5,6.9-2.9s6,.3,7.1,4c-1.1,1.3-2.6,1.3-4.1,1.4-3.2-.3-6.5.6-9.6-.9A1.1,1.1,0,0,1,443.1,441Z" transform="translate(-431.2 -406.9)" fill="#979b9b"/><path d="M443.1,442H453c1.6,1.9,4.5,0,6,2V446l-.5.6a10.4,10.4,0,0,1-3.5.7,14.2,14.2,0,0,1-3.6-.4l-1.4-.6c-2.4-2.1-6.7.8-8.5-3.2C441.8,442.3,442.1,441.6,443.1,442Z" transform="translate(-431.2 -406.9)" fill="#a89087"/><path d="M523,460c3.2.3,6.1,1.2,8,4-2.3,2.2-5.1,1.3-7.7,1.3s-2.8-1-3.2-2.7a3.2,3.2,0,0,1,.6-2.5A1.7,1.7,0,0,1,523,460Z" transform="translate(-431.2 -406.9)" fill="#9f9495"/><path d="M523,464h8l4,2a1.7,1.7,0,0,1,.1,2.2c-2.9,2.1-5.4-.9-8.2-.8a6,6,0,0,1-3.9-1.1A1.8,1.8,0,0,1,523,464Z" transform="translate(-431.2 -406.9)" fill="#d57060"/><path d="M490.2,421.2a23,23,0,0,0,10-4H502c-2.8,4.6-7.1,5.6-12,5A2.9,2.9,0,0,1,490.2,421.2Z" transform="translate(-431.2 -406.9)" fill="#9a9a9a"/><path d="M459,444.1c-2-.7-4.9,1.5-6-2h4.1c1.7.1,3.5-.4,5.4.5C462,444.8,460.2,443.7,459,444.1Z" transform="translate(-431.2 -406.9)" fill="#919b96"/><path d="M499,450.1c-1.8,3.9-5.3,1.1-8,2h0C492.9,448.1,496.4,450.9,499,450.1Z" transform="translate(-431.2 -406.9)" fill="#9f9597"/><path d="M527,452.1h-8C521.7,448.8,524.3,448.8,527,452.1Z" transform="translate(-431.2 -406.9)" fill="#9e959a"/><path d="M523,460h-2c-1.7,1.2-3.3,1.5-5-.1v-1C518.6,457.8,521.1,456.7,523,460Z" transform="translate(-431.2 -406.9)" fill="#939b95"/><path d="M498.4,450.3c2.2-2.9,4-2.5,6.6-1.4C502.8,450.6,500.8,449.8,498.4,450.3Z" transform="translate(-431.2 -406.9)" fill="#9f9597"/><path d="M506,416.1c.8-1.1,1.9-1,3-1s2.6.6.8,2S506.7,418.4,506,416.1Z" transform="translate(-431.2 -406.9)" fill="#9a9a9a"/><path d="M535,468v-2h5c.3.7.7,1.3,1,2l-.5.6a5.5,5.5,0,0,1-3.6.5A2.7,2.7,0,0,1,535,468Z" transform="translate(-431.2 -406.9)" fill="#cf817d"/><path d="M511,454.1h5C514.4,457.2,512.7,457.2,511,454.1Z" transform="translate(-431.2 -406.9)" fill="#9f9495"/><path d="M467,448.1l-4-.2c-.5-.7-2.6.1-2-1.9C463.1,446.7,466,444.5,467,448.1Z" transform="translate(-431.2 -406.9)" fill="#a88f8e"/><path d="M560,460h-2c-.4-.2-1.1-.4-1.2-.6s.7-1.2,1.5-1.3S559.9,459,560,460Z" transform="translate(-431.2 -406.9)" fill="#919191"/><path d="M485,424.1c1.4-1.3,3.3-1.6,5-2C489,424.4,486.9,424.1,485,424.1Z" transform="translate(-431.2 -406.9)" fill="#9a9a9a"/><path d="M461,446l2,1.9h-3.9a1.3,1.3,0,0,1-.1-1.9h2Z" transform="translate(-431.2 -406.9)" fill="#a89087"/><path d="M480,427.1l2-1c-.1.8.3,2-.7,2.4S480.2,427.7,480,427.1Z" transform="translate(-431.2 -406.9)" fill="#9a9a9a"/><path d="M544,544l1,1c-.3,21.1.5,42.1-.4,63.2-.1,2.1-.1,3.6-2.6,3.7,1.3-1.9,1-4.1,1-6.2.1-20.6.1-41.1.1-61.7Z" transform="translate(-431.2 -406.9)" fill="#ede0e0"/><path d="M442.9,578.1l-3.8-.3c-1.7-1.6-1.9-3.7-1.9-5.9q0-62.4-.2-124.8c0-1.8-.6-3.7,1-5.2a1.9,1.9,0,0,1,2.4,1.7,7.2,7.2,0,0,1-.7,2.5c-.5,13-.1,25.9-.2,38.8-.1,15.6,0,31.3,0,46.9a23.2,23.2,0,0,0,.7,6.9c1,8.8.3,17.7.5,26.5,0,3-.2,6,.5,8.9.7,1.1,1.8,2,2.1,3.3Z" transform="translate(-431.2 -406.9)" fill="#d5807c"/><path d="M440.1,443.1l-2.1-1.2,1.2-.9h3.9v1l-1,1A1.3,1.3,0,0,1,440.1,443.1Z" transform="translate(-431.2 -406.9)" fill="#a18f86"/><path d="M487,669.4c-.1,3.6-.7,7-5.1,7.1s-5.1-3.1-5.1-6.5.6-6.9,5.1-7S486.8,666.2,487,669.4Z" transform="translate(-431.2 -406.9)" fill="#f0f0f0"/><path d="M538.4,630.3c-.1,3.8-.6,7.3-5.2,7.2s-4.9-3.4-4.9-6.8.8-6.6,5-6.6S538.2,627.2,538.4,630.3Z" transform="translate(-431.2 -406.9)" fill="#f1f1f1"/><path d="M551.1,630.9c1.6-2-2.1-6.2,2.7-6.6s5.6,2.7,5.6,6.5-1.3,6.4-5.3,6.4S552.7,632.9,551.1,630.9Z" transform="translate(-431.2 -406.9)" fill="#ebeaeb"/><path d="M507.7,630.6c1.7-1.9-2.3-6.3,3-6.3s5.4,2.7,5.4,6.4-1.5,6.8-5.7,6.5S509.5,632.6,507.7,630.6Z" transform="translate(-431.2 -406.9)" fill="#eeeded"/><path d="M593.3,624.1c1.9.3,3.6.5,3.7,2.7s-1.4,2.7-3.1,3-2.2-1-2.1-2.4S591.2,624.3,593.3,624.1Z" transform="translate(-431.2 -406.9)" fill="#d7d6d7"/><path d="M575.1,625.3c1,2.3,3.1,4.5,1.8,7.1-.2.5-2.8.6-3.1.1C571.8,629.8,574.8,627.8,575.1,625.3Z" transform="translate(-431.2 -406.9)" fill="#c7c7c8"/><path d="M613.5,624.7c.9,2.8,2.8,5.1,1.6,7.6-.4.9-3.2.9-3.5-.1S612.1,627.3,613.5,624.7Z" transform="translate(-431.2 -406.9)" fill="#c8c8c8"/><path d="M491.4,625.3c1,2.4,2.9,4.4,1.9,6.9-.2.5-2.8.7-3.1.2C488.3,629.8,491.1,627.8,491.4,625.3Z" transform="translate(-431.2 -406.9)" fill="#e2e0e1"/><path d="M467,452c4.7.6,9.1,3,14,2.1.1,2.4-1.9,2.6-3.5,3.1s-2.8.3-4,1.3-1.1.3-1.6.6h1.4a7.6,7.6,0,0,1,2.1-.3c2.3.1,4.7-.3,7,.6a2,2,0,0,1,1.1,1.1,2.4,2.4,0,0,1-.6,2.3c-2.2,1.7-2.4,4.1-2.4,6.7s.1,6.3,0,9.4c.3,10.5.2,21.1.1,31.6.5,2.9,3.4,2.2,5.1,3.3s5.4,2.3,3.8,6.2c-1.3,1.5-3.1,1.4-4.9,1.5s-3.6.3-4.1,2.5-2.1,6.4,2.6,7.7a5.8,5.8,0,0,1,2.4,2.5,2.3,2.3,0,0,1-.3,2.1c-.8,1.1-2.5.6-3.6,2.1,3.2-.2,5.4-2,7.9-3.2a8.7,8.7,0,0,1,5.3.1c1.5,1.5,4.6,1.3,4.7,4.3s-4.7.7-3.3,4.1c.3,14.9,1.3,29.8-.6,44.6-.3,2.2,2.6,4.5-.4,6.4a7.9,7.9,0,0,1-4.3-.5c-5.2-.6-9.5-4-14.8-4.2L473,588c-1.7-1.5-4.1-.9-6-2h0c-1.1-1.4-3-.9-4.3-1.6a2.5,2.5,0,0,1-1.9-1.8c.6-1.8,2.2-1.8,3.7-1.9s3.3-1.3,4.6-3.3c-2.6-.2-5.3.1-7.2-1.8a4.6,4.6,0,0,1-1.6-4.1c2.3-14,.8-28.1,1-42.2.3-19.5.1-38.9.1-58.4,0-5.1.4-7.5-6.4-7.4-1.7,0-4.2-.1-4.1-2.5s2.6-2.2,4.4-2.4,3.6.2,5.4-.5,4-2.7,5.5-4.5A3,3,0,0,1,467,452Z" transform="translate(-431.2 -406.9)" fill="#f16052"/><path d="M532.9,608c-3.5.4-6.2-2.6-9.7-2.1-2.3-2.3-5.9-1.9-8.3-3.9a3.6,3.6,0,0,1,2.8-1.3c4.4-.5,7.8,2,11.6,3.6a8.9,8.9,0,0,1,3.5,1.1,1.9,1.9,0,0,1,.6,2.1C533.2,607.7,533,607.8,532.9,608Z" transform="translate(-431.2 -406.9)" fill="#ee706a"/><path d="M490.9,594.1H495c5.3.1,10.3,1,14.4,4.6a1.9,1.9,0,0,1-.4,1.5A81.8,81.8,0,0,1,490.9,594.1Z" transform="translate(-431.2 -406.9)" fill="#f1776f"/><path d="M509,600.1V599c3.4-.1,7.2-1.7,9,2.9h-3.1A8.4,8.4,0,0,1,509,600.1Z" transform="translate(-431.2 -406.9)" fill="#f46b64"/><path d="M536.9,610.1l-4-2.1h.3a3.7,3.7,0,0,1,2.3-1.2c1.8-.1,2.5-.6,2.4-2.7-.8-15.9-.5-31.8-.5-47.7,0-2.4-.3-5,1.3-7.2,1-.5,1.6-.1,1.7.9.2,3.7.1,7.4.1,9.9.5-4-.5-9.2,0-14.4l.6-.6c1.3,1.8.8,3.9.8,5.8,0,18.1-.2,36.3.1,54.4C542,609.1,540.7,610.5,536.9,610.1Z" transform="translate(-431.2 -406.9)" fill="#e96257"/><path d="M541.2,544a2.8,2.8,0,0,1-.1.9l-.2.2a1.8,1.8,0,0,1-1.9.3c-.5-2.4-3.6-.4-4.3-2.5a2,2,0,0,1,.4-1.3,4.6,4.6,0,0,1,2.1-.8,5.5,5.5,0,0,1,3.1.5A1.9,1.9,0,0,1,541.2,544Z" transform="translate(-431.2 -406.9)" fill="#e96257"/><path d="M541.2,544a2.4,2.4,0,0,0-1.2-2,1.3,1.3,0,0,1-.3-.8c.1-.3.1-.4.2-.4a2.5,2.5,0,0,1,2-.6,3.1,3.1,0,0,1,1.3.6,1.2,1.2,0,0,1-.1,1.3,1.7,1.7,0,0,0-.1.7Z" transform="translate(-431.2 -406.9)" fill="#7f7472"/><path d="M455,582c-2.3.2-4-1.2-6-1.9a1.4,1.4,0,0,1-.1-1.5c4-3.8,7-.5,10.3,1.3a2.1,2.1,0,0,1-.2,2.4A4.4,4.4,0,0,1,455,582Z" transform="translate(-431.2 -406.9)" fill="#f06258"/><path d="M455,582h4a2.4,2.4,0,0,1,2.1.9L463,584a.8.8,0,0,1,0,1.2C460.4,583.9,457.2,584.3,455,582Z" transform="translate(-431.2 -406.9)" fill="#ee817c"/><path d="M467,586c2.2,0,4.7-.8,6,2A7.5,7.5,0,0,1,467,586Z" transform="translate(-431.2 -406.9)" fill="#de7e6f"/><path d="M463,585.2V584c1.6.2,3.7-.7,4,2C465.6,585.9,464.1,586.4,463,585.2Z" transform="translate(-431.2 -406.9)" fill="#de7e6f"/><path d="M449,579v1.1a8.5,8.5,0,0,1-6.1-2l.4-.2a2.8,2.8,0,0,1,1.9-.9C446.8,577.1,448.2,577.5,449,579Z" transform="translate(-431.2 -406.9)" fill="#f6726d"/><path d="M544.9,536.4v.6a3.1,3.1,0,0,1-3.2.7,3.1,3.1,0,0,1-1.7-2,8.4,8.4,0,0,1-.4-2.7c-.1-13,0-25.9,0-38.8.1-7.9-.2-15.7.1-23.5a4.8,4.8,0,0,1,1.2-2.6h1.9a33.2,33.2,0,0,0-.6,4.4c-.1,19.9,0,39.8-.1,59.7C542.1,534.3,542.2,536.1,544.9,536.4Z" transform="translate(-431.2 -406.9)" fill="#cf817d"/><path d="M604,515c-5.1,1.4-9.7,4.2-15.1,5l2.1-2,13-4c.3.2.4.4.3.7S604.1,515,604,515Z" transform="translate(-431.2 -406.9)" fill="#7c7b7f"/><path d="M604,515v-1c1.9-1.9,4.5-2.2,6.9-3.1l1.1.2C609.7,513.3,606.4,513.3,604,515Z" transform="translate(-431.2 -406.9)" fill="#79787b"/><path d="M573,529c-2.7,3-7.5,1.9-10,5.2a7.1,7.1,0,0,1-4.8,1.9c-2.7.6-5.2,1.8-7.8,2.5a2.7,2.7,0,0,1-2.4-1.7l2-1.8c7.4-1.3,13.8-5.4,21-7.1C571.6,528.6,572.6,528.2,573,529Z" transform="translate(-431.2 -406.9)" fill="#6f6e72"/><path d="M573,529a2,2,0,0,1-2-1l10-4c.9-1.4,2.9-.9,3.9-2.2h-.1L588,523l-6,3Z" transform="translate(-431.2 -406.9)" fill="#605f63"/><path d="M584.9,521.8c-.8,1.7-2.4,1.9-3.9,2.2,0-.4-.1-.8-.1-1.2S583.5,521.9,584.9,521.8Z" transform="translate(-431.2 -406.9)" fill="#757578"/><path d="M541.9,537h4.2a2,2,0,0,1,.4,1.3,1.6,1.6,0,0,1-.7,1.1c-1.1.9-2.8.3-3.8,1.5h-2c-1.6.4-3.2-.2-4.8,0a5.7,5.7,0,0,1-3.4-.2,2.8,2.8,0,0,1-1.1-.8,2.1,2.1,0,0,1-.1-1.9c1.1-.6,1.1-1.8,1.8-2.7a2.1,2.1,0,0,1,1.2-.4,5.8,5.8,0,0,1,3.2.3C538.5,536.1,539.9,537.6,541.9,537Z" transform="translate(-431.2 -406.9)" fill="#796569"/><path d="M546,539c0-.6.1-1.2.1-1.9l1.9-.2a2.1,2.1,0,0,1,1.9,1.1C549,539.7,547.7,540.2,546,539Z" transform="translate(-431.2 -406.9)" fill="#59585c"/><path d="M546,539a6.7,6.7,0,0,0,3.9-1c2.9-.3,5.2-2.7,8.3-1.9-4.7,2.8-10,4.2-15.1,6a4.9,4.9,0,0,1-.1-1.2c-.2-2.5,2.4-.6,3-1.9Z" transform="translate(-431.2 -406.9)" fill="#7a7878"/><path d="M483.1,453.9c8,.5,15.5,3.7,23.3,4.8.3,0,.5.8.7,1.3a1.8,1.8,0,0,1,0,2.2c-3.5.4-6.8-.8-10.2-1.5s-8-1.3-11.6-3.3c-1.3-.7-3.4-.9-2.3-3.3Z" transform="translate(-431.2 -406.9)" fill="#e9635b"/><path d="M507,462c0-.7.1-1.3.1-2h7.8c.8.8.6,1.6-.1,2.4C512.1,463.8,509.5,464.1,507,462Z" transform="translate(-431.2 -406.9)" fill="#e16761"/><path d="M515,462c0-.6-.1-1.2-.1-1.9H521v2C519,463.6,517,463.8,515,462Z" transform="translate(-431.2 -406.9)" fill="#aa9083"/><path d="M449,579l-3.9-1.1a1.7,1.7,0,0,1-.2-2.1,3.3,3.3,0,0,1,1.9-.8c.2,0,.5.1.7,0a7.2,7.2,0,0,1-1.9-.4c-1.8-1-1.5-2.8-1.5-4.4,0-7.2-.1-14.3,0-21.5-.1,7.5,0,14.9-.1,22.4,0,1.6.5,3.4-.6,4.9a2,2,0,0,1-2.4,0c-3-.6-1.9-3.1-1.9-4.8-.1-10.7-.1-21.5-.1-32.2-.6-1.1-.4-2.2-.4-3.4v-87a11,11,0,0,1,.2-2.5c4.1-2,8.2-1.4,12.3-.1h0c1.1,1.5,2.8.9,4.2,1.1a2.3,2.3,0,0,1,1.7,1c.9,3.1,3.4,1.6,5.3,1.9s4.1-.9,4.7,2v2.1c-5.4,2.2-10.8,1.7-16.2,0,3.9,1.9,8.4,1.7,12.2,3.9-.3,2.5-2.2,2-3.8,2s-4.9,0-8.7,0c3.5,2.9,6.3,1.9,8.8,2s3.8,1,3.8,3.8c-.1,33.9-.1,67.9-.1,101.8,0,2.8-3.3,5.6,0,8.4l-.4.5c-1,.8-2.5.4-3.4,1.4a9.2,9.2,0,0,0,.1,1.6.8.8,0,0,0-.2.5C455.6,580.6,452.7,576,449,579Z" transform="translate(-431.2 -406.9)" fill="#ef6051"/><path d="M483,454.1a17.4,17.4,0,0,0,10.2,3.9c1.6.2,3.5-.4,3.8,2l-.6.7c-4.5.9-9,1.7-13.4-.7h0a7.7,7.7,0,0,0-8,0h-2a1.3,1.3,0,0,1,0-1.9c.3-2.1,1.8-2.1,3.3-2a6,6,0,0,0,4.7-2Z" transform="translate(-431.2 -406.9)" fill="#f26055"/><path d="M457,448.1h-1.9a1.3,1.3,0,0,1-.1-1.9h4a12.1,12.1,0,0,1,.1,1.9Z" transform="translate(-431.2 -406.9)" fill="#d67267"/><path d="M451.1,446h-12a1.3,1.3,0,0,1,0-2,4.7,4.7,0,0,1,1-1h2c1.4,1.7,3.4.8,5.1,1S450.7,443.6,451.1,446Z" transform="translate(-431.2 -406.9)" fill="#e8675e"/><path d="M455,446.1c0,.7.1,1.3.1,1.9-1.6-.1-3.7.7-4-2Z" transform="translate(-431.2 -406.9)" fill="#e8675e"/><path d="M515,462h6a1.9,1.9,0,0,0,2,1.9v2l-.5.6c-1.8,1.1-3.8.6-5.8.8s-3.1-.6-3.7,1.5c1.6,3.2,4.6,1.4,7,1.7s6.1-.4,7.6,3.3a3.1,3.1,0,0,1-.3,2.3,30.6,30.6,0,0,1-5.3,2.9c-9,.6-18,1.7-27-.6-2.7-5-1.6-10.2-1.1-15.4.5-1.6,2.1-2.1,3.1-3h0c3.5.1,7.1-.4,10,2Z" transform="translate(-431.2 -406.9)" fill="#f06153"/><path d="M527,474c-3.5-3.7-8.1-1.6-12.1-1.8s-4.2-1.2-3.9-4.2a4.1,4.1,0,0,1,3.7-.7c4.3,1.7,8.6,2.9,12.3-1.2,3-.8,5,2.8,8,1.9h2a1.5,1.5,0,0,1,.4,1.8,2.8,2.8,0,0,1-1,.9,19.4,19.4,0,0,1-3.3.7C531.1,472.3,529.3,473.7,527,474Z" transform="translate(-431.2 -406.9)" fill="#f16057"/><path d="M527,466.1c.4,2.9-.8,4.5-3.8,3.9s-6.3,2-8.2-2c2.3-2.2,5.7.3,8-1.9h4Z" transform="translate(-431.2 -406.9)" fill="#f06153"/><path d="M537,470v-1.9h3.9v2l-1,.7a2.8,2.8,0,0,1-1.3.1A2.2,2.2,0,0,1,537,470Z" transform="translate(-431.2 -406.9)" fill="#d57060"/><path d="M439.1,444.1v2c0,30.9-.1,61.9-.1,92.9-1.4-1.3-.9-3.1-.9-4.7V448.7C438.1,447.1,437.6,445.4,439.1,444.1Z" transform="translate(-431.2 -406.9)" fill="#db6c66"/><path d="M441,576h2.1a1.3,1.3,0,0,1,2,0v1.9h-1.9Z" transform="translate(-431.2 -406.9)" fill="#f06258"/><path d="M495,478h28c1.9-1.4,4.1-.9,6.2-1.1a3.4,3.4,0,0,1,2.4,1.3c1.1,2,.8,4.2.8,6.3.1,11.2,0,22.5.1,33.7,0,2-.4,4,.8,5.8s1.3,1.1,1.8,1.7a2.9,2.9,0,0,1,.2,2.4,4.3,4.3,0,0,1-2.1,1.1,15.3,15.3,0,0,1-3.7-.2c-2.1-1.3-3.5-.1-4.6,1.6a7.2,7.2,0,0,1-5,.4,3.8,3.8,0,0,1-1.3-.6c-1.8-1.5-4-1-6.1-1h-5.1l-2.1-.5a30,30,0,0,0-4.3-2.3,6.4,6.4,0,0,1-2.4-2.5,2.1,2.1,0,0,1,0-1.9c.6-1.1,2.2-1.1,2.7-2.2s-.6-1.4-.9-2.1a3.3,3.3,0,0,1-.4-1.7,11.1,11.1,0,0,1,.2-1.9c0-1-.8-1.3-1.5-1.8a3.8,3.8,0,0,0-5-.1l-1.2.5a5.3,5.3,0,0,1-3.3-.1c-1.3-.6-2.8.2-4.2-.2a3.3,3.3,0,0,0-4.1,0,1.7,1.7,0,0,1-1.9-.5V478A18,18,0,0,1,495,478Z" transform="translate(-431.2 -406.9)" fill="#f05f52"/><path d="M518,601.9c-2.3-3.1-6.3-.9-9-2.9l-14-5c-3.4-3.7.1-7.4.1-11.1-.1-13.6-.1-27.3-.1-40.9,2.4-2.3,6.2.2,8.3-2.7.3-1.2.3-2.4.6-3.6s1-2.3,2.6-2.2a27.2,27.2,0,0,1,4.6,2.1c1.1,1.5,1.9,3.3,3.9,3.9s1.3-.4,1.5-1.2a2.8,2.8,0,0,1,.9-1,7.5,7.5,0,0,1,3.6-.5,18,18,0,0,1,5,1.5,7.3,7.3,0,0,1,1.8,1.4,10.2,10.2,0,0,1,2.2,3.2c.7,3.2.4,6.5.4,9.7a12.5,12.5,0,0,0,1.6,6c.3,11.4,1.7,22.8-1,34.2-.6,2.6-.3,5.3-.4,8s-.2,3.6-1.6,5C525.5,604.2,522.3,601.6,518,601.9Z" transform="translate(-431.2 -406.9)" fill="#f05f52"/><path d="M495,478H479c0-4,.2-8.1,0-12.2s1.2-4.1,4-3.8a16.6,16.6,0,0,1,12,0Z" transform="translate(-431.2 -406.9)" fill="#f16055"/><path d="M483,532c-3.2,2.2-4.4,1.2-4-2.6a48.6,48.6,0,0,0,0-5.4,1.9,1.9,0,0,1,1.9-.4,2.8,2.8,0,0,1,.9,1c.5,1.9,2.1,2.4,3.8,2.8s4.9,1,7.3,2,1.9,1.5,2.9,2.2,5.2,1.3,3,4.9a3.2,3.2,0,0,1-3.8-.5h-6a2.8,2.8,0,0,1-4,0v-2C485.5,532.2,483.3,533.1,483,532Z" transform="translate(-431.2 -406.9)" fill="#f25d55"/><path d="M463,458c-5,1.3-9.3-2.5-14.2-2.1-1.5.1-1.9-1.3-1.4-2.6s2.8-1.7,3.8-1.1c5.1,3.2,10.6,1.3,15.8,1.9,1.9.5,2.4,1.2.1,1.9S463.4,455.4,463,458Z" transform="translate(-431.2 -406.9)" fill="#f26055"/><path d="M485,512c1.4,1.2,2.7-4,4,0,1.2,1.4,2.9.9,4.4,1a3.4,3.4,0,0,1,1.9.9,2.3,2.3,0,0,1,.2,2c-2.6,1.6-.5,3.1,0,4.7a2,2,0,0,1-.8,2,5.2,5.2,0,0,1-5.5-.3,1.7,1.7,0,0,1-.2-2.3c.5-5-3.9-4.7-6.7-5.9-1.3-.5-3,0-3.3-2.1h2A2.8,2.8,0,0,1,485,512Z" transform="translate(-431.2 -406.9)" fill="#eb5f53"/><path d="M461.1,582.9a2.2,2.2,0,0,1-2.1-.9,12.7,12.7,0,0,1,.1-2h0c.7-1.1,2.2-1.3,2.7-2.6L463,576h9.5C469.9,581.1,465.6,582.1,461.1,582.9Z" transform="translate(-431.2 -406.9)" fill="#ee6150"/><path d="M495,536h4a4.3,4.3,0,0,1,6,0v4c-2,1.3-4,1.5-6,0C499.2,537.2,494.9,538.8,495,536Z" transform="translate(-431.2 -406.9)" fill="#ef5f56"/><path d="M485,536h4c-1.4,2.7-4.2,3.1-6.7,3.9s-2.8.3-3.1-1.5,1.3-2.4,2.9-2.4Z" transform="translate(-431.2 -406.9)" fill="#f35f4e"/><path d="M495,462H483v-2h14A1.8,1.8,0,0,1,495,462Z" transform="translate(-431.2 -406.9)" fill="#f35d56"/><path d="M499,540h6c-2.6,4.2-6.7.9-10,2-1.4-.3-2.5-1-.4-1.8S497.5,540,499,540Z" transform="translate(-431.2 -406.9)" fill="#f45d4f"/><path d="M489,520v2l-.5.5a6.2,6.2,0,0,1-3.3.7l-1.9.2c-.8.1-1.6.5-2.4.6h-2c-.2-2.9,1.7-3.7,4.1-3.9A57.6,57.6,0,0,1,489,520Z" transform="translate(-431.2 -406.9)" fill="#da635d"/><path d="M475,460c2.7-3.2,5.4-3.2,8,0Z" transform="translate(-431.2 -406.9)" fill="#f35d56"/><path d="M483,532c1.8.2,3.6-.4,5.5.6-.5,2.2-2.3,1.1-3.5,1.4A1.9,1.9,0,0,1,483,532Z" transform="translate(-431.2 -406.9)" fill="#e86456"/><path d="M473,458.1V460c-1.8-.1-3.7.5-5.9-.9C469.3,457.5,471.3,458.3,473,458.1Z" transform="translate(-431.2 -406.9)" fill="#ec6451"/><path d="M478.3,584.3c-.7,1-1.7,1.8-2.4,1.1s.2-1.2,1-1.3A3.9,3.9,0,0,1,478.3,584.3Z" transform="translate(-431.2 -406.9)" fill="#f26351"/><path d="M529,605.8c.2-15.9,3.3-31.8,2-47.8-1.8-2.6-.7-5.5-1-8.3s.8-5.3-1-7.7a1.9,1.9,0,0,1-2-2c1.3-1.3,2.7-1,4,0h0c1.4.7,3,1.1,3,3.1.9,7.5.4,15,.4,22.4.1,11.2.1,22.3.3,33.4,0,2.5.3,5.1-1.7,7.1Z" transform="translate(-431.2 -406.9)" fill="#ee6153"/><path d="M533,606V542a1.4,1.4,0,0,1,2,0v1a5.4,5.4,0,0,1,1.4,3.4,122.3,122.3,0,0,1,.2,16c-.6,13.1,1.1,26.1,1.4,39.2.1,2.7-.3,5-3,6.3h-1.8A11.1,11.1,0,0,0,533,606Z" transform="translate(-431.2 -406.9)" fill="#f25f56"/><path d="M535,607.9a21.9,21.9,0,0,0,.6-18.4,11.4,11.4,0,0,1-.6-4.8V546a3.2,3.2,0,0,1,4.1-.2,2.3,2.3,0,0,1-.1,3.2c0,17.1,0,34.3.1,51.4,0,1.8-1.2,3.9,1.3,5.3s.3,2-.9,2.1A33.8,33.8,0,0,1,535,607.9Z" transform="translate(-431.2 -406.9)" fill="#ee6251"/><path d="M539,549v-3c-.3-.2-.3-.4-.2-.7s.1-.3.2-.3h1.9v18.1C538.9,557.7,541.4,553.1,539,549Z" transform="translate(-431.2 -406.9)" fill="#dd5955"/><path d="M539,545v1h-4v-3C536.3,543.7,538.6,542.5,539,545Z" transform="translate(-431.2 -406.9)" fill="#ed6256"/><path d="M535,542h-2c-.7-.7-1.3-1.4-2-2h4c.5.9,2.6,0,2,2Z" transform="translate(-431.2 -406.9)" fill="#b26459"/><path d="M537,542l-2-2a8.7,8.7,0,0,1,5,1v1Z" transform="translate(-431.2 -406.9)" fill="#a9605d"/><path d="M546,539l-3,1.9h-1C542.4,538.3,544.5,539.2,546,539Z" transform="translate(-431.2 -406.9)" fill="#5c595c"/><path d="M539,470.1h1c1.1,6,.2,12.1.5,18.1.1,1.9-.5,3.9.5,5.8-.1,13.3-.1,26.7-.1,40a1.6,1.6,0,0,1-2.4-.3c-1.2-2-.8-4.2-.9-6.3V494c-.1-5.9.1-11.9-.2-17.9C537.3,474,537.4,471.8,539,470.1Z" transform="translate(-431.2 -406.9)" fill="#ec625f"/><path d="M539,534h1.9v2c-1.3,1.2-2.6,1-3.9.1l-3.9-.2c-1.4-1.2-3.2-.3-4.8-.7s-3.5-1.5-1.2-3.7,3.5-.9,5.4-.8,3.2,1.3,4.8,2A7,7,0,0,1,539,534Z" transform="translate(-431.2 -406.9)" fill="#da615a"/><path d="M541,494c-2.1-4.7-.6-9.7-1-14.5-.2-3.2,0-6.3,0-9.4h.9C540.9,478.1,541,486,541,494Z" transform="translate(-431.2 -406.9)" fill="#e55b59"/><path d="M537,536.1h3.9l1,1C540,538.4,538.2,539,537,536.1Z" transform="translate(-431.2 -406.9)" fill="#876660"/><path d="M532,536.1c.6,1.2.5,2-1.1,2a3.2,3.2,0,0,1-3.6.4,1.8,1.8,0,0,1-.9-1.3,3,3,0,0,1,.5-1.5,3.5,3.5,0,0,1,2.2-.6C530.2,535.1,531.3,535.1,532,536.1Z" transform="translate(-431.2 -406.9)" fill="#716260"/><path d="M527,538h3.9a11.5,11.5,0,0,1,.1,1.9h-4a9.4,9.4,0,0,1-1-1C525.7,538.1,526.1,537.7,527,538Z" transform="translate(-431.2 -406.9)" fill="#b26459"/><path d="M532,536.1h-3a1.3,1.3,0,0,1,0-2c1.6.1,3.6-.5,4.1,1.9Z" transform="translate(-431.2 -406.9)" fill="#916465"/><path d="M445.1,576h-2V542.5c2.7.7,1.9,2.5,1.9,3.7.1,7.8,0,15.6.1,23.4,0,1.7-.8,3.9,2,4.4a1.5,1.5,0,0,1,0,2Z" transform="translate(-431.2 -406.9)" fill="#ee624e"/><path d="M447.1,576v-2c1.8.1,3.7-.5,5.9.9C450.8,576.5,448.8,575.7,447.1,576Z" transform="translate(-431.2 -406.9)" fill="#f06258"/><path d="M463,576v2c-2,1.5-3.9.8-5.9,0C458.1,574.4,461,576.6,463,576Z" transform="translate(-431.2 -406.9)" fill="#f85a55"/><path d="M457.1,578H463c-.3,2.6-2.4,1.8-3.9,2Z" transform="translate(-431.2 -406.9)" fill="#f06258"/><path d="M539,470.1V494c-2.7-.2-2.1-2.4-2.3-4s.2-6.3-.2-9.5a3.9,3.9,0,0,1-2.1-1.3c-1.3-2.2-3.5-2.1-5.6-2.2a2.4,2.4,0,0,1-1.8-1v-2c1.1-2.7,4.1-2.5,6-4a2.6,2.6,0,0,0,4,.1h2Z" transform="translate(-431.2 -406.9)" fill="#f46153"/><path d="M523,466.1c-1.8,3.9-5.4,1.1-8,1.9h-4c.6-2.9,3-1.8,4.7-1.9A59.3,59.3,0,0,1,523,466.1Z" transform="translate(-431.2 -406.9)" fill="#ec624e"/><path d="M527,476h2a1.3,1.3,0,0,1,0,2h-6C523.4,475.4,525.4,476.2,527,476Z" transform="translate(-431.2 -406.9)" fill="#ea6453"/><path d="M537,470.1a1.9,1.9,0,0,1-1.8,1.9,1.9,1.9,0,0,1-2.2-2Z" transform="translate(-431.2 -406.9)" fill="#fc5e51"/><path d="M529,478v-2c2.2.7,5.9-1.8,6,3a8.9,8.9,0,0,1,1.4,4.7c0,12.9.1,25.8,0,38.7a5.9,5.9,0,0,1-.7,2.9l-.7.7h-2c-1.4-1.7-1-3.8-1-5.8V483.8c0-2,.4-4-1-5.8Z" transform="translate(-431.2 -406.9)" fill="#f55c56"/><path d="M531,478c3,.7,2,3.1,2,4.9V526c-3-.6-1.9-3.1-1.9-4.8C531,506.8,531,492.4,531,478Z" transform="translate(-431.2 -406.9)" fill="#ec6154"/><path d="M529,534v2h-2c-1.6,1.6-3.6,1.1-5.5,1a17,17,0,0,1-3.9-.2,7.9,7.9,0,0,1-2.7-2.1c-1.1-1.8-2.9-1.2-4.5-1.4a17.5,17.5,0,0,1-4-.3,6.5,6.5,0,0,1-2-.2,31.1,31.1,0,0,0-5-2.1,3.1,3.1,0,0,1-.9-1.1,4,4,0,0,1,.3-1.5,3.2,3.2,0,0,1,2.7-1.1,6,6,0,0,1,3.7.9H507c2,1.7,4.4.7,6.6,1s3.8-.5,5.4,1.1h0c2.2,2,5.1.2,7.5,1.5l.4.6C526,534.5,528,533.7,529,534Z" transform="translate(-431.2 -406.9)" fill="#7f646e"/><path d="M537,480a.6.6,0,0,1,.1-.4l.6-.4c.1,2.9.1,5.8.3,8.7s-.8,4.3,1,6.1v34a3.1,3.1,0,0,1-2,.9,2.5,2.5,0,0,1-2-.9v-2h0c1.4-1.7,1-3.8,1-5.8V485.8C536,483.8,535.5,481.8,537,480Z" transform="translate(-431.2 -406.9)" fill="#ef5f4e"/><path d="M495,520c-1.7-.3-3.3-1.5-3.2-3s2.1-.7,3.2-1a4.3,4.3,0,0,1,6,0v2c-1.4,1.7-3.6,1-5.3,1.9Z" transform="translate(-431.2 -406.9)" fill="#f35c58"/><path d="M533,532h-6a2,2,0,0,1-.5-1.9A4.2,4.2,0,0,1,529,528h4A2.8,2.8,0,0,1,533,532Z" transform="translate(-431.2 -406.9)" fill="#ec6154"/><path d="M533,532v-4h4a5.1,5.1,0,0,1,0,6Z" transform="translate(-431.2 -406.9)" fill="#f55c56"/><path d="M489.1,522H495c1.4-1,2.7-1.2,4,0v2c-.9,1.2-2.3,1.3-3.7,1.4h-4.1a3.7,3.7,0,0,1-2.2-1,1.7,1.7,0,0,1,0-2.2Z" transform="translate(-431.2 -406.9)" fill="#e56156"/><path d="M495,514h-2a1.3,1.3,0,0,1,0-2h0a5.1,5.1,0,0,1,6,0c1.2.3,2.9-.7,3.5,1s-.8.9-1.5,1A4.8,4.8,0,0,1,495,514Z" transform="translate(-431.2 -406.9)" fill="#eb614c"/><path d="M499,522h-4v-2h0a7.9,7.9,0,0,1,8,0C502.7,522.6,500.6,521.8,499,522Z" transform="translate(-431.2 -406.9)" fill="#f1614b"/><path d="M527,530v2.1c-2.7-.7-6.1,1.6-8-2.1h6A1.4,1.4,0,0,1,527,530Z" transform="translate(-431.2 -406.9)" fill="#df615e"/><path d="M503,520h-8c1.1-3.6,4-1.3,6-2S503,518.7,503,520Z" transform="translate(-431.2 -406.9)" fill="#e86254"/><path d="M527,530h-2c-.2-3.7.8-5,4-2A1.8,1.8,0,0,1,527,530Z" transform="translate(-431.2 -406.9)" fill="#f55d4c"/><path d="M519,530.1l-5.8-.2c-.8-.5-.8-1.1-.3-1.8C515,528.6,518,526.4,519,530.1Z" transform="translate(-431.2 -406.9)" fill="#df615e"/><path d="M499,512h-6Q496,507.4,499,512Z" transform="translate(-431.2 -406.9)" fill="#eb5f53"/><path d="M512.9,528.1l.3,1.8c-2.1-.5-5,1.7-6.2-1.9Z" transform="translate(-431.2 -406.9)" fill="#8a6569"/><path d="M495,514h6v2h-6Z" transform="translate(-431.2 -406.9)" fill="#f55c4d"/><path d="M495,524h4c1.3.1,2,.7,2.1,1.9a2.7,2.7,0,0,1-2,1.1,4.5,4.5,0,0,1-3-.4A2.1,2.1,0,0,1,495,524Z" transform="translate(-431.2 -406.9)" fill="#b46466"/><path d="M499,526.1l2.1-.2c1.6.2,3.5-.3,4.1,2H501C500.6,527.2,498.5,527.9,499,526.1Z" transform="translate(-431.2 -406.9)" fill="#856467"/><path d="M493,512v2c-1.5-.2-3.6.7-4-2Z" transform="translate(-431.2 -406.9)" fill="#f85b51"/><path d="M485,512h-4a1.9,1.9,0,0,1,2.3-1.9C484.5,510.2,484.9,511,485,512Z" transform="translate(-431.2 -406.9)" fill="#f95a4d"/><path d="M527,594c-.2,1.3.6,3.1-1.5,3.8s-2.6-.7-3.3-1.7-4.4-1.8-7.4-3c3.2-1.4,5.2-4.1,8.2-1.1C524,593.3,526,592.6,527,594Z" transform="translate(-431.2 -406.9)" fill="#ef6055"/><path d="M504,532h1.9a2.1,2.1,0,0,1,1.3,1.3l-.3.6a1.9,1.9,0,0,0-1.9,2h-6c.2-2.8-4.1-1.2-4-4,1.7-1.9,3.8-.8,5.8-1A5.5,5.5,0,0,1,504,532Z" transform="translate(-431.2 -406.9)" fill="#ea614d"/><path d="M529,542c2.4.4,2,2.2,2,3.8V558c-2.4-.4-2-2.2-2-3.8Z" transform="translate(-431.2 -406.9)" fill="#f45d50"/><path d="M517,538c-.6,1.5,2.9,3,.8,3.5s-5.2-1-6.7-3.5c-.3-.5-.1-1.3-.1-2C513.6,534.9,515.2,536.7,517,538Z" transform="translate(-431.2 -406.9)" fill="#ec615a"/><path d="M517,538c-2.4.7-3.9-1.5-6-2s-3.6.5-4.1-2h.1c1-1.1,2.3-1,3.5-1a7.6,7.6,0,0,1,2.1.3,21.1,21.1,0,0,1,2.9,2c.5.9,2.1,1.2,1.5,2.7Z" transform="translate(-431.2 -406.9)" fill="#e15f62"/><path d="M517,538c-.7-.7-1.3-1.4-2-2a1.5,1.5,0,0,1,2-.2l3.9.3a1.1,1.1,0,0,1,.7.8,1.9,1.9,0,0,1-.5,1Z" transform="translate(-431.2 -406.9)" fill="#d56262"/><path d="M521.1,537.9V537a7.6,7.6,0,0,1,5.9,0v1a9.4,9.4,0,0,1-1,1Z" transform="translate(-431.2 -406.9)" fill="#916a67"/><path d="M510.4,592.8c.1,1-.6,1-1.3,1.1s-1.3-.1-1.5-.8.6-1,1.3-1A1.2,1.2,0,0,1,510.4,592.8Z" transform="translate(-431.2 -406.9)" fill="#f85956"/><path d="M527,594c-1.6-.2-3.6.6-4-2C524.6,592.1,526.7,591.3,527,594Z" transform="translate(-431.2 -406.9)" fill="#f75b53"/><path d="M501.1,532H495a1.9,1.9,0,0,1-2-1.9l.5-.6a4.4,4.4,0,0,1,5.5.5h0C499.5,530.9,501.6,530.1,501.1,532Z" transform="translate(-431.2 -406.9)" fill="#d86358"/><path d="M493,530.1c-2.8-.2-5.8.4-8-2l.5-.6a7.5,7.5,0,0,1,7.4.1,1.6,1.6,0,0,1,.2,2.3Z" transform="translate(-431.2 -406.9)" fill="#d86358"/><path d="M485,528.1c-2.2,0-4.3,0-3.9-3.1.9-.6,1.7-.2,2.5.2s1.9,1.3,1.5,2.7Z" transform="translate(-431.2 -406.9)" fill="#da635d"/><path d="M483.1,525.9l-2-.9a3.1,3.1,0,0,0-.1-1,1.8,1.8,0,0,1,2.1-1.9C484,523.3,484.3,524.6,483.1,525.9Z" transform="translate(-431.2 -406.9)" fill="#936261"/><path d="M483.1,525.9v-3.8H485c1.1,1.4,3.1.8,4.2,1.9H491c1.4,1.5,3.7.7,5.1,2H499l2,1.9a2.1,2.1,0,0,0-2,1c-2.2.8-4.2,0-6.2-.9l-7.7-.2Z" transform="translate(-431.2 -406.9)" fill="#7f6669"/><path d="M489.2,523.9c-1.6,0-3.7.8-4.2-1.9h4A11,11,0,0,0,489.2,523.9Z" transform="translate(-431.2 -406.9)" fill="#936261"/><path d="M537,534v-6h2v6Z" transform="translate(-431.2 -406.9)" fill="#f65a4d"/><path d="M527,537h-5.9c-.1-.3-.1-.6-.2-.9H527Z" transform="translate(-431.2 -406.9)" fill="#88615e"/><path d="M537,480v41.2c0,1.7,1,4.2-2,4.8V479Z" transform="translate(-431.2 -406.9)" fill="#f35d51"/><path d="M492.8,528.1c2.2-.5,4.2.5,6.2.9v1h-5.9Z" transform="translate(-431.2 -406.9)" fill="#856765"/><path d="M511,533.9h-4a11.8,11.8,0,0,0-1.1-1.9H511A1.2,1.2,0,0,1,511,533.9Z" transform="translate(-431.2 -406.9)" fill="#8a6569"/><path d="M517,535.8l-2,.2-2.1-1.9a1.4,1.4,0,0,1,2.1-.1A1.8,1.8,0,0,1,517,535.8Z" transform="translate(-431.2 -406.9)" fill="#836466"/><path d="M515,534h-2.1l-1.9-.2V532C512.3,532.7,514.6,531.5,515,534Z" transform="translate(-431.2 -406.9)" fill="#7f6669"/><path d="M501.1,532l-2.1-2c1.9,0,4-.3,5,2Z" transform="translate(-431.2 -406.9)" fill="#856467"/><path d="M496.1,526c-1.8-.4-4.3,1.2-5.1-2h4Z" transform="translate(-431.2 -406.9)" fill="#856765"/></svg>