<?xml version="1.0" encoding="utf-8"?>
<!-- Generator: Adobe Illustrator 25.0.0, SVG Export Plug-In . SVG Version: 6.00 Build 0)  -->
<svg version="1.1" id="Layer_1" xmlns="http://www.w3.org/2000/svg" xmlns:xlink="http://www.w3.org/1999/xlink" x="0px" y="0px"
	 viewBox="0 0 1080 1080" style="enable-background:new 0 0 1080 1080;" xml:space="preserve">
<g>
	<path d="M587.77,666.31c-0.41-0.18-0.82-0.35-1.23-0.53c-1.72-0.74-2.39-2.01-1.87-3.79c0.24-0.82,0.62-1.61,1.07-2.34
		c9.6-15.8,14.92-33.07,17.54-51.23c2.13-14.77,4.05-29.57,6.06-44.36c0.05-0.4,0.06-0.8,0.13-1.67c-0.49,0.76-0.75,1.15-0.99,1.55
		c-7.7,12.83-16.91,24.37-29,33.39c-9.37,6.99-19.73,11.7-31.43,13.08c-11.39,1.35-22.15-0.21-31.43-7.57
		c-7.58-6.01-11.91-14.12-14.59-23.23c-0.4-1.36-0.74-2.74-1.11-4.11c-0.01-0.03-0.08-0.05-0.24-0.13
		c-0.29,0.37-0.59,0.74-0.88,1.13c-6.78,9.28-14.32,17.83-23.79,24.5c-8.86,6.24-18.55,10-29.57,9.84
		c-19.29-0.28-33.56-10.48-40.01-28.66c-0.25-0.7-0.52-1.39-0.87-2.3c-0.46,0.71-0.79,1.21-1.12,1.72
		c-5.74,8.93-12.47,16.94-21.38,22.9c-5.23,3.5-10.91,5.86-17.27,6.31c-11.7,0.82-19.45-5.07-22.14-16.86
		c-1.69-7.41-1.69-14.91-1.09-22.44c1.29-16.16,4.18-32.11,6.75-48.09c0.98-6.11,1.88-12.24,2.79-18.37
		c0.37-2.5-0.48-3.54-2.98-3.28c-1.89,0.2-3.8,0.7-5.59,1.37c-5.31,2.01-10.08,5.04-14.62,8.4c-0.56,0.42-0.91,1.43-0.96,2.2
		c-1.07,17.15-5.17,33.58-11.72,49.41c-4.64,11.2-10.58,21.62-18.96,30.5c-7.56,8.02-16.45,13.9-27.41,16.12
		c-10.49,2.13-20.67,1.4-30.05-4.29c-7.85-4.76-12.77-11.92-16.11-20.28c-3.5-8.75-4.91-17.91-5.02-27.26
		c-0.22-18.33,3.53-35.81,11.82-52.22c4.23-8.38,9.62-15.91,17.16-21.7c6.08-4.67,12.97-7.34,20.63-7.88
		c3.34-0.24,6.6,0.21,9.63,1.76c2.88,1.47,4.75,3.79,5.53,6.91c0.12,0.47-0.05,1.32-0.39,1.55c-9.3,6.37-15.22,15.41-19.93,25.34
		c-7.34,15.48-11.29,31.82-11.75,48.95c-0.17,6.11,0.29,12.19,2.31,18.04c0.51,1.48,1.15,2.94,1.95,4.29
		c2.9,4.92,7.14,6.68,12.7,5.36c5.93-1.41,10.29-5.16,14.11-9.63c6.26-7.33,10.42-15.83,13.68-24.81
		c3.84-10.57,6.19-21.44,6.71-32.69c0.07-1.44-0.25-2.04-1.77-2.46c-7.2-2.01-12.62-6.14-14.68-13.63
		c-2.57-9.38,2.94-20.25,12.04-24.16c9.27-3.98,19.25-0.69,24.72,8.18c0.66,1.08,1.23,2.21,1.94,3.48c0.61-0.39,1.19-0.75,1.77-1.13
		c8.75-5.81,18.07-10.33,28.41-12.53c4.44-0.94,8.92-1.44,13.47-0.83c8.79,1.19,14.47,7.03,15.57,15.82
		c0.67,5.34-0.23,10.53-1.09,15.74c-2.72,16.53-5.6,33.03-8.17,49.58c-0.88,5.65-1.06,11.41-1.42,17.13
		c-0.09,1.38,0.25,2.84,0.64,4.19c0.57,1.99,1.78,2.75,3.86,2.77c2.37,0.02,4.48-0.83,6.47-2.01c3.97-2.34,7.23-5.51,9.76-9.28
		c2.82-4.2,5.27-8.66,7.81-13.05c0.36-0.62,0.45-1.45,0.47-2.19c0.5-16.07,4.56-31.19,12.32-45.27
		c6.16-11.17,14.18-20.69,25.21-27.39c10.25-6.23,21.35-8.74,33.3-7.22c13.23,1.68,22.91,10.6,25.04,23.62
		c1.47,9-0.39,17.46-6.17,24.68c-3.95,4.93-9.17,7.42-15.62,6.01c-4.67-1.02-7.63-4.08-8.85-8.7c-0.18-0.69-0.05-1.62,0.27-2.28
		c2.51-5.05,4.36-10.29,4.66-15.97c0.09-1.65-0.01-3.37-0.36-4.98c-1-4.64-4.43-6.61-9.04-5.35c-3.43,0.94-5.99,3.15-8.3,5.71
		c-3.47,3.85-6.09,8.25-8.3,12.9c-6.46,13.59-10.17,27.91-11.31,42.89c-0.55,7.23-0.38,14.42,1.57,21.46
		c0.39,1.41,0.9,2.81,1.49,4.15c3.74,8.51,10.87,11.96,19.89,9.66c6.27-1.6,11.48-5.11,16.28-9.27c9.9-8.58,17.55-19.01,24.35-30.1
		c0.35-0.56,0.4-1.34,0.47-2.03c2.05-19.59,8.36-37.51,21.1-52.81c8.19-9.84,18.32-16.8,31.05-19.45
		c8.77-1.82,17.51-1.54,26.05,1.28c15.07,4.97,21.7,17.8,20.25,31.79c-1.75,16.82-10.77,29.29-24.47,38.56
		c-10.88,7.36-23.11,10.51-36.19,10.6c-1.31,0.01-2.63,0-4.16,0c0,2.65-0.1,5.22,0.02,7.79c0.26,5.66,1.05,11.24,3.68,16.37
		c2.63,5.14,6.75,7.98,12.67,7.4c2.96-0.29,5.96-0.81,8.79-1.7c8.15-2.55,15.05-7.32,21.39-12.89
		c14.39-12.65,25.53-27.8,33.99-44.92c1.08-2.19,1.12-4.91,1.61-7.39c2.03-10.31,4.04-20.62,6.06-30.93
		c0.06-0.29,0.09-0.58,0.17-1.06c-1.32,0-2.52,0.01-3.72,0c-2.95-0.03-5.9-0.02-8.85-0.11c-2.52-0.08-3.78-1.07-4.22-3.56
		c-0.77-4.36,0.38-8.25,3.27-11.6c1.01-1.18,2.37-1.64,3.95-1.62c4.57,0.04,9.14,0.01,13.68,0.01c1.53-4.86,2.92-9.63,4.53-14.32
		c3.22-9.45,7.07-18.61,12.87-26.83c4.75-6.73,10.43-12.57,18.49-15.02c12.82-3.91,25.02-2.59,35.52,6.42
		c5.99,5.14,8.77,12.21,10.31,19.78c2.02,9.95,1.46,19.9-0.11,29.85c-3.23,20.35-6.58,40.69-9.63,61.07
		c-1.73,11.59-3.04,23.25-4.38,34.9c-0.37,3.26-0.19,6.58-0.21,9.88c0,0.65,0.18,1.31,0.35,1.94c1.29,4.71,4.58,6.2,8.97,4.02
		c3.85-1.91,6.98-4.79,9.66-8.05c3.64-4.43,7-9.08,10.41-13.7c0.42-0.57,0.52-1.52,0.49-2.28c-0.63-18.53,3-36.16,11.35-52.74
		c4.27-8.48,9.73-16.08,17.36-21.93c6.26-4.8,13.31-7.55,21.21-7.98c3.18-0.17,6.3,0.25,9.19,1.7c2.79,1.39,4.67,3.56,5.45,6.59
		c0.12,0.46-0.07,1.29-0.41,1.52c-8.77,5.87-14.64,14.16-19.27,23.38c-8.01,15.95-12.27,32.86-12.38,50.74
		c-0.03,5.24,0.53,10.45,2.31,15.44c3.34,9.33,10.16,12.11,19.09,7.73c4.96-2.43,8.75-6.24,12.03-10.57
		c7.61-10.06,12.17-21.51,15.2-33.63c1.66-6.67,2.72-13.43,2.83-20.32c0-0.2-0.04-0.4-0.07-0.77c-0.58-0.15-1.21-0.28-1.83-0.47
		c-6.73-2.01-12.09-5.65-14.35-12.64c-3.24-10.02,3.52-21.77,14.15-24.86c9.21-2.67,18.42,1.3,23.17,10.11
		c1.1,2.04,1.89,4.24,2.87,6.48c1.7-0.81,3.45-1.61,5.16-2.46c10.15-5.03,20.29-10.07,30.44-15.11c4.31-2.14,8.83-3.65,13.65-4.07
		c1.4-0.12,2.85-0.06,4.25,0.16c3.96,0.62,5.88,3.28,5.06,7.18c-1.41,6.75-2.93,13.49-4.47,20.22c-3.49,15.19-6.89,30.39-9.22,45.81
		c-1.15,7.59-2.15,15.2-1.91,22.89c0.08,2.51,0.47,5.08,1.2,7.47c1.12,3.68,3.86,5.14,7.5,3.92c2.21-0.74,4.35-2,6.18-3.45
		c4.67-3.71,8.07-8.56,11.22-13.56c7.68-12.19,13.2-25.38,17.91-38.94c4.89-14.07,8.66-28.45,11.4-43.09
		c0.35-1.9,1.37-3.24,2.75-4.41c3.38-2.87,7.39-4.4,11.64-5.4c5-1.18,10.03-1.63,15.1-0.48c0.79,0.18,1.57,0.45,2.31,0.77
		c3.29,1.45,4.34,3.63,3.47,7.11c-3.04,12.16-6.15,24.3-9.08,36.49c-3.16,13.18-5.99,26.44-7.69,39.9
		c-0.83,6.55-1.56,13.13-0.43,19.73c0.24,1.43,0.69,2.88,1.32,4.18c1.22,2.52,3.53,3.61,6.09,2.48c2.18-0.96,4.3-2.34,6.04-3.96
		c4.55-4.22,7.93-9.39,11.01-14.72c11.27-19.53,19.5-40.26,24.39-62.29c0.27-1.23-0.06-1.77-1.07-2.41
		c-11.57-7.28-15.02-24.46-6.92-35.46c5.62-7.63,13.48-10.55,22.71-8.7c9.5,1.9,14.64,8.41,16.62,17.57
		c1.34,6.21,0.77,12.47-0.37,18.63c-5.46,29.51-16.13,56.97-32.79,82.01c-5.92,8.89-12.85,16.91-21.54,23.27
		c-6.99,5.12-14.65,8.57-23.44,8.92c-15.53,0.62-26.21-7.51-30.21-22.86c-1.29-4.94-1.84-9.98-1.98-15.07
		c-0.01-0.49-0.06-0.97-0.11-1.7c-1.88,3.16-3.56,6.15-5.39,9.04c-5.33,8.43-11.47,16.16-19.61,22.1c-6.55,4.78-13.78,7.73-22,8.02
		c-9.32,0.32-16.41-3.55-21.41-11.31c-3.73-5.78-5.33-12.27-5.73-19.04c-0.51-8.55,0.18-17.08,1.36-25.53
		c1.77-12.71,3.88-25.38,5.84-38.07c0.02-0.14,0-0.3,0-0.59c-0.37,0.12-0.68,0.19-0.98,0.31c-5.42,2.18-10.82,4.4-16.26,6.5
		c-1.08,0.42-1.42,0.94-1.57,2.04c-3.23,22.47-10.02,43.62-23.63,62.12c-6.99,9.51-15.66,17.06-26.95,21.14
		c-9.02,3.26-18.27,3.95-27.59,1.56c-12.35-3.17-20.14-11.46-25.03-22.85c-0.4-0.92-0.77-1.86-1.17-2.85
		c-2.15,2.64-4.16,5.24-6.32,7.72c-5.28,6.05-11.14,11.43-18.23,15.32c-6.11,3.36-12.54,4.88-19.53,3.52
		c-7.46-1.45-12.54-5.75-15.41-12.68c-2.82-6.82-3.53-14.03-2.85-21.25c1.16-12.38,2.58-24.74,4.26-37.06
		c2.07-15.14,4.43-30.23,6.85-45.32c1.6-9.97,3.55-19.88,5.27-29.84c1.34-7.77,2.39-15.59,1.37-23.48c-0.3-2.33-0.92-4.72-1.92-6.83
		c-2.09-4.42-6.89-5.62-10.71-2.56c-2.05,1.64-3.77,3.85-5.18,6.09c-3.15,5.02-5.12,10.61-6.67,16.3
		c-1.88,6.9-3.45,13.88-5.14,20.83c-0.05,0.18-0.05,0.38-0.1,0.75c0.73,0.03,1.37,0.07,2.01,0.09c3.35,0.1,6.72,0.04,10.06,0.32
		c3.39,0.28,4.86,2.46,4.27,5.83c-1.03,5.96-6.26,10.37-12.29,10.37c-2.33,0-4.66,0-7.13,0c-0.63,4.15-1.33,8.14-1.84,12.15
		c-1.95,15.41-3.78,30.84-5.78,46.24c-1.97,15.1-3.89,30.21-6.21,45.26c-1.97,12.75-4.64,25.37-9.41,37.44
		c-2.87,7.26-6.5,14.15-11.49,20.18c-5.87,7.11-13.37,11.61-22.61,12.95c-0.14,0.02-0.27,0.13-0.41,0.2
		C590.42,666.31,589.1,666.31,587.77,666.31z M534.67,544.6c0.72,0,1.25,0.11,1.71-0.02c2.93-0.81,6.01-1.31,8.73-2.58
		c13.28-6.17,21.1-16.89,24.91-30.75c1.07-3.9,1.43-7.9,0.31-11.88c-1.03-3.7-3.48-5.84-6.92-6.13c-2.73-0.23-5.08,0.75-7.22,2.34
		c-3.29,2.43-5.71,5.62-7.78,9.08C541.04,516.94,537.29,530.48,534.67,544.6z"/>
	<path d="M51.68,475.79c0.54-2.73,0.85-5.53,1.66-8.18c4.2-13.63,13.37-22.83,26.35-28.18c13.76-5.66,28.05-6.69,42.43-2.79
		c13.53,3.68,21.1,13.25,24.44,26.48c2.43,9.62,2.48,19.41,1.71,29.22c-1.46,18.6-5.94,36.64-9.99,54.77
		c-2.07,9.26-3.81,18.59-5.5,27.92c-0.52,2.87-0.37,5.86-0.52,8.8c-0.02,0.35,0.04,0.71,0.09,1.06c0.64,4.11,3.38,5.62,6.86,3.36
		c2.65-1.72,5.1-3.89,7.22-6.24c6.34-7.01,11.21-15.06,15.63-23.38c11.93-22.47,19.91-46.29,24.2-71.36
		c1.6-9.34,2.53-18.72,2.07-28.2c-0.45-9.21-2.11-18.15-6.36-26.45c-2.46-4.81-5.62-9.06-10.24-12.06
		c-0.12-0.08-0.19-0.22-0.37-0.44c3.55-3.39,7.67-5.67,12.48-6.55c9.03-1.64,16.65,1.3,23.1,7.52c6.15,5.93,9.56,13.43,11.63,21.58
		c2.52,9.91,3.07,20,1.89,30.1c-4.74,40.41-18.68,77.48-41.14,111.35c-6.69,10.09-14.7,19.07-24.57,26.25
		c-7.44,5.41-15.55,9.23-24.83,10.09c-6.96,0.64-13.65-0.06-19.3-4.75c-4.46-3.7-6.68-8.73-8.03-14.2
		c-1.6-6.46-1.88-13.05-1.66-19.67c0.51-15.84,3.44-31.36,6.37-46.88c2.87-15.21,5.83-30.4,8.56-45.64
		c1.36-7.6,2.26-15.29,1.96-23.03c-0.11-2.82-0.42-5.69-1.12-8.42c-1.9-7.52-7.01-10.39-14.54-8.36
		c-6.28,1.69-10.91,5.75-14.79,10.73c-6.74,8.65-10.27,18.6-11.55,29.39c-0.72,6.14-0.57,12.27,0.53,18.36c0.03,0.19,0,0.39,0,0.66
		c-0.36,0-0.66,0.05-0.93-0.01c-12.83-2.73-22.21-13.27-23.48-26.36c-0.04-0.45-0.17-0.88-0.26-1.33
		C51.68,479.24,51.68,477.52,51.68,475.79z"/>
	<path d="M373.56,462.77c-9.21-0.03-15.72-5.53-17.29-14.98c-1.42-8.6,0.54-16.5,6.13-23.24c5.47-6.6,12.66-8.82,20.94-6.85
		c7.34,1.75,11.34,6.93,12.58,14.11c1.72,9.93-0.99,18.62-8.34,25.63C383.67,461.17,378.95,462.79,373.56,462.77z"/>
</g>
</svg>
