<svg xmlns="http://www.w3.org/2000/svg" viewBox="0 0 613 170.7"><defs><style>.a{fill:#174e70;}.b{fill:#134b6e;}.c{fill:#144c6f;}.d{fill:#154c70;}.e{fill:#636565;}.f{fill:#154d70;}.g{fill:#194f71;}.h{fill:#717272;}.i{fill:#33bad6;}.j{fill:#365870;}.k{fill:#254358;}.l{fill:#e8f1f3;}.m{fill:#e4e4e4;}.n{fill:#0d7abb;}.o{fill:#f9fbfb;}.p{fill:#c8c8c8;}.q{fill:#d7d9d9;}.r{fill:#f1f8f9;}.s{fill:#2cbad9;}.t{fill:#1377b6;}.u{fill:#16aed5;}.v{fill:#239cca;}.w{fill:#49bbce;}.x{fill:#1c88c2;}.y{fill:#1a6594;}.z{fill:#26afce;}.aa{fill:#21333f;}.ab{fill:#76c5cf;}</style></defs><path class="a" d="M289.1,116.9c-1.5,19.3-21.3,29.6-37.6,19.5-2.1-1.3-3.4-1.6-5.7-.2-16.8,10.1-35.9.7-37.4-18.9-1-15.1-.5-30.3-.4-45.5.1-5.4,3.7-8.8,8.3-8.7s8,3.7,8,9.6v40c0,6.3,3,10.1,7.8,10.2s8.3-3.7,8.3-10.3V73.1c0-6.2,3-9.8,8.1-10s8.4,3.6,8.5,9.7c.1,13.7-.2,27.3.2,41a11.2,11.2,0,0,0,4,7.7c1.7,1.3,5.9,1.1,7.6-.2a10.5,10.5,0,0,0,3.6-7.5c.4-13.8.1-27.7.2-41.5,0-5.3,3.4-8.9,8-9.2s7.5,2.8,8.6,7.9a32.1,32.1,0,0,0-.7,5.3q-.2,16.7,0,33.3C288.5,112.1,288.9,114.5,289.1,116.9Z" transform="translate(-10.4 -5.8)"/><path class="b" d="M363.8,82c1.5-9.6,7.2-15.5,16.3-18s17,.2,22.8,7.4,6.6,17.3,1.6,26.9a25.1,25.1,0,0,1,7.3,19.2,23.7,23.7,0,0,1-23.4,22.6H372c-4.4,0-7.3-1.8-8.3-6.3a15.9,15.9,0,0,0,.7-3.8c.1-14.7.1-29.5.1-44.3C364.4,84.5,364,83.3,363.8,82Zm16.3,41.9c5.4-.4,11.4,1.7,14.2-4.2,1.1-2.3.6-6.5-.9-8.6-3.3-4.6-8.6-2.4-13.3-2.5Zm.3-32.7c7.7.7,10.9-.9,11.1-5.4a5.9,5.9,0,0,0-6.4-6C380.7,80.2,379.2,83.8,380.4,91.2Z" transform="translate(-10.4 -5.8)"/><path class="c" d="M318.7,79.8V91.1c5.2,0,10.4-.5,15.4.2,2.7.4,6.2,2.4,7.4,4.7s.8,6.4-.8,8.1-5.4,3.2-8.4,3.6-8.9.1-13.6.1V124h23c5.5,0,8.8,3,8.9,7.9s-3.1,8.2-9,8.2H311.2c-5.7,0-8.8-2.8-8.8-8.4-.1-19.9-.1-39.7,0-59.5,0-5.9,3.1-9,8.9-9.1,10.2-.1,20.4-.1,30.5,0,5.6.1,9,3.7,8.8,8.7s-3.3,7.9-8.9,8C334.2,79.9,326.7,79.8,318.7,79.8Z" transform="translate(-10.4 -5.8)"/><path class="d" d="M622.8,92.7c0,8.2.9,16.4-.2,24.4-2,15.2-14.7,24.3-30.5,23-12.7-1.1-23.5-13.6-23.5-27.5s-.1-26.3,0-39.5c0-6.2,2.9-9.8,7.9-10s8.2,3.6,8.2,10.3c.1,12.5,0,25,0,37.5.1,7.7,4.4,12.8,10.9,12.9s11.1-4.9,11.1-12.6c.1-12.5,0-25,0-37.5,0-6.6,3.4-10.7,8.6-10.6s8.1,4.1,8.1,10.6,0,12.7,0,19Z" transform="translate(-10.4 -5.8)"/><path class="e" d="M103.6,41.3c12.1,7,24.3,13.8,36.4,20.9a5.3,5.3,0,0,1,2.1,3.9q.3,35.3.1,70.5a5.5,5.5,0,0,1-2.1,3.9c-10.8,6.3-21.7,12.4-32.5,18.6l-3.2-1.6,2.2-2.6.7.2.5.3-.3-.5-.5-1.3-.5,1a37.1,37.1,0,0,0-4.6,1.9c-7.2,4.1-14.5,8.1-21.6,12.5-2.9,1.8-5.1,1.7-8.1-.1-14.4-8.5-29-16.9-43.6-25.3a45.1,45.1,0,0,0-5.2-1.7h0l-1-.9h0l-.7-1.1-3.3-1.9h-2c-.1-4-.3-7.9-.3-11.8-.1-17.9-.1-35.9.1-53.7,0-2.9,1.4-5.7,2.2-8.5h0a39,39,0,0,0,4.8-1.7L48.5,47.9l1.9,8.5c-2.9.5-6.1.5-8.6,1.7A194.4,194.4,0,0,0,24.1,68.4,6.1,6.1,0,0,0,21.5,73q-.3,28.5,0,57a6,6,0,0,0,2.3,4.3c16.5,9.7,33,19.2,49.7,28.6a6.9,6.9,0,0,0,5.8,0q24.8-14,49.3-28.4a6.2,6.2,0,0,0,2.5-4.2c.2-19.2.2-38.3,0-57.5,0-1.3-.5-3.2-1.5-3.8-11.3-6.5-22.8-12.9-34.3-19.3-2.1-3.6-3.7-7.8-8.9-7.8l.9-4,19.8,11.3,27.3,15.7,1.3.7a24.1,24.1,0,0,1,1.1,5.2c.1,20-.1,40,.1,59.9.1,3.9-.7,6.8-4.5,8.4L112,151l-2.8,2.2.9,1.1,3.3-3,20.2-11.2c4.3-1,5.3-3.9,5.3-8.1-.2-20.5.1-41,0-61.4-.1-2.1-1.4-4.1-2.1-6.1l-2.4-1.1-26-15.5-5-3.2Z" transform="translate(-10.4 -5.8)"/><path class="f" d="M454.4,68.5c1-3.9,4-5.3,7.5-5.3,10.6-.2,21.3-.2,31.9,0A8.1,8.1,0,0,1,502,72c-.3,4.6-3.6,7.7-8.7,7.8-7.5.1-15,0-22.8,0v16h14.3c6,.1,8.9,3,8.9,8.4s-2.8,7.9-9.1,7.9c-4.6.1-9.3,0-14.5,0v19.3c0,4.5-1.8,7.8-6.5,8.7s-7.7-.9-9.8-6.1a19.4,19.4,0,0,0,.7-3.3C454.5,109.9,454.4,89.2,454.4,68.5Z" transform="translate(-10.4 -5.8)"/><path class="c" d="M528.7,123.1h20.1c6.6.1,10,3,9.9,8.5s-3.3,8.2-9.7,8.2H522c-6.6,0-9.6-2.9-9.6-9.3-.1-19.7-.1-39.4,0-59,0-5.5,3-8.7,8.1-8.7s8.1,3.3,8.2,8.7c.1,15.1,0,30.3,0,45.5Z" transform="translate(-10.4 -5.8)"/><path class="g" d="M440.4,102.3c0,9.3.1,18.6-.1,28,0,6.3-2.7,9.5-7.5,9.9s-9.1-2.8-9.1-8.3c-.2-20-.1-40,0-59.9,0-5.4,3.5-8.6,8.4-8.6s8,3.3,8.2,8.9c.2,10,0,20,0,30Z" transform="translate(-10.4 -5.8)"/><path class="h" d="M104.4,157.5l3.2,1.6c-9.8,5.7-19.5,11.5-29.3,17.1a5.5,5.5,0,0,1-4.5-.2c-20.3-11.6-40.7-23.3-60.9-35.2a5.6,5.6,0,0,1-2.4-4.3q-.1-34.9,0-70a5.7,5.7,0,0,1,2.2-4.3c11.8-7,23.6-13.7,35.5-20.4,0,1.3,0,2.6.1,3.9L20.8,61.4A15.1,15.1,0,0,0,18.4,64h0c-3.4-.5-4.5,1.3-4.5,4.3,0,22.1,0,44.2.2,66.4,0,1.1,1.5,2.2,2.3,3.3h0l.8,1.2,3.2,1.9h2l1,.9h0a8.8,8.8,0,0,0,1.8,2c16.2,9.4,32.4,18.9,48.8,28,1.4.8,4.1.4,5.7-.5C88,167,96.2,162.2,104.4,157.5Z" transform="translate(-10.4 -5.8)"/><path class="i" d="M48.3,45.7c-.1-1.3-.1-2.6-.1-3.9s.7-3.4,1.1-5.1l1,1.2c6,6.1,12,12.2,18.1,18.2l-9.1.2H50.4c-.6-2.8-1.3-5.7-1.9-8.5A18,18,0,0,1,48.3,45.7Z" transform="translate(-10.4 -5.8)"/><path class="i" d="M66.1,18.8l10.2-1h2.3c4.5,1.4,7.8,4,8.7,8.9.1.7.3,1.5.4,2.2s.5,2.4.7,3.6-.1,2.7-.1,4.1l-.9.2c-5.3-5.2-10.6-10.4-16.1-15.5-1.2-1.1-3.3-1.5-5-2.2Z" transform="translate(-10.4 -5.8)"/><path class="j" d="M66.1,18.8l.2.4-2.5.7L60.6,21c-2-6.3-5.4-9-10.4-8.3a8.9,8.9,0,0,0-7.9,8.2c-.3,5.2,2.5,8.4,8.8,10.1l1,.2a1.9,1.9,0,0,0-.2.7l-1.6,6-1-1.2c.1-1.1.3-2.2.4-3.4-6.1-1.9-9.9-5.6-9.9-12.2s4-9.6,9.3-10.8a11.1,11.1,0,0,1,12.3,6.2C62.5,18.7,63.5,20,66.1,18.8Z" transform="translate(-10.4 -5.8)"/><path class="k" d="M454.4,68.5c0,20.7.1,41.4.1,62.2a19.4,19.4,0,0,1-.7,3.3q-.2-31.6-.2-63.3A6.5,6.5,0,0,1,454.4,68.5Z" transform="translate(-10.4 -5.8)"/><path class="h" d="M88.3,36.7c0-1.4.1-2.8.1-4.1l15.2,8.7c-.1,1.2-.1,2.3-.2,3.4Z" transform="translate(-10.4 -5.8)"/><path class="k" d="M363.8,82c.2,1.3.6,2.5.7,3.8,0,14.8,0,29.6-.1,44.3a15.9,15.9,0,0,1-.7,3.8C363.8,116.6,363.8,99.3,363.8,82Z" transform="translate(-10.4 -5.8)"/><path class="j" d="M87.7,29c-.1-.7-.3-1.5-.4-2.2l7.9-4c1-.5,2-1.2,2.9-1.1s1.5,1.5,1.4,2.1a3.6,3.6,0,0,1-2,2.2C94.3,27.2,91,28.1,87.7,29Z" transform="translate(-10.4 -5.8)"/><path class="j" d="M78.6,17.9H76.3c1.1-3.6,2-7.3,3.3-10.8.2-.6,1.6-1.1,2.4-1.2s1.8.9,1.8,1.3a8,8,0,0,1-.9,3Z" transform="translate(-10.4 -5.8)"/><path class="k" d="M289.1,116.9c-.2-2.4-.6-4.8-.6-7.3q-.2-16.6,0-33.3a32.1,32.1,0,0,1,.7-5.3C289.2,86.3,289.2,101.6,289.1,116.9Z" transform="translate(-10.4 -5.8)"/><path class="l" d="M380.4,91.2c-1.2-7.4.3-11,4.7-11.4" transform="translate(-10.4 -5.8)"/><path class="m" d="M104.4,157.5c-8.2,4.7-16.4,9.5-24.7,13.9-1.6.9-4.3,1.3-5.7.5-16.4-9.1-32.6-18.6-48.8-28a8.8,8.8,0,0,1-1.8-2,45.1,45.1,0,0,1,5.2,1.7c14.6,8.4,29.2,16.8,43.6,25.3,3,1.8,5.2,1.9,8.1.1,7.1-4.4,14.4-8.4,21.6-12.5a37.1,37.1,0,0,1,4.6-1.9v.3Z" transform="translate(-10.4 -5.8)"/><path class="n" d="M63.8,19.9l2.5-.7c1.7.7,3.8,1.1,5,2.2,5.5,5.1,10.8,10.3,16.1,15.5a3.1,3.1,0,0,0-.1,1l-.9,4L84.6,43,65.9,23.9C64.9,22.8,64.5,21.3,63.8,19.9Z" transform="translate(-10.4 -5.8)"/><path class="m" d="M16.4,138c-.8-1.1-2.3-2.2-2.3-3.3-.2-22.2-.2-44.3-.2-66.4,0-3,1.1-4.8,4.5-4.3-.8,2.8-2.2,5.6-2.2,8.5-.2,17.8-.2,35.8-.1,53.7C16.1,130.1,16.3,134,16.4,138Z" transform="translate(-10.4 -5.8)"/><path class="j" d="M84.6,43l1.8-1.1c5.2,0,6.8,4.2,8.9,7.8-.2.5-.8,1.1-.7,1.6,1.1,6.9-1.4,11.9-7.1,13.7s-12-1-14.8-7.5a9.5,9.5,0,0,1-.7-2.4l1.5-1.3.9.3a31.8,31.8,0,0,0,1,3.3,9.1,9.1,0,0,0,11.5,5.3c4.4-1.5,7.5-6.9,5.3-11.2-1.5-2.8-5.1-4.5-7.8-6.7Z" transform="translate(-10.4 -5.8)"/><path class="o" d="M136.8,64.5c.7,2,2,4,2.1,6.1.1,20.4-.2,40.9,0,61.4,0,4.2-1,7.1-5.3,8.1l-1.2-1c3.8-1.6,4.6-4.5,4.5-8.4-.2-19.9,0-39.9-.1-59.9a24.1,24.1,0,0,0-1.1-5.2Z" transform="translate(-10.4 -5.8)"/><path class="m" d="M48.3,45.7a18,18,0,0,0,.2,2.2L23.2,62.3A39,39,0,0,1,18.4,64a15.1,15.1,0,0,1,2.4-2.6Z" transform="translate(-10.4 -5.8)"/><path class="p" d="M134.4,64.9,107.1,49.2l1.3-1.3,26,15.5Z" transform="translate(-10.4 -5.8)"/><path class="m" d="M108.4,47.9l-1.3,1.3L87.3,37.9a3.1,3.1,0,0,1,.1-1l.9-.2,15.1,8Z" transform="translate(-10.4 -5.8)"/><path class="m" d="M132.4,139.1l1.2,1-20.2,11.2L112,151Z" transform="translate(-10.4 -5.8)"/><path class="h" d="M112,151l1.4.3-3.3,3-.9-1.1Z" transform="translate(-10.4 -5.8)"/><path class="q" d="M20.4,141l-3.2-1.9,1.2-1.2,3.3,1.9Z" transform="translate(-10.4 -5.8)"/><path class="m" d="M18.4,137.9l-1.2,1.2-.8-1.2Z" transform="translate(-10.4 -5.8)"/><path class="o" d="M134.4,64.9V63.4l2.4,1.1-1.1,1.1Z" transform="translate(-10.4 -5.8)"/><path class="m" d="M20.4,141l1.3-1.2a4.1,4.1,0,0,0,.7,1.1Z" transform="translate(-10.4 -5.8)"/><path class="h" d="M107.3,155.1l-.7-.2v-.3a3.1,3.1,0,0,0,.5-1l.5,1.3Z" transform="translate(-10.4 -5.8)"/><path class="m" d="M23.4,141.9l-1-.9Z" transform="translate(-10.4 -5.8)"/><path class="h" d="M107.5,154.9l.3.5-.5-.3Z" transform="translate(-10.4 -5.8)"/><path class="n" d="M73.5,53.8,72,55.1l-3.6,1c-6.1-6-12.1-12.1-18.1-18.2.5-2,1-4,1.6-6Z" transform="translate(-10.4 -5.8)"/><path class="r" d="M52.1,31.2l-1-.2c-6.3-1.7-9.1-4.9-8.8-10.1a8.9,8.9,0,0,1,7.9-8.2c5-.7,8.4,2,10.4,8.3l-1.3,2.6-4.4,4Z" transform="translate(-10.4 -5.8)"/><path class="s" d="M59.3,23.6,60.6,21l3.2-1.1c.7,1.4,1.1,2.9,2.1,4L84.6,43c-.1.6-.1,1.2-.2,1.8l-3,2.1-4.3-4.8Z" transform="translate(-10.4 -5.8)"/><path class="s" d="M52.1,31.2l2.8-3.6c1.2,1.4,2.4,2.8,3.7,4.1L77.2,50.9l-2.8,3.2-.9-.3L51.9,31.9A1.9,1.9,0,0,1,52.1,31.2Z" transform="translate(-10.4 -5.8)"/><path class="t" d="M103.3,101.9c4.9-7.5,12.3-7.4,21-6.6-3.6,6.9-6.8,13.3-10,19.7l-.8,1.2-1,1.9c-.1-.7-.1-1.4-.2-2.1v-1.1c.9-2.2,2-4.6-2-4.9h0c-.8-3.6-.5-8-6-8Z" transform="translate(-10.4 -5.8)"/><path class="u" d="M91.3,98l1.2,2.5c-1.3,2.4-2.3,6.8-4,7-3.5.6-8.2,3.8-11.2-1.5-.3-1.3-.6-2.6-1-3.9l7-4.8Z" transform="translate(-10.4 -5.8)"/><path class="u" d="M106.5,130.3a.6.6,0,0,1-.1.7l-.8,1.2h0a61.3,61.3,0,0,1-7.2-2.5,33.5,33.5,0,0,1-5.2-3.9l1.1-5.8,2.1-4.1C100.9,120,107.2,122.7,106.5,130.3Z" transform="translate(-10.4 -5.8)"/><path class="s" d="M91.3,98l-8-.7-7,4.8-1.6-1.3L74.3,98c-.6-4.4.7-6.7,5.7-6.2,1.7.1,3.6-1.9,5.7-3.1l2.9,1.2Z" transform="translate(-10.4 -5.8)"/><path class="v" d="M106.5,130.3c.7-7.6-5.6-10.3-10.1-14.3a11.5,11.5,0,0,1,.1-1.9l1.8-2.3h-.1l2.1-4.1h-.1c.7.6,1.7,1,2,1.8,1.9,4.5,5,7,10.1,6.4.1.7.1,1.4.2,2.1h0c-.7,1.5-1.4,2.9-2,4.4S107.8,127.7,106.5,130.3Z" transform="translate(-10.4 -5.8)"/><path class="v" d="M53.1,95.1l2.4,6.8L46.1,104l-6.8,2-3-9,2.8-.9,3,.7C45.9,97.3,50,99.3,53.1,95.1Z" transform="translate(-10.4 -5.8)"/><path class="w" d="M70.2,126c-1.5,5.5-4.9,8.3-10.8,8.1-3.4-.2-6.7-.1-11-.1l.9-7.8,5-5.2v6.1c3.3,1,5.6,2,8,2.2s3.4-.8,5.1-1.3Z" transform="translate(-10.4 -5.8)"/><path class="v" d="M77.3,106c3,5.3,7.7,2.1,11.2,1.5,1.7-.2,2.7-4.6,4-7,.8,2.1,1.6,4.3,2.5,6.5-.9,1.6-1.7,3.3-2.6,5h0l-10.2,8-4.8-11C77.4,108,77.3,107,77.3,106Z" transform="translate(-10.4 -5.8)"/><path class="u" d="M70.2,126l-2.8,2a18.4,18.4,0,0,0-2.7-3.4c-2.7-2.3-5.6-4.5-8.4-6.7l1.1-3.9c1.8.4,3.5.7,5.2,1.2l9.7,2.8v2.2Z" transform="translate(-10.4 -5.8)"/><path class="w" d="M88.6,89.9l-2.9-1.2c-2.1,1.2-4,3.2-5.7,3.1-5-.5-6.3,1.8-5.7,6.2l-2-1L70.2,85.8c4.6-.2,9.2-.8,13.7-.3C85.6,85.7,87,88.4,88.6,89.9Z" transform="translate(-10.4 -5.8)"/><path class="x" d="M39.3,106l6.8-2,9.4-2.1c.6,2.4,1.3,4.8,1.9,7.2l-16,2.9Z" transform="translate(-10.4 -5.8)"/><path class="y" d="M41.4,112l16-2.9.7.9c-.2,1.3-.4,2.6-.7,4s-.7,2.6-1.1,3.9L54.4,120v-2c-3.4-3.9-7.3-2.2-11.1-.8Z" transform="translate(-10.4 -5.8)"/><path class="z" d="M53.1,95.1c-3.1,4.2-7.2,2.2-11,1.7-.2-3.9-.5-7.9-.7-11.8l.8.2,1.2,1.6,1.2-.7h1.8l.5,5.7,1.5.3c.7-1.5,1.4-2.9,2-4.4Z" transform="translate(-10.4 -5.8)"/><path class="w" d="M94.3,120.1l-1.1,5.8a33.5,33.5,0,0,0,5.2,3.9,61.3,61.3,0,0,0,7.2,2.5c-.3.5-.6,1.4-.9,1.4-6.1-.1-12.2-.4-18.2-.6l6-11.1Z" transform="translate(-10.4 -5.8)"/><path class="v" d="M57.4,114c.3-1.4.5-2.7.7-4h1l1.2-2.1h-.1c1.2.3,3.1.2,3.6,1,2.8,4.2,6.5,2.5,10.3,1.9l.4,4.4h0l-.9,1.3h.2L72.3,118l-9.7-2.8C60.9,114.7,59.2,114.4,57.4,114Z" transform="translate(-10.4 -5.8)"/><path class="l" d="M41.4,85c.2,3.9.5,7.9.7,11.8l-3-.8L34.6,81.9a18.4,18.4,0,0,1,2.2-1.7l4-1.3c0,1.5.1,3,.2,4.4A5.3,5.3,0,0,0,41.4,85Z" transform="translate(-10.4 -5.8)"/><path class="x" d="M74.5,115.1l-.4-4.4c-3.8.6-7.5,2.3-10.3-1.9-.5-.8-2.4-.7-3.6-1,1-2.6,2.1-5.2,3.2-7.8a1.9,1.9,0,0,1,.2.8c1.2,1.6,2.1,3.8,3.7,4.7s6.2,2.5,9.4,3.7C75.9,111.1,75.2,113.1,74.5,115.1Z" transform="translate(-10.4 -5.8)"/><path class="j" d="M94.3,120.1,92.5,122c-4.4-.1-6.3,2.7-7.4,6.3-.8-2-1.6-4.1-2.3-6.1,4.6-1.1,9.1-5.9,9.6-10.2h0l4.1,2.1a11.5,11.5,0,0,0-.1,1.9Z" transform="translate(-10.4 -5.8)"/><path class="x" d="M112.3,116c-5.1.6-8.2-1.9-10.1-6.4-.3-.8-1.3-1.2-2-1.8s1.3-2.7,2-4.1c2.1,2.9,3.7,6.5,8.2,6.3h0c.7,1.6,1.3,3.3,2,4.9Z" transform="translate(-10.4 -5.8)"/><path class="t" d="M76.7,109.2c-3.2-1.2-6.5-2-9.4-3.7s-2.5-3.1-3.7-4.7l11.1,2.9v-2.9l1.6,1.3c.4,1.3.7,2.6,1,3.9s.1,2,.1,3l-.3.2Z" transform="translate(-10.4 -5.8)"/><path class="k" d="M54.3,118a14.1,14.1,0,0,1,.1,2c0,.3-.1.7-.1,1l-5,5.2c-4.5.2-4.7-3.1-5.1-6.2Z" transform="translate(-10.4 -5.8)"/><path class="g" d="M74.7,100.8v2.9l-11.1-2.9a1.9,1.9,0,0,0-.2-.8c.6-1.4,1.1-2.8,1.7-4.1L72.3,97l2,1C74.4,99,74.6,99.9,74.7,100.8Z" transform="translate(-10.4 -5.8)"/><path class="w" d="M34.6,81.9,39.1,96l-2.8,1L32.1,85.3c-.5-1.5-1.1-2.9-1.6-4.3a1.7,1.7,0,0,1,0-1l3.6.9Z" transform="translate(-10.4 -5.8)"/><path class="aa" d="M72.3,97l-7.2-1.1,5.1-10.1Z" transform="translate(-10.4 -5.8)"/><path class="y" d="M92.4,112c-.5,4.3-5,9.1-9.6,10.2l-.6-2.2Z" transform="translate(-10.4 -5.8)"/><path class="n" d="M110.4,110c-4.5.2-6.1-3.4-8.2-6.3a.9.9,0,0,1,.3-.7l1.9-1C109.9,102,109.6,106.4,110.4,110Z" transform="translate(-10.4 -5.8)"/><path class="ab" d="M46.4,86.1H44.6c-.5-2.9-1-5.8-1.4-8.8-.1-1,.5-2.2.7-3.3,1.1.6,2.5.9,3,1.8s.9,2.8,1.3,4.2Z" transform="translate(-10.4 -5.8)"/><path class="aa" d="M85.1,128.3c1.1-3.6,3-6.4,7.4-6.3l-6,11.1C86,131.5,85.5,129.9,85.1,128.3Z" transform="translate(-10.4 -5.8)"/><path class="i" d="M46.4,86.1,48.2,80c.7,2.6,1.5,5.1,2.2,7.7s-1.3,2.9-2,4.4l-1.5-.3C46.7,89.9,46.6,88,46.4,86.1Z" transform="translate(-10.4 -5.8)"/><path class="g" d="M54.3,118l-10.1,2c-.4-.9-.7-1.9-1-2.8C47,115.8,50.9,114.1,54.3,118Z" transform="translate(-10.4 -5.8)"/><path class="y" d="M96.5,114.1,92.4,112c.9-1.7,1.7-3.4,2.6-5l3.3,4.8Z" transform="translate(-10.4 -5.8)"/><path class="ab" d="M34.1,80.9,30.5,80l1.9-2Z" transform="translate(-10.4 -5.8)"/><path class="x" d="M100.3,107.8l-2.1,4.1Z" transform="translate(-10.4 -5.8)"/><path class="ab" d="M30.5,81c.5,1.4,1.1,2.8,1.6,4.3C31.6,83.8,31,82.4,30.5,81Z" transform="translate(-10.4 -5.8)"/><path class="x" d="M110.5,122.4c.6-1.5,1.3-2.9,2-4.4C111.8,119.5,111.1,120.9,110.5,122.4Z" transform="translate(-10.4 -5.8)"/><path class="x" d="M72.3,118l1.5-1.8c-.5,1.3-.9,2.6-1.4,4C72.4,119.4,72.3,118.7,72.3,118Z" transform="translate(-10.4 -5.8)"/><path class="x" d="M104.4,102l-1.9,1,.8-1.1Z" transform="translate(-10.4 -5.8)"/><path class="ab" d="M43.4,86.8l-1.2-1.6Z" transform="translate(-10.4 -5.8)"/><path class="x" d="M60.3,107.8l-1.2,2.1Z" transform="translate(-10.4 -5.8)"/><path class="v" d="M113.5,116.2l.8-1.2Z" transform="translate(-10.4 -5.8)"/><path class="x" d="M73.6,116.3l.9-1.3Z" transform="translate(-10.4 -5.8)"/><path class="w" d="M105.6,132.2l.8-1.2Z" transform="translate(-10.4 -5.8)"/><path class="r" d="M74.4,54.1l2.8-3.2,4.2-4,3-2.1c2.7,2.2,6.3,3.9,7.8,6.7,2.2,4.3-.9,9.7-5.3,11.2a9.1,9.1,0,0,1-11.5-5.3A31.8,31.8,0,0,1,74.4,54.1Z" transform="translate(-10.4 -5.8)"/><path class="n" d="M81.4,46.9l-4.2,4L58.6,31.7c-1.3-1.3-2.5-2.7-3.7-4.1l4.4-4L77.1,42.1Z" transform="translate(-10.4 -5.8)"/><path class="n" d="M112.4,114.9c-.7-1.6-1.3-3.3-2-4.9C114.4,110.3,113.3,112.7,112.4,114.9Z" transform="translate(-10.4 -5.8)"/><path class="s" d="M54.3,121c0-.3.1-.7.1-1l1.9-2.1c2.8,2.2,5.7,4.4,8.4,6.7a18.4,18.4,0,0,1,2.7,3.4c-1.7.5-3.5,1.5-5.1,1.3s-4.7-1.2-8-2.2Z" transform="translate(-10.4 -5.8)"/></svg>