<svg xmlns="http://www.w3.org/2000/svg" width="499.6" height="176.7" viewBox="0 0 499.6 176.7"><path d="M378.5,627.9c-38.8,2.8-87.8-30.8-88.2-87.9-.4-49.1,39.6-88.7,89-88.7s88.1,39.9,88,88.7C467.1,595,419.8,630.8,378.5,627.9Z" transform="translate(-290.3 -451.3)"/><path d="M514.8,478.8c-2.6,11.8-5.2,23.6-7.7,35.4l-.6,2.4c-1.1,5-5.5,7.3-10.4,5.6-1.5-.6-1.3-1.8-1.5-2.8-3.2-16.7-6.3-33.4-9.4-50-.3-1.5-.8-3.5,1.7-3s6.4-2.4,7.2,2.7c2,12.6,4.2,25.2,6.3,37.9,1.5-.2,1.2-1.6,1.4-2.5,2.4-11.1,5-22.1,7-33.2.8-4.1,2.5-5.1,6.5-5.2s5.6,1.5,6.4,5.4c2.3,12,5,24,8.2,35.9,2.1-12.4,4.2-24.9,6.2-37.3.5-3.1,6.2-5.4,8.8-3.5s.4,1.8.2,2.6c-3.1,16.9-6.1,33.7-9.3,50.5-.8,4.5-4.5,1.8-6.9,2.4s-4.1-.4-4.7-3.4c-2.7-13.3-5.7-26.6-8.5-39.9Z" transform="translate(-290.3 -451.3)"/><path d="M608,614.4c-3.8-.2-7.8-.3-11.4-2.2-7-3.6-7.7-11.7-1.3-16.2,1.9-1.3,3.1-2,1.1-4.2a3,3,0,0,1-.5-2.8c3.6-4.7-.3-8-1.8-11.9-4.1-11.5,2.8-20.5,15.2-19.8,5.3.3,10.6.9,15.9.8,1.3,0,3-.4,2.9,1.7s1,3.9-1.9,4.3-2.8,1.6-2.4,4.1c1.5,11.7-4.1,17.5-16,17.3-1.6-.1-3.8-1.2-4.1,1.3s2.3,2.3,3.9,2.6c3.9.6,7.9,1,11.8,1.5s8,2.3,9.1,7.2a11.5,11.5,0,0,1-5,12.6C618.9,613.7,613.6,614.2,608,614.4Z" transform="translate(-290.3 -451.3)"/><path d="M719.9,614.4c-4-.2-8-.4-11.6-2.3-6.9-3.5-7.6-11.8-1.2-16.1,2-1.3,3.1-2.1,1.1-4.2a3,3,0,0,1-.5-2.8c3.2-4.5.1-7.7-1.6-11.6-4.7-11.3,2.5-20.8,15-20.1,5.3.3,10.6.9,15.9.8,1.3,0,3-.5,2.9,1.7s1.1,3.8-1.9,4.3-2.9,1.3-2.4,4.1c1.8,11.3-4.1,17.6-15.8,17.3-1.8-.1-4.2-1.2-4.4,1.6s2.6,2,4.2,2.3c3.7.6,7.5,1,11.3,1.5s8.3,2.2,9.4,7.3a11.3,11.3,0,0,1-5.1,12.5C730.6,613.7,725.3,614.2,719.9,614.4Z" transform="translate(-290.3 -451.3)"/><path d="M692.9,503.1c0-4.8,0-9.7.1-14.5,0-1.2-.8-3,.7-3.6s3.4-1,4.5.7,1.8,1.2,3.2.6c5.8-2.9,11.7-3.9,17.4.2,1.4,1,2.1.1,3.1-.4a23.2,23.2,0,0,1,8.2-2.2c9-.5,13.5,3.4,13.6,12.4.1,7.3-.2,14.7.1,22,.1,3.7-1.8,3.6-4.3,3.5s-4.6.5-4.5-3.4c.3-7.1,0-14.3.2-21.4.1-4.3-1.7-6.4-5.9-5.9s-7.4.2-6.9,6-.1,14.3.2,21.5c.2,4-2.4,3.1-4.6,3.2s-4.2.3-4-3.2c.2-7.1-.1-14.3.1-21.5.1-4.1-1.4-6.4-5.8-6s-7.4.3-7.1,5.9c.4,7.2-.1,14.4.2,21.5.2,3.9-2.2,3.2-4.5,3.3s-4.2.2-4-3.2C693.2,513.4,692.9,508.3,692.9,503.1Z" transform="translate(-290.3 -451.3)" fill="#010101"/><path d="M763.5,579.9a62.6,62.6,0,0,1-7.5-.1c-4.2-.5-3.9,1.8-2.9,4.4s3.6,3.9,6.3,4.3,6.9-.2,10.4-.7c1.3-.2,3.4-2.3,3.7.6s1.4,5.2-2.2,6.2c-5.7,1.5-11.5,2.2-17.2.5-7.6-2.3-10.8-9.2-10.2-21,.6-9.8,4.4-15,12.2-16.4,13.3-2.6,22.2,6.9,19.1,20.2-.4,1.8-1.3,2-2.7,2C769.5,579.8,766.5,579.9,763.5,579.9Z" transform="translate(-290.3 -451.3)" fill="#010101"/><path d="M672.1,566.5c-.8-7.7-.8-7.7,6.3-8.7a23,23,0,0,1,4.5-.5c11.4-.6,15.9,3.7,15.9,15,0,6.5-.2,13,.1,19.5.1,4.3-3.3,4.3-4.6,2.9s-3.4-1.2-5.3-.3a17.9,17.9,0,0,1-12.7.9c-4.8-1.6-7.4-5.2-7.5-10.6s1.6-9,6.6-11.1,7.1-1.4,10.7-1.8c1.6-.2,4.1.7,4.2-2.2s-1.4-4.4-4.1-4.8C681.4,564.1,676.7,565.2,672.1,566.5Z" transform="translate(-290.3 -451.3)" fill="#010101"/><path d="M685.1,506.9c0,3.9-.2,7.7.1,11.5s-3.4,4.4-4.5,2.9c-2.4-3.2-3.9-.9-5.7-.2-10,4.2-19.3-.4-19.8-9.8-.3-6.1,2.5-10.2,8.6-11.7,3-.8,6.2-.9,9.3-1.4,1.4-.3,3.7,1,3.8-1.8s-1-4.3-3.4-4.9-7.6-.1-11.3.5c-1.3.2-3.4,2.6-3.8-.3s-1.8-5.3,1.8-6.4c6.1-1.7,12.4-2.3,18.6-.1,4.2,1.5,6.1,4.9,6.3,9.3s0,8.3,0,12.4Z" transform="translate(-290.3 -451.3)" fill="#010101"/><path d="M548.4,580.3v11.5c-.1,3.3-2.9,5-4.9,2.6s-2.5-1.2-3.9-.4a18.8,18.8,0,0,1-10.7,1.9c-6.1-.7-9.8-4.3-10.3-10.2s2.1-11.1,8.4-12.7c2.9-.8,5.9-.7,8.9-1.2s4,.9,4.2-2.1-1.2-4.4-4-4.8a30.3,30.3,0,0,0-10.8.6c-1.2.2-3.3,2.3-3.6-.2s-1.9-5.3,1.7-6.4c6.5-2,13-2.6,19.5.1,3.7,1.7,5.3,5,5.4,8.9s0,8.3,0,12.4Z" transform="translate(-290.3 -451.3)" fill="#010101"/><path d="M580.2,503.3c0,1.3,0,2.7-.1,4-.6,10.2-5.8,15.2-15.9,15.3s-15.6-4.9-16.3-15.3a54.5,54.5,0,0,1-.1-7c.8-13,8.4-18.8,21.2-16,5,1.1,8.6,4,10.1,9.1A33.5,33.5,0,0,1,580.2,503.3Z" transform="translate(-290.3 -451.3)"/><path d="M663.6,576.6v15c0,3.4-2.8,5.2-4.8,2.9s-3.2-1.2-4.8-.4a19.8,19.8,0,0,1-9.2,1.9c-8.2-.2-11.9-3.9-12-12s.2-15-.1-22.5c-.1-3.8,1.9-3.4,4.3-3.4s4.4-.1,4.2,3.5c-.3,7,.1,14-.1,21-.1,4.5,2.1,6.3,6.4,6.3,6-.2,7.7-1.6,7.7-6.4,0-7,.3-14-.1-20.9-.1-3.8,1.8-3.5,4.3-3.5s4.5-.2,4.3,3.5S663.6,571.6,663.6,576.6Z" transform="translate(-290.3 -451.3)" fill="#010101"/><path d="M556.1,576.5c0-5,0-10,.1-15,0-1.2-.8-2.9,1.1-3.3s3.2-.7,3.7.5c1.5,3,3,1.3,4.7.5a21.1,21.1,0,0,1,10.2-1.9c7.7.7,11,4.2,11.1,11.9s-.2,14.7.1,22c.1,3.4-1,4.2-4.2,4s-4.6,0-4.4-3.8c.4-6.8,0-13.7.1-20.5.1-4.4-1.7-6.4-6.2-6.4s-7.6,1.4-7.7,6.2c0,6.5-.1,13,.1,19.5.1,3.1.1,5-4.2,5.1s-4.6-2.1-4.5-5.3S556.1,581,556.1,576.5Z" transform="translate(-290.3 -451.3)" fill="#010101"/><path d="M608.2,507c0-3.5-.2-7,0-10.5s0-5.3-4-4.6c-1.4.3-2.7,0-2.6-2s-.4-3.6,2.1-3.8c4.2-.3,4.6-2.8,4.6-6.5-.2-11,7.4-16.5,18.2-13.8,3.8.9,2,3.6,2.2,5.6s-1.8,1.5-3.1,1.5c-3.4.1-7.3-.6-8.6,3.9s-.2,7.9,5.9,7.9c2.4,0,4.4-.3,4.4,3.4s-1.6,4.3-4.4,3.8c-5-.8-6.6.9-6.2,6,.5,6.8-.1,13.7.2,20.5.2,3.8-2,3.4-4.4,3.4s-4.7.5-4.4-3.4S608.2,510.8,608.2,507Z" transform="translate(-290.3 -451.3)" fill="#010101"/><path d="M484.8,567.4c0-8,.3-16-.1-24-.2-4.3,2.2-3.3,4.6-3.6s4,.5,4,3.8c-.3,13.1,0,26.3-.2,39.4-.1,3.5.8,4.7,4.3,4.5,5.5-.3,11,.1,16.5-.2,3.6-.2,3,2.1,3.1,4.2s.1,3.8-3,3.7c-8.6-.2-17.3-.2-26,0-2.6.1-3.3-.8-3.3-3.4C484.9,583.7,484.8,575.5,484.8,567.4Z" transform="translate(-290.3 -451.3)" fill="#010101"/><path d="M586.4,491.2c0-7,.2-14-.1-20.9-.1-3.6,1.3-4.1,4.3-4.1s4.5.2,4.4,3.9c-.2,13.1-.1,26.2,0,39.4,0,2.1-.8,4.3,2.2,5.9s1.1,4.1.4,6-2.7.7-4.1.5c-5-.7-6.9-4.2-7-8.8-.1-7.3-.1-14.6-.1-21.9Z" transform="translate(-290.3 -451.3)" fill="#040404"/><path d="M631.1,503V488.1c.1-3.3,2.8-5,5-2.6s2.9,1,4.4.3a20.4,20.4,0,0,1,7.7-2c4-.4,5.3,1.2,4.9,5.1-.2,2-.8,2.5-2.7,2.3a15.1,15.1,0,0,0-3-.1c-7,.4-7.7,1.2-7.7,8.2s-.3,12.7.1,19c.1,3.6-1.8,3.6-4.3,3.5s-4.7.5-4.5-3.3S631.1,508.2,631.1,503Z" transform="translate(-290.3 -451.3)" fill="#030303"/><path d="M772.5,550.9a10.7,10.7,0,0,1,7.9-.2c-5.1,1.3-2.1,5.5-4.1,8.1C773.6,556.6,777.2,552.1,772.5,550.9Z" transform="translate(-290.3 -451.3)" fill="#2e2e2e"/><path d="M787,553c-.1-1-.3-2.1,1.3-2s1.6.2,1.6,1.3v6c-2-.8-1-2.1-1.1-3.1S787.3,554,787,553Z" transform="translate(-290.3 -451.3)"/><path d="M787.3,555.2c-.2,1.1-.6,2.7-1.6,2.7s-1.4-2.6-2.5-3.7a1,1,0,0,1-.5-.4,1.8,1.8,0,0,1,1.3-2,2.2,2.2,0,0,1,.9,2.1C785.6,554.5,786.9,554.1,787.3,555.2Z" transform="translate(-290.3 -451.3)" fill="#161616"/><path d="M783.2,554.2l-1.1,4.9c-1.2-3.4-1.4-5.6-.2-7.9,1,.6.5,1.7.9,2.6S783,554.1,783.2,554.2Z" transform="translate(-290.3 -451.3)" fill="#161616"/><path d="M787.3,555.2c-.9-.2-1.9-.2-2.4-1.3,1.1.6,1.4-.6,2.1-.9s2.2.7,1.8,2.2Z" transform="translate(-290.3 -451.3)" fill="#242424"/><path d="M782.8,553.8c-1.1-.6-.7-1.7-.9-2.6s1.7-.6,2.1.6Z" transform="translate(-290.3 -451.3)" fill="#090909"/><path d="M407.2,614.7c-34.6,13.5-70.2-.1-90.1-23.6a4.7,4.7,0,0,1-1.2-4.5c4.4-18,8.4-36.2,15.9-53.4,2.8-6.4,6.2-12.5,11.4-17.4,3.1-2.9,4.1-7.2,5.6-11,3.1-7.7,5.4-15.7,10.4-22.5a21.7,21.7,0,0,1,6.5-6.7,92.1,92.1,0,0,1,6.1,19.8c2.5,13.7,9.4,23.9,20.3,32.4s23.3,19.2,36.6,26.6c3.4,1.9,5.1,5.1,4.6,8.6s-6,7.3-9.5,7c-17.9-1.8-35.8-3.5-53.6-5.4-8.4-1-16.6-1.3-25.6.4,2.2-5.9,5.8-10.2,9.6-14.3-3.2-2.7-7.2-3.2-10.5-5.1a16.3,16.3,0,0,0,.9-1.9c.4-.9,2.1-1.6,1.1-2.9s-2.5,0-3.5.6c-3.2,1.9-6.7,3.6-8.7,7.3,3.2,2.1,8.6,1.3,9.5,4.4s-3.2,5.7-4.6,8.9c-4.1,9.2-3.7,9.9,6.2,8.8,11.5-1.2,22.9-.3,34.4.3,2.1.1,2.8,1.3,3.7,2.7Z" transform="translate(-290.3 -451.3)" fill="#fefefe"/><path d="M426.8,576.8c7.6-1.8,9.7-9.1,14.3-14.1s2.5-5.6-1.6-8.2c-12.7-8-25.2-16.5-36.5-26.6-.9-1.5-2-2.8-3.9-2.9h0c-1.2-1.8-1.1-3.8-1-5.8.4-6.6.6-13.3.5-19.3-.6,2.3.7,5.4-.7,8.3-.6-9.2-1.1-18.5-1.9-27.7-.1-1.5,1.2-3.9-1.8-4.3-5.5,3.9-9.7,8.9-14.1,13.7l-3.5,3.6c-1.6-9-5.6-16.6-8.1-24.8-.4-1.5-.2-3.5-2.4-3.8s-.4-1.9-.9-2.8c1.7-1.6,3.9-1,5.9-1.1,5.6.1,11.3.2,16.9.1a70.6,70.6,0,0,1,36.1,13.8c15.2,11.4,26.4,25.6,31.4,44.2.2,1,.3,2,.5,2.9s-.4.5-.4.8a11,11,0,0,1-.2,1.8c.4-.5,0-1.3.7-1.7a65.2,65.2,0,0,1,.1,33.4,1.1,1.1,0,0,1-.6-1,3.9,3.9,0,0,0,.3,2.6c-3,14.7-10.2,26.9-20.6,37.5-3.7,3.8-8.2,6.5-11.8,10.2-1.1,1.1-2.3,1.9-3.7.1-7.2-9.2-14.5-18.4-21.8-27.5-1.4-3.1,1.1-2.5,2.5-2.8-1.4-.3-2.7.8-4.2.5s-1.3-2.2.8-2l14.2,1.9c-1.8,1.1-3.7.7-5.6.6,3.1-.2,6.2.6,9.3-.3s4.8-.3,7.1.7a1,1,0,0,1-.4.5,15,15,0,0,1-2.2.2h2.6c1.5-.1,3.1.1,4.6-.1s1-.3.3-.2Z" transform="translate(-290.3 -451.3)" fill="#dc1100"/><path d="M365.2,462.1c1,.7.8,1.8.9,2.8-9.8,9.2-16.3,20.6-21.2,32.9-2.8,6.8-5.7,13.2-10.5,18.8a78.5,78.5,0,0,0-5.2,7.6c-1,.2-1.1,1-1,1.8-7.9,14.2-13.6,29.4-19.9,44.3-1.1-.8-1.4.8-2.3.8a54.9,54.9,0,0,1-5.9-23.1c-.1-6,.3-12,.1-18,1.8-17.7,9.5-32.5,21.7-45.3,1.5.1,2.3-1.1,3.1-2,7.9-9.2,17.7-14.9,29.5-17.9C358.1,463.9,361.3,461.8,365.2,462.1Z" transform="translate(-290.3 -451.3)" fill="#dc1100"/><path d="M391.6,489.3a228.5,228.5,0,0,1-.5,28.7C377.3,511,373.8,501.2,391.6,489.3Z" transform="translate(-290.3 -451.3)" fill="#fbfbfb"/><path d="M397.9,508.2V497.3h1.2V525l-1-1.2a20.7,20.7,0,0,1-.1-9.9Z" transform="translate(-290.3 -451.3)" fill="#f81300"/><path d="M380.1,489.9c3.6-5.7,7.8-10.7,14.1-13.7C389.8,481.2,385.5,486.2,380.1,489.9Z" transform="translate(-290.3 -451.3)" fill="#ea1200"/><path d="M388,461.1a31.3,31.3,0,0,1-16.9-.1A43.7,43.7,0,0,1,388,461.1Z" transform="translate(-290.3 -451.3)" fill="#ec1200"/><path d="M300.2,530a35.4,35.4,0,0,1-.1,18,.6.6,0,0,1-.1-.8,47.7,47.7,0,0,1,0-13.6Z" transform="translate(-290.3 -451.3)" fill="#e91200"/><path d="M300,533.6v13.6A26.1,26.1,0,0,1,300,533.6Z" transform="translate(-290.3 -451.3)" fill="#dc1100"/><path d="M415,576.1c-3.2,1.8-6.6.4-9.9.1l6.2-.4Z" transform="translate(-290.3 -451.3)" fill="#ec1200"/><path d="M398,513.9c0,3.3.1,6.6.1,9.9C396.4,520.5,397.3,517.2,398,513.9Z" transform="translate(-290.3 -451.3)" fill="#dc1100"/><path d="M396.3,575.9a5.7,5.7,0,0,1,5-.5c-1.3.9-3.5.6-3.3,2.8A3.3,3.3,0,0,1,396.3,575.9Z" transform="translate(-290.3 -451.3)" fill="#f71300"/><path d="M399.1,525c2.9-1.2,3.4.8,3.9,2.9A7.1,7.1,0,0,1,399.1,525Z" transform="translate(-290.3 -451.3)" fill="#e91200"/><path d="M426.8,576.8c.2.4,2.2.4.5,1s-3.5.2-5.3.2q-.5-.3-.3-.6c.1-.2.2-.2.3-.2v-.4Z" transform="translate(-290.3 -451.3)" fill="#fb1300"/><path d="M306,571.1c.6-.8.9-2.4,2.3-.8a2.1,2.1,0,0,1-1.6,2.2C306,572.7,306.1,571.7,306,571.1Z" transform="translate(-290.3 -451.3)" fill="#f61300"/><path d="M325,482.7c-.6,1.3-.8,3.2-3.1,2A3.4,3.4,0,0,1,325,482.7Z" transform="translate(-290.3 -451.3)" fill="#ed1200"/><path d="M455.9,557.9c-1.2-1.1-1-2.4-.6-3.9,1.2.5.5,1.6.9,2.3Z" transform="translate(-290.3 -451.3)" fill="#ec1200"/><path d="M328.2,526c-.9-.5-1.1-1.2-.5-1.9s1.1-.6,1.5.1Z" transform="translate(-290.3 -451.3)" fill="#dc1100"/><path d="M456.1,522.9c-.1,1-.2,2.1-.4,3.9-.9-2.2-1-3.6.3-4.8A1.4,1.4,0,0,1,456.1,522.9Z" transform="translate(-290.3 -451.3)" fill="#ed1200"/><path d="M608.8,607.8c-1-.1-2-.1-3-.3-3.4-.5-7-1.2-6.7-5.7s4.2-5.4,7.7-5.5,6.9.9,10.3,1.4,3.2,1.2,3.5,3.1a4.4,4.4,0,0,1-1.9,4.3C615.7,607.3,612.2,607.4,608.8,607.8Z" transform="translate(-290.3 -451.3)" fill="#fbfbfb"/><path d="M616,571.6c0,4.8-2.4,7.2-7.4,7.1s-7.4-2.4-7.4-7.3,2.7-7.6,7.8-7.4S616.1,566.6,616,571.6Z" transform="translate(-290.3 -451.3)" fill="#fbfbfb"/><path d="M720.6,607.7c-6.7,0-9.9-2-9.7-5.8s4.4-6,10.1-5.3l7.4,1c1.9.3,3.6.8,3.9,3a4.6,4.6,0,0,1-2.5,5A19.6,19.6,0,0,1,720.6,607.7Z" transform="translate(-290.3 -451.3)" fill="#fbfbfb"/><path d="M713,571.4c0-4.9,2.5-7.4,7.3-7.4s7.6,2.4,7.7,7.1-2.6,7.7-7.7,7.6S713,576.3,713,571.4Z" transform="translate(-290.3 -451.3)" fill="#fbfbfb"/><path d="M759.8,573.9a18.8,18.8,0,0,1-2.4,0c-1.6-.4-4.2,1.1-4.8-1.1a6.4,6.4,0,0,1,2-6c2.8-2.7,6.3-2.9,9.6-1.1a5.7,5.7,0,0,1,2.5,6.6C765.4,576,761.7,572.8,759.8,573.9Z" transform="translate(-290.3 -451.3)" fill="#f7f7f7"/><path d="M690.3,581.4c-.2,2.9.8,5.5-2.3,6.6s-6.1,1.9-9.1-.1-2.2-3.4-1.8-5.4c1-4.5,5-4,8.4-4.7S691.2,577.8,690.3,581.4Z" transform="translate(-290.3 -451.3)" fill="#fafafa"/><path d="M676.9,508.3c.1,2.7.7,5.4-2.7,6.3s-6.2,1.9-9-.3-1.9-7.7,1.6-9c1.7-.6,3.6-.5,5.4-1C676.1,503.3,677.8,504.5,676.9,508.3Z" transform="translate(-290.3 -451.3)" fill="#fafafa"/><path d="M540.3,581c-.4,3.1.8,5.7-2.3,6.8s-6.4,2.2-9.5,0-2-3.4-1.5-5.4c1-4.5,5-3.9,8.3-4.6S541.2,577.5,540.3,581Z" transform="translate(-290.3 -451.3)" fill="#fbfbfb"/><path d="M572,503.6c-.1,9.2-2.7,12.5-9.4,11.7-4.8-.6-6.5-3.5-6.6-11.5s1.6-12.1,6.4-12.7,8.3,1.4,9.2,6.5C571.9,499.6,571.9,501.6,572,503.6Z" transform="translate(-290.3 -451.3)" fill="#fdfdfd"/><path d="M395.9,543.2c-4.2.5-6.9,3.2-10.4,1.3a25.7,25.7,0,0,0-9.3-2.8c1.2-6.1,1.9-6.5,7.8-5C388.1,537.7,391.5,540,395.9,543.2Z" transform="translate(-290.3 -451.3)" fill="#070707"/><path d="M422,577.2v.8h-3.8v-.8Z" transform="translate(-290.3 -451.3)" fill="#f41300"/></svg>