<svg id="Layer_1" data-name="Layer 1" xmlns="http://www.w3.org/2000/svg" viewBox="0 0 2500 2500"><defs><style>.cls-1{fill:#d10;}.cls-2{fill:#fff;}</style></defs><g id="Page-1"><g id="wolframLanguage"><circle id="backgroundCircle" cx="1250" cy="1250" r="1250"/><g id="background"><path id="Shape" class="cls-1" d="M2375,1250a1125,1125,0,0,1-527.8,953.3l-386.3-481.1,319.4,35.4s154,16.4,188.1,0c31.6-12.7,204.6-256.3,204.6-256.3s-495-313.2-665.4-486.1c18.9-290.5-22.8-678.1-22.8-674.3-125,125-140.1,143.9-265.1,258.8-54.3-175.5-79.5-236.1-133.8-412.8C924.2,323.2,799.2,549.2,709.6,815.7c-20.2,21.4-37.9,44.1-56.8,68.1-12.6,16.5-24,32.9-35.4,49.3-24,34.1-46.7,70.7-69.4,107.3-15.2,26.5-31.6,54.3-45.5,82.1C399,1318.2,313.1,1541.7,239.9,1742.4c0-1.2-1.3-1.2-1.3-2.5C36.6,1323.2,111.1,824.5,425.5,484.8s803-452,1234.9-282.8A1124.4,1124.4,0,0,1,2375,1250Z"/></g><path id="wolf" class="cls-2" d="M1281.6,849.7s-19-112.3-31.6-152.7c85.9-83.4,99.7-96,181.8-175.5,6.3,160.3,3.8,242.4-6.3,438.1C1377.5,910.4,1281.6,849.7,1281.6,849.7ZM907.8,1400.3s-89.6-54.3-156.5-63.2c18.9-45.4,70.7-102.3,83.3-118.7-25.3,8.9-210.9,92.2-229.8,162.9,53,12.6,103.5,30.3,154,50.5a486.1,486.1,0,0,0-118.6,271.5s294.1-45.5,515.1-16.4a24.5,24.5,0,0,0,12.6,3.8l114.9,3.7L1649,2303l2.5,5.1h-1.2c-690.7,248.7-1188.2-209.6-1295.5-370,0-1.2,1.3-2.5,1.3-3.8C452,1529,569.4,1045.5,760.1,901.5c99.7-173,127.5-428,306.8-563.1,45.5,133.8,114.9,412.9,162.9,546.7,210.9,210.9,530.3,473.5,744.9,582.1,22.8,12.6,50.6,102.2,50.6,102.2L1939.4,1678l-920.5-92.1c-20.2-1.3-41.6-2.6-61.8-2.6a1204.6,1204.6,0,0,0-190.7,19c45.5-112.4,141.4-202,141.4-202Zm298-118.7c50.5-6.3,104.8,12.6,166.7,47.9,58.1-16.4,64.4-18.9,121.2-35.3-73.2-54.3-154.1-112.4-262.6-96C1221,1226,1212.1,1253.8,1205.8,1281.6Z"/></g></g></svg>