<svg xmlns="http://www.w3.org/2000/svg" viewBox="0 0 265.77 358.67"><defs><style>.cls-1{isolation:isolate;}.cls-2{fill:#4285f4;}.cls-3{opacity:0.6;mix-blend-mode:soft-light;}.cls-4{fill:#34a853;}.cls-5{fill:#0432df;}.cls-6{fill:#fbbc04;}.cls-7{fill:#ea4335;}</style></defs><g class="cls-1"><g id="OBJECTS"><path class="cls-2" d="M529.68,273.91l33.25-25.8c1.66-1.21,3.25-2.4,4.8-3.58,1.84-1.41,3.61-2.8,5.29-4.19,24.1-19.74,32.45-37,32.45-58.71a58.8,58.8,0,0,0-.84-10q-.3-1.71-.69-3.36c-6.34-27-32-44.83-65.48-44.83-29.52,0-52.65,12.75-70.73,35.62l25,24.21C506,168.06,519.58,159,537.39,159c14.9,0,27.66,9,27.66,24.21,0,12.76-6.91,24.73-28.72,42l-67.27,52.12v31.92h138V273.91Z" transform="translate(-467.73 -123.4)"/><g class="cls-3"><path d="M570.56,273.91a93.89,93.89,0,0,0,15.78,35.37h20.73V273.91Zm34.91-92.28a57.87,57.87,0,0,0-1.53-13.4c-21.87,15.29-35.52,42.58-36.21,76.3C595.92,223,605.47,204.83,605.47,181.63Z" transform="translate(-467.73 -123.4)"/></g><path class="cls-4" d="M653,154.8c-18.77,0-35.3,6.08-48.41,16.79-18.4,15-30,39.28-31.61,68.75-.12,2.27-.19,4.58-.19,6.9a121.14,121.14,0,0,0,2.87,26.67,101,101,0,0,0,5.24,16.59,87.15,87.15,0,0,0,10.54,18.78,74.06,74.06,0,0,0,42.21,28.37c2.33.57,4.72,1.05,7.16,1.41A82.39,82.39,0,0,0,653,340c23.06,0,42.81-9.16,57-24.89,14.8-16.43,23.5-40,23.5-67.82C733.5,193.08,700.17,154.8,653,154.8Zm-40.88,92.44c0-33.58,16.92-57.54,40.88-57.54,24.21,0,40.88,24,40.88,57.54S677.25,305.06,653,305.06C629.08,305.06,612.16,280.84,612.16,247.24Z" transform="translate(-467.73 -123.4)"/><polygon class="cls-5" points="139.34 150.51 139.34 185.88 48.2 185.88 92.13 150.51 139.34 150.51"/><g class="cls-3"><path d="M607.07,296.77a77.34,77.34,0,0,0-26.13-6.27c-2.08-.15-4.19-.22-6.35-.22-21.33,0-39.33,6.66-54.49,19h71.38a74.08,74.08,0,0,0,49.37,29.78C637.77,319.86,625.27,304.81,607.07,296.77Z" transform="translate(-467.73 -123.4)"/></g><path class="cls-6" d="M562.39,444.21l33.24-25.79c25.33-18.36,37.26-34.05,41.1-52a69,69,0,0,0,1.46-14.52,56.54,56.54,0,0,0-3.86-20.86c-9-22.76-32.82-37.38-63.16-37.38-29.52,0-52.66,12.77-70.74,35.64l25,24.19c13.29-15.15,26.86-24.19,44.68-24.19,14.88,0,27.65,9,27.65,24.19,0,12.77-6.92,24.74-28.72,42l-67.28,52.12v31.91h138V444.21Z" transform="translate(-467.73 -123.4)"/><g class="cls-3"><path d="M634.33,331.08l-15.42,10.33,15.16,26.71,2.66-1.66a69,69,0,0,0,1.46-14.52A56.54,56.54,0,0,0,634.33,331.08Z" transform="translate(-467.73 -123.4)"/></g><g class="cls-3"><path d="M679.7,306.82l-46,30.83c2.33.57,4.72,1.05,7.16,1.41A82.39,82.39,0,0,0,653,340c23.06,0,42.81-9.16,57-24.89v-8.24Z" transform="translate(-467.73 -123.4)"/></g><path class="cls-7" d="M668.57,349l-30.05,18.75-15.16-26.71,52.91-35.45h30.31V482.07h-38Z" transform="translate(-467.73 -123.4)"/></g></g></svg>