<?xml version="1.0" encoding="utf-8"?>
<!-- Generator: Adobe Illustrator 25.0.0, SVG Export Plug-In . SVG Version: 6.00 Build 0)  -->
<svg version="1.1" id="Capa_1" xmlns="http://www.w3.org/2000/svg" xmlns:xlink="http://www.w3.org/1999/xlink" x="0px" y="0px"
	 viewBox="0 0 10 6.9" style="enable-background:new 0 0 10 6.9;" xml:space="preserve">
	 <defs><style>#Capa_1{fill:#fff;}</style></defs>
<g>
	<g>
		<path d="M9.6,0.7C9.3,0.2,9,0.1,8.4,0.1C7.8,0,6.3,0,5,0C3.7,0,2.2,0,1.6,0.1C1,0.1,0.7,0.2,0.4,0.7C0.1,1.1,0,2,0,3.4
			c0,0,0,0,0,0c0,0,0,0,0,0v0c0,1.5,0.1,2.3,0.4,2.8C0.7,6.7,1,6.8,1.6,6.8c0.6,0,2.1,0.1,3.4,0.1c1.3,0,2.8,0,3.4-0.1
			c0.6,0,0.9-0.1,1.2-0.6C9.9,5.7,10,4.9,10,3.4c0,0,0,0,0,0v0C10,2,9.9,1.1,9.6,0.7z M3.8,5.3V1.6l3.1,1.9L3.8,5.3z"/>
	</g>
</g>
</svg>
