<?xml version="1.0" encoding="utf-8"?>
<!-- Generator: Adobe Illustrator 25.0.0, SVG Export Plug-In . SVG Version: 6.00 Build 0)  -->
<svg version="1.1" id="Layer_1" xmlns="http://www.w3.org/2000/svg" xmlns:xlink="http://www.w3.org/1999/xlink" x="0px" y="0px"
	 viewBox="0 0 50 50" style="enable-background:new 0 0 50 50;" xml:space="preserve">
<style type="text/css">
	.st0{fill:#FFFFFF;}
</style>
<g>
	<g>
		<path class="st0" d="M30.2,24.05c2.43-1.1,2.79-9.48,1.36-11.95c-1.87-3.22-10.77-2.58-13.58-0.27c-0.32,1.14-0.29,3.22-0.27,4.87
			h8.82v0.77H17.7c0,0.01-3.93,0.02-3.93,0.02c-6.77,0-6.63,14.71,2.3,14.71c0,0,0.33-3.26,0.9-4.89
			C18.75,22.27,26.2,25.86,30.2,24.05z M20.96,15.5c-1.02,0-1.84-0.82-1.84-1.84c0-1.02,0.82-1.84,1.84-1.84
			c1.02,0,1.84,0.83,1.84,1.84C22.81,14.68,21.98,15.5,20.96,15.5z"/>
		<path class="st0" d="M33.62,17.8c0,0-0.23,3.26-0.81,4.89c-1.77,5.04-9.22,1.45-13.22,3.26c-2.43,1.1-2.79,9.48-1.36,11.95
			c1.87,3.23,10.77,2.58,13.58,0.27c0.32-1.14,0.29-3.22,0.27-4.87h-8.82v-0.77h8.82c0-0.01,4.35-0.02,4.35-0.02
			C42.67,32.51,43.23,17.8,33.62,17.8z M28.51,34.18c1.02,0,1.84,0.82,1.84,1.84c0,1.02-0.83,1.84-1.84,1.84s-1.84-0.82-1.84-1.84
			C26.67,35,27.49,34.18,28.51,34.18z"/>
	</g>
</g>
</svg>
