<?xml version="1.0" encoding="utf-8"?>
<!-- Generator: Adobe Illustrator 25.0.0, SVG Export Plug-In . SVG Version: 6.00 Build 0)  -->
<svg version="1.1" id="Layer_1" xmlns="http://www.w3.org/2000/svg" xmlns:xlink="http://www.w3.org/1999/xlink" x="0px" y="0px"
	 viewBox="0 0 50 50" style="enable-background:new 0 0 50 50;" xml:space="preserve">
<style type="text/css">
	.st0{fill:#FFFFFF;}
</style>
<path class="st0" d="M19.82,24.16c5.86,0,9.78,0,9.78,0s5.49,0.09,5.49-5.31c0-5.4,0-8.92,0-8.92s0.83-5.4-9.96-5.4
	C14.8,4.52,15.44,9,15.44,9l0.01,4.64h9.86v1.39H11.54c0,0-6.61-0.75-6.61,9.67s5.77,10.05,5.77,10.05h3.44v-4.84
	C14.14,29.93,13.95,24.16,19.82,24.16z M19.69,11.19c-0.98,0-1.77-0.79-1.77-1.77s0.79-1.77,1.77-1.77s1.77,0.79,1.77,1.77
	S20.67,11.19,19.69,11.19z"/>
<path class="st0" d="M39.85,14.76H36.4v4.84c0,0,0.19,5.77-5.68,5.77s-9.78,0-9.78,0s-5.49-0.09-5.49,5.31c0,5.4,0,8.92,0,8.92
	S14.62,45,25.42,45c10.33,0,9.69-4.48,9.69-4.48l-0.01-4.64h-9.86v-1.39h13.77c0,0,6.61,0.75,6.61-9.67
	C45.62,14.39,39.85,14.76,39.85,14.76z M30.85,38.33c0.98,0,1.77,0.79,1.77,1.77c0,0.98-0.79,1.77-1.77,1.77
	c-0.98,0-1.77-0.79-1.77-1.77C29.08,39.12,29.87,38.33,30.85,38.33z"/>
</svg>
