<svg id="Capa_1" data-name="Capa 1" xmlns="http://www.w3.org/2000/svg" viewBox="0 0 512 414"><defs><style>.cls-1{fill:#fff;}#Discord:hover .cls-1 {
    fill: var(--GoogleGreen);
}</style></defs><path class="cls-1" d="M484.6,225.1c-20.4-70.1-43.3-106.2-43.7-106.9S407.1,77.8,328.8,49L318.5,77.2c37.2,13.6,63.7,30.3,78.2,41.1-43.4-12.9-95-20.9-140.7-20.9s-97.3,8-140.7,20.9c14.5-10.8,41-27.5,78.2-41.1L183.2,49C104.9,77.8,72.4,116.6,71.1,118.2S47.7,155,27.4,225.1C7.7,292.5.3,387.7,0,391.5,1.7,394.3,42,463,151.7,463l27.8-40.3a292.1,292.1,0,0,1-88-39.7l16.6-24.9a267.5,267.5,0,0,0,295.8,0L420.5,383a292.1,292.1,0,0,1-88,39.7L360.3,463C470,463,510.2,394.3,512,391.5c-.3-3.8-7.7-99-27.4-166.4Zm-298,78.4h-30v-50h30Zm168.8,0h-30v-50h30Z" transform="translate(0 -49)"/></svg>