<?xml version="1.0" standalone="no"?>
<!DOCTYPE svg PUBLIC "-//W3C//DTD SVG 20010904//EN"
 "http://www.w3.org/TR/2001/REC-SVG-20010904/DTD/svg10.dtd">
<svg version="1.0" xmlns="http://www.w3.org/2000/svg"
 width="499.000000pt" height="499.000000pt" viewBox="0 0 499.000000 499.000000"
 preserveAspectRatio="xMidYMid meet">
<metadata>
Created by potrace 1.16, written by Peter Selinger 2001-2019
</metadata>
<g transform="translate(0.000000,499.000000) scale(0.100000,-0.100000)"
fill="#000000" stroke="none">
<path d="M3040 4639 c-25 -4 -85 -19 -135 -34 -49 -15 -103 -27 -118 -27 -15
1 -25 -3 -22 -8 3 -4 -13 -17 -35 -26 -33 -15 -38 -20 -23 -25 15 -5 11 -9
-19 -22 -36 -15 -56 -46 -22 -33 14 5 15 4 5 -8 -6 -7 -25 -16 -42 -20 -21 -4
-29 -11 -26 -20 4 -10 -4 -12 -34 -10 -21 1 -43 5 -49 9 -5 3 -16 0 -24 -7 -8
-7 -27 -23 -43 -35 -16 -12 -45 -37 -63 -55 -20 -19 -35 -27 -38 -20 -2 7 -8
9 -13 6 -6 -3 -5 -12 3 -22 7 -10 9 -14 4 -10 -11 9 -107 -113 -101 -129 2 -6
-3 -14 -11 -17 -8 -3 -14 -19 -14 -36 0 -16 -5 -30 -11 -30 -6 0 -9 -6 -6 -12
2 -7 -2 -17 -8 -23 -26 -22 -49 -157 -50 -300 -1 -77 -5 -150 -9 -163 -7 -20
-5 -22 16 -17 23 6 83 -17 72 -27 -10 -10 50 -49 68 -45 12 4 18 0 18 -12 0
-9 9 -22 20 -29 18 -11 20 -10 21 10 0 13 3 17 6 10 3 -9 12 -4 29 15 21 25
31 28 97 31 73 4 159 -11 154 -27 -3 -11 49 -57 86 -77 15 -8 27 -19 27 -24 0
-5 8 -11 18 -14 9 -3 31 -18 47 -32 40 -35 142 -104 153 -104 5 0 19 -11 31
-24 l23 -25 -37 -15 c-21 -9 -43 -16 -50 -16 -7 0 -27 -18 -45 -40 -18 -22
-41 -40 -51 -40 -11 0 -19 -7 -19 -15 0 -8 -4 -15 -10 -15 -5 0 -10 -7 -10
-15 0 -9 -7 -18 -15 -21 -8 -4 -15 -13 -15 -20 0 -8 -7 -17 -15 -20 -8 -4 -12
-10 -9 -15 3 -6 1 -16 -6 -24 -7 -9 -8 -15 0 -20 6 -4 7 -12 1 -24 -11 -20 17
-152 40 -189 12 -19 11 -26 -3 -49 -9 -16 -27 -30 -39 -31 -17 -3 -19 -6 -8
-13 10 -6 11 -9 1 -9 -7 0 -17 -12 -22 -26 -6 -14 -15 -22 -20 -19 -6 4 -2 -9
7 -29 11 -21 22 -31 28 -25 14 14 28 11 21 -6 -4 -10 1 -15 15 -15 16 0 20 6
18 28 -4 50 1 60 34 73 17 6 48 18 67 26 45 17 83 18 144 4 45 -11 51 -10 72
10 13 13 24 17 24 11 0 -7 -4 -12 -10 -12 -5 0 -10 -5 -10 -12 0 -6 11 -2 23
11 20 18 28 20 50 12 15 -6 27 -15 27 -20 0 -11 -22 -29 -35 -30 -9 0 -22 -30
-24 -58 -1 -6 26 -22 59 -35 37 -14 60 -29 60 -38 -1 -19 -24 -50 -39 -50 -6
0 -21 -16 -33 -35 -21 -32 -33 -39 -66 -38 -7 1 -11 -5 -8 -12 6 -15 -11 -22
-64 -24 -19 -1 -38 -7 -42 -14 -5 -8 -8 -7 -8 5 0 14 -6 16 -30 12 -23 -5 -30
-3 -30 10 0 9 -5 16 -11 16 -16 0 -82 32 -97 47 -7 7 -20 13 -28 13 -8 0 -12
4 -9 10 3 5 0 7 -8 4 -18 -6 -32 12 -17 21 5 3 10 14 10 23 0 12 -3 13 -12 4
-14 -14 -42 -16 -33 -3 3 5 1 12 -4 15 -5 3 -11 0 -14 -8 -3 -7 -28 -19 -56
-26 -28 -7 -51 -16 -51 -21 0 -5 -11 -9 -25 -9 -15 0 -25 -6 -25 -15 0 -9 -6
-12 -15 -9 -10 4 -15 0 -15 -13 0 -21 20 -54 58 -95 16 -17 23 -34 19 -47 -3
-12 -1 -21 3 -21 5 0 8 -9 7 -19 -1 -18 -3 -18 -30 -4 -16 8 -31 13 -33 10 -5
-4 125 -99 196 -142 105 -65 275 -193 315 -237 24 -26 46 -48 50 -48 13 0 194
-140 203 -157 5 -10 8 -31 6 -48 -1 -16 -3 -36 -3 -43 -1 -10 -6 -10 -22 -2
-15 8 -34 8 -70 1 -62 -14 -72 -14 -64 -1 4 6 -14 10 -46 10 -62 0 -172 31
-253 72 -73 37 -156 99 -151 114 2 6 -4 11 -13 10 -10 0 -16 5 -14 13 3 16
-27 53 -38 46 -4 -3 -14 3 -21 13 -13 15 -12 16 4 3 22 -17 24 4 3 28 -8 9
-27 29 -41 45 -15 16 -56 76 -91 133 -137 221 -198 300 -219 283 -7 -6 -26 -7
-44 -4 -24 5 -31 3 -31 -9 0 -8 -3 -23 -7 -33 -5 -13 -3 -16 10 -11 11 4 14 2
10 -9 -3 -7 0 -14 6 -14 6 0 11 -11 11 -25 0 -16 -6 -25 -16 -25 -14 0 -14 3
-4 15 10 12 9 15 -5 15 -13 0 -16 -6 -13 -25 6 -28 -4 -32 -24 -12 -18 20 -51
9 -45 -14 4 -14 0 -19 -14 -19 -10 0 -19 -5 -19 -11 0 -6 7 -9 15 -6 17 7 30
-9 15 -18 -6 -4 -8 -11 -4 -16 3 -5 0 -16 -6 -24 -14 -17 -5 -35 16 -35 11 0
13 -6 9 -19 -4 -14 0 -21 12 -24 14 -4 14 -5 -4 -6 -12 0 -24 -5 -28 -11 -8
-12 -54 5 -72 28 -12 16 -13 16 -6 -2 5 -14 3 -17 -7 -11 -10 6 -12 -1 -8 -29
6 -49 -7 -45 -27 8 -12 30 -22 43 -31 39 -8 -3 -14 1 -15 8 0 8 -5 3 -10 -10
-7 -18 -6 -27 3 -33 8 -5 -2 -8 -25 -8 -21 0 -36 -4 -33 -9 3 -5 -1 -12 -10
-15 -10 -4 -13 -2 -8 6 5 8 -1 9 -22 4 -16 -4 -32 -12 -35 -18 -4 -6 -13 -7
-20 -2 -12 6 -12 5 0 -9 7 -9 21 -17 31 -17 9 0 17 -6 17 -14 0 -10 -10 -13
-34 -10 -18 2 -33 0 -33 -5 0 -5 -8 -12 -17 -14 -17 -4 -17 -5 -1 -6 11 -1 15
-6 12 -16 -4 -8 -11 -12 -16 -9 -6 4 -8 -2 -3 -15 6 -21 -8 -30 -20 -11 -10
17 -25 11 -25 -10 0 -11 -4 -20 -10 -20 -5 0 -10 5 -10 11 0 6 -10 9 -22 7
-15 -2 -24 -11 -26 -26 -3 -17 -10 -23 -25 -22 -35 3 -62 -10 -72 -33 -9 -19
-17 -22 -56 -19 -26 2 -50 -1 -53 -7 -5 -7 -1 -8 11 -4 16 6 16 5 4 -11 -10
-11 -22 -15 -37 -12 -18 5 -22 3 -18 -9 4 -8 2 -15 -4 -15 -6 0 -12 6 -15 13
-3 9 -7 9 -19 -1 -11 -8 -18 -9 -22 -3 -4 6 -13 8 -21 4 -8 -3 -15 0 -15 6 0
6 -12 11 -26 11 -21 0 -24 -3 -19 -21 6 -18 4 -21 -12 -17 -11 3 -28 1 -37 -4
-10 -6 -16 -5 -16 2 0 19 -35 10 -59 -15 -20 -21 -29 -24 -64 -18 -31 5 -38 3
-32 -7 5 -8 4 -11 -3 -6 -6 4 -19 3 -29 -3 -10 -5 -36 -17 -58 -27 -22 -11
-43 -23 -46 -28 -4 -5 -12 -5 -18 -2 -6 4 -11 3 -11 -2 0 -5 -10 -12 -21 -15
-15 -4 -20 -11 -15 -22 4 -12 1 -15 -12 -11 -12 4 -26 -2 -38 -15 -10 -11 -33
-27 -51 -34 -18 -8 -33 -19 -33 -24 0 -6 -7 -11 -15 -11 -8 0 -15 -5 -15 -10
0 -6 -11 -20 -25 -32 -39 -33 -131 -198 -126 -225 1 -7 -2 -13 -7 -13 -9 0
-26 -52 -37 -120 -4 -19 -9 -43 -11 -52 -11 -37 17 -16 37 28 12 25 28 48 36
51 7 3 13 11 13 19 0 8 5 14 11 14 5 0 7 5 3 12 -5 8 -2 9 10 5 12 -5 19 0 26
17 9 24 76 73 86 63 3 -3 -4 -11 -16 -17 -12 -6 -19 -18 -16 -25 2 -7 -2 -19
-9 -25 -8 -7 -12 -16 -9 -21 3 -5 1 -9 -5 -9 -5 0 -15 -16 -22 -35 -8 -22 -18
-34 -26 -30 -8 2 -19 -6 -25 -20 -6 -14 -15 -25 -19 -25 -4 0 -11 -14 -14 -31
-5 -23 -9 -28 -16 -18 -6 10 -9 6 -9 -13 0 -16 -4 -28 -10 -28 -5 0 -7 8 -4
18 5 14 4 15 -5 2 -6 -8 -8 -23 -5 -34 4 -12 2 -16 -5 -12 -6 4 -12 1 -12 -6
-1 -7 -3 -20 -4 -28 -3 -31 -17 -49 -32 -43 -10 4 -14 2 -10 -4 9 -15 -6 -53
-31 -79 -12 -12 -18 -25 -14 -28 3 -4 1 -10 -6 -14 -6 -5 -13 -17 -15 -27 -1
-11 -5 -24 -8 -30 -4 -5 -9 -26 -13 -47 -4 -20 -14 -39 -22 -42 -13 -5 -15
-17 -10 -64 4 -31 8 -95 10 -142 2 -47 8 -98 15 -113 6 -16 9 -32 6 -37 -9
-15 17 -23 27 -9 7 10 8 6 5 -14 l-4 -27 1403 0 c772 0 1404 3 1404 8 0 4 -5
23 -10 42 -11 38 -30 146 -35 197 -2 17 -6 40 -9 50 -3 10 -8 34 -11 53 -3 19
-9 37 -14 40 -4 3 -13 31 -20 64 -7 32 -24 80 -37 106 -13 26 -24 55 -24 65 0
9 -13 47 -30 85 -16 38 -30 74 -30 81 0 22 43 -50 87 -146 22 -49 54 -119 71
-155 16 -36 44 -100 62 -143 18 -43 34 -76 37 -74 10 10 -106 276 -233 537
-84 172 -152 328 -182 417 -47 137 -48 141 -24 125 21 -14 20 -9 -11 32 -21
27 -40 64 -43 87 -4 22 -11 42 -15 45 -11 7 -41 76 -35 81 2 2 14 -12 26 -32
13 -20 25 -33 29 -28 11 15 31 13 25 -2 -4 -8 -1 -15 5 -15 6 0 11 -7 11 -15
0 -8 8 -15 18 -16 9 0 12 -3 5 -5 -17 -7 5 -54 26 -54 9 0 23 -5 31 -11 12 -8
10 -9 -8 -4 -22 6 -23 5 -13 -14 7 -12 8 -21 4 -22 -4 0 2 -4 14 -9 14 -6 21
-15 17 -23 -3 -8 1 -17 9 -20 7 -3 42 -56 77 -118 34 -63 70 -122 79 -133 9
-10 15 -21 13 -25 -4 -10 49 -61 64 -61 8 0 13 -5 11 -12 -1 -7 8 -17 21 -23
12 -5 25 -18 28 -27 3 -10 10 -18 15 -18 5 0 9 -7 9 -15 0 -8 9 -20 20 -27 11
-7 20 -20 20 -28 0 -8 9 -34 20 -57 14 -31 23 -41 35 -37 12 5 13 10 4 20 -6
7 -11 29 -12 49 -1 19 -5 35 -9 35 -4 0 -13 20 -19 45 -6 25 -15 45 -19 45
-16 0 -41 33 -36 47 3 8 2 12 -3 9 -11 -7 -21 17 -21 51 0 17 -4 23 -14 20 -9
-4 -12 0 -9 12 2 10 -3 23 -11 30 -9 8 -16 18 -16 23 0 5 -13 23 -30 41 -16
18 -30 26 -30 19 0 -18 -48 15 -55 39 -4 10 -13 19 -21 19 -8 0 -14 4 -14 9 0
5 -20 30 -45 57 -25 26 -45 54 -45 63 0 10 3 12 8 6 4 -6 22 -21 40 -34 31
-22 35 -22 50 -7 15 15 15 17 -3 31 -11 8 -15 15 -9 15 5 0 19 -8 30 -18 11
-9 41 -36 66 -59 27 -25 53 -40 61 -37 9 3 24 -7 37 -23 l22 -28 -7 28 c-10
37 2 34 42 -10 18 -21 33 -33 33 -27 0 6 -7 17 -15 24 -8 7 -15 16 -15 21 0
17 21 9 47 -19 14 -15 29 -26 33 -25 4 1 6 -7 3 -17 -3 -11 0 -20 6 -20 6 0
11 -7 11 -16 0 -8 5 -12 10 -9 6 3 10 -2 10 -11 0 -9 11 -32 25 -50 14 -18 25
-36 25 -41 0 -5 13 -35 29 -68 42 -86 61 -150 68 -222 6 -62 3 -69 -29 -64
-14 2 -21 -75 -14 -173 6 -94 24 -453 26 -503 0 -19 6 -23 34 -23 38 0 38 -1
56 92 6 32 8 62 5 68 -4 6 -8 122 -10 259 -2 193 -6 254 -18 277 -8 16 -17 72
-21 125 -3 52 -13 122 -22 155 -15 57 -22 67 -93 120 -11 9 -12 15 -4 25 16
22 21 64 7 76 -7 8 -10 31 -8 65 4 48 3 51 -9 30 -20 -34 -27 -17 -21 52 4 42
16 80 39 124 19 37 32 73 29 85 -2 12 -11 63 -20 112 -8 50 -19 99 -25 111 -8
16 -4 41 19 110 16 49 39 123 51 164 22 75 24 77 121 165 54 50 99 94 99 99 1
5 -7 2 -17 -7 -25 -23 -35 -21 -27 6 6 20 25 65 32 76 2 2 13 -4 25 -15 19
-17 21 -17 15 -1 -4 9 -2 17 5 17 15 0 88 67 81 74 -4 3 4 14 15 25 12 10 22
21 22 24 0 3 16 33 35 68 23 40 38 81 41 113 10 105 13 122 23 161 6 22 11 57
11 78 0 20 4 37 9 37 5 0 11 12 14 28 3 15 12 46 21 70 13 33 15 61 10 123 -6
68 -5 79 9 79 10 0 18 -14 22 -41 l7 -41 19 41 c16 36 22 41 51 41 40 0 67 15
53 29 -14 13 -77 17 -95 6 -13 -8 -13 -6 -1 8 7 9 22 17 32 17 11 0 19 7 19
15 0 8 5 14 11 13 30 -7 75 277 65 409 -3 34 -13 77 -23 95 -9 18 -16 36 -15
41 1 4 -4 7 -12 7 -8 0 -18 5 -22 12 -4 6 -3 8 4 4 6 -4 12 4 14 21 2 19 8 28
20 27 24 -2 32 48 19 118 -3 18 -124 137 -134 131 -6 -3 -7 -1 -3 5 4 7 -6 24
-22 39 -86 83 -124 115 -173 144 -30 18 -74 47 -99 65 -61 43 -251 129 -325
148 -66 16 -285 26 -355 15z m-352 -221 c-2 -7 -12 -20 -23 -30 -27 -23 -13
-22 36 3 23 11 43 18 46 16 2 -3 -5 -8 -16 -12 -12 -3 -21 -11 -21 -17 0 -5 7
-7 16 -4 8 3 12 2 9 -4 -12 -20 24 -9 55 16 17 15 33 25 35 22 7 -7 -112 -98
-148 -113 -20 -8 -39 -20 -42 -26 -5 -7 -2 -8 11 0 11 5 42 19 69 31 28 12 58
26 67 31 13 7 16 5 12 -6 -4 -8 -12 -15 -20 -15 -8 0 -14 -4 -14 -10 0 -5 -9
-10 -21 -10 -13 0 -18 -4 -13 -12 5 -8 2 -9 -10 -5 -10 4 -39 -4 -70 -18 -29
-14 -56 -25 -59 -25 -14 0 63 68 91 81 29 12 61 49 43 49 -4 0 -20 -9 -34 -20
-14 -11 -29 -20 -33 -20 -4 0 7 11 26 25 40 30 29 33 -17 5 -18 -11 -33 -17
-33 -14 0 4 -8 0 -17 -7 -15 -12 -16 -12 -10 4 6 15 3 17 -16 12 -21 -6 -21
-6 3 15 19 15 20 19 6 13 -14 -5 -17 -3 -11 7 5 9 4 11 -4 6 -6 -4 -9 -12 -6
-17 4 -5 -1 -9 -10 -9 -9 0 -34 -9 -56 -21 -23 -11 -43 -18 -46 -15 -3 3 6 11
21 17 14 7 26 15 26 19 0 12 54 32 94 36 22 2 49 10 60 18 26 19 27 19 24 4z
m58 -529 c-36 -29 -28 -33 18 -9 37 18 66 18 66 -2 0 -7 5 -6 14 1 16 13 49 4
40 -11 -4 -7 0 -7 12 0 24 12 84 4 84 -12 0 -8 11 -11 30 -8 18 3 30 0 30 -7
0 -6 10 -11 21 -11 16 0 20 -5 16 -20 -3 -11 -1 -20 4 -20 5 0 9 7 9 15 0 8 5
15 10 15 6 0 10 -4 10 -10 0 -5 7 -7 16 -3 14 5 12 8 -7 19 -24 13 -24 13 7
14 38 0 54 -27 23 -38 -17 -7 -15 -10 21 -26 40 -18 66 -48 55 -66 -3 -5 -22
-12 -43 -16 -20 -4 -40 -11 -43 -17 -4 -5 -29 -11 -57 -12 -27 -2 -65 -10 -83
-18 -19 -7 -47 -18 -63 -23 -22 -7 -30 -16 -33 -39 -2 -16 -8 -32 -14 -33 -5
-2 -6 -8 -3 -13 4 -7 -16 -8 -54 -3 -66 7 -116 -1 -107 -16 4 -6 30 -7 63 -4
49 5 55 4 41 -7 -9 -8 -19 -21 -22 -29 -4 -12 -6 -11 -6 3 -1 23 -17 22 -24
-3 -7 -27 -37 -25 -100 7 -46 23 -64 27 -154 27 -57 1 -107 6 -113 12 -7 7 7
29 49 72 64 67 135 178 101 157 -14 -9 -12 8 3 24 10 12 8 13 -8 7 -17 -5 -18
-4 -4 6 9 7 14 19 12 26 -3 6 0 12 5 12 6 0 13 -6 16 -12 3 -7 4 -4 1 7 -3 14
3 23 22 33 15 6 32 12 37 12 6 0 23 7 39 14 15 8 27 11 27 5 0 -5 5 -9 11 -9
5 0 7 5 3 12 -4 6 -3 8 4 4 6 -3 13 -2 17 4 3 5 11 10 17 10 6 0 -1 -10 -16
-21z m589 -608 c-5 -16 -2 -18 15 -14 11 3 23 9 26 14 6 11 44 -12 44 -27 0
-6 15 -17 33 -25 31 -13 32 -16 30 -67 -2 -58 -24 -101 -54 -109 -10 -3 -19
-9 -19 -13 0 -4 -12 -12 -26 -19 -22 -10 -32 -9 -58 7 -26 14 -39 16 -76 8
-25 -5 -47 -12 -50 -16 -3 -4 -17 -10 -32 -14 -21 -5 -30 -1 -42 16 -18 25
-21 74 -6 83 6 4 8 10 5 15 -3 5 4 18 16 29 27 25 17 42 -21 34 -32 -6 -88 15
-110 42 -16 20 -3 20 73 0 70 -18 137 -20 137 -3 0 6 3 9 6 5 4 -3 29 12 58
33 28 22 52 40 54 40 2 0 1 -9 -3 -19z"/>
<path d="M3123 1666 c2 -33 -18 -47 -27 -18 -7 21 -47 37 -56 23 -3 -5 -16
-12 -30 -16 -27 -9 -52 -30 -44 -38 4 -3 -11 -9 -31 -13 -30 -5 -34 -9 -21
-16 9 -5 15 -12 12 -16 -2 -4 21 -7 52 -7 34 0 69 -7 87 -16 17 -9 41 -20 55
-24 22 -7 23 -6 11 9 -12 14 -11 16 5 16 33 0 66 -12 55 -20 -6 -3 8 -5 31 -4
63 2 72 3 87 13 12 8 12 11 0 23 -11 13 -16 13 -27 2 -11 -11 -19 -10 -46 8
-18 12 -33 29 -32 37 1 10 -8 16 -26 16 -15 1 -31 5 -35 10 -4 4 1 5 12 1 19
-6 19 -5 -1 11 -12 10 -24 25 -27 33 -4 8 -5 2 -4 -14z"/>
<path d="M3445 1523 c3 -21 8 -57 11 -79 3 -24 2 -44 -4 -48 -7 -4 -10 5 -10
21 0 36 -20 89 -30 77 -18 -21 -33 -85 -24 -97 14 -16 42 -97 42 -120 0 -10
11 -46 24 -80 13 -34 37 -95 52 -135 18 -46 31 -68 36 -60 9 15 9 16 12 -132
2 -72 8 -117 19 -142 10 -22 16 -60 16 -91 -1 -30 1 -59 5 -65 3 -6 2 -13 -3
-17 -7 -4 -7 -15 -1 -31 14 -37 13 -426 -2 -461 -6 -15 -11 -31 -10 -35 1 -5
-3 -8 -8 -8 -6 0 -10 -4 -10 -10 0 -5 9 -10 20 -10 14 0 21 10 27 38 13 61 8
648 -6 722 -7 36 -12 82 -11 102 2 72 -40 240 -79 321 -21 42 -35 77 -31 77 4
0 6 30 4 68 -2 37 -4 67 -4 67 -1 0 -3 11 -6 25 l-4 25 20 -25 c11 -14 20 -20
20 -13 0 14 -32 77 -42 81 -5 2 -8 17 -8 32 0 16 -5 32 -10 35 -6 4 -8 -8 -5
-32z"/>
<path d="M3570 1237 c0 -2 4 -28 10 -58 5 -30 16 -124 24 -209 19 -194 36
-330 43 -350 4 -8 5 -21 4 -29 -1 -7 2 -10 7 -7 6 3 10 -4 10 -17 0 -12 14
-69 32 -127 53 -175 60 -203 60 -237 0 -18 7 -52 15 -75 8 -24 16 -62 17 -83
l3 -40 83 -3 82 -3 -6 63 c-3 35 -12 88 -20 119 -8 31 -21 91 -29 135 -27 142
-133 484 -185 599 -17 39 -47 113 -67 165 -19 52 -39 107 -45 122 -5 15 -16
29 -24 32 -8 3 -14 4 -14 3z"/>
</g>
</svg>
